<mxfile host="app.diagrams.net" agent="Mozilla/5.0 (Windows NT 10.0; Win64; x64) AppleWebKit/537.36 (KHTML, like Gecko) Chrome/134.0.0.0 Safari/537.36" version="26.2.12">
  <diagram name="Page-1" id="qQqfcDvoe5TUJYAE3Akn">
    <mxGraphModel dx="1847" dy="-103" grid="1" gridSize="10" guides="1" tooltips="1" connect="1" arrows="1" fold="1" page="1" pageScale="1" pageWidth="850" pageHeight="1100" math="0" shadow="0">
      <root>
        <mxCell id="0" />
        <mxCell id="1" parent="0" />
        <mxCell id="6SOhbdRmg-bUomSC-oUc-1" value="" style="rounded=0;whiteSpace=wrap;html=1;" vertex="1" parent="1">
          <mxGeometry x="680" y="1180" width="1135" height="970" as="geometry" />
        </mxCell>
        <mxCell id="6SOhbdRmg-bUomSC-oUc-41" value="&lt;h1 style=&quot;margin-top: 0px;&quot;&gt;&lt;font face=&quot;Lucida Console&quot; style=&quot;font-size: 40px;&quot;&gt;COMPUTE AGGREGATE LAYER&lt;/font&gt;&lt;/h1&gt;" style="text;html=1;whiteSpace=wrap;overflow=hidden;rounded=0;" vertex="1" parent="1">
          <mxGeometry x="975" y="1250" width="580" height="60" as="geometry" />
        </mxCell>
        <mxCell id="6SOhbdRmg-bUomSC-oUc-44" value="" style="group;fillColor=none;" vertex="1" connectable="0" parent="1">
          <mxGeometry x="1150" y="1583" width="230" height="176" as="geometry" />
        </mxCell>
        <mxCell id="6SOhbdRmg-bUomSC-oUc-45" value="" style="rounded=1;whiteSpace=wrap;html=1;fillColor=#FFFFFF;strokeColor=light-dark(#e74040, #ededed);labelBorderColor=none;fontColor=#FFFFFF;shadow=1;" vertex="1" parent="6SOhbdRmg-bUomSC-oUc-44">
          <mxGeometry width="229.99999999999997" height="176" as="geometry" />
        </mxCell>
        <mxCell id="6SOhbdRmg-bUomSC-oUc-48" value="cv" style="shape=image;verticalLabelPosition=bottom;labelBackgroundColor=default;verticalAlign=top;aspect=fixed;imageAspect=0;editableCssRules=.*;image=data:image/svg+xml,PHN2ZyB4bWxuczp4bGluaz0iaHR0cDovL3d3dy53My5vcmcvMTk5OS94bGluayIgeG1sbnM9Imh0dHA6Ly93d3cudzMub3JnLzIwMDAvc3ZnIiBmaWxsPSJub25lIiB2aWV3Qm94PSIwIDAgMTA5IDMyIiBoZWlnaHQ9IjMyIiB3aWR0aD0iMTA5Ij4mI3hhOzxyZWN0IGZpbGw9InVybCgjcGF0dGVybjBfMjIwMV8xMjA5KSIgaGVpZ2h0PSIzMiIgd2lkdGg9IjMyIi8+JiN4YTs8cGF0aCBmaWxsPSIjMjQyNTMyIiBkPSJNNzEuMjc4NyAxMy43OTYzQzcwLjUyOTYgMTMuNzk2MyA2OS44NzUzIDEzLjYxODEgNjkuMzE2MSAxMy4yNjE2QzY4Ljc2NzQgMTIuOTA1MSA2OC4zNDUzIDEyLjQwODIgNjguMDQ5OSAxMS43NzA4QzY3Ljc1NDQgMTEuMTMzNSA2Ny42MDY3IDEwLjQwNDMgNjcuNjA2NyA5LjU4MzMzQzY3LjYwNjcgOC43NjIzNSA2Ny43NTQ0IDguMDMzMTggNjguMDQ5OSA3LjM5NTgzQzY4LjM0NTMgNi43NTg0OSA2OC43NzI3IDYuMjYxNTcgNjkuMzMxOSA1LjkwNTA5QzY5Ljg5MTIgNS41NDg2MSA3MC41NTA3IDUuMzcwMzcgNzEuMzEwNCA1LjM3MDM3QzcxLjgwNjMgNS4zNzAzNyA3Mi4yNjUzIDUuNDcyOTkgNzIuNjg3NCA1LjY3ODI0QzczLjEyIDUuODgzNDkgNzMuNDYzIDYuMTUzNTUgNzMuNzE2MiA2LjQ4ODQzVjJINzUuNjQ3MlYxMy42NjY3SDczLjcxNjJWMTIuNjQ1OEM3My40NzM1IDEyLjk5MTUgNzMuMTMwNiAxMy4yNzI0IDcyLjY4NzQgMTMuNDg4NEM3Mi4yNTQ4IDEzLjY5MzcgNzEuNzg1MiAxMy43OTYzIDcxLjI3ODcgMTMuNzk2M1pNNzEuNjc0NCAxMi4wNzg3QzcyLjEwNyAxMi4wNzg3IDcyLjQ4MTYgMTEuOTc2MSA3Mi43OTgyIDExLjc3MDhDNzMuMTI1MyAxMS41NjU2IDczLjM3ODUgMTEuMjczOSA3My41NTc5IDEwLjg5NThDNzMuNzM3MyAxMC41MTc3IDczLjgyNyAxMC4wODAyIDczLjgyNyA5LjU4MzMzQzczLjgyNyA4LjgyNzE2IDczLjYzMTggOC4yMjIyMiA3My4yNDE0IDcuNzY4NTJDNzIuODUxIDcuMzE0ODEgNzIuMzMzOSA3LjA4Nzk2IDcxLjY5MDMgNy4wODc5NkM3MS4yNTc2IDcuMDg3OTYgNzAuODc3OCA3LjE5MDU5IDcwLjU1MDcgNy4zOTU4M0M3MC4yMzQxIDcuNjAxMDggNjkuOTg2MSA3Ljg5Mjc1IDY5LjgwNjggOC4yNzA4M0M2OS42Mjc0IDguNjQ4OTIgNjkuNTM3NyA5LjA4NjQyIDY5LjUzNzcgOS41ODMzM0M2OS41Mzc3IDEwLjMzOTUgNjkuNzMyOSAxMC45NDQ0IDcwLjEyMzMgMTEuMzk4MUM3MC41MTM3IDExLjg1MTkgNzEuMDMwOCAxMi4wNzg3IDcxLjY3NDQgMTIuMDc4N1oiIGNsaXAtcnVsZT0iZXZlbm9kZCIgZmlsbC1ydWxlPSJldmVub2RkIi8+JiN4YTs8cGF0aCBmaWxsPSIjMjQyNTMyIiBkPSJNNzkuMDEwNyAxMy4xOTY4Qzc5LjYyMjcgMTMuNTk2NSA4MC4zNTA4IDEzLjc5NjMgODEuMTk0OSAxMy43OTYzQzgyLjE4NjggMTMuNzk2MyA4My4wMjA0IDEzLjUzNyA4My42OTU3IDEzLjAxODVDODQuMzgxNiAxMi41IDg0Ljc5ODQgMTEuODA4NiA4NC45NDYxIDEwLjk0NDRIODMuMDQ2OEM4Mi45NTE4IDExLjMzMzMgODIuNzQwOCAxMS42MzA0IDgyLjQxMzcgMTEuODM1NkM4Mi4wOTcxIDEyLjA0MDkgODEuNjkwOSAxMi4xNDM1IDgxLjE5NDkgMTIuMTQzNUM4MC43NTE3IDEyLjE0MzUgODAuMzYxMyAxMi4wMzU1IDgwLjAyMzcgMTEuODE5NEM3OS42OTY2IDExLjYwMzQgNzkuNDQzMyAxMS4zMDA5IDc5LjI2MzkgMTAuOTEyQzc5LjE0MTcgMTAuNjM5NyA3OS4wNjExIDEwLjMzNzIgNzkuMDIyMiAxMC4wMDQ2SDg0Ljg4MjhDODQuOTAzOSA5Ljc4ODU4IDg0LjkxNDQgOS41NTYzMyA4NC45MTQ0IDkuMzA3ODdDODQuOTE0NCA4LjYyNzMyIDg0Ljc3MiA3Ljk4OTk3IDg0LjQ4NzEgNy4zOTU4NEM4NC4yMDIyIDYuODAxNyA4My43Njk2IDYuMzE1NTkgODMuMTg5MiA1LjkzNzVDODIuNjA4OSA1LjU1OTQyIDgxLjg5NjYgNS4zNzAzNyA4MS4wNTI1IDUuMzcwMzdDODAuMjE4OSA1LjM3MDM3IDc5LjUwNjYgNS41NjQ4MiA3OC45MTU3IDUuOTUzNzFDNzguMzM1NCA2LjM0MjYgNzcuODkyMiA2Ljg1NTcxIDc3LjU4NjIgNy40OTMwNkM3Ny4yOTA4IDguMTMwNCA3Ny4xNDMgOC44MTYzNiA3Ny4xNDMgOS41NTA5M0M3Ny4xNDMgMTAuMjg1NSA3Ny4zMDEzIDEwLjk3NjkgNzcuNjE3OSAxMS42MjVDNzcuOTQ1IDEyLjI3MzIgNzguNDA5MiAxMi43OTcxIDc5LjAxMDcgMTMuMTk2OFpNNzkuMDcwNyA4LjY0MzUyQzc5LjEwOTYgOC40MzkxNyA3OS4xNjM1IDguMjUwMTMgNzkuMjMyMyA4LjA3NjM5Qzc5LjM5MDYgNy42NzY3IDc5LjYyMjcgNy4zNzk2MyA3OS45Mjg3IDcuMTg1MTlDODAuMjQ1MyA2Ljk3OTk0IDgwLjYxOTkgNi44NzczMiA4MS4wNTI1IDYuODc3MzJDODEuNjIyMyA2Ljg3NzMyIDgyLjA3NiA3LjAzOTM1IDgyLjQxMzcgNy4zNjM0M0M4Mi43NTEzIDcuNjg3NSA4Mi45MzYgOC4xMTQyIDgyLjk2NzYgOC42NDM1Mkg3OS4wNzA3WiIgY2xpcC1ydWxlPSJldmVub2RkIiBmaWxsLXJ1bGU9ImV2ZW5vZGQiLz4mI3hhOzxwYXRoIGZpbGw9IiMyNDI1MzIiIGQ9Ik04Ni40NzQ2IDUuNDk5OTlIODguNDIxNFY2Ljk0MjEyQzg4LjYxMTMgNi40MjM2IDg4Ljg2OTggNi4wNTYzMiA4OS4xOTY5IDUuODQwMjdDODkuNTI0IDUuNjEzNDIgODkuOTQ2MSA1LjQ5OTk5IDkwLjQ2MzEgNS40OTk5OUg5MS4zOTdWNy4xNjg5N0g5MC4xNDY2Qzg5LjU0NTEgNy4xNjg5NyA4OS4xMDcyIDcuNDA2NjMgODguODMyOSA3Ljg4MTk0Qzg4LjU1ODUgOC4zNDY0NCA4OC40MjE0IDguOTg5MTkgODguNDIxNCA5LjgxMDE4VjEzLjY2NjdIODYuNDc0NlY1LjQ5OTk5WiIvPiYjeGE7PHBhdGggZmlsbD0iIzI0MjUzMiIgZD0iTTEwNS42NzYgMTkuNUgxMDQuMDYyVjIzLjQwNTFIMTA0Ljk5NlYyMi4wMjc4SDEwNS41NUMxMDUuNjk3IDIyLjAyNzggMTA1LjgwMyAyMi4wNjU2IDEwNS44NjYgMjIuMTQxMkMxMDUuOTQgMjIuMjE2OCAxMDUuOTg3IDIyLjM0NjQgMTA2LjAwOSAyMi41MzAxTDEwNi4xMDQgMjMuNDA1MUgxMDcuMDIyTDEwNi45MTEgMjIuMzUxOEMxMDYuODkgMjIuMTU3NCAxMDYuODQ3IDIyLjAwMDggMTA2Ljc4NCAyMS44ODE5QzEwNi43MjEgMjEuNzUyMyAxMDYuNjIxIDIxLjY0NDMgMTA2LjQ4MyAyMS41NTc5QzEwNi42NDIgMjEuNDkzIDEwNi43NjggMjEuMzg1IDEwNi44NjMgMjEuMjMzOEMxMDYuOTU4IDIxLjA3MTcgMTA3LjAwNiAyMC44ODI3IDEwNy4wMDYgMjAuNjY2N0MxMDcuMDA2IDIwLjMxMDIgMTA2Ljg5IDIwLjAyOTMgMTA2LjY1NyAxOS44MjQxQzEwNi40MjUgMTkuNjA4IDEwNi4wOTggMTkuNSAxMDUuNjc2IDE5LjVaTTEwNS45NjEgMjEuMDg4QzEwNS44NzcgMjEuMTYzNiAxMDUuNzU1IDIxLjIwMTQgMTA1LjU5NyAyMS4yMDE0SDEwNC45OTZWMjAuMzQyNkgxMDUuNTk3QzEwNS43NTUgMjAuMzQyNiAxMDUuODc3IDIwLjM4MDQgMTA1Ljk2MSAyMC40NTZDMTA2LjA0NiAyMC41MzE2IDEwNi4wODggMjAuNjM0MiAxMDYuMDg4IDIwLjc2MzlDMTA2LjA4OCAyMC45MDQzIDEwNi4wNDYgMjEuMDEyMyAxMDUuOTYxIDIxLjA4OFoiIGNsaXAtcnVsZT0iZXZlbm9kZCIgZmlsbC1ydWxlPSJldmVub2RkIi8+JiN4YTs8cGF0aCBmaWxsPSIjMjQyNTMyIiBkPSJNMTAzLjYzNCAyNC42NjlDMTA0LjE3MyAyNC45NzE0IDEwNC43ODUgMjUuMTIyNyAxMDUuNDcgMjUuMTIyN0MxMDYuMTQ2IDI1LjEyMjcgMTA2Ljc1MiAyNC45NzE0IDEwNy4yOTEgMjQuNjY5QzEwNy44MjkgMjQuMzU1NyAxMDguMjQ2IDIzLjkyMzYgMTA4LjU0MSAyMy4zNzI3QzEwOC44NDcgMjIuODIxNyAxMDkgMjIuMTk1MiAxMDkgMjEuNDkzQzEwOSAyMC44MDE3IDEwOC44NDcgMjAuMTgwNSAxMDguNTQxIDE5LjYyOTZDMTA4LjI0NiAxOS4wNzg3IDEwNy44MjkgMTguNjUyIDEwNy4yOTEgMTguMzQ5NUMxMDYuNzUyIDE4LjAzNjMgMTA2LjE0NiAxNy44Nzk2IDEwNS40NyAxNy44Nzk2QzEwNC43ODUgMTcuODc5NiAxMDQuMTczIDE4LjAzNjMgMTAzLjYzNCAxOC4zNDk1QzEwMy4xMDcgMTguNjUyIDEwMi42OSAxOS4wNzg3IDEwMi4zODQgMTkuNjI5NkMxMDIuMDc4IDIwLjE4MDUgMTAxLjkyNSAyMC44MDE3IDEwMS45MjUgMjEuNDkzQzEwMS45MjUgMjIuMTk1MiAxMDIuMDc4IDIyLjgyMTcgMTAyLjM4NCAyMy4zNzI3QzEwMi42OSAyMy45MjM2IDEwMy4xMDcgMjQuMzU1NyAxMDMuNjM0IDI0LjY2OVpNMTA2Ljg0NyAyMy45MDc0QzEwNi40NDYgMjQuMTQ1MSAxMDUuOTg3IDI0LjI2MzkgMTA1LjQ3IDI0LjI2MzlDMTA0Ljk1MyAyNC4yNjM5IDEwNC40OTQgMjQuMTQ1MSAxMDQuMDkzIDIzLjkwNzRDMTAzLjY5MiAyMy42Njk3IDEwMy4zNzYgMjMuMzQwMyAxMDMuMTQ0IDIyLjkxOUMxMDIuOTIyIDIyLjQ5NzcgMTAyLjgxMSAyMi4wMjI0IDEwMi44MTEgMjEuNDkzQzEwMi44MTEgMjAuOTc0NSAxMDIuOTIyIDIwLjUxIDEwMy4xNDQgMjAuMDk5NUMxMDMuMzc2IDE5LjY3ODIgMTAzLjY5MiAxOS4zNDg4IDEwNC4wOTMgMTkuMTExMUMxMDQuNDk0IDE4Ljg3MzQgMTA0Ljk1MyAxOC43NTQ2IDEwNS40NyAxOC43NTQ2QzEwNS45NzcgMTguNzU0NiAxMDYuNDMxIDE4Ljg3MzQgMTA2LjgzMiAxOS4xMTExQzEwNy4yNDMgMTkuMzM4IDEwNy41NiAxOS42NjIgMTA3Ljc4MSAyMC4wODMzQzEwOC4wMTMgMjAuNDkzOCAxMDguMTI5IDIwLjk2MzcgMTA4LjEyOSAyMS40OTNDMTA4LjEyOSAyMi4wMjI0IDEwOC4wMTkgMjIuNDk3NyAxMDcuNzk3IDIyLjkxOUMxMDcuNTc2IDIzLjM0MDMgMTA3LjI1OSAyMy42Njk3IDEwNi44NDcgMjMuOTA3NFoiIGNsaXAtcnVsZT0iZXZlbm9kZCIgZmlsbC1ydWxlPSJldmVub2RkIi8+JiN4YTs8cGF0aCBmaWxsPSIjMjQyNTMyIiBkPSJNOTUuNDU0MiAyNy4xNjEyVjI5Ljg3MDRIOTMuNTA3NFYxOC4yMDM3SDk1LjQ1NDJWMjQuNjk5NUw5OC41MDg5IDIxLjcwMzdIMTAwLjk3OEw5Ny43MzA0IDI0LjkxMjNMMTAxLjI0NyAyOS44NzA0SDk4LjkwNDZMOTYuNDA5NiAyNi4yMTczTDk1LjQ1NDIgMjcuMTYxMloiLz4mI3hhOzxwYXRoIGZpbGw9IiMyNDI1MzIiIGQ9Ik04Ny40MTc0IDIxLjcwMzdIODkuMzY0MlYyMy4xNDU4Qzg5LjU1NDIgMjIuNjI3MyA4OS44MTI3IDIyLjI2IDkwLjEzOTggMjIuMDQ0QzkwLjQ2NjkgMjEuODE3MSA5MC44ODkgMjEuNzAzNyA5MS40MDYgMjEuNzAzN0g5Mi4zMzk4VjIzLjM3MjdIOTEuMDg5NEM5MC40ODggMjMuMzcyNyA5MC4wNTAxIDIzLjYxMDMgODkuNzc1NyAyNC4wODU2Qzg5LjUwMTQgMjQuNTUwMSA4OS4zNjQyIDI1LjE5MjkgODkuMzY0MiAyNi4wMTM5VjI5Ljg3MDRIODcuNDE3NFYyMS43MDM3WiIvPiYjeGE7PHBhdGggZmlsbD0iIzI0MjUzMiIgZD0iTTc5LjYwMTggMjkuNDQ5MUM4MC4yMzQ5IDI5LjgxNjQgODAuOTUyNCAzMCA4MS43NTQzIDMwQzgyLjU0NTcgMzAgODMuMjU4IDI5LjgxNjQgODMuODkxMSAyOS40NDkxQzg0LjUyNDIgMjkuMDgxOCA4NS4wMjAxIDI4LjU3OTUgODUuMzc4OSAyNy45NDIxQzg1LjczNzYgMjcuMzA0OCA4NS45MTcgMjYuNTg2NCA4NS45MTcgMjUuNzg3Qzg1LjkxNyAyNC45ODc3IDg1LjczNzYgMjQuMjY5MyA4NS4zNzg5IDIzLjYzMTlDODUuMDIwMSAyMi45OTQ2IDg0LjUyNDIgMjIuNDkyMyA4My44OTExIDIyLjEyNUM4My4yNTggMjEuNzU3NyA4Mi41NDU3IDIxLjU3NDEgODEuNzU0MyAyMS41NzQxQzgwLjk1MjQgMjEuNTc0MSA4MC4yMzQ5IDIxLjc1NzcgNzkuNjAxOCAyMi4xMjVDNzguOTY4NyAyMi40OTIzIDc4LjQ3MjcgMjIuOTk0NiA3OC4xMTQgMjMuNjMxOUM3Ny43NTUyIDI0LjI2OTMgNzcuNTc1OCAyNC45ODc3IDc3LjU3NTggMjUuNzg3Qzc3LjU3NTggMjYuNTg2NCA3Ny43NTUyIDI3LjMwNDggNzguMTE0IDI3Ljk0MjFDNzguNDcyNyAyOC41Nzk1IDc4Ljk2ODcgMjkuMDgxOCA3OS42MDE4IDI5LjQ0OTFaTTgyLjg5MzkgMjcuOTc0NUM4Mi41NjY4IDI4LjE3OTggODIuMTg3IDI4LjI4MjQgODEuNzU0MyAyOC4yODI0QzgxLjMyMTcgMjguMjgyNCA4MC45MzY2IDI4LjE3OTggODAuNTk4OSAyNy45NzQ1QzgwLjI2MTMgMjcuNzU4NSA3OS45OTc1IDI3LjQ2MTQgNzkuODA3NSAyNy4wODMzQzc5LjYyODEgMjYuNzA1MiA3OS41Mzg1IDI2LjI3MzEgNzkuNTM4NSAyNS43ODdDNzkuNTM4NSAyNS4zMDA5IDc5LjYyODEgMjQuODY4OCA3OS44MDc1IDI0LjQ5MDdDNzkuOTk3NSAyNC4xMTI3IDgwLjI2MTMgMjMuODIxIDgwLjU5ODkgMjMuNjE1N0M4MC45MzY2IDIzLjM5OTcgODEuMzIxNyAyMy4yOTE3IDgxLjc1NDMgMjMuMjkxN0M4Mi4xNzY0IDIzLjI5MTcgODIuNTU2MyAyMy4zOTk3IDgyLjg5MzkgMjMuNjE1N0M4My4yMzE2IDIzLjgyMSA4My40OTAxIDI0LjExMjcgODMuNjY5NSAyNC40OTA3QzgzLjg1OTQgMjQuODY4OCA4My45NTQ0IDI1LjMwMDkgODMuOTU0NCAyNS43ODdDODMuOTU0NCAyNi4yNzMxIDgzLjg1OTQgMjYuNzA1MiA4My42Njk1IDI3LjA4MzNDODMuNDkwMSAyNy40NjE0IDgzLjIzMTYgMjcuNzU4NSA4Mi44OTM5IDI3Ljk3NDVaIiBjbGlwLXJ1bGU9ImV2ZW5vZGQiIGZpbGwtcnVsZT0iZXZlbm9kZCIvPiYjeGE7PHBhdGggZmlsbD0iIzI0MjUzMiIgZD0iTTY1LjMxMDkgMjEuNzAzN0g2Ny4yNTc3TDY4LjcxMzkgMjcuMTY0M0w3MC4yOTY2IDIxLjcwMzdINzIuMDY5M0w3My42MzYzIDI3LjE2NDNMNzUuMTA4MiAyMS43MDM3SDc3LjAzOTJMNzQuNTA2OCAyOS44NzA0SDcyLjc4MTZMNzEuMTgzIDI0LjM3NzNMNjkuNTY4NSAyOS44NzA0SDY3Ljg1OTJMNjUuMzEwOSAyMS43MDM3WiIvPiYjeGE7PHBhdGggZmlsbD0iIzI0MjUzMiIgZD0iTTYxLjkzMjIgMjkuNTMwMUM2Mi4zNjQ4IDI5Ljc1NjkgNjIuODcxMyAyOS44NzA0IDYzLjQ1MTYgMjkuODcwNEg2NC43MzM3VjI4LjIwMTRINjMuNjczMkM2My4zMDM5IDI4LjIwMTQgNjMuMDE5IDI4LjA5MzMgNjIuODE4NSAyNy44NzczQzYyLjYxODEgMjcuNjYxMiA2Mi41MTc4IDI3LjM0OCA2Mi41MTc4IDI2LjkzNzVWMjMuMzcyN0g2NC43MzM3VjIxLjcwMzdINjIuNTE3OFYxOS4yNDA3SDYwLjU3MVYyMS43MDM3SDU5LjAwNDFWMjMuMzcyN0g2MC41NzFWMjcuMDE4NUM2MC41NzEgMjcuNjEyNiA2MC42ODcxIDI4LjEyNTggNjAuOTE5MiAyOC41NTc5QzYxLjE2MTkgMjguOTc5MiA2MS40OTk2IDI5LjMwMzIgNjEuOTMyMiAyOS41MzAxWiIvPiYjeGE7PHBhdGggZmlsbD0iIzI0MjUzMiIgZD0iTTU0LjY4NjYgMzBDNTMuODQyNSAzMCA1My4xMTQ0IDI5LjgwMDIgNTIuNTAyNCAyOS40MDA1QzUxLjkwMDkgMjkuMDAwOCA1MS40MzY3IDI4LjQ3NjkgNTEuMTA5NiAyNy44Mjg3QzUwLjc5MyAyNy4xODA2IDUwLjYzNDcgMjYuNDg5MiA1MC42MzQ3IDI1Ljc1NDZDNTAuNjM0NyAyNS4wMjAxIDUwLjc4MjQgMjQuMzM0MSA1MS4wNzc5IDIzLjY5NjhDNTEuMzgzOSAyMy4wNTk0IDUxLjgyNzEgMjIuNTQ2MyA1Mi40MDc0IDIyLjE1NzRDNTIuOTk4MyAyMS43Njg1IDUzLjcxMDYgMjEuNTc0MSA1NC41NDQyIDIxLjU3NDFDNTUuMzg4MyAyMS41NzQxIDU2LjEwMDYgMjEuNzYzMSA1Ni42ODA5IDIyLjE0MTJDNTcuMjYxMyAyMi41MTkzIDU3LjY5MzkgMjMuMDA1NCA1Ny45Nzg4IDIzLjU5OTVDNTguMjYzNyAyNC4xOTM3IDU4LjQwNjEgMjQuODMxIDU4LjQwNjEgMjUuNTExNkM1OC40MDYxIDI1Ljc2IDU4LjM5NTYgMjUuOTkyMyA1OC4zNzQ1IDI2LjIwODNINTIuNTEzOUM1Mi41NTI4IDI2LjU0MDkgNTIuNjMzNCAyNi44NDM0IDUyLjc1NTYgMjcuMTE1N0M1Mi45MzUgMjcuNTA0NiA1My4xODgzIDI3LjgwNzEgNTMuNTE1NCAyOC4wMjMxQzUzLjg1MyAyOC4yMzkyIDU0LjI0MzQgMjguMzQ3MiA1NC42ODY2IDI4LjM0NzJDNTUuMTgyNSAyOC4zNDcyIDU1LjU4ODggMjguMjQ0NiA1NS45MDUzIDI4LjAzOTRDNTYuMjMyNSAyNy44MzQxIDU2LjQ0MzUgMjcuNTM3IDU2LjUzODUgMjcuMTQ4MUg1OC40Mzc4QzU4LjI5MDEgMjguMDEyMyA1Ny44NzMzIDI4LjcwMzcgNTcuMTg3NCAyOS4yMjIyQzU2LjUxMjEgMjkuNzQwNyA1NS42Nzg1IDMwIDU0LjY4NjYgMzBaTTU2LjQ1OTMgMjQuODQ3Mkg1Mi41NjI0QzUyLjYwMTMgMjQuNjQyOSA1Mi42NTUyIDI0LjQ1MzggNTIuNzI0IDI0LjI4MDFDNTIuODgyMyAyMy44ODA0IDUzLjExNDQgMjMuNTgzMyA1My40MjA0IDIzLjM4ODlDNTMuNzM2OSAyMy4xODM2IDU0LjExMTUgMjMuMDgxIDU0LjU0NDIgMjMuMDgxQzU1LjExNCAyMy4wODEgNTUuNTY3NyAyMy4yNDMxIDU1LjkwNTMgMjMuNTY3MUM1Ni4yNDMgMjMuODkxMiA1Ni40Mjc3IDI0LjMxNzkgNTYuNDU5MyAyNC44NDcyWiIgY2xpcC1ydWxlPSJldmVub2RkIiBmaWxsLXJ1bGU9ImV2ZW5vZGQiLz4mI3hhOzxwYXRoIGZpbGw9IiMyNDI1MzIiIGQ9Ik00Mi4yNDc1IDE4LjUyNzhINDBWMjkuODcwNEg0Mi4wNzM0VjIxLjg4MTlMNDYuODg1MSAyOS44NzA0SDQ5LjEzMjZWMTguNTI3OEg0Ny4wNTkyVjI2LjUzMjRMNDIuMjQ3NSAxOC41Mjc4WiIvPiYjeGE7PHBhdGggZmlsbD0iIzI0MjUzMiIgZD0iTTYwLjcyMjkgNS41SDU4Ljc3NjFWMTMuNjY2N0g2MC43MjI5VjkuMjEwNjVDNjAuNzIyOSA4LjgxMDk2IDYwLjgwMiA4LjQ1NDQ4IDYwLjk2MDMgOC4xNDEyMUM2MS4xMTg2IDcuODI3OTMgNjEuMzM0OSA3LjU4NDg4IDYxLjYwOTIgNy40MTIwNEM2MS44OTQxIDcuMjI4NCA2Mi4yMTA3IDcuMTM2NTggNjIuNTU4OSA3LjEzNjU4QzYzLjA1NDggNy4xMzY1OCA2My40NTU4IDcuMzE0ODIgNjMuNzYxOCA3LjY3MTNDNjQuMDc4NCA4LjAxNjk4IDY0LjIzNjYgOC40NzA2OCA2NC4yMzY2IDkuMDMyNDFWMTMuNjY2N0g2Ni4xNjc2VjguNjExMTFDNjYuMTY3NiA3Ljk3Mzc3IDY2LjA0NjMgNy40MTIwNCA2NS44MDM2IDYuOTI1OTNDNjUuNTYwOSA2LjQyOTAxIDY1LjIxMjcgNi4wNDU1MyA2NC43NTg5IDUuNzc1NDdDNjQuMzA1MiA1LjUwNTQgNjMuNzg4MiA1LjM3MDM3IDYzLjIwNzggNS4zNzAzN0M2Mi42MzggNS4zNzAzNyA2Mi4xMzE1IDUuNDk0NiA2MS42ODg0IDUuNzQzMDZDNjEuMjU1NyA1Ljk4MDcxIDYwLjkzMzkgNi4zMjA5OSA2MC43MjI5IDYuNzYzODlWNS41WiIvPiYjeGE7PHBhdGggZmlsbD0iIzI0MjUzMiIgZD0iTTUzLjQ5NjQgMTMuNzk2M0M1Mi42NTIzIDEzLjc5NjMgNTEuOTI0MiAxMy41OTY1IDUxLjMxMjIgMTMuMTk2OEM1MC43MTA4IDEyLjc5NzEgNTAuMjQ2NSAxMi4yNzMyIDQ5LjkxOTQgMTEuNjI1QzQ5LjYwMjggMTAuOTc2OSA0OS40NDQ2IDEwLjI4NTUgNDkuNDQ0NiA5LjU1MDkzQzQ5LjQ0NDYgOC44MTYzNiA0OS41OTIzIDguMTMwNCA0OS44ODc3IDcuNDkzMDZDNTAuMTkzNyA2Ljg1NTcxIDUwLjYzNjkgNi4zNDI2IDUxLjIxNzMgNS45NTM3MUM1MS44MDgyIDUuNTY0ODIgNTIuNTIwNCA1LjM3MDM3IDUzLjM1NCA1LjM3MDM3QzU0LjE5ODEgNS4zNzAzNyA1NC45MTA0IDUuNTU5NDIgNTUuNDkwNyA1LjkzNzVDNTYuMDcxMSA2LjMxNTU5IDU2LjUwMzcgNi44MDE3IDU2Ljc4ODYgNy4zOTU4NEM1Ny4wNzM1IDcuOTg5OTcgNTcuMjE2IDguNjI3MzIgNTcuMjE2IDkuMzA3ODdDNTcuMjE2IDkuNTU2MzMgNTcuMjA1NCA5Ljc4ODU4IDU3LjE4NDMgMTAuMDA0Nkg1MS4zMjM3QzUxLjM2MjYgMTAuMzM3MiA1MS40NDMyIDEwLjYzOTcgNTEuNTY1NSAxMC45MTJDNTEuNzQ0OCAxMS4zMDA5IDUxLjk5ODEgMTEuNjAzNCA1Mi4zMjUyIDExLjgxOTRDNTIuNjYyOSAxMi4wMzU1IDUzLjA1MzMgMTIuMTQzNSA1My40OTY0IDEyLjE0MzVDNTMuOTkyNCAxMi4xNDM1IDU0LjM5ODYgMTIuMDQwOSA1NC43MTUyIDExLjgzNTZDNTUuMDQyMyAxMS42MzA0IDU1LjI1MzMgMTEuMzMzMyA1NS4zNDgzIDEwLjk0NDRINTcuMjQ3NkM1Ny4wOTk5IDExLjgwODYgNTYuNjgzMSAxMi41IDU1Ljk5NzIgMTMuMDE4NUM1NS4zMjE5IDEzLjUzNyA1NC40ODgzIDEzLjc5NjMgNTMuNDk2NCAxMy43OTYzWk01MS41MzM4IDguMDc2MzlDNTEuNDY1IDguMjUwMTMgNTEuNDExMiA4LjQzOTE3IDUxLjM3MjMgOC42NDM1Mkg1NS4yNjkxQzU1LjIzNzUgOC4xMTQyIDU1LjA1MjggNy42ODc1IDU0LjcxNTIgNy4zNjM0M0M1NC4zNzc1IDcuMDM5MzUgNTMuOTIzOCA2Ljg3NzMyIDUzLjM1NCA2Ljg3NzMyQzUyLjkyMTQgNi44NzczMiA1Mi41NDY4IDYuOTc5OTQgNTIuMjMwMiA3LjE4NTE5QzUxLjkyNDIgNy4zNzk2MyA1MS42OTIxIDcuNjc2NyA1MS41MzM4IDguMDc2MzlaIiBjbGlwLXJ1bGU9ImV2ZW5vZGQiIGZpbGwtcnVsZT0iZXZlbm9kZCIvPiYjeGE7PHBhdGggZmlsbD0iIzI0MjUzMiIgZD0iTTQ0LjUyNjcgMi4zMjQwOEg0MFYxMy42NjY3SDQyLjA4OTNWOS40MDUxSDQ0LjQ3OTJDNDQuODkwOCA5LjQwNTEgNDUuMjI4NCA5LjU0NTUzIDQ1LjQ5MjIgOS44MjY0QzQ1Ljc2NjYgMTAuMDk2NSA0NS45MTk2IDEwLjQ0NzUgNDUuOTUxMiAxMC44Nzk2TDQ2LjIyMDMgMTMuNjY2N0g0OC4zMDk1TDQ4LjA0MDUgMTAuNjM2NkM0Ny45NjY2IDkuNzgzMTkgNDcuNjUwMSA5LjA5MTgzIDQ3LjA5MDggOC41NjI1MUM0Ni45NjA2IDguNDM5MjUgNDYuODIxNSA4LjMzMDM0IDQ2LjY3MzUgOC4yMzU3OUM0Ny4wNzM1IDguMDE0NjggNDcuNDAyNiA3LjcyOTI5IDQ3LjY2MDYgNy4zNzk2NEM0OC4wMjk5IDYuODgyNzIgNDguMjE0NiA2LjI3Nzc5IDQ4LjIxNDYgNS41NjQ4MkM0OC4yMTQ2IDQuODk1MDcgNDguMDY2OSA0LjMxNzE0IDQ3Ljc3MTQgMy44MzEwM0M0Ny40NzYgMy4zNDQ5MiA0Ny4wNDg2IDIuOTcyMjMgNDYuNDg5NCAyLjcxMjk3QzQ1Ljk0MDcgMi40NTM3MSA0NS4yODY1IDIuMzI0MDggNDQuNTI2NyAyLjMyNDA4Wk00NS4zOTcyIDcuMzMxMDNDNDUuMTQ0IDcuNDgyMjYgNDQuODIyMiA3LjU1Nzg4IDQ0LjQzMTggNy41NTc4OEg0Mi4wODkzVjQuMTIyNjlINDQuNDMxOEM0NS4wMTIxIDQuMTIyNjkgNDUuNDQ0NyA0LjI4NDczIDQ1LjcyOTYgNC42MDg4QzQ2LjAyNTEgNC45MjIwOCA0Ni4xNzI4IDUuMzI3MTcgNDYuMTcyOCA1LjgyNDA4QzQ2LjE3MjggNi4xMzczNSA0Ni4xMDk1IDYuNDI5MDIgNDUuOTgyOSA2LjY5OTA4QzQ1Ljg1NjIgNi45NTgzNCA0NS42NjEgNy4xNjg5OSA0NS4zOTcyIDcuMzMxMDNaIiBjbGlwLXJ1bGU9ImV2ZW5vZGQiIGZpbGwtcnVsZT0iZXZlbm9kZCIvPiYjeGE7PGRlZnM+JiN4YTs8cGF0dGVybiBoZWlnaHQ9IjEiIHdpZHRoPSIxIiBwYXR0ZXJuQ29udGVudFVuaXRzPSJvYmplY3RCb3VuZGluZ0JveCIgaWQ9InBhdHRlcm4wXzIyMDFfMTIwOSI+JiN4YTs8dXNlIHRyYW5zZm9ybT0ic2NhbGUoMC4wMDUpIiB4bGluazpocmVmPSIjaW1hZ2UwXzIyMDFfMTIwOSIvPiYjeGE7PC9wYXR0ZXJuPiYjeGE7PGltYWdlIHhsaW5rOmhyZWY9ImRhdGE6aW1hZ2UvcG5nO2Jhc2U2NCxpVkJPUncwS0dnb0FBQUFOU1VoRVVnQUFBTWdBQUFESUNBWUFBQUN0V0s2ZUFBQUFBWE5TUjBJQXJzNGM2UUFBSUFCSlJFRlVlRjd0ZlFtWU0wV1pmeC9WM1Rrbjl5UURnMXdDaW9vSHFPQ0JGeTZvdUNJZUtBb0t3aW9LaWdMaUtpRElmY2poQWNvS3JMaUtlQitMSitLQnlMcUFLQXFvSUNoOGZKTk0wc2trTXptN3V2di8vODFXeGt4UGQ5TEpaR2JTTStubm1lZFRVbDMxMWx2MWR0VjcvVjZlR3oranlBR0I0emlqZ3pEci8zZWkyVzI3WG5NZVZqKzl4aG41My9tUnAzQ0xFS2dveXNtU0pPMXVtbVpOMS9XYWFab0xITWMxRE1ObzhUdy9ieGhHa2VmNWtxWnBjeHpIWlRtT205OGlyTm5RYVk0RlpFUFovOC9CMCtuMGJSekhQWnZuZWNFMFRZUG5lYlBqRk5FNWp0TU53OUI1bnNkdmxQMldielFhRDlUcjlmdDFYWCtRVXZwbmp1TzJjeHpYNm1OYTQ5T2lDN1BHQXRMSFRsckxwcGxNNWplaUtENlg1M25pZGh5Y0xxWnA0cS9KY1Z3VC94dW5EYVgwYndzTEMvOUxLY1hmN3ptT1U5MzJPVzYzbkFOakFSbVJIUUVCRVFSaFAwRVFwTldRWkpvbVRob0lTd04vUE0vam1yYXRXcTMrYjZQUitMV3U2NzlsVjdTMTFtTldNNDJSZVhjc0lDT3lGTU1TRUx2cFFHQjBYYTlEV0RpT2c0N3pZS1ZTK1VtejJmd3B4M0YveGZWdEFJUEFpSEJ1YmNrWUM4amE4dGQxN3dNS0NQU1V2dGVRR1FGd3dsUjVudDlXcVZSK3BtbmF0elJOdTc5UC9jWDEvTHphc0cvbWVuV2lvMDUzSnBONVVCVEZQYUdrcnlldGhtRm91cTVYbWRYc2tYSzUvTjFtcy9rdGp1UCt2cDUwak9wWW95Z2c3UTNTNlFjWVZmNE5qUzVSRk44b2l1SnVnaUFvZ2lENFJWRlVlSjczbWFZcEVrSUNraVNsQlVHSWNoeVg0SGsrSTRwaWNHaURzNDZnOUJ1R0FmUHlYS3ZWK20ybFV2a0NwZlFPR0FBNGp0dVMxcTZORkpBdHlmQXVtMXJtT0E1L0lzZHhzR1NCUDUzL0JpVkpDcGltR1RSTk15V0tvbVNhWmtTU3BHbS8zNytySkVsN2NCeTNNNFJJRUFUMDQvWlpjVTJEbWRrd0RGekI1Z3pEZUtCVUtuMUowN1JiK3JTR2JZcjEzVWdCY2J1QTdYYWJndUg5VHJwSGV6L0hjUUdPNDZLU0pDVU53MGdJZ3BBUVJYSFhZREM0RHlGa1gxRVVwM0FxT2ZUVFU0ZUJnbThZUm9YanVFZkw1ZkszNnZYNlZ6aU9lM3pJOHhqWjdyd2dJR1BCNkcvNzRBU0tjQnlYSW9Uc0pBaENoaEN5VnpBWWZKWWdDUHVJb29pcldxZkE5QlFTanVOd3BGQmN2MHpUL0VlNVhQNTZvOUc0a2VPNGJmMlI1cjNXNnlFZ3ZYUUtMT2hPSE1lRkpVbFNORTJyY1J4WDdHR3JINThxem52TitrRUJmNkc3VEJGQ01qelA3NllveWpPQ3dlQ0xCRUhZVXhSRm5FQjQzQWdLMTFicWVaNS91RlFxM2RSc052K0w0N2haNzIxOWR4U3ZoNEJZS2ZFVFFwNGx5L0toNFhENEFKN25kelpOazVpbXVTaElMSlFDZHZsbXE5VzZkMzUrL29lYXBzRmVqL2lqOGJONkR1QmFscEFrQ2NLeXB5ekxCd1NEd1VOeDJ2QThEMkZ5OVVCUURNTkFQTmo5cFZMcE84MW04M29vOTY1ZTlsQ2o5UlNRa0NpS0J5VVNpZmZ4UFA5VW51ZkRnaUQ0bkJSSzVoR0dvcmpBODN5bFdxM2VXcWxVUHNseDNOODh4TjlCU0hWenBYVFR4czNZTUFMZ0tvYVRaTjlvTlBvS251ZjNKNFRFM1o0cXpQSlZOazN6Z1VLaGNMbXU2OS9yR0hoWWRMcVp5NXEwV1E4QkFaUDJUaWFUWnhCQ1hpWUlRcVNMMG1nN1NkTTBLV3oxUE0vUHFxcjZoVmFyZGNtYWNNUDduYTVtUTRZNGp0dFJGTVduK1AzK2x3YUR3Y01sU1hxU1c1YkFVMjhZUnNrd2pIdnkrZnhIT0k1RDRLVG5UZlZyTFNCRUZNVlhUMDVPbm02YTVsTUpJYmdMRHp3bXUvOCtVYXZWZmp3L1AvOGhoRTFZRm5BMUc4VHRYdGpNN2NBL3JNL09raVFkR0FnRUR2RDcvUy9rZVg1MytHVXNhMmVycytCRHB1djZyMVZWdlU3WDllOTI4Y3gzcnRYSXJ0dkFtOVhGTG9HejYxOVRxZFNaK0NyMWM3L3QxamRzOUxxdUx4aUdjZWZzN095UlRLRjNRYzY0eVFBY3dQVnJYMFZSWGhZT2h3OFJCR0V2TjZjL3JsMjZybWZyOWZvUEtwWEs1UnpIUGVUVkQ5bXdCTVQ2QlpCRlVYeGRLcFU2aHhEeWxJNHZqeXRMU1plRlhIb2Y5bmxLNmUyenM3UC95bkZjZmF0NmVnZlk5SU84RWlXRVBGOVJsSVBDNGZCckJFSFkzWTB6a3AwbWQ2cXFlalhUVFRxRElnZWhZOTNmR1phQUxDT2NFUExDWkRKNUtTSGtBRGN6WXFmQ25HbWFGVUVRNENWdWgxRzBCY0w2NzJLM0NMcGJXRmo0UEx0dXVSbHEzR1oxSElpS292akNZREQ0YXIvZi8xcEprbUNlNy9vd1IrUDIrZm41cjFXclZad21uaklKcjRXQTdEWXhNWEZxS0JRNjF1WTRYam9CS0tWSUk3MjMwV2pjMzJxMXR1dTZub1BIbGhBeUpZcGl3dS8zN3lKSjBuUGg1TEpaZ2NWK1lPblNkVDJmeitkUDBIWDlPMTQ5eG50dHNnMzZ2WnRlTUNuTDhzdkQ0ZkFiSkVsNktTRWsyWU5HRSt0TktmM2gzTnpjcDFsODF3Wk5xNzloaHkwZ3NpekxiNDdINDVjenBxM29YOWQxbUc3L05EYzM5MTFkMTMrc2FScnVwMWI3T2N5UHNLanNGdzZIWCtYeitkNUVDSm13bXhxNzd6NlF5K1ZlYUtPMDk4ZU5jZXQrT2JDN29paXZpa2FqaHd1QzhQd09wNk50UDJ6dDc4M244MWZwdW41enY0TnRSUHRoQzhpZWlVVGlMTC9mL3phN3liQTc2UjJxcW9KQnQ3cklQY0JYYkVlZnovZTJhRFQ2ZnB3dVR2MFdpOFV6bXMzbWxSdkJ4QzA2WnZ1RThjdXl2SWNrU1VmaFJDR0U3TnFOSCt5RGhpdlhqYlZhN1lvZXpzVU50MjROVTBCRVVSUVBUNlZTMXhCQ0VsWW1zYnZvSHdxRndtbVUwbC8xdWFuaWlxSWNFNC9IenhWRkVaN2daUS96NnVhejJleU80MnRXbjV3ZFh2T29MTXVIeEdLeGYrdHltclN2eGdhbHRGS3IxVzZlbjUrL2FKUnpUNFlwSUlsQUlIQnlQQjQvdzA1bm9KUm1WVlU5WGRPMEx3MjRKanNtRW9tTC9INy8yNTNleitWeXo5TTA3YTRCK3grL3Rub09LTElzN3lYTDhySE0wZGhWaWNlTkFtSDA1WEw1VWszVDdsNzk4TVB2WVpnQzh2VEp5Y2xMWkZsK2xaVk1NS0xWYXYxQVZkVjNya0pQSURBMUpoS0pteVZKMnNITzRWZ3NGaStvMVdvZkd6NmJ4ajMyeVlHVUpFbUh4dVB4OTB1UzlLeHU3OElTcWV2NkhjVmk4UkpLS2E3ZEkvVU1UVUFJSVFjbkVvbnJKRW15WG5NNFN1bE1QcDkvcjQybHFWOW1URWFqMFF0aElYUFFSWDR6TXpNRFpYMzhiRHdIRkpqNVk3SFlxYUlvSGtnSUNUdVJ4SzdmVU40djAzWDltNnhkVy8vWVVEMWthQUlpaXVJUjZYVDZSanNIRXFYMGtXdzIrN3crTTlMcytLbkFPejgxTmZVMUJ3RlptSm1aY1Z5SWpkOHpXNDRDYk80bkI0UEI0ME9oMEJIZC9DWU00K3ZCUXFGd3RhWnAxMXFFWk1NWU55d0JFV0hGU0tmVE4xaG53cUk5NzgxbXMvdGJmaHZreXlCSWt2U2NkRHJ0cUdkczI3WU5Ua1pyak5hR01YZ0xET3htSFZPS29od1JpOFZPZFBCckxiS3BIYUl5TnpkM1diUFovUFFvOEc1WUFxSW9pbkpjS3BYNmpJMytVV1A2eDV1R01HRXN4dE4yMkdHSGU1d0Exclp0MndZTEdoS3V4czlvY1NBc2l1TEJxVlRxSTRTUTV6Z0ZyVExuYjY1VUtsM2ViRGFSM3JDaHo3QUVSSllrNmRoME9uMk5OVE1OOTB0TjAyN041L09IRG1PbXNpenZrMHFsZnVjVS9MaHQyelpjc1lETU1YNUdnd09kSjR4TUNIbFJQQjcvT0F3dVRvR1BURWhtUzZYU2hSdDlrZ3hMUUhEMWVSdDBFT3Vhc0RpclAyV3oyV2NPdUY3THdxSUpJUWRtTXBtZnM3NldCVC9DSDdKOSszYjRTVHdYRkRjZ2I3ejRHcEVrNlJuUmFQUk1Rc2doZG40dFRBcENRaWw5b2xnc2ZrTFR0T3VHY0QwZmlGZkRFaEFPazAwa0VqZEprb1NjajJWUHE5WGFOanM3K3dvR2M5bU4wRjczV2IvUDUvdEFNcG04d082SXBwVCtKWnZOSW5xNC9mVHFieUNtalY4YW1BT2RscW1uSkJLSnMyVlpmbzFUaUFwTGxQdDdzVmc4cDlWcUlmZDkzWitoQ1FpdVB2RjQvQXVFa09kYVp3R3Y2ZHpjM0VXTlJ1UENWYzV3eDZtcHFWdEVVZXc4alpaT2tYSzVqTWplOTdBeHhzS3hTbWF2OGV0WW56MXczVklVNVYrZGdQQ1lrUHdGV1lxNnJ2LzNHdE8wb3Z1aENRakhjWlBoY1BnVGtVamszVGJYTEtUTTNwZk5adCt3aXJBQ1JaS2tkNlJTcVU4NTNWMW5abVpldXhGTVhPOUYyeVRqdFQ5Z3U4ZGlzWS83Zkw3WGk2S0l0Ti9PWi9IangwS0pmcWVxNnNtYXB2M1BlczUvbUFLQ0RYeE1LcFc2eXM0WGdpekFhclg2WDVWSzVRTXVnaFN0UElBWitkbUpST0o2UXNnejJJOUxKd2ZUYzZyWmJIWjNqdVB5NjhuQThWaXI1NEFrU2Z0R0lwRXpKRWw2cGROSkFvOTdxOVc2UlZYVlU5WVR1RzZZQWdJOTVJQmtNdms1UXNnK2RteWpsQmFMeGVMRnJWWUwxaTYzSmNSZ0FOZ25Gb3RkSmN2eWdYYjl3bExXYkRhL3I2cnFNRXpKcTEveGNROTljd0JDRW8xR3p5YUV2TUpKY2NkSHRsYXJmYVZjTGtOSTFzVlNPVlFCQWZpYnorZjdZREtaUE1lT1E4eDhWMWhZV0xoNVlXSGhLbzdqSG5IZzVGSW9OV3puaVVUaWcwN0N3VTRQb0owY3FtbmFQWDJ2elBpRmtlRUFNbEZqc2RpL0s0cnlHaHVpRm04TWxOSlN1VnkrdUY2dlg3d2VoQTliUURoSmtoQlFlSzNUS1lKSklYaVJVdnJ6YXJWNlQ2dlZ1bzFTaXJvVStDSm9ITWY1b004Z1dXcGlZdUsxaXFMc1N3aloyOG14QkpEbFNxWHkrWVdGaFpQWGcySGpNZGFFQSswUElwRHNuNWRNSnEvRXYxMCtzby9sOC9uVGRGMy85bHBEQ3cxZFFOZ3BjaUl6eFRweXM0MTF4WEhjdzVUU2JZWmhBSGloTGdoQ2tHRm43U0tLNHU3ZGF2WkJlVE5OODY2Wm1aazNjeHozeEpvczNialQ5ZVlBb3JZUFRDUVNuM1NLQkdiaFMxRGFUMXJyTVBsQkJLU1grZlFaNlhUNkt1UXF1OFRBV2dKa1lOVmRYY0ZmTWdGN3VGQW9uRFNLWWRMcnZhczIyWGdJU24xVktwVzZrS0hpckpnZVU5cVJRdkcrdFFTQ0dFUkF1cTFGSmh3T254WU9oMC9zQWdzRGdjQXo4Tmh0MjNpeFdMeG9veHhJbTJ4RGp1SjBBR2IrbG5nOGZxWlRGREQ4YTVWSzViTzFXdTJqYXpXQlFUYnBJc2kwemQwUFZaQ09TQ1FTNXdORnZBOEI2QWNyQ3pEOEtCbDJWNkZRdUZMWDlXK3NGV1BHL2E0ckI1eHVKU21mei9mZVNDUnlzbDJFQm00Y2xOTEhWRlY5RDZYMHgydEI4U0FDWWtzSHc4TDZQQ0hrYVE3S0ZlcExhRFltUEZjQ3dtSnpzcFRTWDViTDVhdTlCQjJ6Rmd1M2hmcmNKWkZJbkdjQkFsa0dJQWlvMDF3dWQ5d3FuTkNPN0hRaklOYk1ManRwbjQ1RUloOFBoOE1nY3NYRE1zYitVcXZWZmhNSUJKNk5FSU1PQlBHdWE4MnVVNDlSU3U4cmw4dUFDVUt5RkdDQ1BBK012SVUyZWI5VFhiYkhldm5YbUgva3BuSzVmRUpIb0dvdlhka1ZUVzRFcE4yUjA0RHRxOVhGaEpDVWRWUjJERzRyRkFvZjBIWDlKM0Q2b1F4Q09CeCtqaWlLQUJ6RE80RGI5L004RHpBNFdLYm1lWjRIcEg1ZTA3Ui9MQ3dzM05acXRSREJPN1pVdVZyV1RkY0kwRUtIeFdLeGk3dm9JN2w4UG4rc3J1cy9HT2JzK3hFUTIzR0JmcGhJSkhDMXdzbUFaOW1WcVVPUkF0cEorNnNQWVVOZHZTY1pockVyc0pRZ0xLWnBRa0RxdXE3UEdJYnhoSzdyRDdONklJT0dydy9sS3pKTWhvLzc2c3FCYnJlVnlVQWdjRklrRXZtUVhmUXZ3MnIrMWV6c0xGQnZoZ1p2dWxvQlNRV0R3Vk9pMGVpcGRnbE1xQm1oNi9wUFoyZG5qMmRFT3luNGJ2ZE5QeHUrbjdadXh4KzMyMWdPN0QwNU9YbUZMTXYvMGtIRzBnZFowN1M1Y3JsOFJhUFIrTVN3eUZ5TmdLRDJ4eUhKWlBKcXUyT1BWWWg2SkovUEh6TldxRjB0VnkrQjd2VzdxMEU4M2doVkE3RG5QaVZKMHM1V0lXR2hUQStycXZyMllUa1FWeU1nZThDazYvZjdiUU1FbVRSZjNtZzB6dlg0b296Skh5ME9BS0R3L2RGbzlNTW80V2NsRFE3RVpyUDUzV0t4ZUpRbHMzU2dEOHlnQWdMRi9HM3hlUHdTTy9zMDRxTjBYYjh0bDhzZFBRU29uOUZhSG50cUJtSytGeVkyaWpRaU9TOGFqWDY2STREVnF2ZG04L244dTRhaHNBOGtJQ3g3OExOSXdMZGpJSURpQ29YQzBWc3dCS1JUeVFScnhxYm90WkV3UUp5K2lWVVJzRnBPNFV4R2NhVmZ6TTdPQWtSOVZRZzNnd2hJV0ZHVTQrUHgrSGwyY2Z1STFHMDJtMThyRm90UXpBZTFQcTBOV3plK1Z3Z1FTanVrT1k0TFNaS0VLNEppbXViaXY0aG01bmwrWHRPMEJrc3FLN0VGcGh0UCtzaFJzRFBTZFFPQndERU9IK2tDUTBWQjBaNkJuNzRGaEpsMWtSUUZiS05sRDR1dWZXQm1adVlJanVQK01qQlZtK2RGMUNQZmplZjVQVVJSM0VtV1pSVERES0dZS2MvelBwN25KU1l3TXZzWEh4UUlCNFdEMURBTTFHS2NiN1ZhdVdhem1kVjEvVkZkMTFFOTlsR2JoS0d0ZHMxRGFEektpbi9lb3JBdjdoNFc4UXRFejVmWW1IMWQ4NnBmQVlrb2luSlVQQjYvVkJURkZRb1NrbG5tNStldnIxYXJwMjZlUGQ3M1RLYVF2eUpKMG42aUtPNFFDQVIyNFhrZTVaU1I0NUp3VXdUVFJ2R3NHb1pSNW5sK1J0TzBSeHFOeG1PdFZ1dXZwbW5lVHltRndPQ2syUXJYT2V2R1RreE1USnc3TVRFQkQvcUtCMjZHUXFGd29xWnAxL2U5aXV5RnZnUUUwRDdKWlBJc3U5cURMSndFK0ZjQVp2aUhTNEpjUzdMTC9qYXFXUUpoMmFJb1BqY1lERDVUVVpSbkM0THdOSmJMNGlyV3JGL0NZU1hrZWY2djlYcjl2bHF0QmlqV3UxaTFyblZKUmUyWDNyVnFEejA0bVV4K25RWElZcGhPckFLQWhmd3htODIrak9PNDhpQTA5Q01nNFZBb2RHNGtFbm1mWFJJVHBUUmZLcFV1YWphYnE3cnpEVEtKRFh4bldwYmxGL3Q4UHRRVWY0NGdDUHV3RTZJZnZxNmFmT1Q2bTZiNWgycTErc2Q2dmY0emxCTmcxc1BWZm9CVysvNnE1K2FpZzNBZ0VJQ3orcU4yY0xRdyt4WUtoUk0wVFFPdVZ0K25ySFVoSFJuQ0pCV3BrUHRhaUliVm9HVVl4dSt5MmV5cldTQ2hGeGpyZ3ZlT1RWQmc5S1hoY1BpbHNpd2ZMSXBpYWxoMTRGZERGTjZsbEQ3YWFEUnVtNStmLzVHdTY2amtaUmQyc2FuV2g2VjVmNWtRQWxTYlpROXpIbUp2SW9HdkRXcnVldjV1djNSQU5EdzFGb3VkYmdmTFFpa0ZhTUk1bXFaZHZkb0ZIdkgzSS9Ea1JpS1IxeUhjUVJURkdNL3o3ZkNaalNMZDlncW5hZHJqbXFiZFZxbFV2c29pR2R5Z3lMamVPQnMxV1lkeGU1MGkxZG5aMlNOMFhiK2xYN3JiQXRLVk1mQjd4R0t4eXlWSkFuem9zcWREOTBCbEthOWpVam54UVNDRXZNRHY5NzgrR0F5K1ZSVEZ5VkU1TVhvdE9KVDRTcVh5RFUzVHZxbHAyZ01EWUpMMUdtSWtmcGNrYWY5RUlvRlRaRGViUGFvaGoyaDJkdmJnZnE5WnZVNFFiQmhla3FSM0pSSUo1QWNqTEgzWlF5a3RGSXZGUzF1dDFpVWp3YW5oRTVGUkZPVnRzVmdNZ3ZITWJpQVNIVU92aVdJK3dOUVc2WUJ2eWpDTXU0ckY0dldhcGlFY1hPVTRydHRIMFVzblNadldTREFZL0dnc0Z2dXdIWjlRcHoyYnphTDYyQi83NFdNdkFVRmZHY1RoQjROQmhJMVlUdy9rYnNEdmdkTmpwcCtCdmRBV2FJNSt2Lys0VUNqMExwZm0yVkVSREZ2MjR0b0ZUTEpxdGZvZnEwd2pHTW5sQStoY01wbjhtdDJISERlZGhZV0Y2eXFWQ2tBZVhEODlCVVFVeFVNbkp5Y3ZGMFZ4RDJ1dk1EVmkwRTNvOXhCUTZpMlpUSjRraXVLTG5ZcjF1T2J5NkRRMEthVUxwbW5lWGlnVWJ0QjEvVWZyaFZDNFRpeHdyR0hKRXZjZXorVnlNRExoQkhYMTJBbEk1L0hxRHdRQ1owYWowVk5zVUVyQTdMOW5zMWtVeHNIZGRyTTh5RjQ3S1JhTG5VQUkyYWxEMXhqVjAyRWd1aWlsZjFWVjlaUFFUZnJaTUNPK3lFakJlRzBxbGZvaUlRUkEyTXYyTjY2YXFxb2UxMnExdnVwMkhyMEVCQWtxbjBTQmVHdUhySHd2RkIrWWRqZkxzM2lQblppWXdNbUJTSUdlSjZ5WEo0NTA1a3FsY2syOVhvZVBvSjNPN0NYOXc0NzllMDVPVGlMU2QwVlNGVUtoV0JBamZuTTF6NjRiUUpibHQ4Zmo4Y3NJSVFpdWF6OXRqTlR0K1h6KzNadW8zRUFtRkFwOUxCcU5udWpsVGQ4djdacW1iWitmbi85Q3JWWkRPSWJiQ0loK2gxblA5Z0dmei9kK0lLSFlXUnFSQXA3TlpwL3VGaUcrbTZNd0ZBcUZ6bzlHbysrM3pvNDVCdUhDZnpIZ1F0ZHo5Z09PMWV0ckVZNUdvMWM2MVY4ZmNFelB2RVlwelZVcWxldHF0UnFLc0hyZTJFSUllV2t5bWJ5WkVESnBkL01wRm91bk41dE4rT3g2ZXRZZFR4RGdvdUwwc1BOOXNLREVhNnZWNmtjOHN3dWNDVlZDb2RERjBXZ1VkVXUyN0lNeWVVQXBiRFFhc0hDNVZtSkhsR0ZUc1Zqc0lqdkxLNktrS2FXL3plVnl0cmxNMXZsMEU1QjNKaEtKUyt5Z2ZEUk5lNnhZTEI2K0Njb05DRDZmNy9SZVFOc2p1Z21HVGhaMEVsYWovSXQ5MUc4Wk9oMUQ2QkNGUW85S0pwT2Z0Y3RaWXRjc0FCeHU2elVXQktUeit0SCszLzV3T0h4K0pCTDVvTTMxcXNuaXJsRE14dE9KUEtJb3ZtbHljdklHRmo0emtEV29GNE5INkhkWDg5TjEvU0ZWVmM5dXRWbzNlem5oclZ2ZUVndGcvSkNtYVovdnRUNU9KOGhUVTZuVXBYYUZUQkE1T2pjM2Q5VXdvVlY2RWJsR3Z6ODlrOGw4MXk0MFlZM0c4MHkzbXFiZFVTd1dVUS93YnM4UXZaTFFUQ0FRT0RFZWozL001aVBmYWMzcU9rVmJBUkZGOGJCa01ubUZKRW03V04vR1hiVlVLcjFSMDdUZmVwaDVrWFE2L1JWSmtweE0xSzYrdGg2ZWYxZlNPNkE4UCs1aHBSMTFSbDZhVHFkL1pHUE5naUtpWnJOWnhHMTFEZUxzRkpEMjlZcjRmTDUvaCtSWnd5dFl0VkVrUlNHbXhRdldxL1pHV0diRjh2bDhaem1WaWR1c203N0x2SnlpZ2JjemZRVFducVpIK2JKYk9wMitYWktrSGF6MDR5T1F6K2NQUlJCanQ3blpuU0RSU0NSeVNUZ2NCdWpDc2dlaEpZMUc0eHZsY25uRmJ4NWhJQVJsbDB3bWN6Y2hKT1lSbXRlTHpLVkNSbTBIS2FYMDE2cXF2bC9UdEhzWkViM001ZXRGcTl0eE12RjQvS0pBSVBBTzlzTFN4d0I2U0xsY3ZxeFdxK0dVZEh6c0JPUVppTDJTWmZrZ2E2ZVUwb2RaUVhlRUozanhJZkY0L01aQUlQQldMeEsvM2pRakFoYXhkZ3NMQzJmMXVvcXNOMjB1eDF2RWIwdW4wOWRhMjNjaytSMWcwOWZTaDJDRmdERDlBeVhVQURTdzdLR1UzcDNOWmwvdnhqem1jZ0xyMmd5MTd6S1pUTmNqZFYwSjhzQmdsTklIOC9uOFIzVmQvNTRieDlxSVRRbDVQQWRNVGs3ZWFvZkNpQnRSTHBmYnNTUFRjQVg1S3p6cFBwL3Z3L0Y0L0J4cmNDSWNMTTFtODVaQ29YRFlpREhCTFRtQlRDWnpHeUhrK1c1ZkdMZmpPS1NzTmhxTmI2T0trMGNkaUh0a01wbnZzRXJKMWc5K1JWWFZnelJOQStpRjNmVlJzR1lVQmtLaDBJVjI0U1VNbE9IaVpyUDVTUzl1SEp5TVUxTlRLQnM4ZnZya0FCeUl4V0lSS2RVMzlQbnFLRFJIUHRNbHdXQVFXTDNMSGtUM0ZvdkZzN29CalZoUEVKUzd1c3p2OXdPNnAvMjBzOUlleXVmekoxQktmellLcys2VEJuOG1rN21qbzRaSm42K1BtemVielcralFBMEQ1UUJEdktLd0F3bjB1RlFxdFFKdEIwbFV5TERNNS9PSE82M3dzaE9rQzNJSjBETHV6V2F6cjJOUmtGNWh6dUs4Z2NDWHlXUitPdDdtamh6bzZmZUJoMzEyZHZaTVhkZmhZZmZTK3N1RWtKZG5NcGtmV21mUDZsNXV6K1Z5Sy9UdGR0dGxKNGdzeTBmRzQvRlBNaEN1VGdBdVZCUDlSUzZYZzJPdGJSTWZkU1l0MFpkT3AzL082clozOHFqbnBoZ0wxRDg1QUt0UG85SDRjckZZUkRwQUd6N0hFeXhDNEcweW1meTFIU0lQVTlSM2NzcXNYT1lvVkJUbDVIZzhmcTYxeEJYdWF0VnE5Y1pLcGZKZVQzQmtPWkZUMDlQVDJ6MUk5OGlSVENtOVUxWFZEM293aWdLK3J4c0pJVWpQV1BZZ2NGRlYxWU0xVGZzZk80WjNDb2dTREFiUGo4VmlwOWgwa21XNFY1L3oyUEhLamIzbXc1TXpHR3FLeGVKbEhrU3djY1R3eGNlL1VDaWM1R1NBNkJTUVJEUWF2UmdJSGphRk9QOEdFR0JLS1pMOHZmU1FUQ2J6SjBMSVhsNGllb1JwTlpteWpqMkNVdHhlZWNKK3YvKzlpVVRpSWl2QkFMaEc4RzI5WHYvM2p0L2ExL01sTXk5KzJ6dVZTbDJzS0FwQUdLekgwSDNaYlBZdEhNYzk2QldPTURyM21wNmVCdm81bnJIT01kamlXYXMzM1ZNb0ZFNkZUdXFoMndRSzdodytPVG41RlNzTFlNbHF0Vm8vY3ZMdkxaMGd3RGVGZ2k1SkVnSVJyUUx5MjJ3Mit4cXZPWW9VUlRrMWxVcTFBZTAyTlFERFlIdS8vN2NBTTFzcWxTN3htRDhNa2IwdnlXUXl0OW9JaUdZWUJnNkEvV3hPa0graWRvaWkrT3BVS2dXQWhxZGFPakUxVFlNRjYrWDlzM05qMzVpY25QeGxSeDI3VG1MR3A4bUFTNE9JaWxxdGRsT3BWSUpQeERNSmM0RFBUU2FUZDlsRWlPaVVVcGg2RWZxK1lqNUxYMVZSRkk5SUpwTTRRUkNic3ZRZ3hGM1R0UC91Y0tZczNjOUdQRGFIVEUxTmxlMkt6bmRNYnl3b0F3Z0tyaVN6czdNSVBmRUtDZ3IyN0Y2VGs1TS9rV1VaKzd1OTc5c0lQZVZzTmd0aytCVzUrRXNDb2lqS0IrUHgrUGxXUENpWXdhclY2blh6OC9NZkdvQ1hHL25LN3RQVDB3OXZKQUdiZFd3NGpRdUZ3bWtlaTZyWUtaUEpBTndhWUEzTHJ0dVVVZ2dJRUJmL1psMnpwWWFCUU9Cc0ZFVzAwVCs4WXRwYjVyZ0VwdGZrNU9TWE51c20zY2g1c2F6Uzg5emtkRzhrblpheHB4S0p4S2N0WVZTTFRSRFdYeWdVRG9hZngwbEFoRUFnY0U0OEhqL0Qya0RUdENlS3hlTEhOVTI3Ym9RbTI1T1VRQ0J3UVR3ZTd6VGQ5WHhuM01BZEIrQTdBRVJRdFZvOTNkMGJJOUVxRlkvSEx3a0VBdSswVW9Qc1FwU01aaUg5eTM1dW55QndFbjdDQWgzZnZwODlrcy9uVDlWMTNWT1JzS2xVNmx1S29pQTBmMnk5V29QOUNiaFNWVldScWRjVGZHME5oaCtreTJnNEhEN0xEcW1IWWZZZTMycTFibkk2UVNLaFVPZ2NPL0EwQktubDgvbVRLS1VJOXV0a1JydXkwa2d5YUdwcTZ2ZW81ekVJSjhmdjlPWkF2VjcvdXFxcXNHUjVwV2hvMk9memZTQ1pUSjVyYzRMVWlzWGlSNXJONXFlZEJDVEJjTEQrelVhQitYT2hVSGczcFJUMTdqenpURTFOemFNbXVXY0lIbTFDVjFqN0VDYWV5K1d3WDlxZzE2TTlBNDVEK3UwNzArbjBaKzBFcEZRcW5kZG9OQzUwRXBCTUpCSTVOeHdPSDJkdFFDbTlYMVhWWTFqVzFhZ3pvVTJmTUQwOXJYdUZXSS9RQ1NIQnMzaGwxVFR0WjdsY0RzR3JmL1VJL1FGRlVZNUpwVkxBSDE3MklOeWtYQzVmVXF2VnpuWVVrR2cwZWg2THcxcldobEw2UjFWVmo5WTA3ZmNlWVFUSWxLZW5wNzBLVlRQcWJGNDhUVFJOKzJVdWx6dXAzNUptR3pnNXZ5UkpSNmZUYVFUY2RqNm1ydXVOY3JsOGVhMVdBempGTXBXaHJjQm1vdEhvK1hibzVycXUvMkZtWmdicGluM1ZkbHRuUmxoelU1VHA2ZW5HT3RPd3BZWmpvZThmOE5ETlFwRWs2YTNwZEJwcHc4dXVqSVpoTkNxVnl1Y1hGaFpPWnZGbFdNdEZRV2tMeUhRc0ZqdmZEZzJiWlJJZXdYSGNReDdhQVpIcDZXa3ZSWnQ2aUxYL1J5cWw5SDhMaGNMSmRyNkRFWjBNQk9USWREcU5PaWpMSG91QTRMY1ZzRDg3eG1LeEN4d0VCRVhZa2JQcmxiQUNUSEI4Z3F6eExrVUpBVlZWZ2Q5cm0yaTB4c01QMG4zbkNXSW5JTmN1TEN5c0tJR3hkTVZ5VXRMWkZldk5IbExHTUhreVBUMnREY0xGOFR2dU9FQXB2VjFWVlZ5eDJxaUw3bDdjdUZhT0p3aDBrRXFsOHBuL256WjdtcFc4dG9CTVJpS1I4eDJzV0Y1VTBybnA2V25jSWNkT3d1RnV5Q1ZMRnJOaW5lQ1JxemV1VEJDUVl4ek12TEJpWFdvSFE5cmVRRzAveUx1dC9QU29tWmVibXBxcTJSVlBHZTUrMmJxOU1UOEk5a3ZQSWpRandDVUlpRTlSbEdOVHFkUUtaeURNdktWUzZlSkdvM0VPbzNXRkRoS2ZtSmc0ZjJKaUFpSE15eDVLNlFPcXFyN1RROWFLUmZvem1jeGZDQ0Y3anNEaWJFb1M2dlg2TjFWVlJlcHQyU01URFBqOS9wTWMwbTVyd0Z5d3k3VnZueUFXa1c5akFBQWJXRWxFUVZTQmNEaDhubDJjQ3VwcEZ3b0ZBTWJkNWhGR0xKTEpZdjlmNlNXYVI1aldaV1pSMHpTTlJxUHhGWHc0UFZTRktzb09nUlhJUEF5NDRiMmFwdDNvcElNNFJ2TlNTaC9ONS9NZjBuWDlPellMT0xMWVdNRmc4TkpZTEhicUNHODZ6NUxHb25rL1Y2MVd2Y1RmeVhnOGZxVWRzaityRmZJbU8xQ1NudmtnTFBiL0xLL2hza3FTOUo1ME9uMk5aM2ZoQ0JQTzlzVDVtcVpadmRJalREVTNsVXFscnJVREpXRUM4aHE3ZU1NbEFmSDVmR2NrRW9tenJlV3FQSnFrejBtU3RGODZuUVpxOS9nWk1nY29wZmNWQ29YVFBRWUR0WE1tay9tMkhUNHpxM3E3UDBQdFdWYlV0aFBWNUpoRUluR3h0ZXd6YXFKWEtwWFAxV3Exanc2WnoydmUzUTQ3N05DMEp1bXYrYUJiWUlCV3EvV1QyZGxabUhnZjhjQjAyeHQrajNRNi9RdExPYmJPblBTZDdRd09FSkRGRGtSUlBCU1ZiUWtoVCttY05Oend6V1lURm91M2QvejNVZFE5VnRDVXlXUitaUWMzNllGRkhTVVNyUXE2WHEvWHYxUXNGaEg1N1ptSWFhQ2FKQktKMzlqaDg3S0NuaGtXZndYLzJjb0tVNmkrQkZRVFFrZ25QdERpUXNGcm1zMW1YemFpREhFVVZvYUxkZWtvN1RhUDBySWtKQjZGSHhVWkxwYTFkSWNKaEhkRWkzVGdZaTNiVDUyZVppQXJYbUtwamQ0K2d1N01ack9vV2VnMVZPOW5wOVBwMzNsMFU0NGsyWEFjZDVSa0cwa2FiWWlTZ2Z0bVYwQUpxUFZBWjVtZG5iVXRDZDRwSUx2RTQvRUxBNEVBSUVhWFBjZ0Z5ZVZ5aU9nZDVlUVkyNU1razhuTVd2VXFyNnpxQ05KcE5ocU43eFVLQldRU3pvNGdmVTRrSWQzMmczYWx2eEdITlQ4LzN3NTFYL0YrcDRDRVFxSFFlWFo1NlpSU3BOM0NXUWc4MXZZemlucklpZ21HUXFFcm90RW80dnp0bmpGd25QdGRqcnRJclFQTnhCUHJ6NllIWVBaTEhQS2RVSWJ0OUdhejJVN0ZkYnhpZFlQK2VSeTEzRFJOKzAvMy9CeU5scElramE5WlExb0tqd0xHWWZZdzhkNkVpcmRXVmpCTXJFT2RNQmVXUmJ0S2tuUjhJcEc0a0JDUzZPd0lWWGhRTDl0am50T2xLV1F5bVJ3aFpISkkrMlRMZHROc05yK1Z6K2U5VnZvQTY3VVhzMmgyN29GT0UrOHVUdVVjbGdrSUllU1FaRElKVSsvVE8zY0JVMlNBeDRvYWhaNTdXSmp6aWt3eXowMWtBd25XTkczNzNOemNCUjFYa1Eya3ByK2hVWUl0blU1MzVxMHNYYTFaQ2JhWVU0L1dFK1Rac1Zqc1lsbVdWd1Q1SWNVeW04Mmlka2krUC9KR28zVW1rNWtqaEVSR2d4clBVWUhDT2JmazgzbEVlM3NGNXFmTjVHNlpoRjB0V09qQW1sQUU4QVluZEJNbzZ1K2hsUDdTYzh1TGJCbEZPU21WU24zS2k3UnZOTTJVMHVMYzNOeGxkcmhSRzAyYmkvR1J5bkVlUytWWXR0OXQ4a0JXZExjaTQ0NWg5SjVwRVI2VFVqcFRLcFU4ZWNTMlo4MnlETzArREM3NHZHV2JtSzFXNjliWjJkbjNlU1I3MExwUVVOQy9UZ2g1cnZVSGhzbDdoSzdyUDNCMXhVSWpvTSt4bUt4bFNpMU1mSTFHNHh1bFVnbDRySjU4SkVsNlZ6cWQvb0luaWQ4Z29obDQrUVdhcGwyOVFTU3NhdGdPL1dPRlNaK1ZQWUNDWG5IQ0dGNXhnaEJDWHNnVWRUdVRHRHpxQjNNY043OHFxdGYvNVNYYk5pdnErVFJHZ3BNZlpPd2YrVDhHd1RINHRVS2hjQXpIY2ZYMVg3WlZqeWl6Mm9RclFLbFppTWxEMld6V1dsRnQyYUIyb0FiVE1QWDYvZjdPNE1URmx4Qm13S3JkZGpvTVZ6MkxkZTdncWRQVDAvZVBBUjJXdU43K0dOaDlZYTFoN1Y1d0RuYlMyTlkvRUhtODdFRVE3c0xDd245V0twVVZ2M1UydEJPUWJ0bUZ1VXFsY3IwWFE5ODdKeDBLaGE1a0VRUGprOEtoK2kvTEdyeW1Bd3JIQzhMUnVjeWdkOWRNSnZOVFFzaXVOdnBIZFhaMjlzM2Q5QSs4WXd1THcvU1Fpd2doNmM2T1VUTFhNQXdBeWIxZ25iLzZxeG5PS1VicllVSUk2dEtObitVY1dJVDJZVEZYeDN2VnJBOXNORUxJL3BsTTVuYWJFdUFvVEZ2TzVYTFkzNjF1RzhCSlFQWkZOUjVKa2xaVXR0VTA3YkZjTGdjL3lTZ0hMcnJaOUx0TVQwKzNFMzZjOExPMjRna0RpeVZnUlQvb0lWaFJ1L1hlTVJBSUhHOVhWaENGYVhWZC8wMHVsM3RwcjQzaXRERzY0V1NwcXFwK3pHUDE2V3o1QUEvNzVPVGtGM2llYnhjRDZzV3ZUZjk3SC9ubUkzM2xRckZPbERxd0s2SUVpMnl4V1B4WXM5bThzdGVDT2lJUEtvcHlTandlUDljS3ZvYXdFMTNYNzNRamZiMEdINEhmQmIvZmYzNGlrVUN0UGZDaTg4VFljcWNIMHF2bjV1WXVielFhNTFuV1pxU0ZvVE1Ea05GTldIalJ0WFo3ak9XZ3d5L1M4eGJrS0NEZHpMMmI2SnExeUw5NFBINkRYWEhIRVJEZ2RTUEJSaWxmdDdHSE1KQlZnS2Nqa2NoWjRYQVlPdFN5eHpSTnF1djZ3NzNNdSsyWHVtSFhPb2FkSU1DclhDNWYwV2cwUG1FenVaR3VYZWkwR09sMCtqWkprcEJXM0g2MnpBbUNPM205WHIrcFZDb2gxc3FML281bEFrSUllVVVpa2JoQmtxU2RyUEtCQktsU3FYU1J3OTVkc1Qxc3pieHRyNkxUTlF1OVVFb2hoWHNNUWZwSHBvdFVLdlZOUlZGZXYwVjhKSXNmQUFnSFVCS0x4U0w4QVY0VUR1ditRYW0xOXdLQXhPRjZWYzVtczRoV2Q0VXAzQlg5bkJCeVVES1pCQlRRYzZ5RFVVcXpoVUxoTFRiQmk2TitYKzBta0ZQSlpQSnFuOCtIc1A1Tmp3eVBhMVd6MmZ4YXNWZ0VhUFBqSGlycDdMaUdRQytKeFdJWFNwS0VISE5ySlNuTk5NMEhabVptQUV4QzNYeVpsMkIvSEJxbkppWW16cG1ZbUZqaGJVUWtaTFBaL0dxeFdFUXA0TTMwWkNZbUpzNE1Cb1B2RkVVeDBHTmlucjJHQVJDd1VxbGNVNnZWZ0haZTJnekNnYldTWmZtdHlXVHlla0VRZk5hMXd3ZWhWQ3FkMzA5VXN0TlhzbjBLaUFqd1N5UVM1OWtCSHdEWU9wdk52c2pEemlTbi9SK1hKT25OaUVuYlJLV2tsMEpLa0RxcnF1cm5OVTI3MlVQbzdHNCt3dE9oVU9oVU8xd0ZwaGIwZGIzQ085WVRaTVgxQ0RuZDhYajhQSFprTFNNU2VRS3FxbjVZMDdUcjNGRHZzVFloUXNnems4bmtsWUlnN05PQjBPalpVd05Yam1heitlMjV1Ym1MTkUxRFBCb0tuUzZyNnVxeE5WcEdMaUhrWDVMSjVEV0VrTjNZRDB0cmhTZ1FUZE4rbXMvbmNYMTJQV2MzOTJ3NUVBaDhQQjZQMjBLUHNpS2Z6K3RBcGZNeWo2MjA0NE94U3pnY1BqRVVDcjI3NDhybE5TRkJhTVhqbFVybDZucTkvbldPNHg3cnVJTjdXV2ZzWEsrSXorZDdieUtSK0FUUDg4UkdaNTdQNS9OSDZiciszWDQycUJzQlFWQUxsUFh6Q1NFUUJPc3BvaGFMeFpOYXJkYUtrT0orQ05uZ3RyMDJTUUtneDRsRTRneFJGQS93RXQ0dnpKbzROU0FjbE5JL2RjdDkyT0ExV05Yd1FBWk5KQkpYSWYvRDJoSHpmZndsbTgzQ09kaVhwYzZWZ0hBY0Z3bUZRbWM3NFV0UlN1L3BnRzVjMVVSSDhPVzI4T0NyTkNWSjBpdGpzZGc1a2lSTldaSHdIV2pmaUp5VHhZQkRTdW5kK1h6K1VsM1hmODMwUkZlV214RmNnMTRraFJSRmVVOGlrVGpmN3VNRjVkeUNmZFdydjZYZjNRcUlJTXZ5bStQeE9FNlI5djBPbmJTaFV3cjVmUDc0amlJN3ZiN0lyZ2tjb1lidE9jR3l0Uk1nV21PeDJJbWlLTzVrZDZUM29Ic3RybWlkU3ZqZHFxcGVvMm5hSGN6ZTd5bkkySDdYSEhGWDBCV1pPMkxGbm1iSUpVOGFKTkhQcllDQTVoMmowZWc1b1ZBSXVFZ3JIbmFLdEhXUmZ1Zm94ZlpoZHFLOEtKRklIQ2NJd3I2Q0lFZ0QrRTlXTFN3b2lZYXZwR21hdHhjS2hSdDBYUWNlY1hhVEtPR2RIMXU3RDIrdjA2TTJOemYzcVhxOS91K0RiTEorQkFRbTN5TlJaTWR5aWl5T0M3dDZvVkI0aDhlS3FyamxXYmNUMFkrU2lJU1FhVm1XWHoweE1mRkdRUkIyRlFRQlY3SisrT3VXbG5hNzlqWHE5NlZTNlN1R1lmeGEwelI0aHdITDFHU05OdU5Kdm94UFFFdE1KcE5YRUVLZWI4ZEFkbnJzTlNpV2NMOEx1Rk13R0R3eEZvdDkyT0VVdVR1YnpTS1hmYlBlZGJ0dFltekdLUDRJSVZOUTVzUGg4SXNJSVM4UVJUSFdvYS8weS9QT2xGZ08xaWhLNmE4WEZoYnUxSFg5UGtwcFd5aHdqZkpNdlk1K3Z3WU83UmN0VjhqNUVBUkJzYlpCV0RzN1BjNWd2T243ZzlIdllxSE93b3NUaWNRWEpVbkNuVzdady93aXAzZ1J3M2RJQzlidUJnc1I1RGd1eEFSbWt1ZjVKOHV5dklmZjc5K1ZaVEx1Q2JPeFV5NEs2bkFZaHZGblRkUCtVYS9YLzJ3WXhtT0dZZnlkVXBwamQra0ZacEd4Q2tXM1RkRDNCaGt5WDRiYUhmd2VMT2ZETGlhd25UV0lyTkhpb0FQM0t5QVlCL1dtejJRNUZQai9WakN1UDh6TXpDQWxkMU1yaG4weUhCc1RWeTU4NVdTTzQzQXR3NTlQbHVVVmEyQ2FwcUJwR3E1SkVBTDhpeitraHVMUDdTblJGb1plZC9nK3A3SWh6ZTBFZThkd09Iekt4TVRFU1E1K2ozeTVYTDV1VU4yalBjdEJCQVRZV2M5UEpCTFhFVUxhOERsTFhBTVlWN2xjL21TdFZqdDdRMWc1Mm9OdXFpLzRSckphbG1Yb3c5ZmFsVlJqZm8vN3N0a3NVc01IUGoxV2ZQMzdtRER4K1h5bkpwUEpDeTN2dEJYSHY2bXEraVlVM3JFb2krTU4wZ2VUeDAzdE9RQm5JQ0J5TGRYUTBManRkc2lxcW5yR01FS2cramxCckp0Nzcwd204d1c3bWdzd082TGVRaTZYNjB4QXdnVEdBakxlOWF2bFFOVG44NTBRajhmUGNvalliZWk2L2d0QStnemk5N0FTMTQrQXJKaVlKRW52bnB5Yy9JekRIUkRnRGgvU05PM0cxWEprL1A2WUEyME9vQnB6SXBHNFJwYmxhVHV1d01xbnF1cHhsTktmRElOcnF4SVEyUC9qOGZpVmdVRGdyWGJFQUltUmxVejR1d094NHhObEdLdTRkZnA0YWpLWlBGdFJsRGZZaGZuQTUxR3RWcis0c0xBQUVJNjJMMmhWM0JsRVFPenlmNjluWmw5ckJsZXIyV3grRC9ySXFxZ2N2enptQU1jdFhxMWlzZGlaVnFTZE5uTjBYWDlvWm1ibVFCWkZNQlNlRFNJZzdZSGJncElJQkFLQUNGcmh5bWNoRUcyRjZZYWhVRHp1WkN0eVFFQVo1MVFxZFFNaEpPbHdXMUZMcGRJNXpXWVRHWkpEZTFZaklFdUNJa25TUHZGNC9BcEprbFlnMVFFVWdPVUJIOFZ4M0IrSFJ2bTRvNjNFZ1dlazAybnNyMWZZVFJvaC9aUlNKRU1kN1ZScmNGQm1EVU5BTUxZaXkvTHI0L0g0NVFpenNCS0RiQzRHOVlnU2JtTUg0cUNydFRYZjIybGlZdUtqd1dEd0hVNVhLNFlHZWJpbWFYY05tMFhERUpDbHE1YmY3ejgxa1VoOHhPRUluSzlXcS84eFB6OS95ckFuTWU1djAzR2d2YWVpaXFJY0c0dkZFQ0NMNk9rVkQ2VVVWNnRQc09LaWJxTU1YRE5zR0FMU3FaTThiWEp5OG5KWmxnK3lVb0NDSlpxbW9Zd2I2cTJQOVJIWFM3UmxHNkw0elJ2aThmaW5yV1hKMnh4QmlIK2owZmhtcVZUNndMQ3ZWdTB4aGlVZ2JZbVhSVkZFQU5sbGhCQ0VHQzk3MnFtUGhVTGgvWlRTMnh5V2ZtejYzYkl5OGMrSk0vRHA2MFZSYkFjaXJzQzQwblg5L2x3dWQwUUh4dTdROTg2d0JRUXpSQUxMTWJGWURObUhLNDVGZ0YrekdpTlFxUDdXRDhMRWVOOXNlZzRzYm5BRy9uYUZLSW92Wmtsb2RsZXJiRDZmZjFldkFqaXI1ZGl3Qk1SS3h4VEExeXlBYzhzZ1dKalMvamFPNDJaV080bngrNXVLQTNzQ2gwMlc1ZGVLb3JnQy9BM3hWa2lyS0pWSzV6V2JUUlFXN1ZvQVo3V2NXU3NCUVE3NzB5T1J5QVUyQVdXTE5NTTBaNXJtbjdMWkxJcjBlSzBvNkdyNVBuN2ZoZ000T1lMQjRLaytuKzl3dXloZENBZjBqbHF0OXRWeXVYemFXdWtkbmFTdGxZQmdESmtsMDZPVVcyZU42cVVNT2NDWFVrcC9scy9uRDJOWExic2NodkZtMmhvYzJETWVqNStqS01xaFRtaVd6RjJBMmpUQVJXaFhCK3MwRXJrR2hIUEwwclVVRU5EZ2wyWDVzRmdzZG9Fa1NhaEhiVlhhQVRhd29Ha2F3bEZRZjMzb0UzVExpSEc3RGVYQTd0Rm85S04rdi8rdFRyNE9PSndOdzNoUVZkVmpOVTI3Wjcyb1hXc0J3VHpDaXFLOEl4YUxmZHd1VEFEbVgwcnBQS1gwdi9zUWtxRmJLOWFMNGVOeFZuQUFlTHFuaDhQaFk3dUJoVk5LdHhjS2hhTzZXRC9YaExYcklTQWdQT1h6K1k2UFJxTWZzYk5zc2FMdUZVM1RickVSa3JFd3JNblNqMFNudTB4TVRKekd2T1RJNGJkOWdKaWpxdXBwbXFaOTJaSnl2T1o3WTcwRUJCUFBoTVBoRDBjaWtaUHQ0SEFHUEVsR1lwWEhSTGptUU9lRzNpTVNpWndXQ0FTT2RGRElGenRsbnZLem04M205UnNScHJTZUFnTG1QQWtRTFlGQUFQcUdIVmpCNG5YTE1JemI4L244a1F5MHdEWDN4dzA5dzRFOUVMYnU4L25lME9OYWhUQ1NDNXJOSnFvSGxEZGlkdXNwSUpnZmhHVFhlRHgrUmhjaE1RekRxSm1tK1dBMm13VlUvZGhQc2hFN1k0M0dSRG1OYURSNkxpSGs1VTRLT1RzNVNwVks1Vk8xV2cybG11ZldpSnllM2E2bmdIU2FjRHVGQkVSYTZZQzlHMzZTUjFSVlBVclR0SHQ3em1UY1lPUTVRQWg1U1RLWnZFZ1FoR2ZiQWIyMUo0QnkxSlZLNWRPMVd1MnpneUlpRG9zWjZ5a2duVFF2bmlTQlFPQW9ITFZPNEdtd2U1dW0rZGpzN095cHVxNS9iMWlUSHZlejdoeEFqQjRTbmk0VUJHRzNidVVqT21xMW84YjU3THBUYWhsd293U2tmZDE2a3MvbmV3ZUs4emd4RGJGYnVxNGpDdmpxVnF0MXlVWXpiRHgrM3h4b1d6QlBFVVZ4Z2dGODJBSjJ3NVJiS3BXdWFEYWJYeHlWc240YktTQnRUdThXQ29VK0VBNkhqM05TMkppVDZQSDUrZmx2VmF0VlZHUUY0dUQ0R1gwTzdCNE1CazhJQm9OSE9LR1F0S2VBcEtkS3BmTFpScVB4WDI1TE5LL0g5RWRCUUhEZG1nb0VBaWNndUpFUUVyZWJPUE9WbEEzRHVLZFVLcUV1WWh1VWJqMzROQjZqUHc0Z3pPakFhRFQ2UG9RYldSekUxdE1ER0xyL21KdWJ1N3paYk1MUHNTb2t4UDdJN04xNkZBU2tUV1ZLVVpTam85SG9pWklrN2V4VU9vQ0Z5OStucXVyVjQ4U3IzZ3U4RGkyc3pqcXNJeUluanVWNS9rbmRmQndzdHVyQllySDRHVTNUVU1Ldm5ZNjk1ZzVBdDN3WkpRRUJ6V0ZKa3Q2WVNDUk9aTldDYk9lQks1ZXU2MDlvbXZiTFlyRjRKc2R4ajQ5Ukc5MHUrZHExZ3drWDVURVVSVGxFa3FRZHVvMkVxRnlrUEtpcWVwV3U2ejhlMVpJWm95WWc0R2xBRk1XWHhlUHhFeFJGZWJYVFNRSklJZVl2K1gwK24vK01ydXVvM29wbkhQQzRkakpnMXpPKzlnbEZVWTZLeCtOSG02YUo4ZzVJbEhQY1cvQ090MXF0NzFVcWxlc29wWGVPOHBxTm9vQXNsZ29BbEZBd0dIeVAzKzkvUzQ5akdsR2VxSjF4UDVKbzFnTFpZbjMzbTZkRzh4TkNYamd4TVhHa0pFa0g5em8xa00vUmFyV2VXRmhZdUs1V3E5M01jZHlEb3o3YlVSVVFuQUlRbEoxOFBoOThKVWQzNUNhdjRDbE9FK1M3RzRieFVMbGMvbjY5WHI5aUZHem9vNzc0cTZSdjcxQW9kSHdvRkhvVmpDeUVrQW1IL2hhVmN1VCttS2I1QjFWVi8xUFR0Rzl3SEtkMnRCOFpuY002aDFFVUVDdU5ZVm1XWHhPTlJvOWxhQ2xkYVlhamllTzRoMWlWVndCbmo2OWNxNU1FNitaRmhkOGpZckhZNFJ6SDdVMElpZlRxbmwycHZsK3BWTDVNS2YzRnFPb2JkdlB3Z29DQWJwZ045L1g1ZkVlR1FxRTMySUhUV1NjSGxHL1ROQjlWVmZWeVhkZS92d3I5WkdTL2JyMDJwb3ZmKzVsYlFwS2sxOFZpc1NNRVFYaW1JQWh4SjBDRjlyak00dmpJM056Y2pZRG42VUFmY1VIYWFEVHhpb0NBVzR2S29DUkpRSEI4cXlSSkwyRXM3RFlISlBnL2Foakd3OFZpOFhMQVUzYWNLSjJibzUrTk1ob3J0MzVVcEdSWmZ1WEV4TVNiQkVIWWp4Q1M2aFpIMVNZTHdBcXRWdXNuNVhMNUc4eEs1VW5ucnBjRXBNMTdCVG51UHAvdnpjRmc4SFYyeFVTdGU0ZnBKNC9xdXY0UFZWVS9wK3Y2ZDEwZTgwNkNzeFZ5NTZlZ2VFY2lrY05FVVh5V0lBaHBCNVNSWmV4bThYTi9ucHVidTZsZXJ5TitidVFWOFc3ZkdpOEtTT2RwOHFwb05IcVlKRW12c2xRYnNvMzFZZDc0eHppT2UwSlYxZXMwVGZ2QldKbGZ0ajBnK0xzb2l2SzZTQ1J5Q00velR4VUVJZVZHTUJnY1Q3NWVyMzluWVdIaCs3cXVBeGpROHpqTVhoV1E5cXFpY3V4VGZEN2Y2eWNtSmc2U1pmbkYzZXp2blZzQk9nclA4elBsY3ZrMlN1azNOVTM3M1NaUjZBZTVMb1lJSWM5Q2RsOGdFTmdmVmltbVk2QWliOCtIVW9vUW9OK1V5K1ZiVUErR09XNjd2VGNJalQzcFdJc0dYaEFRTjh6MHcyOUNDRGxzWW1MaUVFTElQazRoOURiSy9CelA4MDhZaHFHV3krV3ZOWnZOVzJFRjJ5VENZcmRuMnZ4VUpFbmFtK2Y1VjBZaWtSZUpvdmhranVPbW5VQ2liVHFDZnJkZ0dNYTlsVXJsVmwzWGY4amk0eWhyNjJiZDFtSlBEN1ZQTHdoSVB4TW1TTXJ4K1h5SGhVS2hWeEpDOW5SNW9yU3JvMjduT0M1bkdNYmo1WEw1bDZacDN0cHF0UjZ3NkN0ZVduZ3JyZmlRUEVVVXhZUEQ0ZkR6UkZIY0hWZ0JnaUJFTElxMzdSVzF2UkM2cmk5bWZNN056ZUVxOVNOTjArN3ZFbUhkUzQvclozM1h2ZTFtRTVBMkF5T2lLTDdFNy9lL1BCUUs0VVJ4RWhUYmpjRE1rMGp6bkRWTnN6dy9QLytMVnF0MU82WDBUNnk4MTlCaDl0ZGc1YkV4OGJlaktJclA4UGw4THc0R2cxQzJkK1E0TGkwSVFwZ0pSVmRoNktTckxSaVZTdVZIclZiclZrb3A4S25jb21KNjZjT3lOTzNOSkNCMkN4QkdYRmN3R0R3NEdBeStVQlRGZlZ5ZUtKMzdBbGNKQ0FzOHYyVk4wLzVlclZidjFqVHRBVjNYNzJQMzdWRVJHT2hrT3dKWm53VU83azhJMlluanVCaE01QWpac2F0STNFTTRNWDhBYWZ4K1lXSGg1NjFXNjFkTU1EWUVSR0VOUGlSZHU5eE1BdEp0b2hGQ3lINnlMTDhzSEE2L1FCQ0UvVzBBQTF4OVNXSEdOQXlqd3I2YzhOclg2L1g2Zy9WNi9XRmQxLzhzQ01Kam1xYmwyTzkxVnR4K21ONThmQWdranVNbVlPSTJER01uUXNndXNpdy94ZS8zSTUwMXp2UDhoR21hVVhaMWNxVm9PK2dZQmNNdzdweWJtN3ZETk0xZmFacUdFOVNUL294QkJXdXpDVWl2WTF5UUpPazVnaUM4SkJnTTdpZEowZ0VzOThUS1B5ZGhzZjN2Q04wMlRSTW1UVnczOEcrRDR6Z0VVUzdvdXA1ck5CcmJLYVV3QkVDd0VJV01Fc1VMUE04M2VKNkhrVUJiZG1TWnBteWFac2cwVFZ3Vi9hWnArckR4RVVIZzgvbDJJSVJrZUo0SDBGb0k4SzZJZ09aNUhsY21Iek5PT0sxcno0OEF1MFk5MG1nMGZsdXRWbitqYVJxaWJZR0RPNVN5eW9OdTFJMTZiN01KQ1BqWVMwamF2SDY2b2lnSFRVeE1IQWdMRHMvemU3aTA5N3RlSythZ0JEb0xoQVpmWG13eWcrZDVhcG9tWVB2eEwzNWZ1cUx4UEk4MXdSeGtudWNWbnVjbDB6UnhkWUlnaENBWTBCMjY1WGE3SnBBMVpDbk5PQTMvV3EvWEg2alZhbmRvbXZaekYrYmFmb2Z5WFB2TktDRDlDQW5hNHN2OFBKL1BkNGpmNzMreUtJcTc4RHkvYThmWGVDMFh0ZWNYZlJXRDIvWGQrZDhXZFF1TzR4NXV0VnAvclZhcmR4bUc4VXROMCtENTlyeURieFY4Vy9icVpoV1E5aVRkbmlidDlsT2lLQ0tNNVVDLzM3ODdVM0JoQlVyeFBDOE93UFJoQ01BdytnRHB3QnFEL3BUbGVmNXhUZE5tNi9YNi9VenBCdTdZU09XQ0Q4RHJOWGxsc3d2SWFwZzJTUWlCeitDWmZyLy9XVURsRUFRQkphNHpvaWhDRVI1RVlGWkRUNy92SXVVUzViZFZPRUlwcFRPTlJ1T3haclA1QjQ3amZxZHAycU45SUJiMis2SHBsOWFSYlQ4V0VQYzZ5Mjd3cHdpQ3NFOG9GTnBiRk1Xa0tJcVR1S0xCakNxS1l0U3Q5NzdQM2VEbUJJRXdvUFlqVEsrcVlSaDV3ekNLalVZREo4VmZkRjMvUGFVVTBRRXdWWStLU2JwUE5teE04N0dBOU1mMzlwY1Vwd2V5NkhZV0JPRkpnaURzRWdnRTlvQjVGZGhlK0ZjUUJGaWhrR1dIUHlqY0VzRHhMRUxrWnZNdlhvK1lBRURKaCtrWUZyQUYwelFydXE3akQvVlZpczFtODFGSzZjT0NJUHdkc1dZTThMa2QrdEhmVE1ldEZ6a3dGcERoYmdSazF3R1pKV1dhNWlUUDg1T2lLTzRJWVlIbldwWmwvSzRJZ3NERE1zVUVCaFlxckFPRUR2L3FzSERoZXNUei9PTFhudFdZTHlOYkVsY20welJuY0VMd1BEK3JhVnFlb1JCdVNUUHNjSmR2Wlc5akFWbHJEaS92SDBJQWdWZzA0ekxUTFp4K2VQRC84ZC9oRTRFZkJXWmhDQWpXQ0NaaE9CdmJ1ZnJEZER5dUx3YzhOdHBZUUR5MllHTnkxNWNEWXdIcHpXK3ZXWEJBTDU3eEtkTjdiWHUyR0F0SVR4YTVhakJxUWpScTlMaGk0aWcyR2d2SXhxektzRGZ3K05SWW8zVWNDOGdhTWRhbTIyRUx4ZnBSdm9WSCtuODhFdzl6MUFLV0F3QUFBQUJKUlU1RXJrSmdnZz09IiBoZWlnaHQ9IjIwMCIgd2lkdGg9IjIwMCIgaWQ9ImltYWdlMF8yMjAxXzEyMDkiLz4mI3hhOzwvZGVmcz4mI3hhOzwvc3ZnPg==;" vertex="1" parent="6SOhbdRmg-bUomSC-oUc-44">
          <mxGeometry x="37.004285714285714" y="100" width="155.71428571428572" height="45.714285714285715" as="geometry" />
        </mxCell>
        <mxCell id="6SOhbdRmg-bUomSC-oUc-49" value="&lt;font style=&quot;color: light-dark(rgb(230, 56, 56), rgb(237, 237, 237)); font-size: 28px;&quot;&gt;TASKFI&lt;/font&gt;" style="text;html=1;align=center;verticalAlign=middle;resizable=0;points=[];autosize=1;strokeColor=none;fillColor=none;" vertex="1" parent="6SOhbdRmg-bUomSC-oUc-44">
          <mxGeometry x="55" y="20" width="120" height="50" as="geometry" />
        </mxCell>
        <mxCell id="6SOhbdRmg-bUomSC-oUc-52" style="edgeStyle=orthogonalEdgeStyle;rounded=0;orthogonalLoop=1;jettySize=auto;html=1;entryX=0.5;entryY=0;entryDx=0;entryDy=0;" edge="1" parent="1" source="6SOhbdRmg-bUomSC-oUc-51" target="6SOhbdRmg-bUomSC-oUc-45">
          <mxGeometry relative="1" as="geometry" />
        </mxCell>
        <mxCell id="6SOhbdRmg-bUomSC-oUc-51" value="&lt;font style=&quot;font-size: 14px;&quot;&gt;&lt;b&gt;User Workload&lt;/b&gt;&lt;/font&gt;" style="rounded=1;whiteSpace=wrap;html=1;gradientColor=none;fillColor=light-dark(#e63838, #ededed);fontColor=#FFFFFF;shadow=1;strokeColor=none;" vertex="1" parent="1">
          <mxGeometry x="1165" y="1420" width="200" height="53" as="geometry" />
        </mxCell>
        <mxCell id="6SOhbdRmg-bUomSC-oUc-59" value="" style="edgeStyle=orthogonalEdgeStyle;rounded=0;orthogonalLoop=1;jettySize=auto;html=1;" edge="1" parent="1" source="6SOhbdRmg-bUomSC-oUc-53" target="6SOhbdRmg-bUomSC-oUc-45">
          <mxGeometry relative="1" as="geometry" />
        </mxCell>
        <mxCell id="6SOhbdRmg-bUomSC-oUc-53" value="&lt;font style=&quot;font-size: 14px;&quot;&gt;&lt;b&gt;Task Profiling&lt;/b&gt;&lt;/font&gt;" style="rounded=1;whiteSpace=wrap;html=1;gradientColor=none;fillColor=light-dark(#e63838, #ededed);fontColor=#FFFFFF;shadow=1;strokeColor=none;" vertex="1" parent="1">
          <mxGeometry x="860" y="1593" width="200" height="53" as="geometry" />
        </mxCell>
        <mxCell id="6SOhbdRmg-bUomSC-oUc-60" value="" style="edgeStyle=orthogonalEdgeStyle;rounded=0;orthogonalLoop=1;jettySize=auto;html=1;" edge="1" parent="1" source="6SOhbdRmg-bUomSC-oUc-54" target="6SOhbdRmg-bUomSC-oUc-45">
          <mxGeometry relative="1" as="geometry" />
        </mxCell>
        <mxCell id="6SOhbdRmg-bUomSC-oUc-54" value="&lt;font style=&quot;font-size: 14px;&quot;&gt;&lt;b&gt;Smart Routing&lt;/b&gt;&lt;/font&gt;" style="rounded=1;whiteSpace=wrap;html=1;gradientColor=none;fillColor=light-dark(#e63838, #ededed);fontColor=#FFFFFF;shadow=1;strokeColor=none;" vertex="1" parent="1">
          <mxGeometry x="860" y="1694" width="200" height="53" as="geometry" />
        </mxCell>
        <mxCell id="6SOhbdRmg-bUomSC-oUc-61" value="" style="edgeStyle=orthogonalEdgeStyle;rounded=0;orthogonalLoop=1;jettySize=auto;html=1;" edge="1" parent="1" source="6SOhbdRmg-bUomSC-oUc-55" target="6SOhbdRmg-bUomSC-oUc-45">
          <mxGeometry relative="1" as="geometry" />
        </mxCell>
        <mxCell id="6SOhbdRmg-bUomSC-oUc-55" value="&lt;font style=&quot;font-size: 14px;&quot;&gt;&lt;b&gt;Network Abstraction&lt;/b&gt;&lt;/font&gt;" style="rounded=1;whiteSpace=wrap;html=1;gradientColor=none;fillColor=light-dark(#e63838, #ededed);fontColor=#FFFFFF;shadow=1;strokeColor=none;" vertex="1" parent="1">
          <mxGeometry x="1470" y="1593" width="200" height="53" as="geometry" />
        </mxCell>
        <mxCell id="6SOhbdRmg-bUomSC-oUc-62" value="" style="edgeStyle=orthogonalEdgeStyle;rounded=0;orthogonalLoop=1;jettySize=auto;html=1;" edge="1" parent="1" source="6SOhbdRmg-bUomSC-oUc-56" target="6SOhbdRmg-bUomSC-oUc-45">
          <mxGeometry relative="1" as="geometry" />
        </mxCell>
        <mxCell id="6SOhbdRmg-bUomSC-oUc-56" value="&lt;font style=&quot;font-size: 14px;&quot;&gt;&lt;b&gt;Provider SDKs&lt;/b&gt;&lt;/font&gt;" style="rounded=1;whiteSpace=wrap;html=1;gradientColor=none;fillColor=light-dark(#e63838, #ededed);fontColor=#FFFFFF;shadow=1;strokeColor=none;" vertex="1" parent="1">
          <mxGeometry x="1470" y="1694" width="200" height="53" as="geometry" />
        </mxCell>
        <mxCell id="6SOhbdRmg-bUomSC-oUc-63" value="" style="group;fillColor=none;" vertex="1" connectable="0" parent="1">
          <mxGeometry x="895" y="1873" width="230" height="76" as="geometry" />
        </mxCell>
        <mxCell id="6SOhbdRmg-bUomSC-oUc-64" value="&lt;font style=&quot;color: light-dark(rgb(230, 56, 56), rgb(237, 237, 237)); font-size: 14px;&quot;&gt;&lt;b style=&quot;&quot;&gt;RENDER NETTWORK&lt;/b&gt;&lt;/font&gt;" style="rounded=1;whiteSpace=wrap;html=1;fillColor=#FFFFFF;strokeColor=light-dark(#e74040, #ededed);labelBorderColor=none;fontColor=#FFFFFF;shadow=1;" vertex="1" parent="6SOhbdRmg-bUomSC-oUc-63">
          <mxGeometry width="229.99999999999997" height="76" as="geometry" />
        </mxCell>
        <mxCell id="6SOhbdRmg-bUomSC-oUc-67" value="" style="group;fillColor=none;" vertex="1" connectable="0" parent="1">
          <mxGeometry x="1150" y="1873" width="230" height="76" as="geometry" />
        </mxCell>
        <mxCell id="6SOhbdRmg-bUomSC-oUc-68" value="&lt;span style=&quot;color: rgb(230, 56, 56);&quot;&gt;&lt;b&gt;&lt;font style=&quot;font-size: 14px;&quot;&gt;GOLEM NETTWORK&lt;/font&gt;&lt;/b&gt;&lt;/span&gt;" style="rounded=1;whiteSpace=wrap;html=1;fillColor=#FFFFFF;strokeColor=light-dark(#e74040, #ededed);labelBorderColor=none;fontColor=#FFFFFF;shadow=1;" vertex="1" parent="6SOhbdRmg-bUomSC-oUc-67">
          <mxGeometry width="229.99999999999997" height="76" as="geometry" />
        </mxCell>
        <mxCell id="6SOhbdRmg-bUomSC-oUc-69" value="" style="group;fillColor=none;" vertex="1" connectable="0" parent="1">
          <mxGeometry x="1410" y="1873" width="230" height="76" as="geometry" />
        </mxCell>
        <mxCell id="6SOhbdRmg-bUomSC-oUc-70" value="&lt;span style=&quot;color: rgb(230, 56, 56);&quot;&gt;&lt;b&gt;&lt;font style=&quot;font-size: 14px;&quot;&gt;Y NETTWORK&lt;/font&gt;&lt;/b&gt;&lt;/span&gt;" style="rounded=1;whiteSpace=wrap;html=1;fillColor=#FFFFFF;strokeColor=light-dark(#e74040, #ededed);labelBorderColor=none;fontColor=#FFFFFF;shadow=1;" vertex="1" parent="6SOhbdRmg-bUomSC-oUc-69">
          <mxGeometry width="229.99999999999997" height="76" as="geometry" />
        </mxCell>
        <mxCell id="6SOhbdRmg-bUomSC-oUc-72" style="edgeStyle=orthogonalEdgeStyle;rounded=0;orthogonalLoop=1;jettySize=auto;html=1;" edge="1" parent="1" source="6SOhbdRmg-bUomSC-oUc-45" target="6SOhbdRmg-bUomSC-oUc-64">
          <mxGeometry relative="1" as="geometry">
            <Array as="points">
              <mxPoint x="1265" y="1793" />
              <mxPoint x="1007" y="1793" />
            </Array>
          </mxGeometry>
        </mxCell>
        <mxCell id="6SOhbdRmg-bUomSC-oUc-73" style="edgeStyle=orthogonalEdgeStyle;rounded=0;orthogonalLoop=1;jettySize=auto;html=1;" edge="1" parent="1" source="6SOhbdRmg-bUomSC-oUc-45" target="6SOhbdRmg-bUomSC-oUc-68">
          <mxGeometry relative="1" as="geometry" />
        </mxCell>
        <mxCell id="6SOhbdRmg-bUomSC-oUc-74" style="edgeStyle=orthogonalEdgeStyle;rounded=0;orthogonalLoop=1;jettySize=auto;html=1;" edge="1" parent="1" source="6SOhbdRmg-bUomSC-oUc-45" target="6SOhbdRmg-bUomSC-oUc-70">
          <mxGeometry relative="1" as="geometry">
            <Array as="points">
              <mxPoint x="1265" y="1793" />
              <mxPoint x="1522" y="1793" />
            </Array>
          </mxGeometry>
        </mxCell>
        <mxCell id="6SOhbdRmg-bUomSC-oUc-75" value="&lt;font style=&quot;font-size: 14px;&quot;&gt;&lt;b&gt;Result Verifier&lt;/b&gt;&lt;/font&gt;" style="rounded=1;whiteSpace=wrap;html=1;gradientColor=none;fillColor=light-dark(#e63838, #ededed);fontColor=#FFFFFF;shadow=1;strokeColor=none;" vertex="1" parent="1">
          <mxGeometry x="1060" y="2033" width="410" height="53" as="geometry" />
        </mxCell>
        <mxCell id="6SOhbdRmg-bUomSC-oUc-76" style="edgeStyle=orthogonalEdgeStyle;rounded=0;orthogonalLoop=1;jettySize=auto;html=1;entryX=0.5;entryY=0;entryDx=0;entryDy=0;" edge="1" parent="1" source="6SOhbdRmg-bUomSC-oUc-64" target="6SOhbdRmg-bUomSC-oUc-75">
          <mxGeometry relative="1" as="geometry" />
        </mxCell>
        <mxCell id="6SOhbdRmg-bUomSC-oUc-77" value="" style="edgeStyle=orthogonalEdgeStyle;rounded=0;orthogonalLoop=1;jettySize=auto;html=1;" edge="1" parent="1" source="6SOhbdRmg-bUomSC-oUc-68" target="6SOhbdRmg-bUomSC-oUc-75">
          <mxGeometry relative="1" as="geometry" />
        </mxCell>
        <mxCell id="6SOhbdRmg-bUomSC-oUc-78" style="edgeStyle=orthogonalEdgeStyle;rounded=0;orthogonalLoop=1;jettySize=auto;html=1;" edge="1" parent="1" source="6SOhbdRmg-bUomSC-oUc-70" target="6SOhbdRmg-bUomSC-oUc-75">
          <mxGeometry relative="1" as="geometry" />
        </mxCell>
        <mxCell id="6SOhbdRmg-bUomSC-oUc-79" value="cv" style="shape=image;verticalLabelPosition=bottom;labelBackgroundColor=default;verticalAlign=top;aspect=fixed;imageAspect=0;editableCssRules=.*;image=data:image/svg+xml,PHN2ZyB4bWxuczp4bGluaz0iaHR0cDovL3d3dy53My5vcmcvMTk5OS94bGluayIgeG1sbnM9Imh0dHA6Ly93d3cudzMub3JnLzIwMDAvc3ZnIiBmaWxsPSJub25lIiB2aWV3Qm94PSIwIDAgMTA5IDMyIiBoZWlnaHQ9IjMyIiB3aWR0aD0iMTA5Ij4mI3hhOzxyZWN0IGZpbGw9InVybCgjcGF0dGVybjBfMjIwMV8xMjA5KSIgaGVpZ2h0PSIzMiIgd2lkdGg9IjMyIi8+JiN4YTs8cGF0aCBmaWxsPSIjMjQyNTMyIiBkPSJNNzEuMjc4NyAxMy43OTYzQzcwLjUyOTYgMTMuNzk2MyA2OS44NzUzIDEzLjYxODEgNjkuMzE2MSAxMy4yNjE2QzY4Ljc2NzQgMTIuOTA1MSA2OC4zNDUzIDEyLjQwODIgNjguMDQ5OSAxMS43NzA4QzY3Ljc1NDQgMTEuMTMzNSA2Ny42MDY3IDEwLjQwNDMgNjcuNjA2NyA5LjU4MzMzQzY3LjYwNjcgOC43NjIzNSA2Ny43NTQ0IDguMDMzMTggNjguMDQ5OSA3LjM5NTgzQzY4LjM0NTMgNi43NTg0OSA2OC43NzI3IDYuMjYxNTcgNjkuMzMxOSA1LjkwNTA5QzY5Ljg5MTIgNS41NDg2MSA3MC41NTA3IDUuMzcwMzcgNzEuMzEwNCA1LjM3MDM3QzcxLjgwNjMgNS4zNzAzNyA3Mi4yNjUzIDUuNDcyOTkgNzIuNjg3NCA1LjY3ODI0QzczLjEyIDUuODgzNDkgNzMuNDYzIDYuMTUzNTUgNzMuNzE2MiA2LjQ4ODQzVjJINzUuNjQ3MlYxMy42NjY3SDczLjcxNjJWMTIuNjQ1OEM3My40NzM1IDEyLjk5MTUgNzMuMTMwNiAxMy4yNzI0IDcyLjY4NzQgMTMuNDg4NEM3Mi4yNTQ4IDEzLjY5MzcgNzEuNzg1MiAxMy43OTYzIDcxLjI3ODcgMTMuNzk2M1pNNzEuNjc0NCAxMi4wNzg3QzcyLjEwNyAxMi4wNzg3IDcyLjQ4MTYgMTEuOTc2MSA3Mi43OTgyIDExLjc3MDhDNzMuMTI1MyAxMS41NjU2IDczLjM3ODUgMTEuMjczOSA3My41NTc5IDEwLjg5NThDNzMuNzM3MyAxMC41MTc3IDczLjgyNyAxMC4wODAyIDczLjgyNyA5LjU4MzMzQzczLjgyNyA4LjgyNzE2IDczLjYzMTggOC4yMjIyMiA3My4yNDE0IDcuNzY4NTJDNzIuODUxIDcuMzE0ODEgNzIuMzMzOSA3LjA4Nzk2IDcxLjY5MDMgNy4wODc5NkM3MS4yNTc2IDcuMDg3OTYgNzAuODc3OCA3LjE5MDU5IDcwLjU1MDcgNy4zOTU4M0M3MC4yMzQxIDcuNjAxMDggNjkuOTg2MSA3Ljg5Mjc1IDY5LjgwNjggOC4yNzA4M0M2OS42Mjc0IDguNjQ4OTIgNjkuNTM3NyA5LjA4NjQyIDY5LjUzNzcgOS41ODMzM0M2OS41Mzc3IDEwLjMzOTUgNjkuNzMyOSAxMC45NDQ0IDcwLjEyMzMgMTEuMzk4MUM3MC41MTM3IDExLjg1MTkgNzEuMDMwOCAxMi4wNzg3IDcxLjY3NDQgMTIuMDc4N1oiIGNsaXAtcnVsZT0iZXZlbm9kZCIgZmlsbC1ydWxlPSJldmVub2RkIi8+JiN4YTs8cGF0aCBmaWxsPSIjMjQyNTMyIiBkPSJNNzkuMDEwNyAxMy4xOTY4Qzc5LjYyMjcgMTMuNTk2NSA4MC4zNTA4IDEzLjc5NjMgODEuMTk0OSAxMy43OTYzQzgyLjE4NjggMTMuNzk2MyA4My4wMjA0IDEzLjUzNyA4My42OTU3IDEzLjAxODVDODQuMzgxNiAxMi41IDg0Ljc5ODQgMTEuODA4NiA4NC45NDYxIDEwLjk0NDRIODMuMDQ2OEM4Mi45NTE4IDExLjMzMzMgODIuNzQwOCAxMS42MzA0IDgyLjQxMzcgMTEuODM1NkM4Mi4wOTcxIDEyLjA0MDkgODEuNjkwOSAxMi4xNDM1IDgxLjE5NDkgMTIuMTQzNUM4MC43NTE3IDEyLjE0MzUgODAuMzYxMyAxMi4wMzU1IDgwLjAyMzcgMTEuODE5NEM3OS42OTY2IDExLjYwMzQgNzkuNDQzMyAxMS4zMDA5IDc5LjI2MzkgMTAuOTEyQzc5LjE0MTcgMTAuNjM5NyA3OS4wNjExIDEwLjMzNzIgNzkuMDIyMiAxMC4wMDQ2SDg0Ljg4MjhDODQuOTAzOSA5Ljc4ODU4IDg0LjkxNDQgOS41NTYzMyA4NC45MTQ0IDkuMzA3ODdDODQuOTE0NCA4LjYyNzMyIDg0Ljc3MiA3Ljk4OTk3IDg0LjQ4NzEgNy4zOTU4NEM4NC4yMDIyIDYuODAxNyA4My43Njk2IDYuMzE1NTkgODMuMTg5MiA1LjkzNzVDODIuNjA4OSA1LjU1OTQyIDgxLjg5NjYgNS4zNzAzNyA4MS4wNTI1IDUuMzcwMzdDODAuMjE4OSA1LjM3MDM3IDc5LjUwNjYgNS41NjQ4MiA3OC45MTU3IDUuOTUzNzFDNzguMzM1NCA2LjM0MjYgNzcuODkyMiA2Ljg1NTcxIDc3LjU4NjIgNy40OTMwNkM3Ny4yOTA4IDguMTMwNCA3Ny4xNDMgOC44MTYzNiA3Ny4xNDMgOS41NTA5M0M3Ny4xNDMgMTAuMjg1NSA3Ny4zMDEzIDEwLjk3NjkgNzcuNjE3OSAxMS42MjVDNzcuOTQ1IDEyLjI3MzIgNzguNDA5MiAxMi43OTcxIDc5LjAxMDcgMTMuMTk2OFpNNzkuMDcwNyA4LjY0MzUyQzc5LjEwOTYgOC40MzkxNyA3OS4xNjM1IDguMjUwMTMgNzkuMjMyMyA4LjA3NjM5Qzc5LjM5MDYgNy42NzY3IDc5LjYyMjcgNy4zNzk2MyA3OS45Mjg3IDcuMTg1MTlDODAuMjQ1MyA2Ljk3OTk0IDgwLjYxOTkgNi44NzczMiA4MS4wNTI1IDYuODc3MzJDODEuNjIyMyA2Ljg3NzMyIDgyLjA3NiA3LjAzOTM1IDgyLjQxMzcgNy4zNjM0M0M4Mi43NTEzIDcuNjg3NSA4Mi45MzYgOC4xMTQyIDgyLjk2NzYgOC42NDM1Mkg3OS4wNzA3WiIgY2xpcC1ydWxlPSJldmVub2RkIiBmaWxsLXJ1bGU9ImV2ZW5vZGQiLz4mI3hhOzxwYXRoIGZpbGw9IiMyNDI1MzIiIGQ9Ik04Ni40NzQ2IDUuNDk5OTlIODguNDIxNFY2Ljk0MjEyQzg4LjYxMTMgNi40MjM2IDg4Ljg2OTggNi4wNTYzMiA4OS4xOTY5IDUuODQwMjdDODkuNTI0IDUuNjEzNDIgODkuOTQ2MSA1LjQ5OTk5IDkwLjQ2MzEgNS40OTk5OUg5MS4zOTdWNy4xNjg5N0g5MC4xNDY2Qzg5LjU0NTEgNy4xNjg5NyA4OS4xMDcyIDcuNDA2NjMgODguODMyOSA3Ljg4MTk0Qzg4LjU1ODUgOC4zNDY0NCA4OC40MjE0IDguOTg5MTkgODguNDIxNCA5LjgxMDE4VjEzLjY2NjdIODYuNDc0NlY1LjQ5OTk5WiIvPiYjeGE7PHBhdGggZmlsbD0iIzI0MjUzMiIgZD0iTTEwNS42NzYgMTkuNUgxMDQuMDYyVjIzLjQwNTFIMTA0Ljk5NlYyMi4wMjc4SDEwNS41NUMxMDUuNjk3IDIyLjAyNzggMTA1LjgwMyAyMi4wNjU2IDEwNS44NjYgMjIuMTQxMkMxMDUuOTQgMjIuMjE2OCAxMDUuOTg3IDIyLjM0NjQgMTA2LjAwOSAyMi41MzAxTDEwNi4xMDQgMjMuNDA1MUgxMDcuMDIyTDEwNi45MTEgMjIuMzUxOEMxMDYuODkgMjIuMTU3NCAxMDYuODQ3IDIyLjAwMDggMTA2Ljc4NCAyMS44ODE5QzEwNi43MjEgMjEuNzUyMyAxMDYuNjIxIDIxLjY0NDMgMTA2LjQ4MyAyMS41NTc5QzEwNi42NDIgMjEuNDkzIDEwNi43NjggMjEuMzg1IDEwNi44NjMgMjEuMjMzOEMxMDYuOTU4IDIxLjA3MTcgMTA3LjAwNiAyMC44ODI3IDEwNy4wMDYgMjAuNjY2N0MxMDcuMDA2IDIwLjMxMDIgMTA2Ljg5IDIwLjAyOTMgMTA2LjY1NyAxOS44MjQxQzEwNi40MjUgMTkuNjA4IDEwNi4wOTggMTkuNSAxMDUuNjc2IDE5LjVaTTEwNS45NjEgMjEuMDg4QzEwNS44NzcgMjEuMTYzNiAxMDUuNzU1IDIxLjIwMTQgMTA1LjU5NyAyMS4yMDE0SDEwNC45OTZWMjAuMzQyNkgxMDUuNTk3QzEwNS43NTUgMjAuMzQyNiAxMDUuODc3IDIwLjM4MDQgMTA1Ljk2MSAyMC40NTZDMTA2LjA0NiAyMC41MzE2IDEwNi4wODggMjAuNjM0MiAxMDYuMDg4IDIwLjc2MzlDMTA2LjA4OCAyMC45MDQzIDEwNi4wNDYgMjEuMDEyMyAxMDUuOTYxIDIxLjA4OFoiIGNsaXAtcnVsZT0iZXZlbm9kZCIgZmlsbC1ydWxlPSJldmVub2RkIi8+JiN4YTs8cGF0aCBmaWxsPSIjMjQyNTMyIiBkPSJNMTAzLjYzNCAyNC42NjlDMTA0LjE3MyAyNC45NzE0IDEwNC43ODUgMjUuMTIyNyAxMDUuNDcgMjUuMTIyN0MxMDYuMTQ2IDI1LjEyMjcgMTA2Ljc1MiAyNC45NzE0IDEwNy4yOTEgMjQuNjY5QzEwNy44MjkgMjQuMzU1NyAxMDguMjQ2IDIzLjkyMzYgMTA4LjU0MSAyMy4zNzI3QzEwOC44NDcgMjIuODIxNyAxMDkgMjIuMTk1MiAxMDkgMjEuNDkzQzEwOSAyMC44MDE3IDEwOC44NDcgMjAuMTgwNSAxMDguNTQxIDE5LjYyOTZDMTA4LjI0NiAxOS4wNzg3IDEwNy44MjkgMTguNjUyIDEwNy4yOTEgMTguMzQ5NUMxMDYuNzUyIDE4LjAzNjMgMTA2LjE0NiAxNy44Nzk2IDEwNS40NyAxNy44Nzk2QzEwNC43ODUgMTcuODc5NiAxMDQuMTczIDE4LjAzNjMgMTAzLjYzNCAxOC4zNDk1QzEwMy4xMDcgMTguNjUyIDEwMi42OSAxOS4wNzg3IDEwMi4zODQgMTkuNjI5NkMxMDIuMDc4IDIwLjE4MDUgMTAxLjkyNSAyMC44MDE3IDEwMS45MjUgMjEuNDkzQzEwMS45MjUgMjIuMTk1MiAxMDIuMDc4IDIyLjgyMTcgMTAyLjM4NCAyMy4zNzI3QzEwMi42OSAyMy45MjM2IDEwMy4xMDcgMjQuMzU1NyAxMDMuNjM0IDI0LjY2OVpNMTA2Ljg0NyAyMy45MDc0QzEwNi40NDYgMjQuMTQ1MSAxMDUuOTg3IDI0LjI2MzkgMTA1LjQ3IDI0LjI2MzlDMTA0Ljk1MyAyNC4yNjM5IDEwNC40OTQgMjQuMTQ1MSAxMDQuMDkzIDIzLjkwNzRDMTAzLjY5MiAyMy42Njk3IDEwMy4zNzYgMjMuMzQwMyAxMDMuMTQ0IDIyLjkxOUMxMDIuOTIyIDIyLjQ5NzcgMTAyLjgxMSAyMi4wMjI0IDEwMi44MTEgMjEuNDkzQzEwMi44MTEgMjAuOTc0NSAxMDIuOTIyIDIwLjUxIDEwMy4xNDQgMjAuMDk5NUMxMDMuMzc2IDE5LjY3ODIgMTAzLjY5MiAxOS4zNDg4IDEwNC4wOTMgMTkuMTExMUMxMDQuNDk0IDE4Ljg3MzQgMTA0Ljk1MyAxOC43NTQ2IDEwNS40NyAxOC43NTQ2QzEwNS45NzcgMTguNzU0NiAxMDYuNDMxIDE4Ljg3MzQgMTA2LjgzMiAxOS4xMTExQzEwNy4yNDMgMTkuMzM4IDEwNy41NiAxOS42NjIgMTA3Ljc4MSAyMC4wODMzQzEwOC4wMTMgMjAuNDkzOCAxMDguMTI5IDIwLjk2MzcgMTA4LjEyOSAyMS40OTNDMTA4LjEyOSAyMi4wMjI0IDEwOC4wMTkgMjIuNDk3NyAxMDcuNzk3IDIyLjkxOUMxMDcuNTc2IDIzLjM0MDMgMTA3LjI1OSAyMy42Njk3IDEwNi44NDcgMjMuOTA3NFoiIGNsaXAtcnVsZT0iZXZlbm9kZCIgZmlsbC1ydWxlPSJldmVub2RkIi8+JiN4YTs8cGF0aCBmaWxsPSIjMjQyNTMyIiBkPSJNOTUuNDU0MiAyNy4xNjEyVjI5Ljg3MDRIOTMuNTA3NFYxOC4yMDM3SDk1LjQ1NDJWMjQuNjk5NUw5OC41MDg5IDIxLjcwMzdIMTAwLjk3OEw5Ny43MzA0IDI0LjkxMjNMMTAxLjI0NyAyOS44NzA0SDk4LjkwNDZMOTYuNDA5NiAyNi4yMTczTDk1LjQ1NDIgMjcuMTYxMloiLz4mI3hhOzxwYXRoIGZpbGw9IiMyNDI1MzIiIGQ9Ik04Ny40MTc0IDIxLjcwMzdIODkuMzY0MlYyMy4xNDU4Qzg5LjU1NDIgMjIuNjI3MyA4OS44MTI3IDIyLjI2IDkwLjEzOTggMjIuMDQ0QzkwLjQ2NjkgMjEuODE3MSA5MC44ODkgMjEuNzAzNyA5MS40MDYgMjEuNzAzN0g5Mi4zMzk4VjIzLjM3MjdIOTEuMDg5NEM5MC40ODggMjMuMzcyNyA5MC4wNTAxIDIzLjYxMDMgODkuNzc1NyAyNC4wODU2Qzg5LjUwMTQgMjQuNTUwMSA4OS4zNjQyIDI1LjE5MjkgODkuMzY0MiAyNi4wMTM5VjI5Ljg3MDRIODcuNDE3NFYyMS43MDM3WiIvPiYjeGE7PHBhdGggZmlsbD0iIzI0MjUzMiIgZD0iTTc5LjYwMTggMjkuNDQ5MUM4MC4yMzQ5IDI5LjgxNjQgODAuOTUyNCAzMCA4MS43NTQzIDMwQzgyLjU0NTcgMzAgODMuMjU4IDI5LjgxNjQgODMuODkxMSAyOS40NDkxQzg0LjUyNDIgMjkuMDgxOCA4NS4wMjAxIDI4LjU3OTUgODUuMzc4OSAyNy45NDIxQzg1LjczNzYgMjcuMzA0OCA4NS45MTcgMjYuNTg2NCA4NS45MTcgMjUuNzg3Qzg1LjkxNyAyNC45ODc3IDg1LjczNzYgMjQuMjY5MyA4NS4zNzg5IDIzLjYzMTlDODUuMDIwMSAyMi45OTQ2IDg0LjUyNDIgMjIuNDkyMyA4My44OTExIDIyLjEyNUM4My4yNTggMjEuNzU3NyA4Mi41NDU3IDIxLjU3NDEgODEuNzU0MyAyMS41NzQxQzgwLjk1MjQgMjEuNTc0MSA4MC4yMzQ5IDIxLjc1NzcgNzkuNjAxOCAyMi4xMjVDNzguOTY4NyAyMi40OTIzIDc4LjQ3MjcgMjIuOTk0NiA3OC4xMTQgMjMuNjMxOUM3Ny43NTUyIDI0LjI2OTMgNzcuNTc1OCAyNC45ODc3IDc3LjU3NTggMjUuNzg3Qzc3LjU3NTggMjYuNTg2NCA3Ny43NTUyIDI3LjMwNDggNzguMTE0IDI3Ljk0MjFDNzguNDcyNyAyOC41Nzk1IDc4Ljk2ODcgMjkuMDgxOCA3OS42MDE4IDI5LjQ0OTFaTTgyLjg5MzkgMjcuOTc0NUM4Mi41NjY4IDI4LjE3OTggODIuMTg3IDI4LjI4MjQgODEuNzU0MyAyOC4yODI0QzgxLjMyMTcgMjguMjgyNCA4MC45MzY2IDI4LjE3OTggODAuNTk4OSAyNy45NzQ1QzgwLjI2MTMgMjcuNzU4NSA3OS45OTc1IDI3LjQ2MTQgNzkuODA3NSAyNy4wODMzQzc5LjYyODEgMjYuNzA1MiA3OS41Mzg1IDI2LjI3MzEgNzkuNTM4NSAyNS43ODdDNzkuNTM4NSAyNS4zMDA5IDc5LjYyODEgMjQuODY4OCA3OS44MDc1IDI0LjQ5MDdDNzkuOTk3NSAyNC4xMTI3IDgwLjI2MTMgMjMuODIxIDgwLjU5ODkgMjMuNjE1N0M4MC45MzY2IDIzLjM5OTcgODEuMzIxNyAyMy4yOTE3IDgxLjc1NDMgMjMuMjkxN0M4Mi4xNzY0IDIzLjI5MTcgODIuNTU2MyAyMy4zOTk3IDgyLjg5MzkgMjMuNjE1N0M4My4yMzE2IDIzLjgyMSA4My40OTAxIDI0LjExMjcgODMuNjY5NSAyNC40OTA3QzgzLjg1OTQgMjQuODY4OCA4My45NTQ0IDI1LjMwMDkgODMuOTU0NCAyNS43ODdDODMuOTU0NCAyNi4yNzMxIDgzLjg1OTQgMjYuNzA1MiA4My42Njk1IDI3LjA4MzNDODMuNDkwMSAyNy40NjE0IDgzLjIzMTYgMjcuNzU4NSA4Mi44OTM5IDI3Ljk3NDVaIiBjbGlwLXJ1bGU9ImV2ZW5vZGQiIGZpbGwtcnVsZT0iZXZlbm9kZCIvPiYjeGE7PHBhdGggZmlsbD0iIzI0MjUzMiIgZD0iTTY1LjMxMDkgMjEuNzAzN0g2Ny4yNTc3TDY4LjcxMzkgMjcuMTY0M0w3MC4yOTY2IDIxLjcwMzdINzIuMDY5M0w3My42MzYzIDI3LjE2NDNMNzUuMTA4MiAyMS43MDM3SDc3LjAzOTJMNzQuNTA2OCAyOS44NzA0SDcyLjc4MTZMNzEuMTgzIDI0LjM3NzNMNjkuNTY4NSAyOS44NzA0SDY3Ljg1OTJMNjUuMzEwOSAyMS43MDM3WiIvPiYjeGE7PHBhdGggZmlsbD0iIzI0MjUzMiIgZD0iTTYxLjkzMjIgMjkuNTMwMUM2Mi4zNjQ4IDI5Ljc1NjkgNjIuODcxMyAyOS44NzA0IDYzLjQ1MTYgMjkuODcwNEg2NC43MzM3VjI4LjIwMTRINjMuNjczMkM2My4zMDM5IDI4LjIwMTQgNjMuMDE5IDI4LjA5MzMgNjIuODE4NSAyNy44NzczQzYyLjYxODEgMjcuNjYxMiA2Mi41MTc4IDI3LjM0OCA2Mi41MTc4IDI2LjkzNzVWMjMuMzcyN0g2NC43MzM3VjIxLjcwMzdINjIuNTE3OFYxOS4yNDA3SDYwLjU3MVYyMS43MDM3SDU5LjAwNDFWMjMuMzcyN0g2MC41NzFWMjcuMDE4NUM2MC41NzEgMjcuNjEyNiA2MC42ODcxIDI4LjEyNTggNjAuOTE5MiAyOC41NTc5QzYxLjE2MTkgMjguOTc5MiA2MS40OTk2IDI5LjMwMzIgNjEuOTMyMiAyOS41MzAxWiIvPiYjeGE7PHBhdGggZmlsbD0iIzI0MjUzMiIgZD0iTTU0LjY4NjYgMzBDNTMuODQyNSAzMCA1My4xMTQ0IDI5LjgwMDIgNTIuNTAyNCAyOS40MDA1QzUxLjkwMDkgMjkuMDAwOCA1MS40MzY3IDI4LjQ3NjkgNTEuMTA5NiAyNy44Mjg3QzUwLjc5MyAyNy4xODA2IDUwLjYzNDcgMjYuNDg5MiA1MC42MzQ3IDI1Ljc1NDZDNTAuNjM0NyAyNS4wMjAxIDUwLjc4MjQgMjQuMzM0MSA1MS4wNzc5IDIzLjY5NjhDNTEuMzgzOSAyMy4wNTk0IDUxLjgyNzEgMjIuNTQ2MyA1Mi40MDc0IDIyLjE1NzRDNTIuOTk4MyAyMS43Njg1IDUzLjcxMDYgMjEuNTc0MSA1NC41NDQyIDIxLjU3NDFDNTUuMzg4MyAyMS41NzQxIDU2LjEwMDYgMjEuNzYzMSA1Ni42ODA5IDIyLjE0MTJDNTcuMjYxMyAyMi41MTkzIDU3LjY5MzkgMjMuMDA1NCA1Ny45Nzg4IDIzLjU5OTVDNTguMjYzNyAyNC4xOTM3IDU4LjQwNjEgMjQuODMxIDU4LjQwNjEgMjUuNTExNkM1OC40MDYxIDI1Ljc2IDU4LjM5NTYgMjUuOTkyMyA1OC4zNzQ1IDI2LjIwODNINTIuNTEzOUM1Mi41NTI4IDI2LjU0MDkgNTIuNjMzNCAyNi44NDM0IDUyLjc1NTYgMjcuMTE1N0M1Mi45MzUgMjcuNTA0NiA1My4xODgzIDI3LjgwNzEgNTMuNTE1NCAyOC4wMjMxQzUzLjg1MyAyOC4yMzkyIDU0LjI0MzQgMjguMzQ3MiA1NC42ODY2IDI4LjM0NzJDNTUuMTgyNSAyOC4zNDcyIDU1LjU4ODggMjguMjQ0NiA1NS45MDUzIDI4LjAzOTRDNTYuMjMyNSAyNy44MzQxIDU2LjQ0MzUgMjcuNTM3IDU2LjUzODUgMjcuMTQ4MUg1OC40Mzc4QzU4LjI5MDEgMjguMDEyMyA1Ny44NzMzIDI4LjcwMzcgNTcuMTg3NCAyOS4yMjIyQzU2LjUxMjEgMjkuNzQwNyA1NS42Nzg1IDMwIDU0LjY4NjYgMzBaTTU2LjQ1OTMgMjQuODQ3Mkg1Mi41NjI0QzUyLjYwMTMgMjQuNjQyOSA1Mi42NTUyIDI0LjQ1MzggNTIuNzI0IDI0LjI4MDFDNTIuODgyMyAyMy44ODA0IDUzLjExNDQgMjMuNTgzMyA1My40MjA0IDIzLjM4ODlDNTMuNzM2OSAyMy4xODM2IDU0LjExMTUgMjMuMDgxIDU0LjU0NDIgMjMuMDgxQzU1LjExNCAyMy4wODEgNTUuNTY3NyAyMy4yNDMxIDU1LjkwNTMgMjMuNTY3MUM1Ni4yNDMgMjMuODkxMiA1Ni40Mjc3IDI0LjMxNzkgNTYuNDU5MyAyNC44NDcyWiIgY2xpcC1ydWxlPSJldmVub2RkIiBmaWxsLXJ1bGU9ImV2ZW5vZGQiLz4mI3hhOzxwYXRoIGZpbGw9IiMyNDI1MzIiIGQ9Ik00Mi4yNDc1IDE4LjUyNzhINDBWMjkuODcwNEg0Mi4wNzM0VjIxLjg4MTlMNDYuODg1MSAyOS44NzA0SDQ5LjEzMjZWMTguNTI3OEg0Ny4wNTkyVjI2LjUzMjRMNDIuMjQ3NSAxOC41Mjc4WiIvPiYjeGE7PHBhdGggZmlsbD0iIzI0MjUzMiIgZD0iTTYwLjcyMjkgNS41SDU4Ljc3NjFWMTMuNjY2N0g2MC43MjI5VjkuMjEwNjVDNjAuNzIyOSA4LjgxMDk2IDYwLjgwMiA4LjQ1NDQ4IDYwLjk2MDMgOC4xNDEyMUM2MS4xMTg2IDcuODI3OTMgNjEuMzM0OSA3LjU4NDg4IDYxLjYwOTIgNy40MTIwNEM2MS44OTQxIDcuMjI4NCA2Mi4yMTA3IDcuMTM2NTggNjIuNTU4OSA3LjEzNjU4QzYzLjA1NDggNy4xMzY1OCA2My40NTU4IDcuMzE0ODIgNjMuNzYxOCA3LjY3MTNDNjQuMDc4NCA4LjAxNjk4IDY0LjIzNjYgOC40NzA2OCA2NC4yMzY2IDkuMDMyNDFWMTMuNjY2N0g2Ni4xNjc2VjguNjExMTFDNjYuMTY3NiA3Ljk3Mzc3IDY2LjA0NjMgNy40MTIwNCA2NS44MDM2IDYuOTI1OTNDNjUuNTYwOSA2LjQyOTAxIDY1LjIxMjcgNi4wNDU1MyA2NC43NTg5IDUuNzc1NDdDNjQuMzA1MiA1LjUwNTQgNjMuNzg4MiA1LjM3MDM3IDYzLjIwNzggNS4zNzAzN0M2Mi42MzggNS4zNzAzNyA2Mi4xMzE1IDUuNDk0NiA2MS42ODg0IDUuNzQzMDZDNjEuMjU1NyA1Ljk4MDcxIDYwLjkzMzkgNi4zMjA5OSA2MC43MjI5IDYuNzYzODlWNS41WiIvPiYjeGE7PHBhdGggZmlsbD0iIzI0MjUzMiIgZD0iTTUzLjQ5NjQgMTMuNzk2M0M1Mi42NTIzIDEzLjc5NjMgNTEuOTI0MiAxMy41OTY1IDUxLjMxMjIgMTMuMTk2OEM1MC43MTA4IDEyLjc5NzEgNTAuMjQ2NSAxMi4yNzMyIDQ5LjkxOTQgMTEuNjI1QzQ5LjYwMjggMTAuOTc2OSA0OS40NDQ2IDEwLjI4NTUgNDkuNDQ0NiA5LjU1MDkzQzQ5LjQ0NDYgOC44MTYzNiA0OS41OTIzIDguMTMwNCA0OS44ODc3IDcuNDkzMDZDNTAuMTkzNyA2Ljg1NTcxIDUwLjYzNjkgNi4zNDI2IDUxLjIxNzMgNS45NTM3MUM1MS44MDgyIDUuNTY0ODIgNTIuNTIwNCA1LjM3MDM3IDUzLjM1NCA1LjM3MDM3QzU0LjE5ODEgNS4zNzAzNyA1NC45MTA0IDUuNTU5NDIgNTUuNDkwNyA1LjkzNzVDNTYuMDcxMSA2LjMxNTU5IDU2LjUwMzcgNi44MDE3IDU2Ljc4ODYgNy4zOTU4NEM1Ny4wNzM1IDcuOTg5OTcgNTcuMjE2IDguNjI3MzIgNTcuMjE2IDkuMzA3ODdDNTcuMjE2IDkuNTU2MzMgNTcuMjA1NCA5Ljc4ODU4IDU3LjE4NDMgMTAuMDA0Nkg1MS4zMjM3QzUxLjM2MjYgMTAuMzM3MiA1MS40NDMyIDEwLjYzOTcgNTEuNTY1NSAxMC45MTJDNTEuNzQ0OCAxMS4zMDA5IDUxLjk5ODEgMTEuNjAzNCA1Mi4zMjUyIDExLjgxOTRDNTIuNjYyOSAxMi4wMzU1IDUzLjA1MzMgMTIuMTQzNSA1My40OTY0IDEyLjE0MzVDNTMuOTkyNCAxMi4xNDM1IDU0LjM5ODYgMTIuMDQwOSA1NC43MTUyIDExLjgzNTZDNTUuMDQyMyAxMS42MzA0IDU1LjI1MzMgMTEuMzMzMyA1NS4zNDgzIDEwLjk0NDRINTcuMjQ3NkM1Ny4wOTk5IDExLjgwODYgNTYuNjgzMSAxMi41IDU1Ljk5NzIgMTMuMDE4NUM1NS4zMjE5IDEzLjUzNyA1NC40ODgzIDEzLjc5NjMgNTMuNDk2NCAxMy43OTYzWk01MS41MzM4IDguMDc2MzlDNTEuNDY1IDguMjUwMTMgNTEuNDExMiA4LjQzOTE3IDUxLjM3MjMgOC42NDM1Mkg1NS4yNjkxQzU1LjIzNzUgOC4xMTQyIDU1LjA1MjggNy42ODc1IDU0LjcxNTIgNy4zNjM0M0M1NC4zNzc1IDcuMDM5MzUgNTMuOTIzOCA2Ljg3NzMyIDUzLjM1NCA2Ljg3NzMyQzUyLjkyMTQgNi44NzczMiA1Mi41NDY4IDYuOTc5OTQgNTIuMjMwMiA3LjE4NTE5QzUxLjkyNDIgNy4zNzk2MyA1MS42OTIxIDcuNjc2NyA1MS41MzM4IDguMDc2MzlaIiBjbGlwLXJ1bGU9ImV2ZW5vZGQiIGZpbGwtcnVsZT0iZXZlbm9kZCIvPiYjeGE7PHBhdGggZmlsbD0iIzI0MjUzMiIgZD0iTTQ0LjUyNjcgMi4zMjQwOEg0MFYxMy42NjY3SDQyLjA4OTNWOS40MDUxSDQ0LjQ3OTJDNDQuODkwOCA5LjQwNTEgNDUuMjI4NCA5LjU0NTUzIDQ1LjQ5MjIgOS44MjY0QzQ1Ljc2NjYgMTAuMDk2NSA0NS45MTk2IDEwLjQ0NzUgNDUuOTUxMiAxMC44Nzk2TDQ2LjIyMDMgMTMuNjY2N0g0OC4zMDk1TDQ4LjA0MDUgMTAuNjM2NkM0Ny45NjY2IDkuNzgzMTkgNDcuNjUwMSA5LjA5MTgzIDQ3LjA5MDggOC41NjI1MUM0Ni45NjA2IDguNDM5MjUgNDYuODIxNSA4LjMzMDM0IDQ2LjY3MzUgOC4yMzU3OUM0Ny4wNzM1IDguMDE0NjggNDcuNDAyNiA3LjcyOTI5IDQ3LjY2MDYgNy4zNzk2NEM0OC4wMjk5IDYuODgyNzIgNDguMjE0NiA2LjI3Nzc5IDQ4LjIxNDYgNS41NjQ4MkM0OC4yMTQ2IDQuODk1MDcgNDguMDY2OSA0LjMxNzE0IDQ3Ljc3MTQgMy44MzEwM0M0Ny40NzYgMy4zNDQ5MiA0Ny4wNDg2IDIuOTcyMjMgNDYuNDg5NCAyLjcxMjk3QzQ1Ljk0MDcgMi40NTM3MSA0NS4yODY1IDIuMzI0MDggNDQuNTI2NyAyLjMyNDA4Wk00NS4zOTcyIDcuMzMxMDNDNDUuMTQ0IDcuNDgyMjYgNDQuODIyMiA3LjU1Nzg4IDQ0LjQzMTggNy41NTc4OEg0Mi4wODkzVjQuMTIyNjlINDQuNDMxOEM0NS4wMTIxIDQuMTIyNjkgNDUuNDQ0NyA0LjI4NDczIDQ1LjcyOTYgNC42MDg4QzQ2LjAyNTEgNC45MjIwOCA0Ni4xNzI4IDUuMzI3MTcgNDYuMTcyOCA1LjgyNDA4QzQ2LjE3MjggNi4xMzczNSA0Ni4xMDk1IDYuNDI5MDIgNDUuOTgyOSA2LjY5OTA4QzQ1Ljg1NjIgNi45NTgzNCA0NS42NjEgNy4xNjg5OSA0NS4zOTcyIDcuMzMxMDNaIiBjbGlwLXJ1bGU9ImV2ZW5vZGQiIGZpbGwtcnVsZT0iZXZlbm9kZCIvPiYjeGE7PGRlZnM+JiN4YTs8cGF0dGVybiBoZWlnaHQ9IjEiIHdpZHRoPSIxIiBwYXR0ZXJuQ29udGVudFVuaXRzPSJvYmplY3RCb3VuZGluZ0JveCIgaWQ9InBhdHRlcm4wXzIyMDFfMTIwOSI+JiN4YTs8dXNlIHRyYW5zZm9ybT0ic2NhbGUoMC4wMDUpIiB4bGluazpocmVmPSIjaW1hZ2UwXzIyMDFfMTIwOSIvPiYjeGE7PC9wYXR0ZXJuPiYjeGE7PGltYWdlIHhsaW5rOmhyZWY9ImRhdGE6aW1hZ2UvcG5nO2Jhc2U2NCxpVkJPUncwS0dnb0FBQUFOU1VoRVVnQUFBTWdBQUFESUNBWUFBQUN0V0s2ZUFBQUFBWE5TUjBJQXJzNGM2UUFBSUFCSlJFRlVlRjd0ZlFtWU0wV1pmeC9WM1Rrbjl5UURnMXdDaW9vSHFPQ0JGeTZvdUNJZUtBb0t3aW9LaWdMaUtpRElmY2poQWNvS3JMaUtlQitMSitLQnlMcUFLQXFvSUNoOGZKTk0wc2trTXptN3V2di8vODFXeGt4UGQ5TEpaR2JTTStubm1lZFRVbDMxMWx2MWR0VjcvVjZlR3oranlBR0I0emlqZ3pEci8zZWkyVzI3WG5NZVZqKzl4aG41My9tUnAzQ0xFS2dveXNtU0pPMXVtbVpOMS9XYWFab0xITWMxRE1ObzhUdy9ieGhHa2VmNWtxWnBjeHpIWlRtT205OGlyTm5RYVk0RlpFUFovOC9CMCtuMGJSekhQWnZuZWNFMFRZUG5lYlBqRk5FNWp0TU53OUI1bnNkdmxQMldielFhRDlUcjlmdDFYWCtRVXZwbmp1TzJjeHpYNm1OYTQ5T2lDN1BHQXRMSFRsckxwcGxNNWplaUtENlg1M25pZGh5Y0xxWnA0cS9KY1Z3VC94dW5EYVgwYndzTEMvOUxLY1hmN3ptT1U5MzJPVzYzbkFOakFSbVJIUUVCRVFSaFAwRVFwTldRWkpvbVRob0lTd04vUE0vam1yYXRXcTMrYjZQUitMV3U2NzlsVjdTMTFtTldNNDJSZVhjc0lDT3lGTU1TRUx2cFFHQjBYYTlEV0RpT2c0N3pZS1ZTK1VtejJmd3B4M0YveGZWdEFJUEFpSEJ1YmNrWUM4amE4dGQxN3dNS0NQU1V2dGVRR1FGd3dsUjVudDlXcVZSK3BtbmF0elJOdTc5UC9jWDEvTHphc0cvbWVuV2lvMDUzSnBONVVCVEZQYUdrcnlldGhtRm91cTVYbWRYc2tYSzUvTjFtcy9rdGp1UCt2cDUwak9wWW95Z2c3UTNTNlFjWVZmNE5qUzVSRk44b2l1SnVnaUFvZ2lENFJWRlVlSjczbWFZcEVrSUNraVNsQlVHSWNoeVg0SGsrSTRwaWNHaURzNDZnOUJ1R0FmUHlYS3ZWK20ybFV2a0NwZlFPR0FBNGp0dVMxcTZORkpBdHlmQXVtMXJtT0E1L0lzZHhzR1NCUDUzL0JpVkpDcGltR1RSTk15V0tvbVNhWmtTU3BHbS8zNytySkVsN2NCeTNNNFJJRUFUMDQvWlpjVTJEbWRrd0RGekI1Z3pEZUtCVUtuMUowN1JiK3JTR2JZcjEzVWdCY2J1QTdYYWJndUg5VHJwSGV6L0hjUUdPNDZLU0pDVU53MGdJZ3BBUVJYSFhZREM0RHlGa1gxRVVwM0FxT2ZUVFU0ZUJnbThZUm9YanVFZkw1ZkszNnZYNlZ6aU9lM3pJOHhqWjdyd2dJR1BCNkcvNzRBU0tjQnlYSW9Uc0pBaENoaEN5VnpBWWZKWWdDUHVJb29pcldxZkE5QlFTanVOd3BGQmN2MHpUL0VlNVhQNTZvOUc0a2VPNGJmMlI1cjNXNnlFZ3ZYUUtMT2hPSE1lRkpVbFNORTJyY1J4WDdHR3JINThxem52TitrRUJmNkc3VEJGQ01qelA3NllveWpPQ3dlQ0xCRUhZVXhSRm5FQjQzQWdLMTFicWVaNS91RlFxM2RSc052K0w0N2haNzIxOWR4U3ZoNEJZS2ZFVFFwNGx5L0toNFhENEFKN25kelpOazVpbXVTaElMSlFDZHZsbXE5VzZkMzUrL29lYXBzRmVqL2lqOGJONkR1QmFscEFrQ2NLeXB5ekxCd1NEd1VOeDJ2QThEMkZ5OVVCUURNTkFQTmo5cFZMcE84MW04M29vOTY1ZTlsQ2o5UlNRa0NpS0J5VVNpZmZ4UFA5VW51ZkRnaUQ0bkJSSzVoR0dvcmpBODN5bFdxM2VXcWxVUHNseDNOODh4TjlCU0hWenBYVFR4czNZTUFMZ0tvYVRaTjlvTlBvS251ZjNKNFRFM1o0cXpQSlZOazN6Z1VLaGNMbXU2OS9yR0hoWWRMcVp5NXEwV1E4QkFaUDJUaWFUWnhCQ1hpWUlRcVNMMG1nN1NkTTBLV3oxUE0vUHFxcjZoVmFyZGNtYWNNUDduYTVtUTRZNGp0dFJGTVduK1AzK2x3YUR3Y01sU1hxU1c1YkFVMjhZUnNrd2pIdnkrZnhIT0k1RDRLVG5UZlZyTFNCRUZNVlhUMDVPbm02YTVsTUpJYmdMRHp3bXUvOCtVYXZWZmp3L1AvOGhoRTFZRm5BMUc4VHRYdGpNN2NBL3JNL09raVFkR0FnRUR2RDcvUy9rZVg1MytHVXNhMmVycytCRHB1djZyMVZWdlU3WDllOTI4Y3gzcnRYSXJ0dkFtOVhGTG9HejYxOVRxZFNaK0NyMWM3L3QxamRzOUxxdUx4aUdjZWZzN095UlRLRjNRYzY0eVFBY3dQVnJYMFZSWGhZT2h3OFJCR0V2TjZjL3JsMjZybWZyOWZvUEtwWEs1UnpIUGVUVkQ5bXdCTVQ2QlpCRlVYeGRLcFU2aHhEeWxJNHZqeXRMU1plRlhIb2Y5bmxLNmUyenM3UC95bkZjZmF0NmVnZlk5SU84RWlXRVBGOVJsSVBDNGZCckJFSFkzWTB6a3AwbWQ2cXFlalhUVFRxRElnZWhZOTNmR1phQUxDT2NFUExDWkRKNUtTSGtBRGN6WXFmQ25HbWFGVUVRNENWdWgxRzBCY0w2NzJLM0NMcGJXRmo0UEx0dXVSbHEzR1oxSElpS292akNZREQ0YXIvZi8xcEprbUNlNy9vd1IrUDIrZm41cjFXclZad21uaklKcjRXQTdEWXhNWEZxS0JRNjF1WTRYam9CS0tWSUk3MjMwV2pjMzJxMXR1dTZub1BIbGhBeUpZcGl3dS8zN3lKSjBuUGg1TEpaZ2NWK1lPblNkVDJmeitkUDBIWDlPMTQ5eG50dHNnMzZ2WnRlTUNuTDhzdkQ0ZkFiSkVsNktTRWsyWU5HRSt0TktmM2gzTnpjcDFsODF3Wk5xNzloaHkwZ3NpekxiNDdINDVjenBxM29YOWQxbUc3L05EYzM5MTFkMTMrc2FScnVwMWI3T2N5UHNLanNGdzZIWCtYeitkNUVDSm13bXhxNzd6NlF5K1ZlYUtPMDk4ZU5jZXQrT2JDN29paXZpa2FqaHd1QzhQd09wNk50UDJ6dDc4M244MWZwdW41enY0TnRSUHRoQzhpZWlVVGlMTC9mL3phN3liQTc2UjJxcW9KQnQ3cklQY0JYYkVlZnovZTJhRFQ2ZnB3dVR2MFdpOFV6bXMzbWxSdkJ4QzA2WnZ1RThjdXl2SWNrU1VmaFJDR0U3TnFOSCt5RGhpdlhqYlZhN1lvZXpzVU50MjROVTBCRVVSUVBUNlZTMXhCQ0VsWW1zYnZvSHdxRndtbVUwbC8xdWFuaWlxSWNFNC9IenhWRkVaN2daUS96NnVhejJleU80MnRXbjV3ZFh2T29MTXVIeEdLeGYrdHltclN2eGdhbHRGS3IxVzZlbjUrL2FKUnpUNFlwSUlsQUlIQnlQQjQvdzA1bm9KUm1WVlU5WGRPMEx3MjRKanNtRW9tTC9INy8yNTNleitWeXo5TTA3YTRCK3grL3Rub09LTElzN3lYTDhySE0wZGhWaWNlTkFtSDA1WEw1VWszVDdsNzk4TVB2WVpnQzh2VEp5Y2xMWkZsK2xaVk1NS0xWYXYxQVZkVjNya0pQSURBMUpoS0pteVZKMnNITzRWZ3NGaStvMVdvZkd6NmJ4ajMyeVlHVUpFbUh4dVB4OTB1UzlLeHU3OElTcWV2NkhjVmk4UkpLS2E3ZEkvVU1UVUFJSVFjbkVvbnJKRW15WG5NNFN1bE1QcDkvcjQybHFWOW1URWFqMFF0aElYUFFSWDR6TXpNRFpYMzhiRHdIRkpqNVk3SFlxYUlvSGtnSUNUdVJ4SzdmVU40djAzWDltNnhkVy8vWVVEMWthQUlpaXVJUjZYVDZSanNIRXFYMGtXdzIrN3crTTlMcytLbkFPejgxTmZVMUJ3RlptSm1aY1Z5SWpkOHpXNDRDYk80bkI0UEI0ME9oMEJIZC9DWU00K3ZCUXFGd3RhWnAxMXFFWk1NWU55d0JFV0hGU0tmVE4xaG53cUk5NzgxbXMvdGJmaHZreXlCSWt2U2NkRHJ0cUdkczI3WU5Ua1pyak5hR01YZ0xET3htSFZPS29od1JpOFZPZFBCckxiS3BIYUl5TnpkM1diUFovUFFvOEc1WUFxSW9pbkpjS3BYNmpJMytVV1A2eDV1R01HRXN4dE4yMkdHSGU1d0Exclp0MndZTEdoS3V4czlvY1NBc2l1TEJxVlRxSTRTUTV6Z0ZyVExuYjY1VUtsM2ViRGFSM3JDaHo3QUVSSllrNmRoME9uMk5OVE1OOTB0TjAyN041L09IRG1PbXNpenZrMHFsZnVjVS9MaHQyelpjc1lETU1YNUdnd09kSjR4TUNIbFJQQjcvT0F3dVRvR1BURWhtUzZYU2hSdDlrZ3hMUUhEMWVSdDBFT3Vhc0RpclAyV3oyV2NPdUY3THdxSUpJUWRtTXBtZnM3NldCVC9DSDdKOSszYjRTVHdYRkRjZ2I3ejRHcEVrNlJuUmFQUk1Rc2doZG40dFRBcENRaWw5b2xnc2ZrTFR0T3VHY0QwZmlGZkRFaEFPazAwa0VqZEprb1NjajJWUHE5WGFOanM3K3dvR2M5bU4wRjczV2IvUDUvdEFNcG04d082SXBwVCtKWnZOSW5xNC9mVHFieUNtalY4YW1BT2RscW1uSkJLSnMyVlpmbzFUaUFwTGxQdDdzVmc4cDlWcUlmZDkzWitoQ1FpdVB2RjQvQXVFa09kYVp3R3Y2ZHpjM0VXTlJ1UENWYzV3eDZtcHFWdEVVZXc4alpaT2tYSzVqTWplOTdBeHhzS3hTbWF2OGV0WW56MXczVklVNVYrZGdQQ1lrUHdGV1lxNnJ2LzNHdE8wb3Z1aENRakhjWlBoY1BnVGtVamszVGJYTEtUTTNwZk5adCt3aXJBQ1JaS2tkNlJTcVU4NTNWMW5abVpldXhGTVhPOUYyeVRqdFQ5Z3U4ZGlzWS83Zkw3WGk2S0l0Ti9PWi9IangwS0pmcWVxNnNtYXB2M1BlczUvbUFLQ0RYeE1LcFc2eXM0WGdpekFhclg2WDVWSzVRTXVnaFN0UElBWitkbUpST0o2UXNnejJJOUxKd2ZUYzZyWmJIWjNqdVB5NjhuQThWaXI1NEFrU2Z0R0lwRXpKRWw2cGROSkFvOTdxOVc2UlZYVlU5WVR1RzZZQWdJOTVJQmtNdms1UXNnK2RteWpsQmFMeGVMRnJWWUwxaTYzSmNSZ0FOZ25Gb3RkSmN2eWdYYjl3bExXYkRhL3I2cnFNRXpKcTEveGNROTljd0JDRW8xR3p5YUV2TUpKY2NkSHRsYXJmYVZjTGtOSTFzVlNPVlFCQWZpYnorZjdZREtaUE1lT1E4eDhWMWhZV0xoNVlXSGhLbzdqSG5IZzVGSW9OV3puaVVUaWcwN0N3VTRQb0owY3FtbmFQWDJ2elBpRmtlRUFNbEZqc2RpL0s0cnlHaHVpRm04TWxOSlN1VnkrdUY2dlg3d2VoQTliUURoSmtoQlFlSzNUS1lKSklYaVJVdnJ6YXJWNlQ2dlZ1bzFTaXJvVStDSm9ITWY1b004Z1dXcGlZdUsxaXFMc1N3aloyOG14QkpEbFNxWHkrWVdGaFpQWGcySGpNZGFFQSswUElwRHNuNWRNSnEvRXYxMCtzby9sOC9uVGRGMy85bHBEQ3cxZFFOZ3BjaUl6eFRweXM0MTF4WEhjdzVUU2JZWmhBSGloTGdoQ2tHRm43U0tLNHU3ZGF2WkJlVE5OODY2Wm1aazNjeHozeEpvczNialQ5ZVlBb3JZUFRDUVNuM1NLQkdiaFMxRGFUMXJyTVBsQkJLU1grZlFaNlhUNkt1UXF1OFRBV2dKa1lOVmRYY0ZmTWdGN3VGQW9uRFNLWWRMcnZhczIyWGdJU24xVktwVzZrS0hpckpnZVU5cVJRdkcrdFFTQ0dFUkF1cTFGSmh3T254WU9oMC9zQWdzRGdjQXo4Tmh0MjNpeFdMeG9veHhJbTJ4RGp1SjBBR2IrbG5nOGZxWlRGREQ4YTVWSzViTzFXdTJqYXpXQlFUYnBJc2kwemQwUFZaQ09TQ1FTNXdORnZBOEI2QWNyQ3pEOEtCbDJWNkZRdUZMWDlXK3NGV1BHL2E0ckI1eHVKU21mei9mZVNDUnlzbDJFQm00Y2xOTEhWRlY5RDZYMHgydEI4U0FDWWtzSHc4TDZQQ0hrYVE3S0ZlcExhRFltUEZjQ3dtSnpzcFRTWDViTDVhdTlCQjJ6Rmd1M2hmcmNKWkZJbkdjQkFsa0dJQWlvMDF3dWQ5d3FuTkNPN0hRaklOYk1ManRwbjQ1RUloOFBoOE1nY3NYRE1zYitVcXZWZmhNSUJKNk5FSU1PQlBHdWE4MnVVNDlSU3U4cmw4dUFDVUt5RkdDQ1BBK012SVUyZWI5VFhiYkhldm5YbUgva3BuSzVmRUpIb0dvdlhka1ZUVzRFcE4yUjA0RHRxOVhGaEpDVWRWUjJERzRyRkFvZjBIWDlKM0Q2b1F4Q09CeCtqaWlLQUJ6RE80RGI5L004RHpBNFdLYm1lWjRIcEg1ZTA3Ui9MQ3dzM05acXRSREJPN1pVdVZyV1RkY0kwRUtIeFdLeGk3dm9JN2w4UG4rc3J1cy9HT2JzK3hFUTIzR0JmcGhJSkhDMXdzbUFaOW1WcVVPUkF0cEorNnNQWVVOZHZTY1pockVyc0pRZ0xLWnBRa0RxdXE3UEdJYnhoSzdyRDdONklJT0dydy9sS3pKTWhvLzc2c3FCYnJlVnlVQWdjRklrRXZtUVhmUXZ3MnIrMWV6c0xGQnZoZ1p2dWxvQlNRV0R3Vk9pMGVpcGRnbE1xQm1oNi9wUFoyZG5qMmRFT3luNGJ2ZE5QeHUrbjdadXh4KzMyMWdPN0QwNU9YbUZMTXYvMGtIRzBnZFowN1M1Y3JsOFJhUFIrTVN3eUZ5TmdLRDJ4eUhKWlBKcXUyT1BWWWg2SkovUEh6TldxRjB0VnkrQjd2VzdxMEU4M2doVkE3RG5QaVZKMHM1V0lXR2hUQStycXZyMllUa1FWeU1nZThDazYvZjdiUU1FbVRSZjNtZzB6dlg0b296Skh5ME9BS0R3L2RGbzlNTW80V2NsRFE3RVpyUDUzV0t4ZUpRbHMzU2dEOHlnQWdMRi9HM3hlUHdTTy9zMDRxTjBYYjh0bDhzZFBRU29uOUZhSG50cUJtSytGeVkyaWpRaU9TOGFqWDY2STREVnF2ZG04L244dTRhaHNBOGtJQ3g3OExOSXdMZGpJSURpQ29YQzBWc3dCS1JUeVFScnhxYm90WkV3UUp5K2lWVVJzRnBPNFV4R2NhVmZ6TTdPQWtSOVZRZzNnd2hJV0ZHVTQrUHgrSGwyY2Z1STFHMDJtMThyRm90UXpBZTFQcTBOV3plK1Z3Z1FTanVrT1k0TFNaS0VLNEppbXViaXY0aG01bmwrWHRPMEJrc3FLN0VGcGh0UCtzaFJzRFBTZFFPQndERU9IK2tDUTBWQjBaNkJuNzRGaEpsMWtSUUZiS05sRDR1dWZXQm1adVlJanVQK01qQlZtK2RGMUNQZmplZjVQVVJSM0VtV1pSVERES0dZS2MvelBwN25KU1l3TXZzWEh4UUlCNFdEMURBTTFHS2NiN1ZhdVdhem1kVjEvVkZkMTFFOTlsR2JoS0d0ZHMxRGFEektpbi9lb3JBdjdoNFc4UXRFejVmWW1IMWQ4NnBmQVlrb2luSlVQQjYvVkJURkZRb1NrbG5tNStldnIxYXJwMjZlUGQ3M1RLYVF2eUpKMG42aUtPNFFDQVIyNFhrZTVaU1I0NUp3VXdUVFJ2R3NHb1pSNW5sK1J0TzBSeHFOeG1PdFZ1dXZwbW5lVHltRndPQ2syUXJYT2V2R1RreE1USnc3TVRFQkQvcUtCMjZHUXFGd29xWnAxL2U5aXV5RnZnUUUwRDdKWlBJc3U5cURMSndFK0ZjQVp2aUhTNEpjUzdMTC9qYXFXUUpoMmFJb1BqY1lERDVUVVpSbkM0THdOSmJMNGlyV3JGL0NZU1hrZWY2djlYcjl2bHF0QmlqV3UxaTFyblZKUmUyWDNyVnFEejA0bVV4K25RWElZcGhPckFLQWhmd3htODIrak9PNDhpQTA5Q01nNFZBb2RHNGtFbm1mWFJJVHBUUmZLcFV1YWphYnE3cnpEVEtKRFh4bldwYmxGL3Q4UHRRVWY0NGdDUHV3RTZJZnZxNmFmT1Q2bTZiNWgycTErc2Q2dmY0emxCTmcxc1BWZm9CVysvNnE1K2FpZzNBZ0VJQ3orcU4yY0xRdyt4WUtoUk0wVFFPdVZ0K25ySFVoSFJuQ0pCV3BrUHRhaUliVm9HVVl4dSt5MmV5cldTQ2hGeGpyZ3ZlT1RWQmc5S1hoY1BpbHNpd2ZMSXBpYWxoMTRGZERGTjZsbEQ3YWFEUnVtNStmLzVHdTY2amtaUmQyc2FuV2g2VjVmNWtRQWxTYlpROXpIbUp2SW9HdkRXcnVldjV1djNSQU5EdzFGb3VkYmdmTFFpa0ZhTUk1bXFaZHZkb0ZIdkgzSS9Ea1JpS1IxeUhjUVJURkdNL3o3ZkNaalNMZDlncW5hZHJqbXFiZFZxbFV2c29pR2R5Z3lMamVPQnMxV1lkeGU1MGkxZG5aMlNOMFhiK2xYN3JiQXRLVk1mQjd4R0t4eXlWSkFuem9zcWREOTBCbEthOWpVam54UVNDRXZNRHY5NzgrR0F5K1ZSVEZ5VkU1TVhvdE9KVDRTcVh5RFUzVHZxbHAyZ01EWUpMMUdtSWtmcGNrYWY5RUlvRlRaRGViUGFvaGoyaDJkdmJnZnE5WnZVNFFiQmhla3FSM0pSSUo1QWNqTEgzWlF5a3RGSXZGUzF1dDFpVWp3YW5oRTVGUkZPVnRzVmdNZ3ZITWJpQVNIVU92aVdJK3dOUVc2WUJ2eWpDTXU0ckY0dldhcGlFY1hPVTRydHRIMFVzblNadldTREFZL0dnc0Z2dXdIWjlRcHoyYnphTDYyQi83NFdNdkFVRmZHY1RoQjROQmhJMVlUdy9rYnNEdmdkTmpwcCtCdmRBV2FJNSt2Lys0VUNqMExwZm0yVkVSREZ2MjR0b0ZUTEpxdGZvZnEwd2pHTW5sQStoY01wbjhtdDJISERlZGhZV0Y2eXFWQ2tBZVhEODlCVVFVeFVNbkp5Y3ZGMFZ4RDJ1dk1EVmkwRTNvOXhCUTZpMlpUSjRraXVLTG5ZcjF1T2J5NkRRMEthVUxwbW5lWGlnVWJ0QjEvVWZyaFZDNFRpeHdyR0hKRXZjZXorVnlNRExoQkhYMTJBbEk1L0hxRHdRQ1owYWowVk5zVUVyQTdMOW5zMWtVeHNIZGRyTTh5RjQ3S1JhTG5VQUkyYWxEMXhqVjAyRWd1aWlsZjFWVjlaUFFUZnJaTUNPK3lFakJlRzBxbGZvaUlRUkEyTXYyTjY2YXFxb2UxMnExdnVwMkhyMEVCQWtxbjBTQmVHdUhySHd2RkIrWWRqZkxzM2lQblppWXdNbUJTSUdlSjZ5WEo0NTA1a3FsY2syOVhvZVBvSjNPN0NYOXc0NzllMDVPVGlMU2QwVlNGVUtoV0JBamZuTTF6NjRiUUpibHQ4Zmo4Y3NJSVFpdWF6OXRqTlR0K1h6KzNadW8zRUFtRkFwOUxCcU5udWpsVGQ4djdacW1iWitmbi85Q3JWWkRPSWJiQ0loK2gxblA5Z0dmei9kK0lLSFlXUnFSQXA3TlpwL3VGaUcrbTZNd0ZBcUZ6bzlHbysrM3pvNDVCdUhDZnpIZ1F0ZHo5Z09PMWV0ckVZNUdvMWM2MVY4ZmNFelB2RVlwelZVcWxldHF0UnFLc0hyZTJFSUllV2t5bWJ5WkVESnBkL01wRm91bk41dE4rT3g2ZXRZZFR4RGdvdUwwc1BOOXNLREVhNnZWNmtjOHN3dWNDVlZDb2RERjBXZ1VkVXUyN0lNeWVVQXBiRFFhc0hDNVZtSkhsR0ZUc1Zqc0lqdkxLNktrS2FXL3plVnl0cmxNMXZsMEU1QjNKaEtKUyt5Z2ZEUk5lNnhZTEI2K0Njb05DRDZmNy9SZVFOc2p1Z21HVGhaMEVsYWovSXQ5MUc4Wk9oMUQ2QkNGUW85S0pwT2Z0Y3RaWXRjc0FCeHU2elVXQktUeit0SCszLzV3T0h4K0pCTDVvTTMxcXNuaXJsRE14dE9KUEtJb3ZtbHljdklHRmo0emtEV29GNE5INkhkWDg5TjEvU0ZWVmM5dXRWbzNlem5oclZ2ZUVndGcvSkNtYVovdnRUNU9KOGhUVTZuVXBYYUZUQkE1T2pjM2Q5VXdvVlY2RWJsR3Z6ODlrOGw4MXk0MFlZM0c4MHkzbXFiZFVTd1dVUS93YnM4UXZaTFFUQ0FRT0RFZWozL001aVBmYWMzcU9rVmJBUkZGOGJCa01ubUZKRW03V04vR1hiVlVLcjFSMDdUZmVwaDVrWFE2L1JWSmtweE0xSzYrdGg2ZWYxZlNPNkE4UCs1aHBSMTFSbDZhVHFkL1pHUE5naUtpWnJOWnhHMTFEZUxzRkpEMjlZcjRmTDUvaCtSWnd5dFl0VkVrUlNHbXhRdldxL1pHV0diRjh2bDhaem1WaWR1c203N0x2SnlpZ2JjemZRVFducVpIK2JKYk9wMitYWktrSGF6MDR5T1F6K2NQUlJCanQ3blpuU0RSU0NSeVNUZ2NCdWpDc2dlaEpZMUc0eHZsY25uRmJ4NWhJQVJsbDB3bWN6Y2hKT1lSbXRlTHpLVkNSbTBIS2FYMDE2cXF2bC9UdEhzWkViM001ZXRGcTl0eE12RjQvS0pBSVBBTzlzTFN4d0I2U0xsY3ZxeFdxK0dVZEh6c0JPUVppTDJTWmZrZ2E2ZVUwb2RaUVhlRUozanhJZkY0L01aQUlQQldMeEsvM2pRakFoYXhkZ3NMQzJmMXVvcXNOMjB1eDF2RWIwdW4wOWRhMjNjaytSMWcwOWZTaDJDRmdERDlBeVhVQURTdzdLR1UzcDNOWmwvdnhqem1jZ0xyMmd5MTd6S1pUTmNqZFYwSjhzQmdsTklIOC9uOFIzVmQvNTRieDlxSVRRbDVQQWRNVGs3ZWFvZkNpQnRSTHBmYnNTUFRjQVg1S3p6cFBwL3Z3L0Y0L0J4cmNDSWNMTTFtODVaQ29YRFlpREhCTFRtQlRDWnpHeUhrK1c1ZkdMZmpPS1NzTmhxTmI2T0trMGNkaUh0a01wbnZzRXJKMWc5K1JWWFZnelJOQStpRjNmVlJzR1lVQmtLaDBJVjI0U1VNbE9IaVpyUDVTUzl1SEp5TVUxTlRLQnM4ZnZya0FCeUl4V0lSS2RVMzlQbnFLRFJIUHRNbHdXQVFXTDNMSGtUM0ZvdkZzN29CalZoUEVKUzd1c3p2OXdPNnAvMjBzOUlleXVmekoxQktmellLcys2VEJuOG1rN21qbzRaSm42K1BtemVielcralFBMEQ1UUJEdktLd0F3bjB1RlFxdFFKdEIwbFV5TERNNS9PSE82M3dzaE9rQzNJSjBETHV6V2F6cjJOUmtGNWh6dUs4Z2NDWHlXUitPdDdtamh6bzZmZUJoMzEyZHZaTVhkZmhZZmZTK3N1RWtKZG5NcGtmV21mUDZsNXV6K1Z5Sy9UdGR0dGxKNGdzeTBmRzQvRlBNaEN1VGdBdVZCUDlSUzZYZzJPdGJSTWZkU1l0MFpkT3AzL082clozOHFqbnBoZ0wxRDg1QUt0UG85SDRjckZZUkRwQUd6N0hFeXhDNEcweW1meTFIU0lQVTlSM2NzcXNYT1lvVkJUbDVIZzhmcTYxeEJYdWF0VnE5Y1pLcGZKZVQzQmtPWkZUMDlQVDJ6MUk5OGlSVENtOVUxWFZEM293aWdLK3J4c0pJVWpQV1BZZ2NGRlYxWU0xVGZzZk80WjNDb2dTREFiUGo4VmlwOWgwa21XNFY1L3oyUEhLamIzbXc1TXpHR3FLeGVKbEhrU3djY1R3eGNlL1VDaWM1R1NBNkJTUVJEUWF2UmdJSGphRk9QOEdFR0JLS1pMOHZmU1FUQ2J6SjBMSVhsNGllb1JwTlpteWpqMkNVdHhlZWNKK3YvKzlpVVRpSWl2QkFMaEc4RzI5WHYvM2p0L2ExL01sTXk5KzJ6dVZTbDJzS0FwQUdLekgwSDNaYlBZdEhNYzk2QldPTURyM21wNmVCdm81bnJIT01kamlXYXMzM1ZNb0ZFNkZUdXFoMndRSzdodytPVG41RlNzTFlNbHF0Vm8vY3ZMdkxaMGd3RGVGZ2k1SkVnSVJyUUx5MjJ3Mit4cXZPWW9VUlRrMWxVcTFBZTAyTlFERFlIdS8vN2NBTTFzcWxTN3htRDhNa2IwdnlXUXl0OW9JaUdZWUJnNkEvV3hPa0graWRvaWkrT3BVS2dXQWhxZGFPakUxVFlNRjYrWDlzM05qMzVpY25QeGxSeDI3VG1MR3A4bUFTNE9JaWxxdGRsT3BWSUpQeERNSmM0RFBUU2FUZDlsRWlPaVVVcGg2RWZxK1lqNUxYMVZSRkk5SUpwTTRRUkNic3ZRZ3hGM1R0UC91Y0tZczNjOUdQRGFIVEUxTmxlMkt6bmRNYnl3b0F3Z0tyaVN6czdNSVBmRUtDZ3IyN0Y2VGs1TS9rV1VaKzd1OTc5c0lQZVZzTmd0aytCVzUrRXNDb2lqS0IrUHgrUGxXUENpWXdhclY2blh6OC9NZkdvQ1hHL25LN3RQVDB3OXZKQUdiZFd3NGpRdUZ3bWtlaTZyWUtaUEpBTndhWUEzTHJ0dVVVZ2dJRUJmL1psMnpwWWFCUU9Cc0ZFVzAwVCs4WXRwYjVyZ0VwdGZrNU9TWE51c20zY2g1c2F6Uzg5emtkRzhrblpheHB4S0p4S2N0WVZTTFRSRFdYeWdVRG9hZngwbEFoRUFnY0U0OEhqL0Qya0RUdENlS3hlTEhOVTI3Ym9RbTI1T1VRQ0J3UVR3ZTd6VGQ5WHhuM01BZEIrQTdBRVJRdFZvOTNkMGJJOUVxRlkvSEx3a0VBdSswVW9Qc1FwU01aaUg5eTM1dW55QndFbjdDQWgzZnZwODlrcy9uVDlWMTNWT1JzS2xVNmx1S29pQTBmMnk5V29QOUNiaFNWVldScWRjVGZHME5oaCtreTJnNEhEN0xEcW1IWWZZZTMycTFibkk2UVNLaFVPZ2NPL0EwQktubDgvbVRLS1VJOXV0a1JydXkwa2d5YUdwcTZ2ZW81ekVJSjhmdjlPWkF2VjcvdXFxcXNHUjVwV2hvMk9memZTQ1pUSjVyYzRMVWlzWGlSNXJONXFlZEJDVEJjTEQrelVhQitYT2hVSGczcFJUMTdqenpURTFOemFNbXVXY0lIbTFDVjFqN0VDYWV5K1d3WDlxZzE2TTlBNDVEK3UwNzArbjBaKzBFcEZRcW5kZG9OQzUwRXBCTUpCSTVOeHdPSDJkdFFDbTlYMVhWWTFqVzFhZ3pvVTJmTUQwOXJYdUZXSS9RQ1NIQnMzaGwxVFR0WjdsY0RzR3JmL1VJL1FGRlVZNUpwVkxBSDE3MklOeWtYQzVmVXF2VnpuWVVrR2cwZWg2THcxcldobEw2UjFWVmo5WTA3ZmNlWVFUSWxLZW5wNzBLVlRQcWJGNDhUVFJOKzJVdWx6dXAzNUptR3pnNXZ5UkpSNmZUYVFUY2RqNm1ydXVOY3JsOGVhMVdBempGTXBXaHJjQm1vdEhvK1hibzVycXUvMkZtWmdicGluM1ZkbHRuUmxoelU1VHA2ZW5HT3RPd3BZWmpvZThmOE5ETlFwRWs2YTNwZEJwcHc4dXVqSVpoTkNxVnl1Y1hGaFpPWnZGbFdNdEZRV2tMeUhRc0ZqdmZEZzJiWlJJZXdYSGNReDdhQVpIcDZXa3ZSWnQ2aUxYL1J5cWw5SDhMaGNMSmRyNkRFWjBNQk9USWREcU5PaWpMSG91QTRMY1ZzRDg3eG1LeEN4d0VCRVhZa2JQcmxiQUNUSEI4Z3F6eExrVUpBVlZWZ2Q5cm0yaTB4c01QMG4zbkNXSW5JTmN1TEN5c0tJR3hkTVZ5VXRMWkZldk5IbExHTUhreVBUMnREY0xGOFR2dU9FQXB2VjFWVlZ5eDJxaUw3bDdjdUZhT0p3aDBrRXFsOHBuL256WjdtcFc4dG9CTVJpS1I4eDJzV0Y1VTBybnA2V25jSWNkT3d1RnV5Q1ZMRnJOaW5lQ1JxemV1VEJDUVl4ek12TEJpWFdvSFE5cmVRRzAveUx1dC9QU29tWmVibXBxcTJSVlBHZTUrMmJxOU1UOEk5a3ZQSWpRandDVUlpRTlSbEdOVHFkUUtaeURNdktWUzZlSkdvM0VPbzNXRkRoS2ZtSmc0ZjJKaUFpSE15eDVLNlFPcXFyN1RROWFLUmZvem1jeGZDQ0Y3anNEaWJFb1M2dlg2TjFWVlJlcHQyU01URFBqOS9wTWMwbTVyd0Z5d3k3VnZueUFXa1c5akFBQWJXRWxFUVZTQmNEaDhubDJjQ3VwcEZ3b0ZBTWJkNWhGR0xKTEpZdjlmNlNXYVI1aldaV1pSMHpTTlJxUHhGWHc0UFZTRktzb09nUlhJUEF5NDRiMmFwdDNvcElNNFJ2TlNTaC9ONS9NZjBuWDlPellMT0xMWVdNRmc4TkpZTEhicUNHODZ6NUxHb25rL1Y2MVd2Y1RmeVhnOGZxVWRzaityRmZJbU8xQ1NudmtnTFBiL0xLL2hza3FTOUo1ME9uMk5aM2ZoQ0JQTzlzVDVtcVpadmRJalREVTNsVXFscnJVREpXRUM4aHE3ZU1NbEFmSDVmR2NrRW9tenJlV3FQSnFrejBtU3RGODZuUVpxOS9nWk1nY29wZmNWQ29YVFBRWUR0WE1tay9tMkhUNHpxM3E3UDBQdFdWYlV0aFBWNUpoRUluR3h0ZXd6YXFKWEtwWFAxV3Exanc2WnoydmUzUTQ3N05DMEp1bXYrYUJiWUlCV3EvV1QyZGxabUhnZjhjQjAyeHQrajNRNi9RdExPYmJPblBTZDdRd09FSkRGRGtSUlBCU1ZiUWtoVCttY05Oend6V1lURm91M2QvejNVZFE5VnRDVXlXUitaUWMzNllGRkhTVVNyUXE2WHEvWHYxUXNGaEg1N1ptSWFhQ2FKQktKMzlqaDg3S0NuaGtXZndYLzJjb0tVNmkrQkZRVFFrZ25QdERpUXNGcm1zMW1YemFpREhFVVZvYUxkZWtvN1RhUDBySWtKQjZGSHhVWkxwYTFkSWNKaEhkRWkzVGdZaTNiVDUyZVppQXJYbUtwamQ0K2d1N01ack9vV2VnMVZPOW5wOVBwMzNsMFU0NGsyWEFjZDVSa0cwa2FiWWlTZ2Z0bVYwQUpxUFZBWjVtZG5iVXRDZDRwSUx2RTQvRUxBNEVBSUVhWFBjZ0Z5ZVZ5aU9nZDVlUVkyNU1razhuTVd2VXFyNnpxQ05KcE5ocU43eFVLQldRU3pvNGdmVTRrSWQzMmczYWx2eEdITlQ4LzN3NTFYL0YrcDRDRVFxSFFlWFo1NlpSU3BOM0NXUWc4MXZZemlucklpZ21HUXFFcm90RW80dnp0bmpGd25QdGRqcnRJclFQTnhCUHJ6NllIWVBaTEhQS2RVSWJ0OUdhejJVN0ZkYnhpZFlQK2VSeTEzRFJOKzAvMy9CeU5scElramE5WlExb0tqd0xHWWZZdzhkNkVpcmRXVmpCTXJFT2RNQmVXUmJ0S2tuUjhJcEc0a0JDUzZPd0lWWGhRTDl0am50T2xLV1F5bVJ3aFpISkkrMlRMZHROc05yK1Z6K2U5VnZvQTY3VVhzMmgyN29GT0UrOHVUdVVjbGdrSUllU1FaRElKVSsvVE8zY0JVMlNBeDRvYWhaNTdXSmp6aWt3eXowMWtBd25XTkczNzNOemNCUjFYa1Eya3ByK2hVWUl0blU1MzVxMHNYYTFaQ2JhWVU0L1dFK1Rac1Zqc1lsbVdWd1Q1SWNVeW04Mmlka2krUC9KR28zVW1rNWtqaEVSR2d4clBVWUhDT2JmazgzbEVlM3NGNXFmTjVHNlpoRjB0V09qQW1sQUU4QVluZEJNbzZ1K2hsUDdTYzh1TGJCbEZPU21WU24zS2k3UnZOTTJVMHVMYzNOeGxkcmhSRzAyYmkvR1J5bkVlUytWWXR0OXQ4a0JXZExjaTQ0NWg5SjVwRVI2VFVqcFRLcFU4ZWNTMlo4MnlETzArREM3NHZHV2JtSzFXNjliWjJkbjNlU1I3MExwUVVOQy9UZ2g1cnZVSGhzbDdoSzdyUDNCMXhVSWpvTSt4bUt4bFNpMU1mSTFHNHh1bFVnbDRySjU4SkVsNlZ6cWQvb0luaWQ4Z29obDQrUVdhcGwyOVFTU3NhdGdPL1dPRlNaK1ZQWUNDWG5IQ0dGNXhnaEJDWHNnVWRUdVRHRHpxQjNNY043OHFxdGYvNVNYYk5pdnErVFJHZ3BNZlpPd2YrVDhHd1RINHRVS2hjQXpIY2ZYMVg3WlZqeWl6Mm9RclFLbFppTWxEMld6V1dsRnQyYUIyb0FiVE1QWDYvZjdPNE1URmx4Qm13S3JkZGpvTVZ6MkxkZTdncWRQVDAvZVBBUjJXdU43K0dOaDlZYTFoN1Y1d0RuYlMyTlkvRUhtODdFRVE3c0xDd245V0twVVZ2M1UydEJPUWJ0bUZ1VXFsY3IwWFE5ODdKeDBLaGE1a0VRUGprOEtoK2kvTEdyeW1Bd3JIQzhMUnVjeWdkOWRNSnZOVFFzaXVOdnBIZFhaMjlzM2Q5QSs4WXd1THcvU1Fpd2doNmM2T1VUTFhNQXdBeWIxZ25iLzZxeG5PS1VicllVSUk2dEtObitVY1dJVDJZVEZYeDN2VnJBOXNORUxJL3BsTTVuYWJFdUFvVEZ2TzVYTFkzNjF1RzhCSlFQWkZOUjVKa2xaVXR0VTA3YkZjTGdjL3lTZ0hMcnJaOUx0TVQwKzNFMzZjOExPMjRna0RpeVZnUlQvb0lWaFJ1L1hlTVJBSUhHOVhWaENGYVhWZC8wMHVsM3RwcjQzaXRERzY0V1NwcXFwK3pHUDE2V3o1QUEvNzVPVGtGM2llYnhjRDZzV3ZUZjk3SC9ubUkzM2xRckZPbERxd0s2SUVpMnl4V1B4WXM5bThzdGVDT2lJUEtvcHlTandlUDljS3ZvYXdFMTNYNzNRamZiMEdINEhmQmIvZmYzNGlrVUN0UGZDaTg4VFljcWNIMHF2bjV1WXVielFhNTFuV1pxU0ZvVE1Ea05GTldIalJ0WFo3ak9XZ3d5L1M4eGJrS0NEZHpMMmI2SnExeUw5NFBINkRYWEhIRVJEZ2RTUEJSaWxmdDdHSE1KQlZnS2Nqa2NoWjRYQVlPdFN5eHpSTnF1djZ3NzNNdSsyWHVtSFhPb2FkSU1DclhDNWYwV2cwUG1FenVaR3VYZWkwR09sMCtqWkprcEJXM0g2MnpBbUNPM205WHIrcFZDb2gxc3FML281bEFrSUllVVVpa2JoQmtxU2RyUEtCQktsU3FYU1J3OTVkc1Qxc3pieHRyNkxUTlF1OVVFb2hoWHNNUWZwSHBvdFVLdlZOUlZGZXYwVjhKSXNmQUFnSFVCS0x4U0w4QVY0VUR1ditRYW0xOXdLQXhPRjZWYzVtczRoV2Q0VXAzQlg5bkJCeVVES1pCQlRRYzZ5RFVVcXpoVUxoTFRiQmk2TitYKzBta0ZQSlpQSnFuOCtIc1A1Tmp3eVBhMVd6MmZ4YXNWZ0VhUFBqSGlycDdMaUdRQytKeFdJWFNwS0VISE5ySlNuTk5NMEhabVptQUV4QzNYeVpsMkIvSEJxbkppWW16cG1ZbUZqaGJVUWtaTFBaL0dxeFdFUXA0TTMwWkNZbUpzNE1Cb1B2RkVVeDBHTmlucjJHQVJDd1VxbGNVNnZWZ0haZTJnekNnYldTWmZtdHlXVHlla0VRZk5hMXd3ZWhWQ3FkMzA5VXN0TlhzbjBLaUFqd1N5UVM1OWtCSHdEWU9wdk52c2pEemlTbi9SK1hKT25OaUVuYlJLV2tsMEpLa0RxcnF1cm5OVTI3MlVQbzdHNCt3dE9oVU9oVU8xd0ZwaGIwZGIzQ085WVRaTVgxQ0RuZDhYajhQSFprTFNNU2VRS3FxbjVZMDdUcjNGRHZzVFloUXNnems4bmtsWUlnN05PQjBPalpVd05Yam1heitlMjV1Ym1MTkUxRFBCb0tuUzZyNnVxeE5WcEdMaUhrWDVMSjVEV0VrTjNZRDB0cmhTZ1FUZE4rbXMvbmNYMTJQV2MzOTJ3NUVBaDhQQjZQMjBLUHNpS2Z6K3RBcGZNeWo2MjA0NE94U3pnY1BqRVVDcjI3NDhybE5TRkJhTVhqbFVybDZucTkvbldPNHg3cnVJTjdXV2ZzWEsrSXorZDdieUtSK0FUUDg4UkdaNTdQNS9OSDZiciszWDQycUJzQlFWQUxsUFh6Q1NFUUJPc3BvaGFMeFpOYXJkYUtrT0orQ05uZ3RyMDJTUUtneDRsRTRneFJGQS93RXQ0dnpKbzROU0FjbE5JL2RjdDkyT0ExV05Yd1FBWk5KQkpYSWYvRDJoSHpmZndsbTgzQ09kaVhwYzZWZ0hBY0Z3bUZRbWM3NFV0UlN1L3BnRzVjMVVSSDhPVzI4T0NyTkNWSjBpdGpzZGc1a2lSTldaSHdIV2pmaUp5VHhZQkRTdW5kK1h6K1VsM1hmODMwUkZlV214RmNnMTRraFJSRmVVOGlrVGpmN3VNRjVkeUNmZFdydjZYZjNRcUlJTXZ5bStQeE9FNlI5djBPbmJTaFV3cjVmUDc0amlJN3ZiN0lyZ2tjb1lidE9jR3l0Uk1nV21PeDJJbWlLTzVrZDZUM29Ic3RybWlkU3ZqZHFxcGVvMm5hSGN6ZTd5bkkySDdYSEhGWDBCV1pPMkxGbm1iSUpVOGFKTkhQcllDQTVoMmowZWc1b1ZBSXVFZ3JIbmFLdEhXUmZ1Zm94ZlpoZHFLOEtKRklIQ2NJd3I2Q0lFZ0QrRTlXTFN3b2lZYXZwR21hdHhjS2hSdDBYUWNlY1hhVEtPR2RIMXU3RDIrdjA2TTJOemYzcVhxOS91K0RiTEorQkFRbTN5TlJaTWR5aWl5T0M3dDZvVkI0aDhlS3FyamxXYmNUMFkrU2lJU1FhVm1XWHoweE1mRkdRUkIyRlFRQlY3SisrT3VXbG5hNzlqWHE5NlZTNlN1R1lmeGEwelI0aHdITDFHU05OdU5Kdm94UFFFdE1KcE5YRUVLZWI4ZEFkbnJzTlNpV2NMOEx1Rk13R0R3eEZvdDkyT0VVdVR1YnpTS1hmYlBlZGJ0dFltekdLUDRJSVZOUTVzUGg4SXNJSVM4UVJUSFdvYS8weS9QT2xGZ08xaWhLNmE4WEZoYnUxSFg5UGtwcFd5aHdqZkpNdlk1K3Z3WU83UmN0VjhqNUVBUkJzYlpCV0RzN1BjNWd2T243ZzlIdllxSE93b3NUaWNRWEpVbkNuVzdady93aXAzZ1J3M2RJQzlidUJnc1I1RGd1eEFSbWt1ZjVKOHV5dklmZjc5K1ZaVEx1Q2JPeFV5NEs2bkFZaHZGblRkUCtVYS9YLzJ3WXhtT0dZZnlkVXBwamQra0ZacEd4Q2tXM1RkRDNCaGt5WDRiYUhmd2VMT2ZETGlhd25UV0lyTkhpb0FQM0t5QVlCL1dtejJRNUZQai9WakN1UDh6TXpDQWxkMU1yaG4weUhCc1RWeTU4NVdTTzQzQXR3NTlQbHVVVmEyQ2FwcUJwR3E1SkVBTDhpeitraHVMUDdTblJGb1plZC9nK3A3SWh6ZTBFZThkd09Iekt4TVRFU1E1K2ozeTVYTDV1VU4yalBjdEJCQVRZV2M5UEpCTFhFVUxhOERsTFhBTVlWN2xjL21TdFZqdDdRMWc1Mm9OdXFpLzRSckphbG1Yb3c5ZmFsVlJqZm8vN3N0a3NVc01IUGoxV2ZQMzdtRER4K1h5bkpwUEpDeTN2dEJYSHY2bXEraVlVM3JFb2krTU4wZ2VUeDAzdE9RQm5JQ0J5TGRYUTBManRkc2lxcW5yR01FS2cramxCckp0Nzcwd204d1c3bWdzd082TGVRaTZYNjB4QXdnVEdBakxlOWF2bFFOVG44NTBRajhmUGNvalliZWk2L2d0QStnemk5N0FTMTQrQXJKaVlKRW52bnB5Yy9JekRIUkRnRGgvU05PM0cxWEprL1A2WUEyME9vQnB6SXBHNFJwYmxhVHV1d01xbnF1cHhsTktmRElOcnF4SVEyUC9qOGZpVmdVRGdyWGJFQUltUmxVejR1d094NHhObEdLdTRkZnA0YWpLWlBGdFJsRGZZaGZuQTUxR3RWcis0c0xBQUVJNjJMMmhWM0JsRVFPenlmNjluWmw5ckJsZXIyV3grRC9ySXFxZ2N2enptQU1jdFhxMWlzZGlaVnFTZE5uTjBYWDlvWm1ibVFCWkZNQlNlRFNJZzdZSGJncElJQkFLQUNGcmh5bWNoRUcyRjZZYWhVRHp1WkN0eVFFQVo1MVFxZFFNaEpPbHdXMUZMcGRJNXpXWVRHWkpEZTFZaklFdUNJa25TUHZGNC9BcEprbFlnMVFFVWdPVUJIOFZ4M0IrSFJ2bTRvNjNFZ1dlazAybnNyMWZZVFJvaC9aUlNKRU1kN1ZScmNGQm1EVU5BTUxZaXkvTHI0L0g0NVFpenNCS0RiQzRHOVlnU2JtTUg0cUNydFRYZjIybGlZdUtqd1dEd0hVNVhLNFlHZWJpbWFYY05tMFhERUpDbHE1YmY3ejgxa1VoOHhPRUluSzlXcS84eFB6OS95ckFuTWU1djAzR2d2YWVpaXFJY0c0dkZFQ0NMNk9rVkQ2VVVWNnRQc09LaWJxTU1YRE5zR0FMU3FaTThiWEp5OG5KWmxnK3lVb0NDSlpxbW9Zd2I2cTJQOVJIWFM3UmxHNkw0elJ2aThmaW5yV1hKMnh4QmlIK2owZmhtcVZUNndMQ3ZWdTB4aGlVZ2JZbVhSVkZFQU5sbGhCQ0VHQzk3MnFtUGhVTGgvWlRTMnh5V2ZtejYzYkl5OGMrSk0vRHA2MFZSYkFjaXJzQzQwblg5L2x3dWQwUUh4dTdROTg2d0JRUXpSQUxMTWJGWURObUhLNDVGZ0YrekdpTlFxUDdXRDhMRWVOOXNlZzRzYm5BRy9uYUZLSW92Wmtsb2RsZXJiRDZmZjFldkFqaXI1ZGl3Qk1SS3h4VEExeXlBYzhzZ1dKalMvamFPNDJaV080bngrNXVLQTNzQ2gwMlc1ZGVLb3JnQy9BM3hWa2lyS0pWSzV6V2JUUlFXN1ZvQVo3V2NXU3NCUVE3NzB5T1J5QVUyQVdXTE5NTTBaNXJtbjdMWkxJcjBlSzBvNkdyNVBuN2ZoZ000T1lMQjRLaytuKzl3dXloZENBZjBqbHF0OXRWeXVYemFXdWtkbmFTdGxZQmdESmtsMDZPVVcyZU42cVVNT2NDWFVrcC9scy9uRDJOWExic2NodkZtMmhvYzJETWVqNStqS01xaFRtaVd6RjJBMmpUQVJXaFhCK3MwRXJrR2hIUEwwclVVRU5EZ2wyWDVzRmdzZG9Fa1NhaEhiVlhhQVRhd29Ha2F3bEZRZjMzb0UzVExpSEc3RGVYQTd0Rm85S04rdi8rdFRyNE9PSndOdzNoUVZkVmpOVTI3Wjcyb1hXc0J3VHpDaXFLOEl4YUxmZHd1VEFEbVgwcnBQS1gwdi9zUWtxRmJLOWFMNGVOeFZuQUFlTHFuaDhQaFk3dUJoVk5LdHhjS2hhTzZXRC9YaExYcklTQWdQT1h6K1k2UFJxTWZzYk5zc2FMdUZVM1RickVSa3JFd3JNblNqMFNudTB4TVRKekd2T1RJNGJkOWdKaWpxdXBwbXFaOTJaSnl2T1o3WTcwRUJCUFBoTVBoRDBjaWtaUHQ0SEFHUEVsR1lwWEhSTGptUU9lRzNpTVNpWndXQ0FTT2RGRElGenRsbnZLem04M205UnNScHJTZUFnTG1QQWtRTFlGQUFQcUdIVmpCNG5YTE1JemI4L244a1F5MHdEWDN4dzA5dzRFOUVMYnU4L25lME9OYWhUQ1NDNXJOSnFvSGxEZGlkdXNwSUpnZmhHVFhlRHgrUmhjaE1RekRxSm1tK1dBMm13VlUvZGhQc2hFN1k0M0dSRG1OYURSNkxpSGs1VTRLT1RzNVNwVks1Vk8xV2cybG11ZldpSnllM2E2bmdIU2FjRHVGQkVSYTZZQzlHMzZTUjFSVlBVclR0SHQ3em1UY1lPUTVRQWg1U1RLWnZFZ1FoR2ZiQWIyMUo0QnkxSlZLNWRPMVd1MnpneUlpRG9zWjZ5a2duVFF2bmlTQlFPQW9ITFZPNEdtd2U1dW0rZGpzN095cHVxNS9iMWlUSHZlejdoeEFqQjRTbmk0VUJHRzNidVVqT21xMW84YjU3THBUYWhsd293U2tmZDE2a3MvbmV3ZUs4emd4RGJGYnVxNGpDdmpxVnF0MXlVWXpiRHgrM3h4b1d6QlBFVVZ4Z2dGODJBSjJ3NVJiS3BXdWFEYWJYeHlWc240YktTQnRUdThXQ29VK0VBNkhqM05TMkppVDZQSDUrZmx2VmF0VlZHUUY0dUQ0R1gwTzdCNE1CazhJQm9OSE9LR1F0S2VBcEtkS3BmTFpScVB4WDI1TE5LL0g5RWRCUUhEZG1nb0VBaWNndUpFUUVyZWJPUE9WbEEzRHVLZFVLcUV1WWh1VWJqMzROQjZqUHc0Z3pPakFhRFQ2UG9RYldSekUxdE1ER0xyL21KdWJ1N3paYk1MUHNTb2t4UDdJN04xNkZBU2tUV1ZLVVpTam85SG9pWklrN2V4VU9vQ0Z5OStucXVyVjQ4U3IzZ3U4RGkyc3pqcXNJeUluanVWNS9rbmRmQndzdHVyQllySDRHVTNUVU1Ldm5ZNjk1ZzVBdDN3WkpRRUJ6V0ZKa3Q2WVNDUk9aTldDYk9lQks1ZXU2MDlvbXZiTFlyRjRKc2R4ajQ5Ukc5MHUrZHExZ3drWDVURVVSVGxFa3FRZHVvMkVxRnlrUEtpcWVwV3U2ejhlMVpJWm95WWc0R2xBRk1XWHhlUHhFeFJGZWJYVFNRSklJZVl2K1gwK24vK01ydXVvM29wbkhQQzRkakpnMXpPKzlnbEZVWTZLeCtOSG02YUo4ZzVJbEhQY1cvQ090MXF0NzFVcWxlc29wWGVPOHBxTm9vQXNsZ29BbEZBd0dIeVAzKzkvUzQ5akdsR2VxSjF4UDVKbzFnTFpZbjMzbTZkRzh4TkNYamd4TVhHa0pFa0g5em8xa00vUmFyV2VXRmhZdUs1V3E5M01jZHlEb3o3YlVSVVFuQUlRbEoxOFBoOThKVWQzNUNhdjRDbE9FK1M3RzRieFVMbGMvbjY5WHI5aUZHem9vNzc0cTZSdjcxQW9kSHdvRkhvVmpDeUVrQW1IL2hhVmN1VCttS2I1QjFWVi8xUFR0Rzl3SEtkMnRCOFpuY002aDFFVUVDdU5ZVm1XWHhPTlJvOWxhQ2xkYVlhamllTzRoMWlWVndCbmo2OWNxNU1FNitaRmhkOGpZckhZNFJ6SDdVMElpZlRxbmwycHZsK3BWTDVNS2YzRnFPb2JkdlB3Z29DQWJwZ045L1g1ZkVlR1FxRTMySUhUV1NjSGxHL1ROQjlWVmZWeVhkZS92d3I5WkdTL2JyMDJwb3ZmKzVsYlFwS2sxOFZpc1NNRVFYaW1JQWh4SjBDRjlyak00dmpJM056Y2pZRG42VUFmY1VIYWFEVHhpb0NBVzR2S29DUkpRSEI4cXlSSkwyRXM3RFlISlBnL2Foakd3OFZpOFhMQVUzYWNLSjJibzUrTk1ob3J0MzVVcEdSWmZ1WEV4TVNiQkVIWWp4Q1M2aFpIMVNZTHdBcXRWdXNuNVhMNUc4eEs1VW5ucnBjRXBNMTdCVG51UHAvdnpjRmc4SFYyeFVTdGU0ZnBKNC9xdXY0UFZWVS9wK3Y2ZDEwZTgwNkNzeFZ5NTZlZ2VFY2lrY05FVVh5V0lBaHBCNVNSWmV4bThYTi9ucHVidTZsZXJ5TitidVFWOFc3ZkdpOEtTT2RwOHFwb05IcVlKRW12c2xRYnNvMzFZZDc0eHppT2UwSlYxZXMwVGZ2QldKbGZ0ajBnK0xzb2l2SzZTQ1J5Q00velR4VUVJZVZHTUJnY1Q3NWVyMzluWVdIaCs3cXVBeGpROHpqTVhoV1E5cXFpY3V4VGZEN2Y2eWNtSmc2U1pmbkYzZXp2blZzQk9nclA4elBsY3ZrMlN1azNOVTM3M1NaUjZBZTVMb1lJSWM5Q2RsOGdFTmdmVmltbVk2QWliOCtIVW9vUW9OK1V5K1ZiVUErR09XNjd2VGNJalQzcFdJc0dYaEFRTjh6MHcyOUNDRGxzWW1MaUVFTElQazRoOURiSy9CelA4MDhZaHFHV3krV3ZOWnZOVzJFRjJ5VENZcmRuMnZ4VUpFbmFtK2Y1VjBZaWtSZUpvdmhranVPbW5VQ2liVHFDZnJkZ0dNYTlsVXJsVmwzWGY4amk0eWhyNjJiZDFtSlBEN1ZQTHdoSVB4TW1TTXJ4K1h5SGhVS2hWeEpDOW5SNW9yU3JvMjduT0M1bkdNYmo1WEw1bDZacDN0cHF0UjZ3NkN0ZVduZ3JyZmlRUEVVVXhZUEQ0ZkR6UkZIY0hWZ0JnaUJFTElxMzdSVzF2UkM2cmk5bWZNN056ZUVxOVNOTjArN3ZFbUhkUzQvclozM1h2ZTFtRTVBMkF5T2lLTDdFNy9lL1BCUUs0VVJ4RWhUYmpjRE1rMGp6bkRWTnN6dy9QLytMVnF0MU82WDBUNnk4MTlCaDl0ZGc1YkV4OGJlaktJclA4UGw4THc0R2cxQzJkK1E0TGkwSVFwZ0pSVmRoNktTckxSaVZTdVZIclZiclZrb3A4S25jb21KNjZjT3lOTzNOSkNCMkN4QkdYRmN3R0R3NEdBeStVQlRGZlZ5ZUtKMzdBbGNKQ0FzOHYyVk4wLzVlclZidjFqVHRBVjNYNzJQMzdWRVJHT2hrT3dKWm53VU83azhJMlluanVCaE01QWpac2F0STNFTTRNWDhBYWZ4K1lXSGg1NjFXNjFkTU1EWUVSR0VOUGlSZHU5eE1BdEp0b2hGQ3lINnlMTDhzSEE2L1FCQ0UvVzBBQTF4OVNXSEdOQXlqd3I2YzhOclg2L1g2Zy9WNi9XRmQxLzhzQ01Kam1xYmwyTzkxVnR4K21ONThmQWdranVNbVlPSTJER01uUXNndXNpdy94ZS8zSTUwMXp2UDhoR21hVVhaMWNxVm9PK2dZQmNNdzdweWJtN3ZETk0xZmFacUdFOVNUL294QkJXdXpDVWl2WTF5UUpPazVnaUM4SkJnTTdpZEowZ0VzOThUS1B5ZGhzZjN2Q04wMlRSTW1UVnczOEcrRDR6Z0VVUzdvdXA1ck5CcmJLYVV3QkVDd0VJV01Fc1VMUE04M2VKNkhrVUJiZG1TWnBteWFac2cwVFZ3Vi9hWnArckR4RVVIZzgvbDJJSVJrZUo0SDBGb0k4SzZJZ09aNUhsY21Iek5PT0sxcno0OEF1MFk5MG1nMGZsdXRWbitqYVJxaWJZR0RPNVN5eW9OdTFJMTZiN01KQ1BqWVMwamF2SDY2b2lnSFRVeE1IQWdMRHMvemU3aTA5N3RlSythZ0JEb0xoQVpmWG13eWcrZDVhcG9tWVB2eEwzNWZ1cUx4UEk4MXdSeGtudWNWbnVjbDB6UnhkWUlnaENBWTBCMjY1WGE3SnBBMVpDbk5PQTMvV3EvWEg2alZhbmRvbXZaekYrYmFmb2Z5WFB2TktDRDlDQW5hNHN2OFBKL1BkNGpmNzMreUtJcTc4RHkvYThmWGVDMFh0ZWNYZlJXRDIvWGQrZDhXZFF1TzR4NXV0VnAvclZhcmR4bUc4VXROMCtENTlyeURieFY4Vy9icVpoV1E5aVRkbmlidDlsT2lLQ0tNNVVDLzM3ODdVM0JoQlVyeFBDOE93UFJoQ01BdytnRHB3QnFEL3BUbGVmNXhUZE5tNi9YNi9VenBCdTdZU09XQ0Q4RHJOWGxsc3d2SWFwZzJTUWlCeitDWmZyLy9XVURsRUFRQkphNHpvaWhDRVI1RVlGWkRUNy92SXVVUzViZFZPRUlwcFRPTlJ1T3haclA1QjQ3amZxZHAycU45SUJiMis2SHBsOWFSYlQ4V0VQYzZ5Mjd3cHdpQ3NFOG9GTnBiRk1Xa0tJcVR1S0xCakNxS1l0U3Q5NzdQM2VEbUJJRXdvUFlqVEsrcVlSaDV3ekNLalVZREo4VmZkRjMvUGFVVTBRRXdWWStLU2JwUE5teE04N0dBOU1mMzlwY1Vwd2V5NkhZV0JPRkpnaURzRWdnRTlvQjVGZGhlK0ZjUUJGaWhrR1dIUHlqY0VzRHhMRUxrWnZNdlhvK1lBRURKaCtrWUZyQUYwelFydXE3akQvVlZpczFtODFGSzZjT0NJUHdkc1dZTThMa2QrdEhmVE1ldEZ6a3dGcERoYmdSazF3R1pKV1dhNWlUUDg1T2lLTzRJWVlIbldwWmwvSzRJZ3NERE1zVUVCaFlxckFPRUR2L3FzSERoZXNUei9PTFhudFdZTHlOYkVsY20welJuY0VMd1BEK3JhVnFlb1JCdVNUUHNjSmR2Wlc5akFWbHJEaS92SDBJQWdWZzA0ekxUTFp4K2VQRC84ZC9oRTRFZkJXWmhDQWpXQ0NaaE9CdmJ1ZnJEZER5dUx3YzhOdHBZUUR5MllHTnkxNWNEWXdIcHpXK3ZXWEJBTDU3eEtkTjdiWHUyR0F0SVR4YTVhakJxUWpScTlMaGk0aWcyR2d2SXhxektzRGZ3K05SWW8zVWNDOGdhTWRhbTIyRUx4ZnBSdm9WSCtuODhFdzl6MUFLV0F3QUFBQUJKUlU1RXJrSmdnZz09IiBoZWlnaHQ9IjIwMCIgd2lkdGg9IjIwMCIgaWQ9ImltYWdlMF8yMjAxXzEyMDkiLz4mI3hhOzwvZGVmcz4mI3hhOzwvc3ZnPg==;" vertex="1" parent="1">
          <mxGeometry x="770" y="1394.74" width="270" height="79.26" as="geometry" />
        </mxCell>
        <mxCell id="6SOhbdRmg-bUomSC-oUc-80" value="" style="group;fillColor=none;" vertex="1" connectable="0" parent="1">
          <mxGeometry x="2995" y="1370" width="320" height="176" as="geometry" />
        </mxCell>
        <mxCell id="6SOhbdRmg-bUomSC-oUc-81" value="" style="rounded=1;whiteSpace=wrap;html=1;fillColor=#FFFFFF;strokeColor=light-dark(#e74040, #ededed);labelBorderColor=none;fontColor=#FFFFFF;shadow=1;" vertex="1" parent="6SOhbdRmg-bUomSC-oUc-80">
          <mxGeometry width="319.99999999999994" height="176" as="geometry" />
        </mxCell>
        <mxCell id="6SOhbdRmg-bUomSC-oUc-82" value="cv" style="shape=image;verticalLabelPosition=bottom;labelBackgroundColor=default;verticalAlign=top;aspect=fixed;imageAspect=0;editableCssRules=.*;image=data:image/svg+xml,PHN2ZyB4bWxuczp4bGluaz0iaHR0cDovL3d3dy53My5vcmcvMTk5OS94bGluayIgeG1sbnM9Imh0dHA6Ly93d3cudzMub3JnLzIwMDAvc3ZnIiBmaWxsPSJub25lIiB2aWV3Qm94PSIwIDAgMTA5IDMyIiBoZWlnaHQ9IjMyIiB3aWR0aD0iMTA5Ij4mI3hhOzxyZWN0IGZpbGw9InVybCgjcGF0dGVybjBfMjIwMV8xMjA5KSIgaGVpZ2h0PSIzMiIgd2lkdGg9IjMyIi8+JiN4YTs8cGF0aCBmaWxsPSIjMjQyNTMyIiBkPSJNNzEuMjc4NyAxMy43OTYzQzcwLjUyOTYgMTMuNzk2MyA2OS44NzUzIDEzLjYxODEgNjkuMzE2MSAxMy4yNjE2QzY4Ljc2NzQgMTIuOTA1MSA2OC4zNDUzIDEyLjQwODIgNjguMDQ5OSAxMS43NzA4QzY3Ljc1NDQgMTEuMTMzNSA2Ny42MDY3IDEwLjQwNDMgNjcuNjA2NyA5LjU4MzMzQzY3LjYwNjcgOC43NjIzNSA2Ny43NTQ0IDguMDMzMTggNjguMDQ5OSA3LjM5NTgzQzY4LjM0NTMgNi43NTg0OSA2OC43NzI3IDYuMjYxNTcgNjkuMzMxOSA1LjkwNTA5QzY5Ljg5MTIgNS41NDg2MSA3MC41NTA3IDUuMzcwMzcgNzEuMzEwNCA1LjM3MDM3QzcxLjgwNjMgNS4zNzAzNyA3Mi4yNjUzIDUuNDcyOTkgNzIuNjg3NCA1LjY3ODI0QzczLjEyIDUuODgzNDkgNzMuNDYzIDYuMTUzNTUgNzMuNzE2MiA2LjQ4ODQzVjJINzUuNjQ3MlYxMy42NjY3SDczLjcxNjJWMTIuNjQ1OEM3My40NzM1IDEyLjk5MTUgNzMuMTMwNiAxMy4yNzI0IDcyLjY4NzQgMTMuNDg4NEM3Mi4yNTQ4IDEzLjY5MzcgNzEuNzg1MiAxMy43OTYzIDcxLjI3ODcgMTMuNzk2M1pNNzEuNjc0NCAxMi4wNzg3QzcyLjEwNyAxMi4wNzg3IDcyLjQ4MTYgMTEuOTc2MSA3Mi43OTgyIDExLjc3MDhDNzMuMTI1MyAxMS41NjU2IDczLjM3ODUgMTEuMjczOSA3My41NTc5IDEwLjg5NThDNzMuNzM3MyAxMC41MTc3IDczLjgyNyAxMC4wODAyIDczLjgyNyA5LjU4MzMzQzczLjgyNyA4LjgyNzE2IDczLjYzMTggOC4yMjIyMiA3My4yNDE0IDcuNzY4NTJDNzIuODUxIDcuMzE0ODEgNzIuMzMzOSA3LjA4Nzk2IDcxLjY5MDMgNy4wODc5NkM3MS4yNTc2IDcuMDg3OTYgNzAuODc3OCA3LjE5MDU5IDcwLjU1MDcgNy4zOTU4M0M3MC4yMzQxIDcuNjAxMDggNjkuOTg2MSA3Ljg5Mjc1IDY5LjgwNjggOC4yNzA4M0M2OS42Mjc0IDguNjQ4OTIgNjkuNTM3NyA5LjA4NjQyIDY5LjUzNzcgOS41ODMzM0M2OS41Mzc3IDEwLjMzOTUgNjkuNzMyOSAxMC45NDQ0IDcwLjEyMzMgMTEuMzk4MUM3MC41MTM3IDExLjg1MTkgNzEuMDMwOCAxMi4wNzg3IDcxLjY3NDQgMTIuMDc4N1oiIGNsaXAtcnVsZT0iZXZlbm9kZCIgZmlsbC1ydWxlPSJldmVub2RkIi8+JiN4YTs8cGF0aCBmaWxsPSIjMjQyNTMyIiBkPSJNNzkuMDEwNyAxMy4xOTY4Qzc5LjYyMjcgMTMuNTk2NSA4MC4zNTA4IDEzLjc5NjMgODEuMTk0OSAxMy43OTYzQzgyLjE4NjggMTMuNzk2MyA4My4wMjA0IDEzLjUzNyA4My42OTU3IDEzLjAxODVDODQuMzgxNiAxMi41IDg0Ljc5ODQgMTEuODA4NiA4NC45NDYxIDEwLjk0NDRIODMuMDQ2OEM4Mi45NTE4IDExLjMzMzMgODIuNzQwOCAxMS42MzA0IDgyLjQxMzcgMTEuODM1NkM4Mi4wOTcxIDEyLjA0MDkgODEuNjkwOSAxMi4xNDM1IDgxLjE5NDkgMTIuMTQzNUM4MC43NTE3IDEyLjE0MzUgODAuMzYxMyAxMi4wMzU1IDgwLjAyMzcgMTEuODE5NEM3OS42OTY2IDExLjYwMzQgNzkuNDQzMyAxMS4zMDA5IDc5LjI2MzkgMTAuOTEyQzc5LjE0MTcgMTAuNjM5NyA3OS4wNjExIDEwLjMzNzIgNzkuMDIyMiAxMC4wMDQ2SDg0Ljg4MjhDODQuOTAzOSA5Ljc4ODU4IDg0LjkxNDQgOS41NTYzMyA4NC45MTQ0IDkuMzA3ODdDODQuOTE0NCA4LjYyNzMyIDg0Ljc3MiA3Ljk4OTk3IDg0LjQ4NzEgNy4zOTU4NEM4NC4yMDIyIDYuODAxNyA4My43Njk2IDYuMzE1NTkgODMuMTg5MiA1LjkzNzVDODIuNjA4OSA1LjU1OTQyIDgxLjg5NjYgNS4zNzAzNyA4MS4wNTI1IDUuMzcwMzdDODAuMjE4OSA1LjM3MDM3IDc5LjUwNjYgNS41NjQ4MiA3OC45MTU3IDUuOTUzNzFDNzguMzM1NCA2LjM0MjYgNzcuODkyMiA2Ljg1NTcxIDc3LjU4NjIgNy40OTMwNkM3Ny4yOTA4IDguMTMwNCA3Ny4xNDMgOC44MTYzNiA3Ny4xNDMgOS41NTA5M0M3Ny4xNDMgMTAuMjg1NSA3Ny4zMDEzIDEwLjk3NjkgNzcuNjE3OSAxMS42MjVDNzcuOTQ1IDEyLjI3MzIgNzguNDA5MiAxMi43OTcxIDc5LjAxMDcgMTMuMTk2OFpNNzkuMDcwNyA4LjY0MzUyQzc5LjEwOTYgOC40MzkxNyA3OS4xNjM1IDguMjUwMTMgNzkuMjMyMyA4LjA3NjM5Qzc5LjM5MDYgNy42NzY3IDc5LjYyMjcgNy4zNzk2MyA3OS45Mjg3IDcuMTg1MTlDODAuMjQ1MyA2Ljk3OTk0IDgwLjYxOTkgNi44NzczMiA4MS4wNTI1IDYuODc3MzJDODEuNjIyMyA2Ljg3NzMyIDgyLjA3NiA3LjAzOTM1IDgyLjQxMzcgNy4zNjM0M0M4Mi43NTEzIDcuNjg3NSA4Mi45MzYgOC4xMTQyIDgyLjk2NzYgOC42NDM1Mkg3OS4wNzA3WiIgY2xpcC1ydWxlPSJldmVub2RkIiBmaWxsLXJ1bGU9ImV2ZW5vZGQiLz4mI3hhOzxwYXRoIGZpbGw9IiMyNDI1MzIiIGQ9Ik04Ni40NzQ2IDUuNDk5OTlIODguNDIxNFY2Ljk0MjEyQzg4LjYxMTMgNi40MjM2IDg4Ljg2OTggNi4wNTYzMiA4OS4xOTY5IDUuODQwMjdDODkuNTI0IDUuNjEzNDIgODkuOTQ2MSA1LjQ5OTk5IDkwLjQ2MzEgNS40OTk5OUg5MS4zOTdWNy4xNjg5N0g5MC4xNDY2Qzg5LjU0NTEgNy4xNjg5NyA4OS4xMDcyIDcuNDA2NjMgODguODMyOSA3Ljg4MTk0Qzg4LjU1ODUgOC4zNDY0NCA4OC40MjE0IDguOTg5MTkgODguNDIxNCA5LjgxMDE4VjEzLjY2NjdIODYuNDc0NlY1LjQ5OTk5WiIvPiYjeGE7PHBhdGggZmlsbD0iIzI0MjUzMiIgZD0iTTEwNS42NzYgMTkuNUgxMDQuMDYyVjIzLjQwNTFIMTA0Ljk5NlYyMi4wMjc4SDEwNS41NUMxMDUuNjk3IDIyLjAyNzggMTA1LjgwMyAyMi4wNjU2IDEwNS44NjYgMjIuMTQxMkMxMDUuOTQgMjIuMjE2OCAxMDUuOTg3IDIyLjM0NjQgMTA2LjAwOSAyMi41MzAxTDEwNi4xMDQgMjMuNDA1MUgxMDcuMDIyTDEwNi45MTEgMjIuMzUxOEMxMDYuODkgMjIuMTU3NCAxMDYuODQ3IDIyLjAwMDggMTA2Ljc4NCAyMS44ODE5QzEwNi43MjEgMjEuNzUyMyAxMDYuNjIxIDIxLjY0NDMgMTA2LjQ4MyAyMS41NTc5QzEwNi42NDIgMjEuNDkzIDEwNi43NjggMjEuMzg1IDEwNi44NjMgMjEuMjMzOEMxMDYuOTU4IDIxLjA3MTcgMTA3LjAwNiAyMC44ODI3IDEwNy4wMDYgMjAuNjY2N0MxMDcuMDA2IDIwLjMxMDIgMTA2Ljg5IDIwLjAyOTMgMTA2LjY1NyAxOS44MjQxQzEwNi40MjUgMTkuNjA4IDEwNi4wOTggMTkuNSAxMDUuNjc2IDE5LjVaTTEwNS45NjEgMjEuMDg4QzEwNS44NzcgMjEuMTYzNiAxMDUuNzU1IDIxLjIwMTQgMTA1LjU5NyAyMS4yMDE0SDEwNC45OTZWMjAuMzQyNkgxMDUuNTk3QzEwNS43NTUgMjAuMzQyNiAxMDUuODc3IDIwLjM4MDQgMTA1Ljk2MSAyMC40NTZDMTA2LjA0NiAyMC41MzE2IDEwNi4wODggMjAuNjM0MiAxMDYuMDg4IDIwLjc2MzlDMTA2LjA4OCAyMC45MDQzIDEwNi4wNDYgMjEuMDEyMyAxMDUuOTYxIDIxLjA4OFoiIGNsaXAtcnVsZT0iZXZlbm9kZCIgZmlsbC1ydWxlPSJldmVub2RkIi8+JiN4YTs8cGF0aCBmaWxsPSIjMjQyNTMyIiBkPSJNMTAzLjYzNCAyNC42NjlDMTA0LjE3MyAyNC45NzE0IDEwNC43ODUgMjUuMTIyNyAxMDUuNDcgMjUuMTIyN0MxMDYuMTQ2IDI1LjEyMjcgMTA2Ljc1MiAyNC45NzE0IDEwNy4yOTEgMjQuNjY5QzEwNy44MjkgMjQuMzU1NyAxMDguMjQ2IDIzLjkyMzYgMTA4LjU0MSAyMy4zNzI3QzEwOC44NDcgMjIuODIxNyAxMDkgMjIuMTk1MiAxMDkgMjEuNDkzQzEwOSAyMC44MDE3IDEwOC44NDcgMjAuMTgwNSAxMDguNTQxIDE5LjYyOTZDMTA4LjI0NiAxOS4wNzg3IDEwNy44MjkgMTguNjUyIDEwNy4yOTEgMTguMzQ5NUMxMDYuNzUyIDE4LjAzNjMgMTA2LjE0NiAxNy44Nzk2IDEwNS40NyAxNy44Nzk2QzEwNC43ODUgMTcuODc5NiAxMDQuMTczIDE4LjAzNjMgMTAzLjYzNCAxOC4zNDk1QzEwMy4xMDcgMTguNjUyIDEwMi42OSAxOS4wNzg3IDEwMi4zODQgMTkuNjI5NkMxMDIuMDc4IDIwLjE4MDUgMTAxLjkyNSAyMC44MDE3IDEwMS45MjUgMjEuNDkzQzEwMS45MjUgMjIuMTk1MiAxMDIuMDc4IDIyLjgyMTcgMTAyLjM4NCAyMy4zNzI3QzEwMi42OSAyMy45MjM2IDEwMy4xMDcgMjQuMzU1NyAxMDMuNjM0IDI0LjY2OVpNMTA2Ljg0NyAyMy45MDc0QzEwNi40NDYgMjQuMTQ1MSAxMDUuOTg3IDI0LjI2MzkgMTA1LjQ3IDI0LjI2MzlDMTA0Ljk1MyAyNC4yNjM5IDEwNC40OTQgMjQuMTQ1MSAxMDQuMDkzIDIzLjkwNzRDMTAzLjY5MiAyMy42Njk3IDEwMy4zNzYgMjMuMzQwMyAxMDMuMTQ0IDIyLjkxOUMxMDIuOTIyIDIyLjQ5NzcgMTAyLjgxMSAyMi4wMjI0IDEwMi44MTEgMjEuNDkzQzEwMi44MTEgMjAuOTc0NSAxMDIuOTIyIDIwLjUxIDEwMy4xNDQgMjAuMDk5NUMxMDMuMzc2IDE5LjY3ODIgMTAzLjY5MiAxOS4zNDg4IDEwNC4wOTMgMTkuMTExMUMxMDQuNDk0IDE4Ljg3MzQgMTA0Ljk1MyAxOC43NTQ2IDEwNS40NyAxOC43NTQ2QzEwNS45NzcgMTguNzU0NiAxMDYuNDMxIDE4Ljg3MzQgMTA2LjgzMiAxOS4xMTExQzEwNy4yNDMgMTkuMzM4IDEwNy41NiAxOS42NjIgMTA3Ljc4MSAyMC4wODMzQzEwOC4wMTMgMjAuNDkzOCAxMDguMTI5IDIwLjk2MzcgMTA4LjEyOSAyMS40OTNDMTA4LjEyOSAyMi4wMjI0IDEwOC4wMTkgMjIuNDk3NyAxMDcuNzk3IDIyLjkxOUMxMDcuNTc2IDIzLjM0MDMgMTA3LjI1OSAyMy42Njk3IDEwNi44NDcgMjMuOTA3NFoiIGNsaXAtcnVsZT0iZXZlbm9kZCIgZmlsbC1ydWxlPSJldmVub2RkIi8+JiN4YTs8cGF0aCBmaWxsPSIjMjQyNTMyIiBkPSJNOTUuNDU0MiAyNy4xNjEyVjI5Ljg3MDRIOTMuNTA3NFYxOC4yMDM3SDk1LjQ1NDJWMjQuNjk5NUw5OC41MDg5IDIxLjcwMzdIMTAwLjk3OEw5Ny43MzA0IDI0LjkxMjNMMTAxLjI0NyAyOS44NzA0SDk4LjkwNDZMOTYuNDA5NiAyNi4yMTczTDk1LjQ1NDIgMjcuMTYxMloiLz4mI3hhOzxwYXRoIGZpbGw9IiMyNDI1MzIiIGQ9Ik04Ny40MTc0IDIxLjcwMzdIODkuMzY0MlYyMy4xNDU4Qzg5LjU1NDIgMjIuNjI3MyA4OS44MTI3IDIyLjI2IDkwLjEzOTggMjIuMDQ0QzkwLjQ2NjkgMjEuODE3MSA5MC44ODkgMjEuNzAzNyA5MS40MDYgMjEuNzAzN0g5Mi4zMzk4VjIzLjM3MjdIOTEuMDg5NEM5MC40ODggMjMuMzcyNyA5MC4wNTAxIDIzLjYxMDMgODkuNzc1NyAyNC4wODU2Qzg5LjUwMTQgMjQuNTUwMSA4OS4zNjQyIDI1LjE5MjkgODkuMzY0MiAyNi4wMTM5VjI5Ljg3MDRIODcuNDE3NFYyMS43MDM3WiIvPiYjeGE7PHBhdGggZmlsbD0iIzI0MjUzMiIgZD0iTTc5LjYwMTggMjkuNDQ5MUM4MC4yMzQ5IDI5LjgxNjQgODAuOTUyNCAzMCA4MS43NTQzIDMwQzgyLjU0NTcgMzAgODMuMjU4IDI5LjgxNjQgODMuODkxMSAyOS40NDkxQzg0LjUyNDIgMjkuMDgxOCA4NS4wMjAxIDI4LjU3OTUgODUuMzc4OSAyNy45NDIxQzg1LjczNzYgMjcuMzA0OCA4NS45MTcgMjYuNTg2NCA4NS45MTcgMjUuNzg3Qzg1LjkxNyAyNC45ODc3IDg1LjczNzYgMjQuMjY5MyA4NS4zNzg5IDIzLjYzMTlDODUuMDIwMSAyMi45OTQ2IDg0LjUyNDIgMjIuNDkyMyA4My44OTExIDIyLjEyNUM4My4yNTggMjEuNzU3NyA4Mi41NDU3IDIxLjU3NDEgODEuNzU0MyAyMS41NzQxQzgwLjk1MjQgMjEuNTc0MSA4MC4yMzQ5IDIxLjc1NzcgNzkuNjAxOCAyMi4xMjVDNzguOTY4NyAyMi40OTIzIDc4LjQ3MjcgMjIuOTk0NiA3OC4xMTQgMjMuNjMxOUM3Ny43NTUyIDI0LjI2OTMgNzcuNTc1OCAyNC45ODc3IDc3LjU3NTggMjUuNzg3Qzc3LjU3NTggMjYuNTg2NCA3Ny43NTUyIDI3LjMwNDggNzguMTE0IDI3Ljk0MjFDNzguNDcyNyAyOC41Nzk1IDc4Ljk2ODcgMjkuMDgxOCA3OS42MDE4IDI5LjQ0OTFaTTgyLjg5MzkgMjcuOTc0NUM4Mi41NjY4IDI4LjE3OTggODIuMTg3IDI4LjI4MjQgODEuNzU0MyAyOC4yODI0QzgxLjMyMTcgMjguMjgyNCA4MC45MzY2IDI4LjE3OTggODAuNTk4OSAyNy45NzQ1QzgwLjI2MTMgMjcuNzU4NSA3OS45OTc1IDI3LjQ2MTQgNzkuODA3NSAyNy4wODMzQzc5LjYyODEgMjYuNzA1MiA3OS41Mzg1IDI2LjI3MzEgNzkuNTM4NSAyNS43ODdDNzkuNTM4NSAyNS4zMDA5IDc5LjYyODEgMjQuODY4OCA3OS44MDc1IDI0LjQ5MDdDNzkuOTk3NSAyNC4xMTI3IDgwLjI2MTMgMjMuODIxIDgwLjU5ODkgMjMuNjE1N0M4MC45MzY2IDIzLjM5OTcgODEuMzIxNyAyMy4yOTE3IDgxLjc1NDMgMjMuMjkxN0M4Mi4xNzY0IDIzLjI5MTcgODIuNTU2MyAyMy4zOTk3IDgyLjg5MzkgMjMuNjE1N0M4My4yMzE2IDIzLjgyMSA4My40OTAxIDI0LjExMjcgODMuNjY5NSAyNC40OTA3QzgzLjg1OTQgMjQuODY4OCA4My45NTQ0IDI1LjMwMDkgODMuOTU0NCAyNS43ODdDODMuOTU0NCAyNi4yNzMxIDgzLjg1OTQgMjYuNzA1MiA4My42Njk1IDI3LjA4MzNDODMuNDkwMSAyNy40NjE0IDgzLjIzMTYgMjcuNzU4NSA4Mi44OTM5IDI3Ljk3NDVaIiBjbGlwLXJ1bGU9ImV2ZW5vZGQiIGZpbGwtcnVsZT0iZXZlbm9kZCIvPiYjeGE7PHBhdGggZmlsbD0iIzI0MjUzMiIgZD0iTTY1LjMxMDkgMjEuNzAzN0g2Ny4yNTc3TDY4LjcxMzkgMjcuMTY0M0w3MC4yOTY2IDIxLjcwMzdINzIuMDY5M0w3My42MzYzIDI3LjE2NDNMNzUuMTA4MiAyMS43MDM3SDc3LjAzOTJMNzQuNTA2OCAyOS44NzA0SDcyLjc4MTZMNzEuMTgzIDI0LjM3NzNMNjkuNTY4NSAyOS44NzA0SDY3Ljg1OTJMNjUuMzEwOSAyMS43MDM3WiIvPiYjeGE7PHBhdGggZmlsbD0iIzI0MjUzMiIgZD0iTTYxLjkzMjIgMjkuNTMwMUM2Mi4zNjQ4IDI5Ljc1NjkgNjIuODcxMyAyOS44NzA0IDYzLjQ1MTYgMjkuODcwNEg2NC43MzM3VjI4LjIwMTRINjMuNjczMkM2My4zMDM5IDI4LjIwMTQgNjMuMDE5IDI4LjA5MzMgNjIuODE4NSAyNy44NzczQzYyLjYxODEgMjcuNjYxMiA2Mi41MTc4IDI3LjM0OCA2Mi41MTc4IDI2LjkzNzVWMjMuMzcyN0g2NC43MzM3VjIxLjcwMzdINjIuNTE3OFYxOS4yNDA3SDYwLjU3MVYyMS43MDM3SDU5LjAwNDFWMjMuMzcyN0g2MC41NzFWMjcuMDE4NUM2MC41NzEgMjcuNjEyNiA2MC42ODcxIDI4LjEyNTggNjAuOTE5MiAyOC41NTc5QzYxLjE2MTkgMjguOTc5MiA2MS40OTk2IDI5LjMwMzIgNjEuOTMyMiAyOS41MzAxWiIvPiYjeGE7PHBhdGggZmlsbD0iIzI0MjUzMiIgZD0iTTU0LjY4NjYgMzBDNTMuODQyNSAzMCA1My4xMTQ0IDI5LjgwMDIgNTIuNTAyNCAyOS40MDA1QzUxLjkwMDkgMjkuMDAwOCA1MS40MzY3IDI4LjQ3NjkgNTEuMTA5NiAyNy44Mjg3QzUwLjc5MyAyNy4xODA2IDUwLjYzNDcgMjYuNDg5MiA1MC42MzQ3IDI1Ljc1NDZDNTAuNjM0NyAyNS4wMjAxIDUwLjc4MjQgMjQuMzM0MSA1MS4wNzc5IDIzLjY5NjhDNTEuMzgzOSAyMy4wNTk0IDUxLjgyNzEgMjIuNTQ2MyA1Mi40MDc0IDIyLjE1NzRDNTIuOTk4MyAyMS43Njg1IDUzLjcxMDYgMjEuNTc0MSA1NC41NDQyIDIxLjU3NDFDNTUuMzg4MyAyMS41NzQxIDU2LjEwMDYgMjEuNzYzMSA1Ni42ODA5IDIyLjE0MTJDNTcuMjYxMyAyMi41MTkzIDU3LjY5MzkgMjMuMDA1NCA1Ny45Nzg4IDIzLjU5OTVDNTguMjYzNyAyNC4xOTM3IDU4LjQwNjEgMjQuODMxIDU4LjQwNjEgMjUuNTExNkM1OC40MDYxIDI1Ljc2IDU4LjM5NTYgMjUuOTkyMyA1OC4zNzQ1IDI2LjIwODNINTIuNTEzOUM1Mi41NTI4IDI2LjU0MDkgNTIuNjMzNCAyNi44NDM0IDUyLjc1NTYgMjcuMTE1N0M1Mi45MzUgMjcuNTA0NiA1My4xODgzIDI3LjgwNzEgNTMuNTE1NCAyOC4wMjMxQzUzLjg1MyAyOC4yMzkyIDU0LjI0MzQgMjguMzQ3MiA1NC42ODY2IDI4LjM0NzJDNTUuMTgyNSAyOC4zNDcyIDU1LjU4ODggMjguMjQ0NiA1NS45MDUzIDI4LjAzOTRDNTYuMjMyNSAyNy44MzQxIDU2LjQ0MzUgMjcuNTM3IDU2LjUzODUgMjcuMTQ4MUg1OC40Mzc4QzU4LjI5MDEgMjguMDEyMyA1Ny44NzMzIDI4LjcwMzcgNTcuMTg3NCAyOS4yMjIyQzU2LjUxMjEgMjkuNzQwNyA1NS42Nzg1IDMwIDU0LjY4NjYgMzBaTTU2LjQ1OTMgMjQuODQ3Mkg1Mi41NjI0QzUyLjYwMTMgMjQuNjQyOSA1Mi42NTUyIDI0LjQ1MzggNTIuNzI0IDI0LjI4MDFDNTIuODgyMyAyMy44ODA0IDUzLjExNDQgMjMuNTgzMyA1My40MjA0IDIzLjM4ODlDNTMuNzM2OSAyMy4xODM2IDU0LjExMTUgMjMuMDgxIDU0LjU0NDIgMjMuMDgxQzU1LjExNCAyMy4wODEgNTUuNTY3NyAyMy4yNDMxIDU1LjkwNTMgMjMuNTY3MUM1Ni4yNDMgMjMuODkxMiA1Ni40Mjc3IDI0LjMxNzkgNTYuNDU5MyAyNC44NDcyWiIgY2xpcC1ydWxlPSJldmVub2RkIiBmaWxsLXJ1bGU9ImV2ZW5vZGQiLz4mI3hhOzxwYXRoIGZpbGw9IiMyNDI1MzIiIGQ9Ik00Mi4yNDc1IDE4LjUyNzhINDBWMjkuODcwNEg0Mi4wNzM0VjIxLjg4MTlMNDYuODg1MSAyOS44NzA0SDQ5LjEzMjZWMTguNTI3OEg0Ny4wNTkyVjI2LjUzMjRMNDIuMjQ3NSAxOC41Mjc4WiIvPiYjeGE7PHBhdGggZmlsbD0iIzI0MjUzMiIgZD0iTTYwLjcyMjkgNS41SDU4Ljc3NjFWMTMuNjY2N0g2MC43MjI5VjkuMjEwNjVDNjAuNzIyOSA4LjgxMDk2IDYwLjgwMiA4LjQ1NDQ4IDYwLjk2MDMgOC4xNDEyMUM2MS4xMTg2IDcuODI3OTMgNjEuMzM0OSA3LjU4NDg4IDYxLjYwOTIgNy40MTIwNEM2MS44OTQxIDcuMjI4NCA2Mi4yMTA3IDcuMTM2NTggNjIuNTU4OSA3LjEzNjU4QzYzLjA1NDggNy4xMzY1OCA2My40NTU4IDcuMzE0ODIgNjMuNzYxOCA3LjY3MTNDNjQuMDc4NCA4LjAxNjk4IDY0LjIzNjYgOC40NzA2OCA2NC4yMzY2IDkuMDMyNDFWMTMuNjY2N0g2Ni4xNjc2VjguNjExMTFDNjYuMTY3NiA3Ljk3Mzc3IDY2LjA0NjMgNy40MTIwNCA2NS44MDM2IDYuOTI1OTNDNjUuNTYwOSA2LjQyOTAxIDY1LjIxMjcgNi4wNDU1MyA2NC43NTg5IDUuNzc1NDdDNjQuMzA1MiA1LjUwNTQgNjMuNzg4MiA1LjM3MDM3IDYzLjIwNzggNS4zNzAzN0M2Mi42MzggNS4zNzAzNyA2Mi4xMzE1IDUuNDk0NiA2MS42ODg0IDUuNzQzMDZDNjEuMjU1NyA1Ljk4MDcxIDYwLjkzMzkgNi4zMjA5OSA2MC43MjI5IDYuNzYzODlWNS41WiIvPiYjeGE7PHBhdGggZmlsbD0iIzI0MjUzMiIgZD0iTTUzLjQ5NjQgMTMuNzk2M0M1Mi42NTIzIDEzLjc5NjMgNTEuOTI0MiAxMy41OTY1IDUxLjMxMjIgMTMuMTk2OEM1MC43MTA4IDEyLjc5NzEgNTAuMjQ2NSAxMi4yNzMyIDQ5LjkxOTQgMTEuNjI1QzQ5LjYwMjggMTAuOTc2OSA0OS40NDQ2IDEwLjI4NTUgNDkuNDQ0NiA5LjU1MDkzQzQ5LjQ0NDYgOC44MTYzNiA0OS41OTIzIDguMTMwNCA0OS44ODc3IDcuNDkzMDZDNTAuMTkzNyA2Ljg1NTcxIDUwLjYzNjkgNi4zNDI2IDUxLjIxNzMgNS45NTM3MUM1MS44MDgyIDUuNTY0ODIgNTIuNTIwNCA1LjM3MDM3IDUzLjM1NCA1LjM3MDM3QzU0LjE5ODEgNS4zNzAzNyA1NC45MTA0IDUuNTU5NDIgNTUuNDkwNyA1LjkzNzVDNTYuMDcxMSA2LjMxNTU5IDU2LjUwMzcgNi44MDE3IDU2Ljc4ODYgNy4zOTU4NEM1Ny4wNzM1IDcuOTg5OTcgNTcuMjE2IDguNjI3MzIgNTcuMjE2IDkuMzA3ODdDNTcuMjE2IDkuNTU2MzMgNTcuMjA1NCA5Ljc4ODU4IDU3LjE4NDMgMTAuMDA0Nkg1MS4zMjM3QzUxLjM2MjYgMTAuMzM3MiA1MS40NDMyIDEwLjYzOTcgNTEuNTY1NSAxMC45MTJDNTEuNzQ0OCAxMS4zMDA5IDUxLjk5ODEgMTEuNjAzNCA1Mi4zMjUyIDExLjgxOTRDNTIuNjYyOSAxMi4wMzU1IDUzLjA1MzMgMTIuMTQzNSA1My40OTY0IDEyLjE0MzVDNTMuOTkyNCAxMi4xNDM1IDU0LjM5ODYgMTIuMDQwOSA1NC43MTUyIDExLjgzNTZDNTUuMDQyMyAxMS42MzA0IDU1LjI1MzMgMTEuMzMzMyA1NS4zNDgzIDEwLjk0NDRINTcuMjQ3NkM1Ny4wOTk5IDExLjgwODYgNTYuNjgzMSAxMi41IDU1Ljk5NzIgMTMuMDE4NUM1NS4zMjE5IDEzLjUzNyA1NC40ODgzIDEzLjc5NjMgNTMuNDk2NCAxMy43OTYzWk01MS41MzM4IDguMDc2MzlDNTEuNDY1IDguMjUwMTMgNTEuNDExMiA4LjQzOTE3IDUxLjM3MjMgOC42NDM1Mkg1NS4yNjkxQzU1LjIzNzUgOC4xMTQyIDU1LjA1MjggNy42ODc1IDU0LjcxNTIgNy4zNjM0M0M1NC4zNzc1IDcuMDM5MzUgNTMuOTIzOCA2Ljg3NzMyIDUzLjM1NCA2Ljg3NzMyQzUyLjkyMTQgNi44NzczMiA1Mi41NDY4IDYuOTc5OTQgNTIuMjMwMiA3LjE4NTE5QzUxLjkyNDIgNy4zNzk2MyA1MS42OTIxIDcuNjc2NyA1MS41MzM4IDguMDc2MzlaIiBjbGlwLXJ1bGU9ImV2ZW5vZGQiIGZpbGwtcnVsZT0iZXZlbm9kZCIvPiYjeGE7PHBhdGggZmlsbD0iIzI0MjUzMiIgZD0iTTQ0LjUyNjcgMi4zMjQwOEg0MFYxMy42NjY3SDQyLjA4OTNWOS40MDUxSDQ0LjQ3OTJDNDQuODkwOCA5LjQwNTEgNDUuMjI4NCA5LjU0NTUzIDQ1LjQ5MjIgOS44MjY0QzQ1Ljc2NjYgMTAuMDk2NSA0NS45MTk2IDEwLjQ0NzUgNDUuOTUxMiAxMC44Nzk2TDQ2LjIyMDMgMTMuNjY2N0g0OC4zMDk1TDQ4LjA0MDUgMTAuNjM2NkM0Ny45NjY2IDkuNzgzMTkgNDcuNjUwMSA5LjA5MTgzIDQ3LjA5MDggOC41NjI1MUM0Ni45NjA2IDguNDM5MjUgNDYuODIxNSA4LjMzMDM0IDQ2LjY3MzUgOC4yMzU3OUM0Ny4wNzM1IDguMDE0NjggNDcuNDAyNiA3LjcyOTI5IDQ3LjY2MDYgNy4zNzk2NEM0OC4wMjk5IDYuODgyNzIgNDguMjE0NiA2LjI3Nzc5IDQ4LjIxNDYgNS41NjQ4MkM0OC4yMTQ2IDQuODk1MDcgNDguMDY2OSA0LjMxNzE0IDQ3Ljc3MTQgMy44MzEwM0M0Ny40NzYgMy4zNDQ5MiA0Ny4wNDg2IDIuOTcyMjMgNDYuNDg5NCAyLjcxMjk3QzQ1Ljk0MDcgMi40NTM3MSA0NS4yODY1IDIuMzI0MDggNDQuNTI2NyAyLjMyNDA4Wk00NS4zOTcyIDcuMzMxMDNDNDUuMTQ0IDcuNDgyMjYgNDQuODIyMiA3LjU1Nzg4IDQ0LjQzMTggNy41NTc4OEg0Mi4wODkzVjQuMTIyNjlINDQuNDMxOEM0NS4wMTIxIDQuMTIyNjkgNDUuNDQ0NyA0LjI4NDczIDQ1LjcyOTYgNC42MDg4QzQ2LjAyNTEgNC45MjIwOCA0Ni4xNzI4IDUuMzI3MTcgNDYuMTcyOCA1LjgyNDA4QzQ2LjE3MjggNi4xMzczNSA0Ni4xMDk1IDYuNDI5MDIgNDUuOTgyOSA2LjY5OTA4QzQ1Ljg1NjIgNi45NTgzNCA0NS42NjEgNy4xNjg5OSA0NS4zOTcyIDcuMzMxMDNaIiBjbGlwLXJ1bGU9ImV2ZW5vZGQiIGZpbGwtcnVsZT0iZXZlbm9kZCIvPiYjeGE7PGRlZnM+JiN4YTs8cGF0dGVybiBoZWlnaHQ9IjEiIHdpZHRoPSIxIiBwYXR0ZXJuQ29udGVudFVuaXRzPSJvYmplY3RCb3VuZGluZ0JveCIgaWQ9InBhdHRlcm4wXzIyMDFfMTIwOSI+JiN4YTs8dXNlIHRyYW5zZm9ybT0ic2NhbGUoMC4wMDUpIiB4bGluazpocmVmPSIjaW1hZ2UwXzIyMDFfMTIwOSIvPiYjeGE7PC9wYXR0ZXJuPiYjeGE7PGltYWdlIHhsaW5rOmhyZWY9ImRhdGE6aW1hZ2UvcG5nO2Jhc2U2NCxpVkJPUncwS0dnb0FBQUFOU1VoRVVnQUFBTWdBQUFESUNBWUFBQUN0V0s2ZUFBQUFBWE5TUjBJQXJzNGM2UUFBSUFCSlJFRlVlRjd0ZlFtWU0wV1pmeC9WM1Rrbjl5UURnMXdDaW9vSHFPQ0JGeTZvdUNJZUtBb0t3aW9LaWdMaUtpRElmY2poQWNvS3JMaUtlQitMSitLQnlMcUFLQXFvSUNoOGZKTk0wc2trTXptN3V2di8vODFXeGt4UGQ5TEpaR2JTTStubm1lZFRVbDMxMWx2MWR0VjcvVjZlR3oranlBR0I0emlqZ3pEci8zZWkyVzI3WG5NZVZqKzl4aG41My9tUnAzQ0xFS2dveXNtU0pPMXVtbVpOMS9XYWFab0xITWMxRE1ObzhUdy9ieGhHa2VmNWtxWnBjeHpIWlRtT205OGlyTm5RYVk0RlpFUFovOC9CMCtuMGJSekhQWnZuZWNFMFRZUG5lYlBqRk5FNWp0TU53OUI1bnNkdmxQMldielFhRDlUcjlmdDFYWCtRVXZwbmp1TzJjeHpYNm1OYTQ5T2lDN1BHQXRMSFRsckxwcGxNNWplaUtENlg1M25pZGh5Y0xxWnA0cS9KY1Z3VC94dW5EYVgwYndzTEMvOUxLY1hmN3ptT1U5MzJPVzYzbkFOakFSbVJIUUVCRVFSaFAwRVFwTldRWkpvbVRob0lTd04vUE0vam1yYXRXcTMrYjZQUitMV3U2NzlsVjdTMTFtTldNNDJSZVhjc0lDT3lGTU1TRUx2cFFHQjBYYTlEV0RpT2c0N3pZS1ZTK1VtejJmd3B4M0YveGZWdEFJUEFpSEJ1YmNrWUM4amE4dGQxN3dNS0NQU1V2dGVRR1FGd3dsUjVudDlXcVZSK3BtbmF0elJOdTc5UC9jWDEvTHphc0cvbWVuV2lvMDUzSnBONVVCVEZQYUdrcnlldGhtRm91cTVYbWRYc2tYSzUvTjFtcy9rdGp1UCt2cDUwak9wWW95Z2c3UTNTNlFjWVZmNE5qUzVSRk44b2l1SnVnaUFvZ2lENFJWRlVlSjczbWFZcEVrSUNraVNsQlVHSWNoeVg0SGsrSTRwaWNHaURzNDZnOUJ1R0FmUHlYS3ZWK20ybFV2a0NwZlFPR0FBNGp0dVMxcTZORkpBdHlmQXVtMXJtT0E1L0lzZHhzR1NCUDUzL0JpVkpDcGltR1RSTk15V0tvbVNhWmtTU3BHbS8zNytySkVsN2NCeTNNNFJJRUFUMDQvWlpjVTJEbWRrd0RGekI1Z3pEZUtCVUtuMUowN1JiK3JTR2JZcjEzVWdCY2J1QTdYYWJndUg5VHJwSGV6L0hjUUdPNDZLU0pDVU53MGdJZ3BBUVJYSFhZREM0RHlGa1gxRVVwM0FxT2ZUVFU0ZUJnbThZUm9YanVFZkw1ZkszNnZYNlZ6aU9lM3pJOHhqWjdyd2dJR1BCNkcvNzRBU0tjQnlYSW9Uc0pBaENoaEN5VnpBWWZKWWdDUHVJb29pcldxZkE5QlFTanVOd3BGQmN2MHpUL0VlNVhQNTZvOUc0a2VPNGJmMlI1cjNXNnlFZ3ZYUUtMT2hPSE1lRkpVbFNORTJyY1J4WDdHR3JINThxem52TitrRUJmNkc3VEJGQ01qelA3NllveWpPQ3dlQ0xCRUhZVXhSRm5FQjQzQWdLMTFicWVaNS91RlFxM2RSc052K0w0N2haNzIxOWR4U3ZoNEJZS2ZFVFFwNGx5L0toNFhENEFKN25kelpOazVpbXVTaElMSlFDZHZsbXE5VzZkMzUrL29lYXBzRmVqL2lqOGJONkR1QmFscEFrQ2NLeXB5ekxCd1NEd1VOeDJ2QThEMkZ5OVVCUURNTkFQTmo5cFZMcE84MW04M29vOTY1ZTlsQ2o5UlNRa0NpS0J5VVNpZmZ4UFA5VW51ZkRnaUQ0bkJSSzVoR0dvcmpBODN5bFdxM2VXcWxVUHNseDNOODh4TjlCU0hWenBYVFR4czNZTUFMZ0tvYVRaTjlvTlBvS251ZjNKNFRFM1o0cXpQSlZOazN6Z1VLaGNMbXU2OS9yR0hoWWRMcVp5NXEwV1E4QkFaUDJUaWFUWnhCQ1hpWUlRcVNMMG1nN1NkTTBLV3oxUE0vUHFxcjZoVmFyZGNtYWNNUDduYTVtUTRZNGp0dFJGTVduK1AzK2x3YUR3Y01sU1hxU1c1YkFVMjhZUnNrd2pIdnkrZnhIT0k1RDRLVG5UZlZyTFNCRUZNVlhUMDVPbm02YTVsTUpJYmdMRHp3bXUvOCtVYXZWZmp3L1AvOGhoRTFZRm5BMUc4VHRYdGpNN2NBL3JNL09raVFkR0FnRUR2RDcvUy9rZVg1MytHVXNhMmVycytCRHB1djZyMVZWdlU3WDllOTI4Y3gzcnRYSXJ0dkFtOVhGTG9HejYxOVRxZFNaK0NyMWM3L3QxamRzOUxxdUx4aUdjZWZzN095UlRLRjNRYzY0eVFBY3dQVnJYMFZSWGhZT2h3OFJCR0V2TjZjL3JsMjZybWZyOWZvUEtwWEs1UnpIUGVUVkQ5bXdCTVQ2QlpCRlVYeGRLcFU2aHhEeWxJNHZqeXRMU1plRlhIb2Y5bmxLNmUyenM3UC95bkZjZmF0NmVnZlk5SU84RWlXRVBGOVJsSVBDNGZCckJFSFkzWTB6a3AwbWQ2cXFlalhUVFRxRElnZWhZOTNmR1phQUxDT2NFUExDWkRKNUtTSGtBRGN6WXFmQ25HbWFGVUVRNENWdWgxRzBCY0w2NzJLM0NMcGJXRmo0UEx0dXVSbHEzR1oxSElpS292akNZREQ0YXIvZi8xcEprbUNlNy9vd1IrUDIrZm41cjFXclZad21uaklKcjRXQTdEWXhNWEZxS0JRNjF1WTRYam9CS0tWSUk3MjMwV2pjMzJxMXR1dTZub1BIbGhBeUpZcGl3dS8zN3lKSjBuUGg1TEpaZ2NWK1lPblNkVDJmeitkUDBIWDlPMTQ5eG50dHNnMzZ2WnRlTUNuTDhzdkQ0ZkFiSkVsNktTRWsyWU5HRSt0TktmM2gzTnpjcDFsODF3Wk5xNzloaHkwZ3NpekxiNDdINDVjenBxM29YOWQxbUc3L05EYzM5MTFkMTMrc2FScnVwMWI3T2N5UHNLanNGdzZIWCtYeitkNUVDSm13bXhxNzd6NlF5K1ZlYUtPMDk4ZU5jZXQrT2JDN29paXZpa2FqaHd1QzhQd09wNk50UDJ6dDc4M244MWZwdW41enY0TnRSUHRoQzhpZWlVVGlMTC9mL3phN3liQTc2UjJxcW9KQnQ3cklQY0JYYkVlZnovZTJhRFQ2ZnB3dVR2MFdpOFV6bXMzbWxSdkJ4QzA2WnZ1RThjdXl2SWNrU1VmaFJDR0U3TnFOSCt5RGhpdlhqYlZhN1lvZXpzVU50MjROVTBCRVVSUVBUNlZTMXhCQ0VsWW1zYnZvSHdxRndtbVUwbC8xdWFuaWlxSWNFNC9IenhWRkVaN2daUS96NnVhejJleU80MnRXbjV3ZFh2T29MTXVIeEdLeGYrdHltclN2eGdhbHRGS3IxVzZlbjUrL2FKUnpUNFlwSUlsQUlIQnlQQjQvdzA1bm9KUm1WVlU5WGRPMEx3MjRKanNtRW9tTC9INy8yNTNleitWeXo5TTA3YTRCK3grL3Rub09LTElzN3lYTDhySE0wZGhWaWNlTkFtSDA1WEw1VWszVDdsNzk4TVB2WVpnQzh2VEp5Y2xMWkZsK2xaVk1NS0xWYXYxQVZkVjNya0pQSURBMUpoS0pteVZKMnNITzRWZ3NGaStvMVdvZkd6NmJ4ajMyeVlHVUpFbUh4dVB4OTB1UzlLeHU3OElTcWV2NkhjVmk4UkpLS2E3ZEkvVU1UVUFJSVFjbkVvbnJKRW15WG5NNFN1bE1QcDkvcjQybHFWOW1URWFqMFF0aElYUFFSWDR6TXpNRFpYMzhiRHdIRkpqNVk3SFlxYUlvSGtnSUNUdVJ4SzdmVU40djAzWDltNnhkVy8vWVVEMWthQUlpaXVJUjZYVDZSanNIRXFYMGtXdzIrN3crTTlMcytLbkFPejgxTmZVMUJ3RlptSm1aY1Z5SWpkOHpXNDRDYk80bkI0UEI0ME9oMEJIZC9DWU00K3ZCUXFGd3RhWnAxMXFFWk1NWU55d0JFV0hGU0tmVE4xaG53cUk5NzgxbXMvdGJmaHZreXlCSWt2U2NkRHJ0cUdkczI3WU5Ua1pyak5hR01YZ0xET3htSFZPS29od1JpOFZPZFBCckxiS3BIYUl5TnpkM1diUFovUFFvOEc1WUFxSW9pbkpjS3BYNmpJMytVV1A2eDV1R01HRXN4dE4yMkdHSGU1d0Exclp0MndZTEdoS3V4czlvY1NBc2l1TEJxVlRxSTRTUTV6Z0ZyVExuYjY1VUtsM2ViRGFSM3JDaHo3QUVSSllrNmRoME9uMk5OVE1OOTB0TjAyN041L09IRG1PbXNpenZrMHFsZnVjVS9MaHQyelpjc1lETU1YNUdnd09kSjR4TUNIbFJQQjcvT0F3dVRvR1BURWhtUzZYU2hSdDlrZ3hMUUhEMWVSdDBFT3Vhc0RpclAyV3oyV2NPdUY3THdxSUpJUWRtTXBtZnM3NldCVC9DSDdKOSszYjRTVHdYRkRjZ2I3ejRHcEVrNlJuUmFQUk1Rc2doZG40dFRBcENRaWw5b2xnc2ZrTFR0T3VHY0QwZmlGZkRFaEFPazAwa0VqZEprb1NjajJWUHE5WGFOanM3K3dvR2M5bU4wRjczV2IvUDUvdEFNcG04d082SXBwVCtKWnZOSW5xNC9mVHFieUNtalY4YW1BT2RscW1uSkJLSnMyVlpmbzFUaUFwTGxQdDdzVmc4cDlWcUlmZDkzWitoQ1FpdVB2RjQvQXVFa09kYVp3R3Y2ZHpjM0VXTlJ1UENWYzV3eDZtcHFWdEVVZXc4alpaT2tYSzVqTWplOTdBeHhzS3hTbWF2OGV0WW56MXczVklVNVYrZGdQQ1lrUHdGV1lxNnJ2LzNHdE8wb3Z1aENRakhjWlBoY1BnVGtVamszVGJYTEtUTTNwZk5adCt3aXJBQ1JaS2tkNlJTcVU4NTNWMW5abVpldXhGTVhPOUYyeVRqdFQ5Z3U4ZGlzWS83Zkw3WGk2S0l0Ti9PWi9IangwS0pmcWVxNnNtYXB2M1BlczUvbUFLQ0RYeE1LcFc2eXM0WGdpekFhclg2WDVWSzVRTXVnaFN0UElBWitkbUpST0o2UXNnejJJOUxKd2ZUYzZyWmJIWjNqdVB5NjhuQThWaXI1NEFrU2Z0R0lwRXpKRWw2cGROSkFvOTdxOVc2UlZYVlU5WVR1RzZZQWdJOTVJQmtNdms1UXNnK2RteWpsQmFMeGVMRnJWWUwxaTYzSmNSZ0FOZ25Gb3RkSmN2eWdYYjl3bExXYkRhL3I2cnFNRXpKcTEveGNROTljd0JDRW8xR3p5YUV2TUpKY2NkSHRsYXJmYVZjTGtOSTFzVlNPVlFCQWZpYnorZjdZREtaUE1lT1E4eDhWMWhZV0xoNVlXSGhLbzdqSG5IZzVGSW9OV3puaVVUaWcwN0N3VTRQb0owY3FtbmFQWDJ2elBpRmtlRUFNbEZqc2RpL0s0cnlHaHVpRm04TWxOSlN1VnkrdUY2dlg3d2VoQTliUURoSmtoQlFlSzNUS1lKSklYaVJVdnJ6YXJWNlQ2dlZ1bzFTaXJvVStDSm9ITWY1b004Z1dXcGlZdUsxaXFMc1N3aloyOG14QkpEbFNxWHkrWVdGaFpQWGcySGpNZGFFQSswUElwRHNuNWRNSnEvRXYxMCtzby9sOC9uVGRGMy85bHBEQ3cxZFFOZ3BjaUl6eFRweXM0MTF4WEhjdzVUU2JZWmhBSGloTGdoQ2tHRm43U0tLNHU3ZGF2WkJlVE5OODY2Wm1aazNjeHozeEpvczNialQ5ZVlBb3JZUFRDUVNuM1NLQkdiaFMxRGFUMXJyTVBsQkJLU1grZlFaNlhUNkt1UXF1OFRBV2dKa1lOVmRYY0ZmTWdGN3VGQW9uRFNLWWRMcnZhczIyWGdJU24xVktwVzZrS0hpckpnZVU5cVJRdkcrdFFTQ0dFUkF1cTFGSmh3T254WU9oMC9zQWdzRGdjQXo4Tmh0MjNpeFdMeG9veHhJbTJ4RGp1SjBBR2IrbG5nOGZxWlRGREQ4YTVWSzViTzFXdTJqYXpXQlFUYnBJc2kwemQwUFZaQ09TQ1FTNXdORnZBOEI2QWNyQ3pEOEtCbDJWNkZRdUZMWDlXK3NGV1BHL2E0ckI1eHVKU21mei9mZVNDUnlzbDJFQm00Y2xOTEhWRlY5RDZYMHgydEI4U0FDWWtzSHc4TDZQQ0hrYVE3S0ZlcExhRFltUEZjQ3dtSnpzcFRTWDViTDVhdTlCQjJ6Rmd1M2hmcmNKWkZJbkdjQkFsa0dJQWlvMDF3dWQ5d3FuTkNPN0hRaklOYk1ManRwbjQ1RUloOFBoOE1nY3NYRE1zYitVcXZWZmhNSUJKNk5FSU1PQlBHdWE4MnVVNDlSU3U4cmw4dUFDVUt5RkdDQ1BBK012SVUyZWI5VFhiYkhldm5YbUgva3BuSzVmRUpIb0dvdlhka1ZUVzRFcE4yUjA0RHRxOVhGaEpDVWRWUjJERzRyRkFvZjBIWDlKM0Q2b1F4Q09CeCtqaWlLQUJ6RE80RGI5L004RHpBNFdLYm1lWjRIcEg1ZTA3Ui9MQ3dzM05acXRSREJPN1pVdVZyV1RkY0kwRUtIeFdLeGk3dm9JN2w4UG4rc3J1cy9HT2JzK3hFUTIzR0JmcGhJSkhDMXdzbUFaOW1WcVVPUkF0cEorNnNQWVVOZHZTY1pockVyc0pRZ0xLWnBRa0RxdXE3UEdJYnhoSzdyRDdONklJT0dydy9sS3pKTWhvLzc2c3FCYnJlVnlVQWdjRklrRXZtUVhmUXZ3MnIrMWV6c0xGQnZoZ1p2dWxvQlNRV0R3Vk9pMGVpcGRnbE1xQm1oNi9wUFoyZG5qMmRFT3luNGJ2ZE5QeHUrbjdadXh4KzMyMWdPN0QwNU9YbUZMTXYvMGtIRzBnZFowN1M1Y3JsOFJhUFIrTVN3eUZ5TmdLRDJ4eUhKWlBKcXUyT1BWWWg2SkovUEh6TldxRjB0VnkrQjd2VzdxMEU4M2doVkE3RG5QaVZKMHM1V0lXR2hUQStycXZyMllUa1FWeU1nZThDazYvZjdiUU1FbVRSZjNtZzB6dlg0b296Skh5ME9BS0R3L2RGbzlNTW80V2NsRFE3RVpyUDUzV0t4ZUpRbHMzU2dEOHlnQWdMRi9HM3hlUHdTTy9zMDRxTjBYYjh0bDhzZFBRU29uOUZhSG50cUJtSytGeVkyaWpRaU9TOGFqWDY2STREVnF2ZG04L244dTRhaHNBOGtJQ3g3OExOSXdMZGpJSURpQ29YQzBWc3dCS1JUeVFScnhxYm90WkV3UUp5K2lWVVJzRnBPNFV4R2NhVmZ6TTdPQWtSOVZRZzNnd2hJV0ZHVTQrUHgrSGwyY2Z1STFHMDJtMThyRm90UXpBZTFQcTBOV3plK1Z3Z1FTanVrT1k0TFNaS0VLNEppbXViaXY0aG01bmwrWHRPMEJrc3FLN0VGcGh0UCtzaFJzRFBTZFFPQndERU9IK2tDUTBWQjBaNkJuNzRGaEpsMWtSUUZiS05sRDR1dWZXQm1adVlJanVQK01qQlZtK2RGMUNQZmplZjVQVVJSM0VtV1pSVERES0dZS2MvelBwN25KU1l3TXZzWEh4UUlCNFdEMURBTTFHS2NiN1ZhdVdhem1kVjEvVkZkMTFFOTlsR2JoS0d0ZHMxRGFEektpbi9lb3JBdjdoNFc4UXRFejVmWW1IMWQ4NnBmQVlrb2luSlVQQjYvVkJURkZRb1NrbG5tNStldnIxYXJwMjZlUGQ3M1RLYVF2eUpKMG42aUtPNFFDQVIyNFhrZTVaU1I0NUp3VXdUVFJ2R3NHb1pSNW5sK1J0TzBSeHFOeG1PdFZ1dXZwbW5lVHltRndPQ2syUXJYT2V2R1RreE1USnc3TVRFQkQvcUtCMjZHUXFGd29xWnAxL2U5aXV5RnZnUUUwRDdKWlBJc3U5cURMSndFK0ZjQVp2aUhTNEpjUzdMTC9qYXFXUUpoMmFJb1BqY1lERDVUVVpSbkM0THdOSmJMNGlyV3JGL0NZU1hrZWY2djlYcjl2bHF0QmlqV3UxaTFyblZKUmUyWDNyVnFEejA0bVV4K25RWElZcGhPckFLQWhmd3htODIrak9PNDhpQTA5Q01nNFZBb2RHNGtFbm1mWFJJVHBUUmZLcFV1YWphYnE3cnpEVEtKRFh4bldwYmxGL3Q4UHRRVWY0NGdDUHV3RTZJZnZxNmFmT1Q2bTZiNWgycTErc2Q2dmY0emxCTmcxc1BWZm9CVysvNnE1K2FpZzNBZ0VJQ3orcU4yY0xRdyt4WUtoUk0wVFFPdVZ0K25ySFVoSFJuQ0pCV3BrUHRhaUliVm9HVVl4dSt5MmV5cldTQ2hGeGpyZ3ZlT1RWQmc5S1hoY1BpbHNpd2ZMSXBpYWxoMTRGZERGTjZsbEQ3YWFEUnVtNStmLzVHdTY2amtaUmQyc2FuV2g2VjVmNWtRQWxTYlpROXpIbUp2SW9HdkRXcnVldjV1djNSQU5EdzFGb3VkYmdmTFFpa0ZhTUk1bXFaZHZkb0ZIdkgzSS9Ea1JpS1IxeUhjUVJURkdNL3o3ZkNaalNMZDlncW5hZHJqbXFiZFZxbFV2c29pR2R5Z3lMamVPQnMxV1lkeGU1MGkxZG5aMlNOMFhiK2xYN3JiQXRLVk1mQjd4R0t4eXlWSkFuem9zcWREOTBCbEthOWpVam54UVNDRXZNRHY5NzgrR0F5K1ZSVEZ5VkU1TVhvdE9KVDRTcVh5RFUzVHZxbHAyZ01EWUpMMUdtSWtmcGNrYWY5RUlvRlRaRGViUGFvaGoyaDJkdmJnZnE5WnZVNFFiQmhla3FSM0pSSUo1QWNqTEgzWlF5a3RGSXZGUzF1dDFpVWp3YW5oRTVGUkZPVnRzVmdNZ3ZITWJpQVNIVU92aVdJK3dOUVc2WUJ2eWpDTXU0ckY0dldhcGlFY1hPVTRydHRIMFVzblNadldTREFZL0dnc0Z2dXdIWjlRcHoyYnphTDYyQi83NFdNdkFVRmZHY1RoQjROQmhJMVlUdy9rYnNEdmdkTmpwcCtCdmRBV2FJNSt2Lys0VUNqMExwZm0yVkVSREZ2MjR0b0ZUTEpxdGZvZnEwd2pHTW5sQStoY01wbjhtdDJISERlZGhZV0Y2eXFWQ2tBZVhEODlCVVFVeFVNbkp5Y3ZGMFZ4RDJ1dk1EVmkwRTNvOXhCUTZpMlpUSjRraXVLTG5ZcjF1T2J5NkRRMEthVUxwbW5lWGlnVWJ0QjEvVWZyaFZDNFRpeHdyR0hKRXZjZXorVnlNRExoQkhYMTJBbEk1L0hxRHdRQ1owYWowVk5zVUVyQTdMOW5zMWtVeHNIZGRyTTh5RjQ3S1JhTG5VQUkyYWxEMXhqVjAyRWd1aWlsZjFWVjlaUFFUZnJaTUNPK3lFakJlRzBxbGZvaUlRUkEyTXYyTjY2YXFxb2UxMnExdnVwMkhyMEVCQWtxbjBTQmVHdUhySHd2RkIrWWRqZkxzM2lQblppWXdNbUJTSUdlSjZ5WEo0NTA1a3FsY2syOVhvZVBvSjNPN0NYOXc0NzllMDVPVGlMU2QwVlNGVUtoV0JBamZuTTF6NjRiUUpibHQ4Zmo4Y3NJSVFpdWF6OXRqTlR0K1h6KzNadW8zRUFtRkFwOUxCcU5udWpsVGQ4djdacW1iWitmbi85Q3JWWkRPSWJiQ0loK2gxblA5Z0dmei9kK0lLSFlXUnFSQXA3TlpwL3VGaUcrbTZNd0ZBcUZ6bzlHbysrM3pvNDVCdUhDZnpIZ1F0ZHo5Z09PMWV0ckVZNUdvMWM2MVY4ZmNFelB2RVlwelZVcWxldHF0UnFLc0hyZTJFSUllV2t5bWJ5WkVESnBkL01wRm91bk41dE4rT3g2ZXRZZFR4RGdvdUwwc1BOOXNLREVhNnZWNmtjOHN3dWNDVlZDb2RERjBXZ1VkVXUyN0lNeWVVQXBiRFFhc0hDNVZtSkhsR0ZUc1Zqc0lqdkxLNktrS2FXL3plVnl0cmxNMXZsMEU1QjNKaEtKUyt5Z2ZEUk5lNnhZTEI2K0Njb05DRDZmNy9SZVFOc2p1Z21HVGhaMEVsYWovSXQ5MUc4Wk9oMUQ2QkNGUW85S0pwT2Z0Y3RaWXRjc0FCeHU2elVXQktUeit0SCszLzV3T0h4K0pCTDVvTTMxcXNuaXJsRE14dE9KUEtJb3ZtbHljdklHRmo0emtEV29GNE5INkhkWDg5TjEvU0ZWVmM5dXRWbzNlem5oclZ2ZUVndGcvSkNtYVovdnRUNU9KOGhUVTZuVXBYYUZUQkE1T2pjM2Q5VXdvVlY2RWJsR3Z6ODlrOGw4MXk0MFlZM0c4MHkzbXFiZFVTd1dVUS93YnM4UXZaTFFUQ0FRT0RFZWozL001aVBmYWMzcU9rVmJBUkZGOGJCa01ubUZKRW03V04vR1hiVlVLcjFSMDdUZmVwaDVrWFE2L1JWSmtweE0xSzYrdGg2ZWYxZlNPNkE4UCs1aHBSMTFSbDZhVHFkL1pHUE5naUtpWnJOWnhHMTFEZUxzRkpEMjlZcjRmTDUvaCtSWnd5dFl0VkVrUlNHbXhRdldxL1pHV0diRjh2bDhaem1WaWR1c203N0x2SnlpZ2JjemZRVFducVpIK2JKYk9wMitYWktrSGF6MDR5T1F6K2NQUlJCanQ3blpuU0RSU0NSeVNUZ2NCdWpDc2dlaEpZMUc0eHZsY25uRmJ4NWhJQVJsbDB3bWN6Y2hKT1lSbXRlTHpLVkNSbTBIS2FYMDE2cXF2bC9UdEhzWkViM001ZXRGcTl0eE12RjQvS0pBSVBBTzlzTFN4d0I2U0xsY3ZxeFdxK0dVZEh6c0JPUVppTDJTWmZrZ2E2ZVUwb2RaUVhlRUozanhJZkY0L01aQUlQQldMeEsvM2pRakFoYXhkZ3NMQzJmMXVvcXNOMjB1eDF2RWIwdW4wOWRhMjNjaytSMWcwOWZTaDJDRmdERDlBeVhVQURTdzdLR1UzcDNOWmwvdnhqem1jZ0xyMmd5MTd6S1pUTmNqZFYwSjhzQmdsTklIOC9uOFIzVmQvNTRieDlxSVRRbDVQQWRNVGs3ZWFvZkNpQnRSTHBmYnNTUFRjQVg1S3p6cFBwL3Z3L0Y0L0J4cmNDSWNMTTFtODVaQ29YRFlpREhCTFRtQlRDWnpHeUhrK1c1ZkdMZmpPS1NzTmhxTmI2T0trMGNkaUh0a01wbnZzRXJKMWc5K1JWWFZnelJOQStpRjNmVlJzR1lVQmtLaDBJVjI0U1VNbE9IaVpyUDVTUzl1SEp5TVUxTlRLQnM4ZnZya0FCeUl4V0lSS2RVMzlQbnFLRFJIUHRNbHdXQVFXTDNMSGtUM0ZvdkZzN29CalZoUEVKUzd1c3p2OXdPNnAvMjBzOUlleXVmekoxQktmellLcys2VEJuOG1rN21qbzRaSm42K1BtemVielcralFBMEQ1UUJEdktLd0F3bjB1RlFxdFFKdEIwbFV5TERNNS9PSE82M3dzaE9rQzNJSjBETHV6V2F6cjJOUmtGNWh6dUs4Z2NDWHlXUitPdDdtamh6bzZmZUJoMzEyZHZaTVhkZmhZZmZTK3N1RWtKZG5NcGtmV21mUDZsNXV6K1Z5Sy9UdGR0dGxKNGdzeTBmRzQvRlBNaEN1VGdBdVZCUDlSUzZYZzJPdGJSTWZkU1l0MFpkT3AzL082clozOHFqbnBoZ0wxRDg1QUt0UG85SDRjckZZUkRwQUd6N0hFeXhDNEcweW1meTFIU0lQVTlSM2NzcXNYT1lvVkJUbDVIZzhmcTYxeEJYdWF0VnE5Y1pLcGZKZVQzQmtPWkZUMDlQVDJ6MUk5OGlSVENtOVUxWFZEM293aWdLK3J4c0pJVWpQV1BZZ2NGRlYxWU0xVGZzZk80WjNDb2dTREFiUGo4VmlwOWgwa21XNFY1L3oyUEhLamIzbXc1TXpHR3FLeGVKbEhrU3djY1R3eGNlL1VDaWM1R1NBNkJTUVJEUWF2UmdJSGphRk9QOEdFR0JLS1pMOHZmU1FUQ2J6SjBMSVhsNGllb1JwTlpteWpqMkNVdHhlZWNKK3YvKzlpVVRpSWl2QkFMaEc4RzI5WHYvM2p0L2ExL01sTXk5KzJ6dVZTbDJzS0FwQUdLekgwSDNaYlBZdEhNYzk2QldPTURyM21wNmVCdm81bnJIT01kamlXYXMzM1ZNb0ZFNkZUdXFoMndRSzdodytPVG41RlNzTFlNbHF0Vm8vY3ZMdkxaMGd3RGVGZ2k1SkVnSVJyUUx5MjJ3Mit4cXZPWW9VUlRrMWxVcTFBZTAyTlFERFlIdS8vN2NBTTFzcWxTN3htRDhNa2IwdnlXUXl0OW9JaUdZWUJnNkEvV3hPa0graWRvaWkrT3BVS2dXQWhxZGFPakUxVFlNRjYrWDlzM05qMzVpY25QeGxSeDI3VG1MR3A4bUFTNE9JaWxxdGRsT3BWSUpQeERNSmM0RFBUU2FUZDlsRWlPaVVVcGg2RWZxK1lqNUxYMVZSRkk5SUpwTTRRUkNic3ZRZ3hGM1R0UC91Y0tZczNjOUdQRGFIVEUxTmxlMkt6bmRNYnl3b0F3Z0tyaVN6czdNSVBmRUtDZ3IyN0Y2VGs1TS9rV1VaKzd1OTc5c0lQZVZzTmd0aytCVzUrRXNDb2lqS0IrUHgrUGxXUENpWXdhclY2blh6OC9NZkdvQ1hHL25LN3RQVDB3OXZKQUdiZFd3NGpRdUZ3bWtlaTZyWUtaUEpBTndhWUEzTHJ0dVVVZ2dJRUJmL1psMnpwWWFCUU9Cc0ZFVzAwVCs4WXRwYjVyZ0VwdGZrNU9TWE51c20zY2g1c2F6Uzg5emtkRzhrblpheHB4S0p4S2N0WVZTTFRSRFdYeWdVRG9hZngwbEFoRUFnY0U0OEhqL0Qya0RUdENlS3hlTEhOVTI3Ym9RbTI1T1VRQ0J3UVR3ZTd6VGQ5WHhuM01BZEIrQTdBRVJRdFZvOTNkMGJJOUVxRlkvSEx3a0VBdSswVW9Qc1FwU01aaUg5eTM1dW55QndFbjdDQWgzZnZwODlrcy9uVDlWMTNWT1JzS2xVNmx1S29pQTBmMnk5V29QOUNiaFNWVldScWRjVGZHME5oaCtreTJnNEhEN0xEcW1IWWZZZTMycTFibkk2UVNLaFVPZ2NPL0EwQktubDgvbVRLS1VJOXV0a1JydXkwa2d5YUdwcTZ2ZW81ekVJSjhmdjlPWkF2VjcvdXFxcXNHUjVwV2hvMk9memZTQ1pUSjVyYzRMVWlzWGlSNXJONXFlZEJDVEJjTEQrelVhQitYT2hVSGczcFJUMTdqenpURTFOemFNbXVXY0lIbTFDVjFqN0VDYWV5K1d3WDlxZzE2TTlBNDVEK3UwNzArbjBaKzBFcEZRcW5kZG9OQzUwRXBCTUpCSTVOeHdPSDJkdFFDbTlYMVhWWTFqVzFhZ3pvVTJmTUQwOXJYdUZXSS9RQ1NIQnMzaGwxVFR0WjdsY0RzR3JmL1VJL1FGRlVZNUpwVkxBSDE3MklOeWtYQzVmVXF2VnpuWVVrR2cwZWg2THcxcldobEw2UjFWVmo5WTA3ZmNlWVFUSWxLZW5wNzBLVlRQcWJGNDhUVFJOKzJVdWx6dXAzNUptR3pnNXZ5UkpSNmZUYVFUY2RqNm1ydXVOY3JsOGVhMVdBempGTXBXaHJjQm1vdEhvK1hibzVycXUvMkZtWmdicGluM1ZkbHRuUmxoelU1VHA2ZW5HT3RPd3BZWmpvZThmOE5ETlFwRWs2YTNwZEJwcHc4dXVqSVpoTkNxVnl1Y1hGaFpPWnZGbFdNdEZRV2tMeUhRc0ZqdmZEZzJiWlJJZXdYSGNReDdhQVpIcDZXa3ZSWnQ2aUxYL1J5cWw5SDhMaGNMSmRyNkRFWjBNQk9USWREcU5PaWpMSG91QTRMY1ZzRDg3eG1LeEN4d0VCRVhZa2JQcmxiQUNUSEI4Z3F6eExrVUpBVlZWZ2Q5cm0yaTB4c01QMG4zbkNXSW5JTmN1TEN5c0tJR3hkTVZ5VXRMWkZldk5IbExHTUhreVBUMnREY0xGOFR2dU9FQXB2VjFWVlZ5eDJxaUw3bDdjdUZhT0p3aDBrRXFsOHBuL256WjdtcFc4dG9CTVJpS1I4eDJzV0Y1VTBybnA2V25jSWNkT3d1RnV5Q1ZMRnJOaW5lQ1JxemV1VEJDUVl4ek12TEJpWFdvSFE5cmVRRzAveUx1dC9QU29tWmVibXBxcTJSVlBHZTUrMmJxOU1UOEk5a3ZQSWpRandDVUlpRTlSbEdOVHFkUUtaeURNdktWUzZlSkdvM0VPbzNXRkRoS2ZtSmc0ZjJKaUFpSE15eDVLNlFPcXFyN1RROWFLUmZvem1jeGZDQ0Y3anNEaWJFb1M2dlg2TjFWVlJlcHQyU01URFBqOS9wTWMwbTVyd0Z5d3k3VnZueUFXa1c5akFBQWJXRWxFUVZTQmNEaDhubDJjQ3VwcEZ3b0ZBTWJkNWhGR0xKTEpZdjlmNlNXYVI1aldaV1pSMHpTTlJxUHhGWHc0UFZTRktzb09nUlhJUEF5NDRiMmFwdDNvcElNNFJ2TlNTaC9ONS9NZjBuWDlPellMT0xMWVdNRmc4TkpZTEhicUNHODZ6NUxHb25rL1Y2MVd2Y1RmeVhnOGZxVWRzaityRmZJbU8xQ1NudmtnTFBiL0xLL2hza3FTOUo1ME9uMk5aM2ZoQ0JQTzlzVDVtcVpadmRJalREVTNsVXFscnJVREpXRUM4aHE3ZU1NbEFmSDVmR2NrRW9tenJlV3FQSnFrejBtU3RGODZuUVpxOS9nWk1nY29wZmNWQ29YVFBRWUR0WE1tay9tMkhUNHpxM3E3UDBQdFdWYlV0aFBWNUpoRUluR3h0ZXd6YXFKWEtwWFAxV3Exanc2WnoydmUzUTQ3N05DMEp1bXYrYUJiWUlCV3EvV1QyZGxabUhnZjhjQjAyeHQrajNRNi9RdExPYmJPblBTZDdRd09FSkRGRGtSUlBCU1ZiUWtoVCttY05Oend6V1lURm91M2QvejNVZFE5VnRDVXlXUitaUWMzNllGRkhTVVNyUXE2WHEvWHYxUXNGaEg1N1ptSWFhQ2FKQktKMzlqaDg3S0NuaGtXZndYLzJjb0tVNmkrQkZRVFFrZ25QdERpUXNGcm1zMW1YemFpREhFVVZvYUxkZWtvN1RhUDBySWtKQjZGSHhVWkxwYTFkSWNKaEhkRWkzVGdZaTNiVDUyZVppQXJYbUtwamQ0K2d1N01ack9vV2VnMVZPOW5wOVBwMzNsMFU0NGsyWEFjZDVSa0cwa2FiWWlTZ2Z0bVYwQUpxUFZBWjVtZG5iVXRDZDRwSUx2RTQvRUxBNEVBSUVhWFBjZ0Z5ZVZ5aU9nZDVlUVkyNU1razhuTVd2VXFyNnpxQ05KcE5ocU43eFVLQldRU3pvNGdmVTRrSWQzMmczYWx2eEdITlQ4LzN3NTFYL0YrcDRDRVFxSFFlWFo1NlpSU3BOM0NXUWc4MXZZemlucklpZ21HUXFFcm90RW80dnp0bmpGd25QdGRqcnRJclFQTnhCUHJ6NllIWVBaTEhQS2RVSWJ0OUdhejJVN0ZkYnhpZFlQK2VSeTEzRFJOKzAvMy9CeU5scElramE5WlExb0tqd0xHWWZZdzhkNkVpcmRXVmpCTXJFT2RNQmVXUmJ0S2tuUjhJcEc0a0JDUzZPd0lWWGhRTDl0am50T2xLV1F5bVJ3aFpISkkrMlRMZHROc05yK1Z6K2U5VnZvQTY3VVhzMmgyN29GT0UrOHVUdVVjbGdrSUllU1FaRElKVSsvVE8zY0JVMlNBeDRvYWhaNTdXSmp6aWt3eXowMWtBd25XTkczNzNOemNCUjFYa1Eya3ByK2hVWUl0blU1MzVxMHNYYTFaQ2JhWVU0L1dFK1Rac1Zqc1lsbVdWd1Q1SWNVeW04Mmlka2krUC9KR28zVW1rNWtqaEVSR2d4clBVWUhDT2JmazgzbEVlM3NGNXFmTjVHNlpoRjB0V09qQW1sQUU4QVluZEJNbzZ1K2hsUDdTYzh1TGJCbEZPU21WU24zS2k3UnZOTTJVMHVMYzNOeGxkcmhSRzAyYmkvR1J5bkVlUytWWXR0OXQ4a0JXZExjaTQ0NWg5SjVwRVI2VFVqcFRLcFU4ZWNTMlo4MnlETzArREM3NHZHV2JtSzFXNjliWjJkbjNlU1I3MExwUVVOQy9UZ2g1cnZVSGhzbDdoSzdyUDNCMXhVSWpvTSt4bUt4bFNpMU1mSTFHNHh1bFVnbDRySjU4SkVsNlZ6cWQvb0luaWQ4Z29obDQrUVdhcGwyOVFTU3NhdGdPL1dPRlNaK1ZQWUNDWG5IQ0dGNXhnaEJDWHNnVWRUdVRHRHpxQjNNY043OHFxdGYvNVNYYk5pdnErVFJHZ3BNZlpPd2YrVDhHd1RINHRVS2hjQXpIY2ZYMVg3WlZqeWl6Mm9RclFLbFppTWxEMld6V1dsRnQyYUIyb0FiVE1QWDYvZjdPNE1URmx4Qm13S3JkZGpvTVZ6MkxkZTdncWRQVDAvZVBBUjJXdU43K0dOaDlZYTFoN1Y1d0RuYlMyTlkvRUhtODdFRVE3c0xDd245V0twVVZ2M1UydEJPUWJ0bUZ1VXFsY3IwWFE5ODdKeDBLaGE1a0VRUGprOEtoK2kvTEdyeW1Bd3JIQzhMUnVjeWdkOWRNSnZOVFFzaXVOdnBIZFhaMjlzM2Q5QSs4WXd1THcvU1Fpd2doNmM2T1VUTFhNQXdBeWIxZ25iLzZxeG5PS1VicllVSUk2dEtObitVY1dJVDJZVEZYeDN2VnJBOXNORUxJL3BsTTVuYWJFdUFvVEZ2TzVYTFkzNjF1RzhCSlFQWkZOUjVKa2xaVXR0VTA3YkZjTGdjL3lTZ0hMcnJaOUx0TVQwKzNFMzZjOExPMjRna0RpeVZnUlQvb0lWaFJ1L1hlTVJBSUhHOVhWaENGYVhWZC8wMHVsM3RwcjQzaXRERzY0V1NwcXFwK3pHUDE2V3o1QUEvNzVPVGtGM2llYnhjRDZzV3ZUZjk3SC9ubUkzM2xRckZPbERxd0s2SUVpMnl4V1B4WXM5bThzdGVDT2lJUEtvcHlTandlUDljS3ZvYXdFMTNYNzNRamZiMEdINEhmQmIvZmYzNGlrVUN0UGZDaTg4VFljcWNIMHF2bjV1WXVielFhNTFuV1pxU0ZvVE1Ea05GTldIalJ0WFo3ak9XZ3d5L1M4eGJrS0NEZHpMMmI2SnExeUw5NFBINkRYWEhIRVJEZ2RTUEJSaWxmdDdHSE1KQlZnS2Nqa2NoWjRYQVlPdFN5eHpSTnF1djZ3NzNNdSsyWHVtSFhPb2FkSU1DclhDNWYwV2cwUG1FenVaR3VYZWkwR09sMCtqWkprcEJXM0g2MnpBbUNPM205WHIrcFZDb2gxc3FML281bEFrSUllVVVpa2JoQmtxU2RyUEtCQktsU3FYU1J3OTVkc1Qxc3pieHRyNkxUTlF1OVVFb2hoWHNNUWZwSHBvdFVLdlZOUlZGZXYwVjhKSXNmQUFnSFVCS0x4U0w4QVY0VUR1ditRYW0xOXdLQXhPRjZWYzVtczRoV2Q0VXAzQlg5bkJCeVVES1pCQlRRYzZ5RFVVcXpoVUxoTFRiQmk2TitYKzBta0ZQSlpQSnFuOCtIc1A1Tmp3eVBhMVd6MmZ4YXNWZ0VhUFBqSGlycDdMaUdRQytKeFdJWFNwS0VISE5ySlNuTk5NMEhabVptQUV4QzNYeVpsMkIvSEJxbkppWW16cG1ZbUZqaGJVUWtaTFBaL0dxeFdFUXA0TTMwWkNZbUpzNE1Cb1B2RkVVeDBHTmlucjJHQVJDd1VxbGNVNnZWZ0haZTJnekNnYldTWmZtdHlXVHlla0VRZk5hMXd3ZWhWQ3FkMzA5VXN0TlhzbjBLaUFqd1N5UVM1OWtCSHdEWU9wdk52c2pEemlTbi9SK1hKT25OaUVuYlJLV2tsMEpLa0RxcnF1cm5OVTI3MlVQbzdHNCt3dE9oVU9oVU8xd0ZwaGIwZGIzQ085WVRaTVgxQ0RuZDhYajhQSFprTFNNU2VRS3FxbjVZMDdUcjNGRHZzVFloUXNnems4bmtsWUlnN05PQjBPalpVd05Yam1heitlMjV1Ym1MTkUxRFBCb0tuUzZyNnVxeE5WcEdMaUhrWDVMSjVEV0VrTjNZRDB0cmhTZ1FUZE4rbXMvbmNYMTJQV2MzOTJ3NUVBaDhQQjZQMjBLUHNpS2Z6K3RBcGZNeWo2MjA0NE94U3pnY1BqRVVDcjI3NDhybE5TRkJhTVhqbFVybDZucTkvbldPNHg3cnVJTjdXV2ZzWEsrSXorZDdieUtSK0FUUDg4UkdaNTdQNS9OSDZiciszWDQycUJzQlFWQUxsUFh6Q1NFUUJPc3BvaGFMeFpOYXJkYUtrT0orQ05uZ3RyMDJTUUtneDRsRTRneFJGQS93RXQ0dnpKbzROU0FjbE5JL2RjdDkyT0ExV05Yd1FBWk5KQkpYSWYvRDJoSHpmZndsbTgzQ09kaVhwYzZWZ0hBY0Z3bUZRbWM3NFV0UlN1L3BnRzVjMVVSSDhPVzI4T0NyTkNWSjBpdGpzZGc1a2lSTldaSHdIV2pmaUp5VHhZQkRTdW5kK1h6K1VsM1hmODMwUkZlV214RmNnMTRraFJSRmVVOGlrVGpmN3VNRjVkeUNmZFdydjZYZjNRcUlJTXZ5bStQeE9FNlI5djBPbmJTaFV3cjVmUDc0amlJN3ZiN0lyZ2tjb1lidE9jR3l0Uk1nV21PeDJJbWlLTzVrZDZUM29Ic3RybWlkU3ZqZHFxcGVvMm5hSGN6ZTd5bkkySDdYSEhGWDBCV1pPMkxGbm1iSUpVOGFKTkhQcllDQTVoMmowZWc1b1ZBSXVFZ3JIbmFLdEhXUmZ1Zm94ZlpoZHFLOEtKRklIQ2NJd3I2Q0lFZ0QrRTlXTFN3b2lZYXZwR21hdHhjS2hSdDBYUWNlY1hhVEtPR2RIMXU3RDIrdjA2TTJOemYzcVhxOS91K0RiTEorQkFRbTN5TlJaTWR5aWl5T0M3dDZvVkI0aDhlS3FyamxXYmNUMFkrU2lJU1FhVm1XWHoweE1mRkdRUkIyRlFRQlY3SisrT3VXbG5hNzlqWHE5NlZTNlN1R1lmeGEwelI0aHdITDFHU05OdU5Kdm94UFFFdE1KcE5YRUVLZWI4ZEFkbnJzTlNpV2NMOEx1Rk13R0R3eEZvdDkyT0VVdVR1YnpTS1hmYlBlZGJ0dFltekdLUDRJSVZOUTVzUGg4SXNJSVM4UVJUSFdvYS8weS9QT2xGZ08xaWhLNmE4WEZoYnUxSFg5UGtwcFd5aHdqZkpNdlk1K3Z3WU83UmN0VjhqNUVBUkJzYlpCV0RzN1BjNWd2T243ZzlIdllxSE93b3NUaWNRWEpVbkNuVzdady93aXAzZ1J3M2RJQzlidUJnc1I1RGd1eEFSbWt1ZjVKOHV5dklmZjc5K1ZaVEx1Q2JPeFV5NEs2bkFZaHZGblRkUCtVYS9YLzJ3WXhtT0dZZnlkVXBwamQra0ZacEd4Q2tXM1RkRDNCaGt5WDRiYUhmd2VMT2ZETGlhd25UV0lyTkhpb0FQM0t5QVlCL1dtejJRNUZQai9WakN1UDh6TXpDQWxkMU1yaG4weUhCc1RWeTU4NVdTTzQzQXR3NTlQbHVVVmEyQ2FwcUJwR3E1SkVBTDhpeitraHVMUDdTblJGb1plZC9nK3A3SWh6ZTBFZThkd09Iekt4TVRFU1E1K2ozeTVYTDV1VU4yalBjdEJCQVRZV2M5UEpCTFhFVUxhOERsTFhBTVlWN2xjL21TdFZqdDdRMWc1Mm9OdXFpLzRSckphbG1Yb3c5ZmFsVlJqZm8vN3N0a3NVc01IUGoxV2ZQMzdtRER4K1h5bkpwUEpDeTN2dEJYSHY2bXEraVlVM3JFb2krTU4wZ2VUeDAzdE9RQm5JQ0J5TGRYUTBManRkc2lxcW5yR01FS2cramxCckp0Nzcwd204d1c3bWdzd082TGVRaTZYNjB4QXdnVEdBakxlOWF2bFFOVG44NTBRajhmUGNvalliZWk2L2d0QStnemk5N0FTMTQrQXJKaVlKRW52bnB5Yy9JekRIUkRnRGgvU05PM0cxWEprL1A2WUEyME9vQnB6SXBHNFJwYmxhVHV1d01xbnF1cHhsTktmRElOcnF4SVEyUC9qOGZpVmdVRGdyWGJFQUltUmxVejR1d094NHhObEdLdTRkZnA0YWpLWlBGdFJsRGZZaGZuQTUxR3RWcis0c0xBQUVJNjJMMmhWM0JsRVFPenlmNjluWmw5ckJsZXIyV3grRC9ySXFxZ2N2enptQU1jdFhxMWlzZGlaVnFTZE5uTjBYWDlvWm1ibVFCWkZNQlNlRFNJZzdZSGJncElJQkFLQUNGcmh5bWNoRUcyRjZZYWhVRHp1WkN0eVFFQVo1MVFxZFFNaEpPbHdXMUZMcGRJNXpXWVRHWkpEZTFZaklFdUNJa25TUHZGNC9BcEprbFlnMVFFVWdPVUJIOFZ4M0IrSFJ2bTRvNjNFZ1dlazAybnNyMWZZVFJvaC9aUlNKRU1kN1ZScmNGQm1EVU5BTUxZaXkvTHI0L0g0NVFpenNCS0RiQzRHOVlnU2JtTUg0cUNydFRYZjIybGlZdUtqd1dEd0hVNVhLNFlHZWJpbWFYY05tMFhERUpDbHE1YmY3ejgxa1VoOHhPRUluSzlXcS84eFB6OS95ckFuTWU1djAzR2d2YWVpaXFJY0c0dkZFQ0NMNk9rVkQ2VVVWNnRQc09LaWJxTU1YRE5zR0FMU3FaTThiWEp5OG5KWmxnK3lVb0NDSlpxbW9Zd2I2cTJQOVJIWFM3UmxHNkw0elJ2aThmaW5yV1hKMnh4QmlIK2owZmhtcVZUNndMQ3ZWdTB4aGlVZ2JZbVhSVkZFQU5sbGhCQ0VHQzk3MnFtUGhVTGgvWlRTMnh5V2ZtejYzYkl5OGMrSk0vRHA2MFZSYkFjaXJzQzQwblg5L2x3dWQwUUh4dTdROTg2d0JRUXpSQUxMTWJGWURObUhLNDVGZ0YrekdpTlFxUDdXRDhMRWVOOXNlZzRzYm5BRy9uYUZLSW92Wmtsb2RsZXJiRDZmZjFldkFqaXI1ZGl3Qk1SS3h4VEExeXlBYzhzZ1dKalMvamFPNDJaV080bngrNXVLQTNzQ2gwMlc1ZGVLb3JnQy9BM3hWa2lyS0pWSzV6V2JUUlFXN1ZvQVo3V2NXU3NCUVE3NzB5T1J5QVUyQVdXTE5NTTBaNXJtbjdMWkxJcjBlSzBvNkdyNVBuN2ZoZ000T1lMQjRLaytuKzl3dXloZENBZjBqbHF0OXRWeXVYemFXdWtkbmFTdGxZQmdESmtsMDZPVVcyZU42cVVNT2NDWFVrcC9scy9uRDJOWExic2NodkZtMmhvYzJETWVqNStqS01xaFRtaVd6RjJBMmpUQVJXaFhCK3MwRXJrR2hIUEwwclVVRU5EZ2wyWDVzRmdzZG9Fa1NhaEhiVlhhQVRhd29Ha2F3bEZRZjMzb0UzVExpSEc3RGVYQTd0Rm85S04rdi8rdFRyNE9PSndOdzNoUVZkVmpOVTI3Wjcyb1hXc0J3VHpDaXFLOEl4YUxmZHd1VEFEbVgwcnBQS1gwdi9zUWtxRmJLOWFMNGVOeFZuQUFlTHFuaDhQaFk3dUJoVk5LdHhjS2hhTzZXRC9YaExYcklTQWdQT1h6K1k2UFJxTWZzYk5zc2FMdUZVM1RickVSa3JFd3JNblNqMFNudTB4TVRKekd2T1RJNGJkOWdKaWpxdXBwbXFaOTJaSnl2T1o3WTcwRUJCUFBoTVBoRDBjaWtaUHQ0SEFHUEVsR1lwWEhSTGptUU9lRzNpTVNpWndXQ0FTT2RGRElGenRsbnZLem04M205UnNScHJTZUFnTG1QQWtRTFlGQUFQcUdIVmpCNG5YTE1JemI4L244a1F5MHdEWDN4dzA5dzRFOUVMYnU4L25lME9OYWhUQ1NDNXJOSnFvSGxEZGlkdXNwSUpnZmhHVFhlRHgrUmhjaE1RekRxSm1tK1dBMm13VlUvZGhQc2hFN1k0M0dSRG1OYURSNkxpSGs1VTRLT1RzNVNwVks1Vk8xV2cybG11ZldpSnllM2E2bmdIU2FjRHVGQkVSYTZZQzlHMzZTUjFSVlBVclR0SHQ3em1UY1lPUTVRQWg1U1RLWnZFZ1FoR2ZiQWIyMUo0QnkxSlZLNWRPMVd1MnpneUlpRG9zWjZ5a2duVFF2bmlTQlFPQW9ITFZPNEdtd2U1dW0rZGpzN095cHVxNS9iMWlUSHZlejdoeEFqQjRTbmk0VUJHRzNidVVqT21xMW84YjU3THBUYWhsd293U2tmZDE2a3MvbmV3ZUs4emd4RGJGYnVxNGpDdmpxVnF0MXlVWXpiRHgrM3h4b1d6QlBFVVZ4Z2dGODJBSjJ3NVJiS3BXdWFEYWJYeHlWc240YktTQnRUdThXQ29VK0VBNkhqM05TMkppVDZQSDUrZmx2VmF0VlZHUUY0dUQ0R1gwTzdCNE1CazhJQm9OSE9LR1F0S2VBcEtkS3BmTFpScVB4WDI1TE5LL0g5RWRCUUhEZG1nb0VBaWNndUpFUUVyZWJPUE9WbEEzRHVLZFVLcUV1WWh1VWJqMzROQjZqUHc0Z3pPakFhRFQ2UG9RYldSekUxdE1ER0xyL21KdWJ1N3paYk1MUHNTb2t4UDdJN04xNkZBU2tUV1ZLVVpTam85SG9pWklrN2V4VU9vQ0Z5OStucXVyVjQ4U3IzZ3U4RGkyc3pqcXNJeUluanVWNS9rbmRmQndzdHVyQllySDRHVTNUVU1Ldm5ZNjk1ZzVBdDN3WkpRRUJ6V0ZKa3Q2WVNDUk9aTldDYk9lQks1ZXU2MDlvbXZiTFlyRjRKc2R4ajQ5Ukc5MHUrZHExZ3drWDVURVVSVGxFa3FRZHVvMkVxRnlrUEtpcWVwV3U2ejhlMVpJWm95WWc0R2xBRk1XWHhlUHhFeFJGZWJYVFNRSklJZVl2K1gwK24vK01ydXVvM29wbkhQQzRkakpnMXpPKzlnbEZVWTZLeCtOSG02YUo4ZzVJbEhQY1cvQ090MXF0NzFVcWxlc29wWGVPOHBxTm9vQXNsZ29BbEZBd0dIeVAzKzkvUzQ5akdsR2VxSjF4UDVKbzFnTFpZbjMzbTZkRzh4TkNYamd4TVhHa0pFa0g5em8xa00vUmFyV2VXRmhZdUs1V3E5M01jZHlEb3o3YlVSVVFuQUlRbEoxOFBoOThKVWQzNUNhdjRDbE9FK1M3RzRieFVMbGMvbjY5WHI5aUZHem9vNzc0cTZSdjcxQW9kSHdvRkhvVmpDeUVrQW1IL2hhVmN1VCttS2I1QjFWVi8xUFR0Rzl3SEtkMnRCOFpuY002aDFFVUVDdU5ZVm1XWHhPTlJvOWxhQ2xkYVlhamllTzRoMWlWVndCbmo2OWNxNU1FNitaRmhkOGpZckhZNFJ6SDdVMElpZlRxbmwycHZsK3BWTDVNS2YzRnFPb2JkdlB3Z29DQWJwZ045L1g1ZkVlR1FxRTMySUhUV1NjSGxHL1ROQjlWVmZWeVhkZS92d3I5WkdTL2JyMDJwb3ZmKzVsYlFwS2sxOFZpc1NNRVFYaW1JQWh4SjBDRjlyak00dmpJM056Y2pZRG42VUFmY1VIYWFEVHhpb0NBVzR2S29DUkpRSEI4cXlSSkwyRXM3RFlISlBnL2Foakd3OFZpOFhMQVUzYWNLSjJibzUrTk1ob3J0MzVVcEdSWmZ1WEV4TVNiQkVIWWp4Q1M2aFpIMVNZTHdBcXRWdXNuNVhMNUc4eEs1VW5ucnBjRXBNMTdCVG51UHAvdnpjRmc4SFYyeFVTdGU0ZnBKNC9xdXY0UFZWVS9wK3Y2ZDEwZTgwNkNzeFZ5NTZlZ2VFY2lrY05FVVh5V0lBaHBCNVNSWmV4bThYTi9ucHVidTZsZXJ5TitidVFWOFc3ZkdpOEtTT2RwOHFwb05IcVlKRW12c2xRYnNvMzFZZDc0eHppT2UwSlYxZXMwVGZ2QldKbGZ0ajBnK0xzb2l2SzZTQ1J5Q00velR4VUVJZVZHTUJnY1Q3NWVyMzluWVdIaCs3cXVBeGpROHpqTVhoV1E5cXFpY3V4VGZEN2Y2eWNtSmc2U1pmbkYzZXp2blZzQk9nclA4elBsY3ZrMlN1azNOVTM3M1NaUjZBZTVMb1lJSWM5Q2RsOGdFTmdmVmltbVk2QWliOCtIVW9vUW9OK1V5K1ZiVUErR09XNjd2VGNJalQzcFdJc0dYaEFRTjh6MHcyOUNDRGxzWW1MaUVFTElQazRoOURiSy9CelA4MDhZaHFHV3krV3ZOWnZOVzJFRjJ5VENZcmRuMnZ4VUpFbmFtK2Y1VjBZaWtSZUpvdmhranVPbW5VQ2liVHFDZnJkZ0dNYTlsVXJsVmwzWGY4amk0eWhyNjJiZDFtSlBEN1ZQTHdoSVB4TW1TTXJ4K1h5SGhVS2hWeEpDOW5SNW9yU3JvMjduT0M1bkdNYmo1WEw1bDZacDN0cHF0UjZ3NkN0ZVduZ3JyZmlRUEVVVXhZUEQ0ZkR6UkZIY0hWZ0JnaUJFTElxMzdSVzF2UkM2cmk5bWZNN056ZUVxOVNOTjArN3ZFbUhkUzQvclozM1h2ZTFtRTVBMkF5T2lLTDdFNy9lL1BCUUs0VVJ4RWhUYmpjRE1rMGp6bkRWTnN6dy9QLytMVnF0MU82WDBUNnk4MTlCaDl0ZGc1YkV4OGJlaktJclA4UGw4THc0R2cxQzJkK1E0TGkwSVFwZ0pSVmRoNktTckxSaVZTdVZIclZiclZrb3A4S25jb21KNjZjT3lOTzNOSkNCMkN4QkdYRmN3R0R3NEdBeStVQlRGZlZ5ZUtKMzdBbGNKQ0FzOHYyVk4wLzVlclZidjFqVHRBVjNYNzJQMzdWRVJHT2hrT3dKWm53VU83azhJMlluanVCaE01QWpac2F0STNFTTRNWDhBYWZ4K1lXSGg1NjFXNjFkTU1EWUVSR0VOUGlSZHU5eE1BdEp0b2hGQ3lINnlMTDhzSEE2L1FCQ0UvVzBBQTF4OVNXSEdOQXlqd3I2YzhOclg2L1g2Zy9WNi9XRmQxLzhzQ01Kam1xYmwyTzkxVnR4K21ONThmQWdranVNbVlPSTJER01uUXNndXNpdy94ZS8zSTUwMXp2UDhoR21hVVhaMWNxVm9PK2dZQmNNdzdweWJtN3ZETk0xZmFacUdFOVNUL294QkJXdXpDVWl2WTF5UUpPazVnaUM4SkJnTTdpZEowZ0VzOThUS1B5ZGhzZjN2Q04wMlRSTW1UVnczOEcrRDR6Z0VVUzdvdXA1ck5CcmJLYVV3QkVDd0VJV01Fc1VMUE04M2VKNkhrVUJiZG1TWnBteWFac2cwVFZ3Vi9hWnArckR4RVVIZzgvbDJJSVJrZUo0SDBGb0k4SzZJZ09aNUhsY21Iek5PT0sxcno0OEF1MFk5MG1nMGZsdXRWbitqYVJxaWJZR0RPNVN5eW9OdTFJMTZiN01KQ1BqWVMwamF2SDY2b2lnSFRVeE1IQWdMRHMvemU3aTA5N3RlSythZ0JEb0xoQVpmWG13eWcrZDVhcG9tWVB2eEwzNWZ1cUx4UEk4MXdSeGtudWNWbnVjbDB6UnhkWUlnaENBWTBCMjY1WGE3SnBBMVpDbk5PQTMvV3EvWEg2alZhbmRvbXZaekYrYmFmb2Z5WFB2TktDRDlDQW5hNHN2OFBKL1BkNGpmNzMreUtJcTc4RHkvYThmWGVDMFh0ZWNYZlJXRDIvWGQrZDhXZFF1TzR4NXV0VnAvclZhcmR4bUc4VXROMCtENTlyeURieFY4Vy9icVpoV1E5aVRkbmlidDlsT2lLQ0tNNVVDLzM3ODdVM0JoQlVyeFBDOE93UFJoQ01BdytnRHB3QnFEL3BUbGVmNXhUZE5tNi9YNi9VenBCdTdZU09XQ0Q4RHJOWGxsc3d2SWFwZzJTUWlCeitDWmZyLy9XVURsRUFRQkphNHpvaWhDRVI1RVlGWkRUNy92SXVVUzViZFZPRUlwcFRPTlJ1T3haclA1QjQ3amZxZHAycU45SUJiMis2SHBsOWFSYlQ4V0VQYzZ5Mjd3cHdpQ3NFOG9GTnBiRk1Xa0tJcVR1S0xCakNxS1l0U3Q5NzdQM2VEbUJJRXdvUFlqVEsrcVlSaDV3ekNLalVZREo4VmZkRjMvUGFVVTBRRXdWWStLU2JwUE5teE04N0dBOU1mMzlwY1Vwd2V5NkhZV0JPRkpnaURzRWdnRTlvQjVGZGhlK0ZjUUJGaWhrR1dIUHlqY0VzRHhMRUxrWnZNdlhvK1lBRURKaCtrWUZyQUYwelFydXE3akQvVlZpczFtODFGSzZjT0NJUHdkc1dZTThMa2QrdEhmVE1ldEZ6a3dGcERoYmdSazF3R1pKV1dhNWlUUDg1T2lLTzRJWVlIbldwWmwvSzRJZ3NERE1zVUVCaFlxckFPRUR2L3FzSERoZXNUei9PTFhudFdZTHlOYkVsY20welJuY0VMd1BEK3JhVnFlb1JCdVNUUHNjSmR2Wlc5akFWbHJEaS92SDBJQWdWZzA0ekxUTFp4K2VQRC84ZC9oRTRFZkJXWmhDQWpXQ0NaaE9CdmJ1ZnJEZER5dUx3YzhOdHBZUUR5MllHTnkxNWNEWXdIcHpXK3ZXWEJBTDU3eEtkTjdiWHUyR0F0SVR4YTVhakJxUWpScTlMaGk0aWcyR2d2SXhxektzRGZ3K05SWW8zVWNDOGdhTWRhbTIyRUx4ZnBSdm9WSCtuODhFdzl6MUFLV0F3QUFBQUJKUlU1RXJrSmdnZz09IiBoZWlnaHQ9IjIwMCIgd2lkdGg9IjIwMCIgaWQ9ImltYWdlMF8yMjAxXzEyMDkiLz4mI3hhOzwvZGVmcz4mI3hhOzwvc3ZnPg==;" vertex="1" parent="6SOhbdRmg-bUomSC-oUc-80">
          <mxGeometry x="82.14422360248447" y="100" width="155.71428571428572" height="45.714285714285715" as="geometry" />
        </mxCell>
        <mxCell id="6SOhbdRmg-bUomSC-oUc-83" value="&lt;font color=&quot;#e63838&quot;&gt;&lt;span style=&quot;font-size: 28px;&quot;&gt;LIGHT CLIENT&lt;/span&gt;&lt;/font&gt;" style="text;html=1;align=center;verticalAlign=middle;resizable=0;points=[];autosize=1;strokeColor=none;fillColor=none;" vertex="1" parent="6SOhbdRmg-bUomSC-oUc-80">
          <mxGeometry x="55.00304347826087" y="20" width="210" height="50" as="geometry" />
        </mxCell>
        <mxCell id="6SOhbdRmg-bUomSC-oUc-86" style="edgeStyle=orthogonalEdgeStyle;rounded=0;orthogonalLoop=1;jettySize=auto;html=1;entryX=0.5;entryY=0;entryDx=0;entryDy=0;" edge="1" parent="1" source="6SOhbdRmg-bUomSC-oUc-84" target="6SOhbdRmg-bUomSC-oUc-81">
          <mxGeometry relative="1" as="geometry" />
        </mxCell>
        <mxCell id="6SOhbdRmg-bUomSC-oUc-84" value="&lt;font style=&quot;font-size: 14px;&quot;&gt;&lt;b&gt;Micro Task Routing&lt;/b&gt;&lt;/font&gt;" style="rounded=1;whiteSpace=wrap;html=1;gradientColor=none;fillColor=light-dark(#e63838, #ededed);fontColor=#FFFFFF;shadow=1;strokeColor=none;" vertex="1" parent="1">
          <mxGeometry x="3055" y="1240" width="200" height="53" as="geometry" />
        </mxCell>
        <mxCell id="6SOhbdRmg-bUomSC-oUc-87" value="" style="group;fillColor=none;" vertex="1" connectable="0" parent="1">
          <mxGeometry x="2600" y="1370" width="320" height="176" as="geometry" />
        </mxCell>
        <mxCell id="6SOhbdRmg-bUomSC-oUc-88" value="" style="rounded=1;whiteSpace=wrap;html=1;fillColor=#FFFFFF;strokeColor=light-dark(#e74040, #ededed);labelBorderColor=none;fontColor=#FFFFFF;shadow=1;" vertex="1" parent="6SOhbdRmg-bUomSC-oUc-87">
          <mxGeometry width="319.99999999999994" height="176" as="geometry" />
        </mxCell>
        <mxCell id="6SOhbdRmg-bUomSC-oUc-89" value="cv" style="shape=image;verticalLabelPosition=bottom;labelBackgroundColor=default;verticalAlign=top;aspect=fixed;imageAspect=0;editableCssRules=.*;image=data:image/svg+xml,PHN2ZyB4bWxuczp4bGluaz0iaHR0cDovL3d3dy53My5vcmcvMTk5OS94bGluayIgeG1sbnM9Imh0dHA6Ly93d3cudzMub3JnLzIwMDAvc3ZnIiBmaWxsPSJub25lIiB2aWV3Qm94PSIwIDAgMTA5IDMyIiBoZWlnaHQ9IjMyIiB3aWR0aD0iMTA5Ij4mI3hhOzxyZWN0IGZpbGw9InVybCgjcGF0dGVybjBfMjIwMV8xMjA5KSIgaGVpZ2h0PSIzMiIgd2lkdGg9IjMyIi8+JiN4YTs8cGF0aCBmaWxsPSIjMjQyNTMyIiBkPSJNNzEuMjc4NyAxMy43OTYzQzcwLjUyOTYgMTMuNzk2MyA2OS44NzUzIDEzLjYxODEgNjkuMzE2MSAxMy4yNjE2QzY4Ljc2NzQgMTIuOTA1MSA2OC4zNDUzIDEyLjQwODIgNjguMDQ5OSAxMS43NzA4QzY3Ljc1NDQgMTEuMTMzNSA2Ny42MDY3IDEwLjQwNDMgNjcuNjA2NyA5LjU4MzMzQzY3LjYwNjcgOC43NjIzNSA2Ny43NTQ0IDguMDMzMTggNjguMDQ5OSA3LjM5NTgzQzY4LjM0NTMgNi43NTg0OSA2OC43NzI3IDYuMjYxNTcgNjkuMzMxOSA1LjkwNTA5QzY5Ljg5MTIgNS41NDg2MSA3MC41NTA3IDUuMzcwMzcgNzEuMzEwNCA1LjM3MDM3QzcxLjgwNjMgNS4zNzAzNyA3Mi4yNjUzIDUuNDcyOTkgNzIuNjg3NCA1LjY3ODI0QzczLjEyIDUuODgzNDkgNzMuNDYzIDYuMTUzNTUgNzMuNzE2MiA2LjQ4ODQzVjJINzUuNjQ3MlYxMy42NjY3SDczLjcxNjJWMTIuNjQ1OEM3My40NzM1IDEyLjk5MTUgNzMuMTMwNiAxMy4yNzI0IDcyLjY4NzQgMTMuNDg4NEM3Mi4yNTQ4IDEzLjY5MzcgNzEuNzg1MiAxMy43OTYzIDcxLjI3ODcgMTMuNzk2M1pNNzEuNjc0NCAxMi4wNzg3QzcyLjEwNyAxMi4wNzg3IDcyLjQ4MTYgMTEuOTc2MSA3Mi43OTgyIDExLjc3MDhDNzMuMTI1MyAxMS41NjU2IDczLjM3ODUgMTEuMjczOSA3My41NTc5IDEwLjg5NThDNzMuNzM3MyAxMC41MTc3IDczLjgyNyAxMC4wODAyIDczLjgyNyA5LjU4MzMzQzczLjgyNyA4LjgyNzE2IDczLjYzMTggOC4yMjIyMiA3My4yNDE0IDcuNzY4NTJDNzIuODUxIDcuMzE0ODEgNzIuMzMzOSA3LjA4Nzk2IDcxLjY5MDMgNy4wODc5NkM3MS4yNTc2IDcuMDg3OTYgNzAuODc3OCA3LjE5MDU5IDcwLjU1MDcgNy4zOTU4M0M3MC4yMzQxIDcuNjAxMDggNjkuOTg2MSA3Ljg5Mjc1IDY5LjgwNjggOC4yNzA4M0M2OS42Mjc0IDguNjQ4OTIgNjkuNTM3NyA5LjA4NjQyIDY5LjUzNzcgOS41ODMzM0M2OS41Mzc3IDEwLjMzOTUgNjkuNzMyOSAxMC45NDQ0IDcwLjEyMzMgMTEuMzk4MUM3MC41MTM3IDExLjg1MTkgNzEuMDMwOCAxMi4wNzg3IDcxLjY3NDQgMTIuMDc4N1oiIGNsaXAtcnVsZT0iZXZlbm9kZCIgZmlsbC1ydWxlPSJldmVub2RkIi8+JiN4YTs8cGF0aCBmaWxsPSIjMjQyNTMyIiBkPSJNNzkuMDEwNyAxMy4xOTY4Qzc5LjYyMjcgMTMuNTk2NSA4MC4zNTA4IDEzLjc5NjMgODEuMTk0OSAxMy43OTYzQzgyLjE4NjggMTMuNzk2MyA4My4wMjA0IDEzLjUzNyA4My42OTU3IDEzLjAxODVDODQuMzgxNiAxMi41IDg0Ljc5ODQgMTEuODA4NiA4NC45NDYxIDEwLjk0NDRIODMuMDQ2OEM4Mi45NTE4IDExLjMzMzMgODIuNzQwOCAxMS42MzA0IDgyLjQxMzcgMTEuODM1NkM4Mi4wOTcxIDEyLjA0MDkgODEuNjkwOSAxMi4xNDM1IDgxLjE5NDkgMTIuMTQzNUM4MC43NTE3IDEyLjE0MzUgODAuMzYxMyAxMi4wMzU1IDgwLjAyMzcgMTEuODE5NEM3OS42OTY2IDExLjYwMzQgNzkuNDQzMyAxMS4zMDA5IDc5LjI2MzkgMTAuOTEyQzc5LjE0MTcgMTAuNjM5NyA3OS4wNjExIDEwLjMzNzIgNzkuMDIyMiAxMC4wMDQ2SDg0Ljg4MjhDODQuOTAzOSA5Ljc4ODU4IDg0LjkxNDQgOS41NTYzMyA4NC45MTQ0IDkuMzA3ODdDODQuOTE0NCA4LjYyNzMyIDg0Ljc3MiA3Ljk4OTk3IDg0LjQ4NzEgNy4zOTU4NEM4NC4yMDIyIDYuODAxNyA4My43Njk2IDYuMzE1NTkgODMuMTg5MiA1LjkzNzVDODIuNjA4OSA1LjU1OTQyIDgxLjg5NjYgNS4zNzAzNyA4MS4wNTI1IDUuMzcwMzdDODAuMjE4OSA1LjM3MDM3IDc5LjUwNjYgNS41NjQ4MiA3OC45MTU3IDUuOTUzNzFDNzguMzM1NCA2LjM0MjYgNzcuODkyMiA2Ljg1NTcxIDc3LjU4NjIgNy40OTMwNkM3Ny4yOTA4IDguMTMwNCA3Ny4xNDMgOC44MTYzNiA3Ny4xNDMgOS41NTA5M0M3Ny4xNDMgMTAuMjg1NSA3Ny4zMDEzIDEwLjk3NjkgNzcuNjE3OSAxMS42MjVDNzcuOTQ1IDEyLjI3MzIgNzguNDA5MiAxMi43OTcxIDc5LjAxMDcgMTMuMTk2OFpNNzkuMDcwNyA4LjY0MzUyQzc5LjEwOTYgOC40MzkxNyA3OS4xNjM1IDguMjUwMTMgNzkuMjMyMyA4LjA3NjM5Qzc5LjM5MDYgNy42NzY3IDc5LjYyMjcgNy4zNzk2MyA3OS45Mjg3IDcuMTg1MTlDODAuMjQ1MyA2Ljk3OTk0IDgwLjYxOTkgNi44NzczMiA4MS4wNTI1IDYuODc3MzJDODEuNjIyMyA2Ljg3NzMyIDgyLjA3NiA3LjAzOTM1IDgyLjQxMzcgNy4zNjM0M0M4Mi43NTEzIDcuNjg3NSA4Mi45MzYgOC4xMTQyIDgyLjk2NzYgOC42NDM1Mkg3OS4wNzA3WiIgY2xpcC1ydWxlPSJldmVub2RkIiBmaWxsLXJ1bGU9ImV2ZW5vZGQiLz4mI3hhOzxwYXRoIGZpbGw9IiMyNDI1MzIiIGQ9Ik04Ni40NzQ2IDUuNDk5OTlIODguNDIxNFY2Ljk0MjEyQzg4LjYxMTMgNi40MjM2IDg4Ljg2OTggNi4wNTYzMiA4OS4xOTY5IDUuODQwMjdDODkuNTI0IDUuNjEzNDIgODkuOTQ2MSA1LjQ5OTk5IDkwLjQ2MzEgNS40OTk5OUg5MS4zOTdWNy4xNjg5N0g5MC4xNDY2Qzg5LjU0NTEgNy4xNjg5NyA4OS4xMDcyIDcuNDA2NjMgODguODMyOSA3Ljg4MTk0Qzg4LjU1ODUgOC4zNDY0NCA4OC40MjE0IDguOTg5MTkgODguNDIxNCA5LjgxMDE4VjEzLjY2NjdIODYuNDc0NlY1LjQ5OTk5WiIvPiYjeGE7PHBhdGggZmlsbD0iIzI0MjUzMiIgZD0iTTEwNS42NzYgMTkuNUgxMDQuMDYyVjIzLjQwNTFIMTA0Ljk5NlYyMi4wMjc4SDEwNS41NUMxMDUuNjk3IDIyLjAyNzggMTA1LjgwMyAyMi4wNjU2IDEwNS44NjYgMjIuMTQxMkMxMDUuOTQgMjIuMjE2OCAxMDUuOTg3IDIyLjM0NjQgMTA2LjAwOSAyMi41MzAxTDEwNi4xMDQgMjMuNDA1MUgxMDcuMDIyTDEwNi45MTEgMjIuMzUxOEMxMDYuODkgMjIuMTU3NCAxMDYuODQ3IDIyLjAwMDggMTA2Ljc4NCAyMS44ODE5QzEwNi43MjEgMjEuNzUyMyAxMDYuNjIxIDIxLjY0NDMgMTA2LjQ4MyAyMS41NTc5QzEwNi42NDIgMjEuNDkzIDEwNi43NjggMjEuMzg1IDEwNi44NjMgMjEuMjMzOEMxMDYuOTU4IDIxLjA3MTcgMTA3LjAwNiAyMC44ODI3IDEwNy4wMDYgMjAuNjY2N0MxMDcuMDA2IDIwLjMxMDIgMTA2Ljg5IDIwLjAyOTMgMTA2LjY1NyAxOS44MjQxQzEwNi40MjUgMTkuNjA4IDEwNi4wOTggMTkuNSAxMDUuNjc2IDE5LjVaTTEwNS45NjEgMjEuMDg4QzEwNS44NzcgMjEuMTYzNiAxMDUuNzU1IDIxLjIwMTQgMTA1LjU5NyAyMS4yMDE0SDEwNC45OTZWMjAuMzQyNkgxMDUuNTk3QzEwNS43NTUgMjAuMzQyNiAxMDUuODc3IDIwLjM4MDQgMTA1Ljk2MSAyMC40NTZDMTA2LjA0NiAyMC41MzE2IDEwNi4wODggMjAuNjM0MiAxMDYuMDg4IDIwLjc2MzlDMTA2LjA4OCAyMC45MDQzIDEwNi4wNDYgMjEuMDEyMyAxMDUuOTYxIDIxLjA4OFoiIGNsaXAtcnVsZT0iZXZlbm9kZCIgZmlsbC1ydWxlPSJldmVub2RkIi8+JiN4YTs8cGF0aCBmaWxsPSIjMjQyNTMyIiBkPSJNMTAzLjYzNCAyNC42NjlDMTA0LjE3MyAyNC45NzE0IDEwNC43ODUgMjUuMTIyNyAxMDUuNDcgMjUuMTIyN0MxMDYuMTQ2IDI1LjEyMjcgMTA2Ljc1MiAyNC45NzE0IDEwNy4yOTEgMjQuNjY5QzEwNy44MjkgMjQuMzU1NyAxMDguMjQ2IDIzLjkyMzYgMTA4LjU0MSAyMy4zNzI3QzEwOC44NDcgMjIuODIxNyAxMDkgMjIuMTk1MiAxMDkgMjEuNDkzQzEwOSAyMC44MDE3IDEwOC44NDcgMjAuMTgwNSAxMDguNTQxIDE5LjYyOTZDMTA4LjI0NiAxOS4wNzg3IDEwNy44MjkgMTguNjUyIDEwNy4yOTEgMTguMzQ5NUMxMDYuNzUyIDE4LjAzNjMgMTA2LjE0NiAxNy44Nzk2IDEwNS40NyAxNy44Nzk2QzEwNC43ODUgMTcuODc5NiAxMDQuMTczIDE4LjAzNjMgMTAzLjYzNCAxOC4zNDk1QzEwMy4xMDcgMTguNjUyIDEwMi42OSAxOS4wNzg3IDEwMi4zODQgMTkuNjI5NkMxMDIuMDc4IDIwLjE4MDUgMTAxLjkyNSAyMC44MDE3IDEwMS45MjUgMjEuNDkzQzEwMS45MjUgMjIuMTk1MiAxMDIuMDc4IDIyLjgyMTcgMTAyLjM4NCAyMy4zNzI3QzEwMi42OSAyMy45MjM2IDEwMy4xMDcgMjQuMzU1NyAxMDMuNjM0IDI0LjY2OVpNMTA2Ljg0NyAyMy45MDc0QzEwNi40NDYgMjQuMTQ1MSAxMDUuOTg3IDI0LjI2MzkgMTA1LjQ3IDI0LjI2MzlDMTA0Ljk1MyAyNC4yNjM5IDEwNC40OTQgMjQuMTQ1MSAxMDQuMDkzIDIzLjkwNzRDMTAzLjY5MiAyMy42Njk3IDEwMy4zNzYgMjMuMzQwMyAxMDMuMTQ0IDIyLjkxOUMxMDIuOTIyIDIyLjQ5NzcgMTAyLjgxMSAyMi4wMjI0IDEwMi44MTEgMjEuNDkzQzEwMi44MTEgMjAuOTc0NSAxMDIuOTIyIDIwLjUxIDEwMy4xNDQgMjAuMDk5NUMxMDMuMzc2IDE5LjY3ODIgMTAzLjY5MiAxOS4zNDg4IDEwNC4wOTMgMTkuMTExMUMxMDQuNDk0IDE4Ljg3MzQgMTA0Ljk1MyAxOC43NTQ2IDEwNS40NyAxOC43NTQ2QzEwNS45NzcgMTguNzU0NiAxMDYuNDMxIDE4Ljg3MzQgMTA2LjgzMiAxOS4xMTExQzEwNy4yNDMgMTkuMzM4IDEwNy41NiAxOS42NjIgMTA3Ljc4MSAyMC4wODMzQzEwOC4wMTMgMjAuNDkzOCAxMDguMTI5IDIwLjk2MzcgMTA4LjEyOSAyMS40OTNDMTA4LjEyOSAyMi4wMjI0IDEwOC4wMTkgMjIuNDk3NyAxMDcuNzk3IDIyLjkxOUMxMDcuNTc2IDIzLjM0MDMgMTA3LjI1OSAyMy42Njk3IDEwNi44NDcgMjMuOTA3NFoiIGNsaXAtcnVsZT0iZXZlbm9kZCIgZmlsbC1ydWxlPSJldmVub2RkIi8+JiN4YTs8cGF0aCBmaWxsPSIjMjQyNTMyIiBkPSJNOTUuNDU0MiAyNy4xNjEyVjI5Ljg3MDRIOTMuNTA3NFYxOC4yMDM3SDk1LjQ1NDJWMjQuNjk5NUw5OC41MDg5IDIxLjcwMzdIMTAwLjk3OEw5Ny43MzA0IDI0LjkxMjNMMTAxLjI0NyAyOS44NzA0SDk4LjkwNDZMOTYuNDA5NiAyNi4yMTczTDk1LjQ1NDIgMjcuMTYxMloiLz4mI3hhOzxwYXRoIGZpbGw9IiMyNDI1MzIiIGQ9Ik04Ny40MTc0IDIxLjcwMzdIODkuMzY0MlYyMy4xNDU4Qzg5LjU1NDIgMjIuNjI3MyA4OS44MTI3IDIyLjI2IDkwLjEzOTggMjIuMDQ0QzkwLjQ2NjkgMjEuODE3MSA5MC44ODkgMjEuNzAzNyA5MS40MDYgMjEuNzAzN0g5Mi4zMzk4VjIzLjM3MjdIOTEuMDg5NEM5MC40ODggMjMuMzcyNyA5MC4wNTAxIDIzLjYxMDMgODkuNzc1NyAyNC4wODU2Qzg5LjUwMTQgMjQuNTUwMSA4OS4zNjQyIDI1LjE5MjkgODkuMzY0MiAyNi4wMTM5VjI5Ljg3MDRIODcuNDE3NFYyMS43MDM3WiIvPiYjeGE7PHBhdGggZmlsbD0iIzI0MjUzMiIgZD0iTTc5LjYwMTggMjkuNDQ5MUM4MC4yMzQ5IDI5LjgxNjQgODAuOTUyNCAzMCA4MS43NTQzIDMwQzgyLjU0NTcgMzAgODMuMjU4IDI5LjgxNjQgODMuODkxMSAyOS40NDkxQzg0LjUyNDIgMjkuMDgxOCA4NS4wMjAxIDI4LjU3OTUgODUuMzc4OSAyNy45NDIxQzg1LjczNzYgMjcuMzA0OCA4NS45MTcgMjYuNTg2NCA4NS45MTcgMjUuNzg3Qzg1LjkxNyAyNC45ODc3IDg1LjczNzYgMjQuMjY5MyA4NS4zNzg5IDIzLjYzMTlDODUuMDIwMSAyMi45OTQ2IDg0LjUyNDIgMjIuNDkyMyA4My44OTExIDIyLjEyNUM4My4yNTggMjEuNzU3NyA4Mi41NDU3IDIxLjU3NDEgODEuNzU0MyAyMS41NzQxQzgwLjk1MjQgMjEuNTc0MSA4MC4yMzQ5IDIxLjc1NzcgNzkuNjAxOCAyMi4xMjVDNzguOTY4NyAyMi40OTIzIDc4LjQ3MjcgMjIuOTk0NiA3OC4xMTQgMjMuNjMxOUM3Ny43NTUyIDI0LjI2OTMgNzcuNTc1OCAyNC45ODc3IDc3LjU3NTggMjUuNzg3Qzc3LjU3NTggMjYuNTg2NCA3Ny43NTUyIDI3LjMwNDggNzguMTE0IDI3Ljk0MjFDNzguNDcyNyAyOC41Nzk1IDc4Ljk2ODcgMjkuMDgxOCA3OS42MDE4IDI5LjQ0OTFaTTgyLjg5MzkgMjcuOTc0NUM4Mi41NjY4IDI4LjE3OTggODIuMTg3IDI4LjI4MjQgODEuNzU0MyAyOC4yODI0QzgxLjMyMTcgMjguMjgyNCA4MC45MzY2IDI4LjE3OTggODAuNTk4OSAyNy45NzQ1QzgwLjI2MTMgMjcuNzU4NSA3OS45OTc1IDI3LjQ2MTQgNzkuODA3NSAyNy4wODMzQzc5LjYyODEgMjYuNzA1MiA3OS41Mzg1IDI2LjI3MzEgNzkuNTM4NSAyNS43ODdDNzkuNTM4NSAyNS4zMDA5IDc5LjYyODEgMjQuODY4OCA3OS44MDc1IDI0LjQ5MDdDNzkuOTk3NSAyNC4xMTI3IDgwLjI2MTMgMjMuODIxIDgwLjU5ODkgMjMuNjE1N0M4MC45MzY2IDIzLjM5OTcgODEuMzIxNyAyMy4yOTE3IDgxLjc1NDMgMjMuMjkxN0M4Mi4xNzY0IDIzLjI5MTcgODIuNTU2MyAyMy4zOTk3IDgyLjg5MzkgMjMuNjE1N0M4My4yMzE2IDIzLjgyMSA4My40OTAxIDI0LjExMjcgODMuNjY5NSAyNC40OTA3QzgzLjg1OTQgMjQuODY4OCA4My45NTQ0IDI1LjMwMDkgODMuOTU0NCAyNS43ODdDODMuOTU0NCAyNi4yNzMxIDgzLjg1OTQgMjYuNzA1MiA4My42Njk1IDI3LjA4MzNDODMuNDkwMSAyNy40NjE0IDgzLjIzMTYgMjcuNzU4NSA4Mi44OTM5IDI3Ljk3NDVaIiBjbGlwLXJ1bGU9ImV2ZW5vZGQiIGZpbGwtcnVsZT0iZXZlbm9kZCIvPiYjeGE7PHBhdGggZmlsbD0iIzI0MjUzMiIgZD0iTTY1LjMxMDkgMjEuNzAzN0g2Ny4yNTc3TDY4LjcxMzkgMjcuMTY0M0w3MC4yOTY2IDIxLjcwMzdINzIuMDY5M0w3My42MzYzIDI3LjE2NDNMNzUuMTA4MiAyMS43MDM3SDc3LjAzOTJMNzQuNTA2OCAyOS44NzA0SDcyLjc4MTZMNzEuMTgzIDI0LjM3NzNMNjkuNTY4NSAyOS44NzA0SDY3Ljg1OTJMNjUuMzEwOSAyMS43MDM3WiIvPiYjeGE7PHBhdGggZmlsbD0iIzI0MjUzMiIgZD0iTTYxLjkzMjIgMjkuNTMwMUM2Mi4zNjQ4IDI5Ljc1NjkgNjIuODcxMyAyOS44NzA0IDYzLjQ1MTYgMjkuODcwNEg2NC43MzM3VjI4LjIwMTRINjMuNjczMkM2My4zMDM5IDI4LjIwMTQgNjMuMDE5IDI4LjA5MzMgNjIuODE4NSAyNy44NzczQzYyLjYxODEgMjcuNjYxMiA2Mi41MTc4IDI3LjM0OCA2Mi41MTc4IDI2LjkzNzVWMjMuMzcyN0g2NC43MzM3VjIxLjcwMzdINjIuNTE3OFYxOS4yNDA3SDYwLjU3MVYyMS43MDM3SDU5LjAwNDFWMjMuMzcyN0g2MC41NzFWMjcuMDE4NUM2MC41NzEgMjcuNjEyNiA2MC42ODcxIDI4LjEyNTggNjAuOTE5MiAyOC41NTc5QzYxLjE2MTkgMjguOTc5MiA2MS40OTk2IDI5LjMwMzIgNjEuOTMyMiAyOS41MzAxWiIvPiYjeGE7PHBhdGggZmlsbD0iIzI0MjUzMiIgZD0iTTU0LjY4NjYgMzBDNTMuODQyNSAzMCA1My4xMTQ0IDI5LjgwMDIgNTIuNTAyNCAyOS40MDA1QzUxLjkwMDkgMjkuMDAwOCA1MS40MzY3IDI4LjQ3NjkgNTEuMTA5NiAyNy44Mjg3QzUwLjc5MyAyNy4xODA2IDUwLjYzNDcgMjYuNDg5MiA1MC42MzQ3IDI1Ljc1NDZDNTAuNjM0NyAyNS4wMjAxIDUwLjc4MjQgMjQuMzM0MSA1MS4wNzc5IDIzLjY5NjhDNTEuMzgzOSAyMy4wNTk0IDUxLjgyNzEgMjIuNTQ2MyA1Mi40MDc0IDIyLjE1NzRDNTIuOTk4MyAyMS43Njg1IDUzLjcxMDYgMjEuNTc0MSA1NC41NDQyIDIxLjU3NDFDNTUuMzg4MyAyMS41NzQxIDU2LjEwMDYgMjEuNzYzMSA1Ni42ODA5IDIyLjE0MTJDNTcuMjYxMyAyMi41MTkzIDU3LjY5MzkgMjMuMDA1NCA1Ny45Nzg4IDIzLjU5OTVDNTguMjYzNyAyNC4xOTM3IDU4LjQwNjEgMjQuODMxIDU4LjQwNjEgMjUuNTExNkM1OC40MDYxIDI1Ljc2IDU4LjM5NTYgMjUuOTkyMyA1OC4zNzQ1IDI2LjIwODNINTIuNTEzOUM1Mi41NTI4IDI2LjU0MDkgNTIuNjMzNCAyNi44NDM0IDUyLjc1NTYgMjcuMTE1N0M1Mi45MzUgMjcuNTA0NiA1My4xODgzIDI3LjgwNzEgNTMuNTE1NCAyOC4wMjMxQzUzLjg1MyAyOC4yMzkyIDU0LjI0MzQgMjguMzQ3MiA1NC42ODY2IDI4LjM0NzJDNTUuMTgyNSAyOC4zNDcyIDU1LjU4ODggMjguMjQ0NiA1NS45MDUzIDI4LjAzOTRDNTYuMjMyNSAyNy44MzQxIDU2LjQ0MzUgMjcuNTM3IDU2LjUzODUgMjcuMTQ4MUg1OC40Mzc4QzU4LjI5MDEgMjguMDEyMyA1Ny44NzMzIDI4LjcwMzcgNTcuMTg3NCAyOS4yMjIyQzU2LjUxMjEgMjkuNzQwNyA1NS42Nzg1IDMwIDU0LjY4NjYgMzBaTTU2LjQ1OTMgMjQuODQ3Mkg1Mi41NjI0QzUyLjYwMTMgMjQuNjQyOSA1Mi42NTUyIDI0LjQ1MzggNTIuNzI0IDI0LjI4MDFDNTIuODgyMyAyMy44ODA0IDUzLjExNDQgMjMuNTgzMyA1My40MjA0IDIzLjM4ODlDNTMuNzM2OSAyMy4xODM2IDU0LjExMTUgMjMuMDgxIDU0LjU0NDIgMjMuMDgxQzU1LjExNCAyMy4wODEgNTUuNTY3NyAyMy4yNDMxIDU1LjkwNTMgMjMuNTY3MUM1Ni4yNDMgMjMuODkxMiA1Ni40Mjc3IDI0LjMxNzkgNTYuNDU5MyAyNC44NDcyWiIgY2xpcC1ydWxlPSJldmVub2RkIiBmaWxsLXJ1bGU9ImV2ZW5vZGQiLz4mI3hhOzxwYXRoIGZpbGw9IiMyNDI1MzIiIGQ9Ik00Mi4yNDc1IDE4LjUyNzhINDBWMjkuODcwNEg0Mi4wNzM0VjIxLjg4MTlMNDYuODg1MSAyOS44NzA0SDQ5LjEzMjZWMTguNTI3OEg0Ny4wNTkyVjI2LjUzMjRMNDIuMjQ3NSAxOC41Mjc4WiIvPiYjeGE7PHBhdGggZmlsbD0iIzI0MjUzMiIgZD0iTTYwLjcyMjkgNS41SDU4Ljc3NjFWMTMuNjY2N0g2MC43MjI5VjkuMjEwNjVDNjAuNzIyOSA4LjgxMDk2IDYwLjgwMiA4LjQ1NDQ4IDYwLjk2MDMgOC4xNDEyMUM2MS4xMTg2IDcuODI3OTMgNjEuMzM0OSA3LjU4NDg4IDYxLjYwOTIgNy40MTIwNEM2MS44OTQxIDcuMjI4NCA2Mi4yMTA3IDcuMTM2NTggNjIuNTU4OSA3LjEzNjU4QzYzLjA1NDggNy4xMzY1OCA2My40NTU4IDcuMzE0ODIgNjMuNzYxOCA3LjY3MTNDNjQuMDc4NCA4LjAxNjk4IDY0LjIzNjYgOC40NzA2OCA2NC4yMzY2IDkuMDMyNDFWMTMuNjY2N0g2Ni4xNjc2VjguNjExMTFDNjYuMTY3NiA3Ljk3Mzc3IDY2LjA0NjMgNy40MTIwNCA2NS44MDM2IDYuOTI1OTNDNjUuNTYwOSA2LjQyOTAxIDY1LjIxMjcgNi4wNDU1MyA2NC43NTg5IDUuNzc1NDdDNjQuMzA1MiA1LjUwNTQgNjMuNzg4MiA1LjM3MDM3IDYzLjIwNzggNS4zNzAzN0M2Mi42MzggNS4zNzAzNyA2Mi4xMzE1IDUuNDk0NiA2MS42ODg0IDUuNzQzMDZDNjEuMjU1NyA1Ljk4MDcxIDYwLjkzMzkgNi4zMjA5OSA2MC43MjI5IDYuNzYzODlWNS41WiIvPiYjeGE7PHBhdGggZmlsbD0iIzI0MjUzMiIgZD0iTTUzLjQ5NjQgMTMuNzk2M0M1Mi42NTIzIDEzLjc5NjMgNTEuOTI0MiAxMy41OTY1IDUxLjMxMjIgMTMuMTk2OEM1MC43MTA4IDEyLjc5NzEgNTAuMjQ2NSAxMi4yNzMyIDQ5LjkxOTQgMTEuNjI1QzQ5LjYwMjggMTAuOTc2OSA0OS40NDQ2IDEwLjI4NTUgNDkuNDQ0NiA5LjU1MDkzQzQ5LjQ0NDYgOC44MTYzNiA0OS41OTIzIDguMTMwNCA0OS44ODc3IDcuNDkzMDZDNTAuMTkzNyA2Ljg1NTcxIDUwLjYzNjkgNi4zNDI2IDUxLjIxNzMgNS45NTM3MUM1MS44MDgyIDUuNTY0ODIgNTIuNTIwNCA1LjM3MDM3IDUzLjM1NCA1LjM3MDM3QzU0LjE5ODEgNS4zNzAzNyA1NC45MTA0IDUuNTU5NDIgNTUuNDkwNyA1LjkzNzVDNTYuMDcxMSA2LjMxNTU5IDU2LjUwMzcgNi44MDE3IDU2Ljc4ODYgNy4zOTU4NEM1Ny4wNzM1IDcuOTg5OTcgNTcuMjE2IDguNjI3MzIgNTcuMjE2IDkuMzA3ODdDNTcuMjE2IDkuNTU2MzMgNTcuMjA1NCA5Ljc4ODU4IDU3LjE4NDMgMTAuMDA0Nkg1MS4zMjM3QzUxLjM2MjYgMTAuMzM3MiA1MS40NDMyIDEwLjYzOTcgNTEuNTY1NSAxMC45MTJDNTEuNzQ0OCAxMS4zMDA5IDUxLjk5ODEgMTEuNjAzNCA1Mi4zMjUyIDExLjgxOTRDNTIuNjYyOSAxMi4wMzU1IDUzLjA1MzMgMTIuMTQzNSA1My40OTY0IDEyLjE0MzVDNTMuOTkyNCAxMi4xNDM1IDU0LjM5ODYgMTIuMDQwOSA1NC43MTUyIDExLjgzNTZDNTUuMDQyMyAxMS42MzA0IDU1LjI1MzMgMTEuMzMzMyA1NS4zNDgzIDEwLjk0NDRINTcuMjQ3NkM1Ny4wOTk5IDExLjgwODYgNTYuNjgzMSAxMi41IDU1Ljk5NzIgMTMuMDE4NUM1NS4zMjE5IDEzLjUzNyA1NC40ODgzIDEzLjc5NjMgNTMuNDk2NCAxMy43OTYzWk01MS41MzM4IDguMDc2MzlDNTEuNDY1IDguMjUwMTMgNTEuNDExMiA4LjQzOTE3IDUxLjM3MjMgOC42NDM1Mkg1NS4yNjkxQzU1LjIzNzUgOC4xMTQyIDU1LjA1MjggNy42ODc1IDU0LjcxNTIgNy4zNjM0M0M1NC4zNzc1IDcuMDM5MzUgNTMuOTIzOCA2Ljg3NzMyIDUzLjM1NCA2Ljg3NzMyQzUyLjkyMTQgNi44NzczMiA1Mi41NDY4IDYuOTc5OTQgNTIuMjMwMiA3LjE4NTE5QzUxLjkyNDIgNy4zNzk2MyA1MS42OTIxIDcuNjc2NyA1MS41MzM4IDguMDc2MzlaIiBjbGlwLXJ1bGU9ImV2ZW5vZGQiIGZpbGwtcnVsZT0iZXZlbm9kZCIvPiYjeGE7PHBhdGggZmlsbD0iIzI0MjUzMiIgZD0iTTQ0LjUyNjcgMi4zMjQwOEg0MFYxMy42NjY3SDQyLjA4OTNWOS40MDUxSDQ0LjQ3OTJDNDQuODkwOCA5LjQwNTEgNDUuMjI4NCA5LjU0NTUzIDQ1LjQ5MjIgOS44MjY0QzQ1Ljc2NjYgMTAuMDk2NSA0NS45MTk2IDEwLjQ0NzUgNDUuOTUxMiAxMC44Nzk2TDQ2LjIyMDMgMTMuNjY2N0g0OC4zMDk1TDQ4LjA0MDUgMTAuNjM2NkM0Ny45NjY2IDkuNzgzMTkgNDcuNjUwMSA5LjA5MTgzIDQ3LjA5MDggOC41NjI1MUM0Ni45NjA2IDguNDM5MjUgNDYuODIxNSA4LjMzMDM0IDQ2LjY3MzUgOC4yMzU3OUM0Ny4wNzM1IDguMDE0NjggNDcuNDAyNiA3LjcyOTI5IDQ3LjY2MDYgNy4zNzk2NEM0OC4wMjk5IDYuODgyNzIgNDguMjE0NiA2LjI3Nzc5IDQ4LjIxNDYgNS41NjQ4MkM0OC4yMTQ2IDQuODk1MDcgNDguMDY2OSA0LjMxNzE0IDQ3Ljc3MTQgMy44MzEwM0M0Ny40NzYgMy4zNDQ5MiA0Ny4wNDg2IDIuOTcyMjMgNDYuNDg5NCAyLjcxMjk3QzQ1Ljk0MDcgMi40NTM3MSA0NS4yODY1IDIuMzI0MDggNDQuNTI2NyAyLjMyNDA4Wk00NS4zOTcyIDcuMzMxMDNDNDUuMTQ0IDcuNDgyMjYgNDQuODIyMiA3LjU1Nzg4IDQ0LjQzMTggNy41NTc4OEg0Mi4wODkzVjQuMTIyNjlINDQuNDMxOEM0NS4wMTIxIDQuMTIyNjkgNDUuNDQ0NyA0LjI4NDczIDQ1LjcyOTYgNC42MDg4QzQ2LjAyNTEgNC45MjIwOCA0Ni4xNzI4IDUuMzI3MTcgNDYuMTcyOCA1LjgyNDA4QzQ2LjE3MjggNi4xMzczNSA0Ni4xMDk1IDYuNDI5MDIgNDUuOTgyOSA2LjY5OTA4QzQ1Ljg1NjIgNi45NTgzNCA0NS42NjEgNy4xNjg5OSA0NS4zOTcyIDcuMzMxMDNaIiBjbGlwLXJ1bGU9ImV2ZW5vZGQiIGZpbGwtcnVsZT0iZXZlbm9kZCIvPiYjeGE7PGRlZnM+JiN4YTs8cGF0dGVybiBoZWlnaHQ9IjEiIHdpZHRoPSIxIiBwYXR0ZXJuQ29udGVudFVuaXRzPSJvYmplY3RCb3VuZGluZ0JveCIgaWQ9InBhdHRlcm4wXzIyMDFfMTIwOSI+JiN4YTs8dXNlIHRyYW5zZm9ybT0ic2NhbGUoMC4wMDUpIiB4bGluazpocmVmPSIjaW1hZ2UwXzIyMDFfMTIwOSIvPiYjeGE7PC9wYXR0ZXJuPiYjeGE7PGltYWdlIHhsaW5rOmhyZWY9ImRhdGE6aW1hZ2UvcG5nO2Jhc2U2NCxpVkJPUncwS0dnb0FBQUFOU1VoRVVnQUFBTWdBQUFESUNBWUFBQUN0V0s2ZUFBQUFBWE5TUjBJQXJzNGM2UUFBSUFCSlJFRlVlRjd0ZlFtWU0wV1pmeC9WM1Rrbjl5UURnMXdDaW9vSHFPQ0JGeTZvdUNJZUtBb0t3aW9LaWdMaUtpRElmY2poQWNvS3JMaUtlQitMSitLQnlMcUFLQXFvSUNoOGZKTk0wc2trTXptN3V2di8vODFXeGt4UGQ5TEpaR2JTTStubm1lZFRVbDMxMWx2MWR0VjcvVjZlR3oranlBR0I0emlqZ3pEci8zZWkyVzI3WG5NZVZqKzl4aG41My9tUnAzQ0xFS2dveXNtU0pPMXVtbVpOMS9XYWFab0xITWMxRE1ObzhUdy9ieGhHa2VmNWtxWnBjeHpIWlRtT205OGlyTm5RYVk0RlpFUFovOC9CMCtuMGJSekhQWnZuZWNFMFRZUG5lYlBqRk5FNWp0TU53OUI1bnNkdmxQMldielFhRDlUcjlmdDFYWCtRVXZwbmp1TzJjeHpYNm1OYTQ5T2lDN1BHQXRMSFRsckxwcGxNNWplaUtENlg1M25pZGh5Y0xxWnA0cS9KY1Z3VC94dW5EYVgwYndzTEMvOUxLY1hmN3ptT1U5MzJPVzYzbkFOakFSbVJIUUVCRVFSaFAwRVFwTldRWkpvbVRob0lTd04vUE0vam1yYXRXcTMrYjZQUitMV3U2NzlsVjdTMTFtTldNNDJSZVhjc0lDT3lGTU1TRUx2cFFHQjBYYTlEV0RpT2c0N3pZS1ZTK1VtejJmd3B4M0YveGZWdEFJUEFpSEJ1YmNrWUM4amE4dGQxN3dNS0NQU1V2dGVRR1FGd3dsUjVudDlXcVZSK3BtbmF0elJOdTc5UC9jWDEvTHphc0cvbWVuV2lvMDUzSnBONVVCVEZQYUdrcnlldGhtRm91cTVYbWRYc2tYSzUvTjFtcy9rdGp1UCt2cDUwak9wWW95Z2c3UTNTNlFjWVZmNE5qUzVSRk44b2l1SnVnaUFvZ2lENFJWRlVlSjczbWFZcEVrSUNraVNsQlVHSWNoeVg0SGsrSTRwaWNHaURzNDZnOUJ1R0FmUHlYS3ZWK20ybFV2a0NwZlFPR0FBNGp0dVMxcTZORkpBdHlmQXVtMXJtT0E1L0lzZHhzR1NCUDUzL0JpVkpDcGltR1RSTk15V0tvbVNhWmtTU3BHbS8zNytySkVsN2NCeTNNNFJJRUFUMDQvWlpjVTJEbWRrd0RGekI1Z3pEZUtCVUtuMUowN1JiK3JTR2JZcjEzVWdCY2J1QTdYYWJndUg5VHJwSGV6L0hjUUdPNDZLU0pDVU53MGdJZ3BBUVJYSFhZREM0RHlGa1gxRVVwM0FxT2ZUVFU0ZUJnbThZUm9YanVFZkw1ZkszNnZYNlZ6aU9lM3pJOHhqWjdyd2dJR1BCNkcvNzRBU0tjQnlYSW9Uc0pBaENoaEN5VnpBWWZKWWdDUHVJb29pcldxZkE5QlFTanVOd3BGQmN2MHpUL0VlNVhQNTZvOUc0a2VPNGJmMlI1cjNXNnlFZ3ZYUUtMT2hPSE1lRkpVbFNORTJyY1J4WDdHR3JINThxem52TitrRUJmNkc3VEJGQ01qelA3NllveWpPQ3dlQ0xCRUhZVXhSRm5FQjQzQWdLMTFicWVaNS91RlFxM2RSc052K0w0N2haNzIxOWR4U3ZoNEJZS2ZFVFFwNGx5L0toNFhENEFKN25kelpOazVpbXVTaElMSlFDZHZsbXE5VzZkMzUrL29lYXBzRmVqL2lqOGJONkR1QmFscEFrQ2NLeXB5ekxCd1NEd1VOeDJ2QThEMkZ5OVVCUURNTkFQTmo5cFZMcE84MW04M29vOTY1ZTlsQ2o5UlNRa0NpS0J5VVNpZmZ4UFA5VW51ZkRnaUQ0bkJSSzVoR0dvcmpBODN5bFdxM2VXcWxVUHNseDNOODh4TjlCU0hWenBYVFR4czNZTUFMZ0tvYVRaTjlvTlBvS251ZjNKNFRFM1o0cXpQSlZOazN6Z1VLaGNMbXU2OS9yR0hoWWRMcVp5NXEwV1E4QkFaUDJUaWFUWnhCQ1hpWUlRcVNMMG1nN1NkTTBLV3oxUE0vUHFxcjZoVmFyZGNtYWNNUDduYTVtUTRZNGp0dFJGTVduK1AzK2x3YUR3Y01sU1hxU1c1YkFVMjhZUnNrd2pIdnkrZnhIT0k1RDRLVG5UZlZyTFNCRUZNVlhUMDVPbm02YTVsTUpJYmdMRHp3bXUvOCtVYXZWZmp3L1AvOGhoRTFZRm5BMUc4VHRYdGpNN2NBL3JNL09raVFkR0FnRUR2RDcvUy9rZVg1MytHVXNhMmVycytCRHB1djZyMVZWdlU3WDllOTI4Y3gzcnRYSXJ0dkFtOVhGTG9HejYxOVRxZFNaK0NyMWM3L3QxamRzOUxxdUx4aUdjZWZzN095UlRLRjNRYzY0eVFBY3dQVnJYMFZSWGhZT2h3OFJCR0V2TjZjL3JsMjZybWZyOWZvUEtwWEs1UnpIUGVUVkQ5bXdCTVQ2QlpCRlVYeGRLcFU2aHhEeWxJNHZqeXRMU1plRlhIb2Y5bmxLNmUyenM3UC95bkZjZmF0NmVnZlk5SU84RWlXRVBGOVJsSVBDNGZCckJFSFkzWTB6a3AwbWQ2cXFlalhUVFRxRElnZWhZOTNmR1phQUxDT2NFUExDWkRKNUtTSGtBRGN6WXFmQ25HbWFGVUVRNENWdWgxRzBCY0w2NzJLM0NMcGJXRmo0UEx0dXVSbHEzR1oxSElpS292akNZREQ0YXIvZi8xcEprbUNlNy9vd1IrUDIrZm41cjFXclZad21uaklKcjRXQTdEWXhNWEZxS0JRNjF1WTRYam9CS0tWSUk3MjMwV2pjMzJxMXR1dTZub1BIbGhBeUpZcGl3dS8zN3lKSjBuUGg1TEpaZ2NWK1lPblNkVDJmeitkUDBIWDlPMTQ5eG50dHNnMzZ2WnRlTUNuTDhzdkQ0ZkFiSkVsNktTRWsyWU5HRSt0TktmM2gzTnpjcDFsODF3Wk5xNzloaHkwZ3NpekxiNDdINDVjenBxM29YOWQxbUc3L05EYzM5MTFkMTMrc2FScnVwMWI3T2N5UHNLanNGdzZIWCtYeitkNUVDSm13bXhxNzd6NlF5K1ZlYUtPMDk4ZU5jZXQrT2JDN29paXZpa2FqaHd1QzhQd09wNk50UDJ6dDc4M244MWZwdW41enY0TnRSUHRoQzhpZWlVVGlMTC9mL3phN3liQTc2UjJxcW9KQnQ3cklQY0JYYkVlZnovZTJhRFQ2ZnB3dVR2MFdpOFV6bXMzbWxSdkJ4QzA2WnZ1RThjdXl2SWNrU1VmaFJDR0U3TnFOSCt5RGhpdlhqYlZhN1lvZXpzVU50MjROVTBCRVVSUVBUNlZTMXhCQ0VsWW1zYnZvSHdxRndtbVUwbC8xdWFuaWlxSWNFNC9IenhWRkVaN2daUS96NnVhejJleU80MnRXbjV3ZFh2T29MTXVIeEdLeGYrdHltclN2eGdhbHRGS3IxVzZlbjUrL2FKUnpUNFlwSUlsQUlIQnlQQjQvdzA1bm9KUm1WVlU5WGRPMEx3MjRKanNtRW9tTC9INy8yNTNleitWeXo5TTA3YTRCK3grL3Rub09LTElzN3lYTDhySE0wZGhWaWNlTkFtSDA1WEw1VWszVDdsNzk4TVB2WVpnQzh2VEp5Y2xMWkZsK2xaVk1NS0xWYXYxQVZkVjNya0pQSURBMUpoS0pteVZKMnNITzRWZ3NGaStvMVdvZkd6NmJ4ajMyeVlHVUpFbUh4dVB4OTB1UzlLeHU3OElTcWV2NkhjVmk4UkpLS2E3ZEkvVU1UVUFJSVFjbkVvbnJKRW15WG5NNFN1bE1QcDkvcjQybHFWOW1URWFqMFF0aElYUFFSWDR6TXpNRFpYMzhiRHdIRkpqNVk3SFlxYUlvSGtnSUNUdVJ4SzdmVU40djAzWDltNnhkVy8vWVVEMWthQUlpaXVJUjZYVDZSanNIRXFYMGtXdzIrN3crTTlMcytLbkFPejgxTmZVMUJ3RlptSm1aY1Z5SWpkOHpXNDRDYk80bkI0UEI0ME9oMEJIZC9DWU00K3ZCUXFGd3RhWnAxMXFFWk1NWU55d0JFV0hGU0tmVE4xaG53cUk5NzgxbXMvdGJmaHZreXlCSWt2U2NkRHJ0cUdkczI3WU5Ua1pyak5hR01YZ0xET3htSFZPS29od1JpOFZPZFBCckxiS3BIYUl5TnpkM1diUFovUFFvOEc1WUFxSW9pbkpjS3BYNmpJMytVV1A2eDV1R01HRXN4dE4yMkdHSGU1d0Exclp0MndZTEdoS3V4czlvY1NBc2l1TEJxVlRxSTRTUTV6Z0ZyVExuYjY1VUtsM2ViRGFSM3JDaHo3QUVSSllrNmRoME9uMk5OVE1OOTB0TjAyN041L09IRG1PbXNpenZrMHFsZnVjVS9MaHQyelpjc1lETU1YNUdnd09kSjR4TUNIbFJQQjcvT0F3dVRvR1BURWhtUzZYU2hSdDlrZ3hMUUhEMWVSdDBFT3Vhc0RpclAyV3oyV2NPdUY3THdxSUpJUWRtTXBtZnM3NldCVC9DSDdKOSszYjRTVHdYRkRjZ2I3ejRHcEVrNlJuUmFQUk1Rc2doZG40dFRBcENRaWw5b2xnc2ZrTFR0T3VHY0QwZmlGZkRFaEFPazAwa0VqZEprb1NjajJWUHE5WGFOanM3K3dvR2M5bU4wRjczV2IvUDUvdEFNcG04d082SXBwVCtKWnZOSW5xNC9mVHFieUNtalY4YW1BT2RscW1uSkJLSnMyVlpmbzFUaUFwTGxQdDdzVmc4cDlWcUlmZDkzWitoQ1FpdVB2RjQvQXVFa09kYVp3R3Y2ZHpjM0VXTlJ1UENWYzV3eDZtcHFWdEVVZXc4alpaT2tYSzVqTWplOTdBeHhzS3hTbWF2OGV0WW56MXczVklVNVYrZGdQQ1lrUHdGV1lxNnJ2LzNHdE8wb3Z1aENRakhjWlBoY1BnVGtVamszVGJYTEtUTTNwZk5adCt3aXJBQ1JaS2tkNlJTcVU4NTNWMW5abVpldXhGTVhPOUYyeVRqdFQ5Z3U4ZGlzWS83Zkw3WGk2S0l0Ti9PWi9IangwS0pmcWVxNnNtYXB2M1BlczUvbUFLQ0RYeE1LcFc2eXM0WGdpekFhclg2WDVWSzVRTXVnaFN0UElBWitkbUpST0o2UXNnejJJOUxKd2ZUYzZyWmJIWjNqdVB5NjhuQThWaXI1NEFrU2Z0R0lwRXpKRWw2cGROSkFvOTdxOVc2UlZYVlU5WVR1RzZZQWdJOTVJQmtNdms1UXNnK2RteWpsQmFMeGVMRnJWWUwxaTYzSmNSZ0FOZ25Gb3RkSmN2eWdYYjl3bExXYkRhL3I2cnFNRXpKcTEveGNROTljd0JDRW8xR3p5YUV2TUpKY2NkSHRsYXJmYVZjTGtOSTFzVlNPVlFCQWZpYnorZjdZREtaUE1lT1E4eDhWMWhZV0xoNVlXSGhLbzdqSG5IZzVGSW9OV3puaVVUaWcwN0N3VTRQb0owY3FtbmFQWDJ2elBpRmtlRUFNbEZqc2RpL0s0cnlHaHVpRm04TWxOSlN1VnkrdUY2dlg3d2VoQTliUURoSmtoQlFlSzNUS1lKSklYaVJVdnJ6YXJWNlQ2dlZ1bzFTaXJvVStDSm9ITWY1b004Z1dXcGlZdUsxaXFMc1N3aloyOG14QkpEbFNxWHkrWVdGaFpQWGcySGpNZGFFQSswUElwRHNuNWRNSnEvRXYxMCtzby9sOC9uVGRGMy85bHBEQ3cxZFFOZ3BjaUl6eFRweXM0MTF4WEhjdzVUU2JZWmhBSGloTGdoQ2tHRm43U0tLNHU3ZGF2WkJlVE5OODY2Wm1aazNjeHozeEpvczNialQ5ZVlBb3JZUFRDUVNuM1NLQkdiaFMxRGFUMXJyTVBsQkJLU1grZlFaNlhUNkt1UXF1OFRBV2dKa1lOVmRYY0ZmTWdGN3VGQW9uRFNLWWRMcnZhczIyWGdJU24xVktwVzZrS0hpckpnZVU5cVJRdkcrdFFTQ0dFUkF1cTFGSmh3T254WU9oMC9zQWdzRGdjQXo4Tmh0MjNpeFdMeG9veHhJbTJ4RGp1SjBBR2IrbG5nOGZxWlRGREQ4YTVWSzViTzFXdTJqYXpXQlFUYnBJc2kwemQwUFZaQ09TQ1FTNXdORnZBOEI2QWNyQ3pEOEtCbDJWNkZRdUZMWDlXK3NGV1BHL2E0ckI1eHVKU21mei9mZVNDUnlzbDJFQm00Y2xOTEhWRlY5RDZYMHgydEI4U0FDWWtzSHc4TDZQQ0hrYVE3S0ZlcExhRFltUEZjQ3dtSnpzcFRTWDViTDVhdTlCQjJ6Rmd1M2hmcmNKWkZJbkdjQkFsa0dJQWlvMDF3dWQ5d3FuTkNPN0hRaklOYk1ManRwbjQ1RUloOFBoOE1nY3NYRE1zYitVcXZWZmhNSUJKNk5FSU1PQlBHdWE4MnVVNDlSU3U4cmw4dUFDVUt5RkdDQ1BBK012SVUyZWI5VFhiYkhldm5YbUgva3BuSzVmRUpIb0dvdlhka1ZUVzRFcE4yUjA0RHRxOVhGaEpDVWRWUjJERzRyRkFvZjBIWDlKM0Q2b1F4Q09CeCtqaWlLQUJ6RE80RGI5L004RHpBNFdLYm1lWjRIcEg1ZTA3Ui9MQ3dzM05acXRSREJPN1pVdVZyV1RkY0kwRUtIeFdLeGk3dm9JN2w4UG4rc3J1cy9HT2JzK3hFUTIzR0JmcGhJSkhDMXdzbUFaOW1WcVVPUkF0cEorNnNQWVVOZHZTY1pockVyc0pRZ0xLWnBRa0RxdXE3UEdJYnhoSzdyRDdONklJT0dydy9sS3pKTWhvLzc2c3FCYnJlVnlVQWdjRklrRXZtUVhmUXZ3MnIrMWV6c0xGQnZoZ1p2dWxvQlNRV0R3Vk9pMGVpcGRnbE1xQm1oNi9wUFoyZG5qMmRFT3luNGJ2ZE5QeHUrbjdadXh4KzMyMWdPN0QwNU9YbUZMTXYvMGtIRzBnZFowN1M1Y3JsOFJhUFIrTVN3eUZ5TmdLRDJ4eUhKWlBKcXUyT1BWWWg2SkovUEh6TldxRjB0VnkrQjd2VzdxMEU4M2doVkE3RG5QaVZKMHM1V0lXR2hUQStycXZyMllUa1FWeU1nZThDazYvZjdiUU1FbVRSZjNtZzB6dlg0b296Skh5ME9BS0R3L2RGbzlNTW80V2NsRFE3RVpyUDUzV0t4ZUpRbHMzU2dEOHlnQWdMRi9HM3hlUHdTTy9zMDRxTjBYYjh0bDhzZFBRU29uOUZhSG50cUJtSytGeVkyaWpRaU9TOGFqWDY2STREVnF2ZG04L244dTRhaHNBOGtJQ3g3OExOSXdMZGpJSURpQ29YQzBWc3dCS1JUeVFScnhxYm90WkV3UUp5K2lWVVJzRnBPNFV4R2NhVmZ6TTdPQWtSOVZRZzNnd2hJV0ZHVTQrUHgrSGwyY2Z1STFHMDJtMThyRm90UXpBZTFQcTBOV3plK1Z3Z1FTanVrT1k0TFNaS0VLNEppbXViaXY0aG01bmwrWHRPMEJrc3FLN0VGcGh0UCtzaFJzRFBTZFFPQndERU9IK2tDUTBWQjBaNkJuNzRGaEpsMWtSUUZiS05sRDR1dWZXQm1adVlJanVQK01qQlZtK2RGMUNQZmplZjVQVVJSM0VtV1pSVERES0dZS2MvelBwN25KU1l3TXZzWEh4UUlCNFdEMURBTTFHS2NiN1ZhdVdhem1kVjEvVkZkMTFFOTlsR2JoS0d0ZHMxRGFEektpbi9lb3JBdjdoNFc4UXRFejVmWW1IMWQ4NnBmQVlrb2luSlVQQjYvVkJURkZRb1NrbG5tNStldnIxYXJwMjZlUGQ3M1RLYVF2eUpKMG42aUtPNFFDQVIyNFhrZTVaU1I0NUp3VXdUVFJ2R3NHb1pSNW5sK1J0TzBSeHFOeG1PdFZ1dXZwbW5lVHltRndPQ2syUXJYT2V2R1RreE1USnc3TVRFQkQvcUtCMjZHUXFGd29xWnAxL2U5aXV5RnZnUUUwRDdKWlBJc3U5cURMSndFK0ZjQVp2aUhTNEpjUzdMTC9qYXFXUUpoMmFJb1BqY1lERDVUVVpSbkM0THdOSmJMNGlyV3JGL0NZU1hrZWY2djlYcjl2bHF0QmlqV3UxaTFyblZKUmUyWDNyVnFEejA0bVV4K25RWElZcGhPckFLQWhmd3htODIrak9PNDhpQTA5Q01nNFZBb2RHNGtFbm1mWFJJVHBUUmZLcFV1YWphYnE3cnpEVEtKRFh4bldwYmxGL3Q4UHRRVWY0NGdDUHV3RTZJZnZxNmFmT1Q2bTZiNWgycTErc2Q2dmY0emxCTmcxc1BWZm9CVysvNnE1K2FpZzNBZ0VJQ3orcU4yY0xRdyt4WUtoUk0wVFFPdVZ0K25ySFVoSFJuQ0pCV3BrUHRhaUliVm9HVVl4dSt5MmV5cldTQ2hGeGpyZ3ZlT1RWQmc5S1hoY1BpbHNpd2ZMSXBpYWxoMTRGZERGTjZsbEQ3YWFEUnVtNStmLzVHdTY2amtaUmQyc2FuV2g2VjVmNWtRQWxTYlpROXpIbUp2SW9HdkRXcnVldjV1djNSQU5EdzFGb3VkYmdmTFFpa0ZhTUk1bXFaZHZkb0ZIdkgzSS9Ea1JpS1IxeUhjUVJURkdNL3o3ZkNaalNMZDlncW5hZHJqbXFiZFZxbFV2c29pR2R5Z3lMamVPQnMxV1lkeGU1MGkxZG5aMlNOMFhiK2xYN3JiQXRLVk1mQjd4R0t4eXlWSkFuem9zcWREOTBCbEthOWpVam54UVNDRXZNRHY5NzgrR0F5K1ZSVEZ5VkU1TVhvdE9KVDRTcVh5RFUzVHZxbHAyZ01EWUpMMUdtSWtmcGNrYWY5RUlvRlRaRGViUGFvaGoyaDJkdmJnZnE5WnZVNFFiQmhla3FSM0pSSUo1QWNqTEgzWlF5a3RGSXZGUzF1dDFpVWp3YW5oRTVGUkZPVnRzVmdNZ3ZITWJpQVNIVU92aVdJK3dOUVc2WUJ2eWpDTXU0ckY0dldhcGlFY1hPVTRydHRIMFVzblNadldTREFZL0dnc0Z2dXdIWjlRcHoyYnphTDYyQi83NFdNdkFVRmZHY1RoQjROQmhJMVlUdy9rYnNEdmdkTmpwcCtCdmRBV2FJNSt2Lys0VUNqMExwZm0yVkVSREZ2MjR0b0ZUTEpxdGZvZnEwd2pHTW5sQStoY01wbjhtdDJISERlZGhZV0Y2eXFWQ2tBZVhEODlCVVFVeFVNbkp5Y3ZGMFZ4RDJ1dk1EVmkwRTNvOXhCUTZpMlpUSjRraXVLTG5ZcjF1T2J5NkRRMEthVUxwbW5lWGlnVWJ0QjEvVWZyaFZDNFRpeHdyR0hKRXZjZXorVnlNRExoQkhYMTJBbEk1L0hxRHdRQ1owYWowVk5zVUVyQTdMOW5zMWtVeHNIZGRyTTh5RjQ3S1JhTG5VQUkyYWxEMXhqVjAyRWd1aWlsZjFWVjlaUFFUZnJaTUNPK3lFakJlRzBxbGZvaUlRUkEyTXYyTjY2YXFxb2UxMnExdnVwMkhyMEVCQWtxbjBTQmVHdUhySHd2RkIrWWRqZkxzM2lQblppWXdNbUJTSUdlSjZ5WEo0NTA1a3FsY2syOVhvZVBvSjNPN0NYOXc0NzllMDVPVGlMU2QwVlNGVUtoV0JBamZuTTF6NjRiUUpibHQ4Zmo4Y3NJSVFpdWF6OXRqTlR0K1h6KzNadW8zRUFtRkFwOUxCcU5udWpsVGQ4djdacW1iWitmbi85Q3JWWkRPSWJiQ0loK2gxblA5Z0dmei9kK0lLSFlXUnFSQXA3TlpwL3VGaUcrbTZNd0ZBcUZ6bzlHbysrM3pvNDVCdUhDZnpIZ1F0ZHo5Z09PMWV0ckVZNUdvMWM2MVY4ZmNFelB2RVlwelZVcWxldHF0UnFLc0hyZTJFSUllV2t5bWJ5WkVESnBkL01wRm91bk41dE4rT3g2ZXRZZFR4RGdvdUwwc1BOOXNLREVhNnZWNmtjOHN3dWNDVlZDb2RERjBXZ1VkVXUyN0lNeWVVQXBiRFFhc0hDNVZtSkhsR0ZUc1Zqc0lqdkxLNktrS2FXL3plVnl0cmxNMXZsMEU1QjNKaEtKUyt5Z2ZEUk5lNnhZTEI2K0Njb05DRDZmNy9SZVFOc2p1Z21HVGhaMEVsYWovSXQ5MUc4Wk9oMUQ2QkNGUW85S0pwT2Z0Y3RaWXRjc0FCeHU2elVXQktUeit0SCszLzV3T0h4K0pCTDVvTTMxcXNuaXJsRE14dE9KUEtJb3ZtbHljdklHRmo0emtEV29GNE5INkhkWDg5TjEvU0ZWVmM5dXRWbzNlem5oclZ2ZUVndGcvSkNtYVovdnRUNU9KOGhUVTZuVXBYYUZUQkE1T2pjM2Q5VXdvVlY2RWJsR3Z6ODlrOGw4MXk0MFlZM0c4MHkzbXFiZFVTd1dVUS93YnM4UXZaTFFUQ0FRT0RFZWozL001aVBmYWMzcU9rVmJBUkZGOGJCa01ubUZKRW03V04vR1hiVlVLcjFSMDdUZmVwaDVrWFE2L1JWSmtweE0xSzYrdGg2ZWYxZlNPNkE4UCs1aHBSMTFSbDZhVHFkL1pHUE5naUtpWnJOWnhHMTFEZUxzRkpEMjlZcjRmTDUvaCtSWnd5dFl0VkVrUlNHbXhRdldxL1pHV0diRjh2bDhaem1WaWR1c203N0x2SnlpZ2JjemZRVFducVpIK2JKYk9wMitYWktrSGF6MDR5T1F6K2NQUlJCanQ3blpuU0RSU0NSeVNUZ2NCdWpDc2dlaEpZMUc0eHZsY25uRmJ4NWhJQVJsbDB3bWN6Y2hKT1lSbXRlTHpLVkNSbTBIS2FYMDE2cXF2bC9UdEhzWkViM001ZXRGcTl0eE12RjQvS0pBSVBBTzlzTFN4d0I2U0xsY3ZxeFdxK0dVZEh6c0JPUVppTDJTWmZrZ2E2ZVUwb2RaUVhlRUozanhJZkY0L01aQUlQQldMeEsvM2pRakFoYXhkZ3NMQzJmMXVvcXNOMjB1eDF2RWIwdW4wOWRhMjNjaytSMWcwOWZTaDJDRmdERDlBeVhVQURTdzdLR1UzcDNOWmwvdnhqem1jZ0xyMmd5MTd6S1pUTmNqZFYwSjhzQmdsTklIOC9uOFIzVmQvNTRieDlxSVRRbDVQQWRNVGs3ZWFvZkNpQnRSTHBmYnNTUFRjQVg1S3p6cFBwL3Z3L0Y0L0J4cmNDSWNMTTFtODVaQ29YRFlpREhCTFRtQlRDWnpHeUhrK1c1ZkdMZmpPS1NzTmhxTmI2T0trMGNkaUh0a01wbnZzRXJKMWc5K1JWWFZnelJOQStpRjNmVlJzR1lVQmtLaDBJVjI0U1VNbE9IaVpyUDVTUzl1SEp5TVUxTlRLQnM4ZnZya0FCeUl4V0lSS2RVMzlQbnFLRFJIUHRNbHdXQVFXTDNMSGtUM0ZvdkZzN29CalZoUEVKUzd1c3p2OXdPNnAvMjBzOUlleXVmekoxQktmellLcys2VEJuOG1rN21qbzRaSm42K1BtemVielcralFBMEQ1UUJEdktLd0F3bjB1RlFxdFFKdEIwbFV5TERNNS9PSE82M3dzaE9rQzNJSjBETHV6V2F6cjJOUmtGNWh6dUs4Z2NDWHlXUitPdDdtamh6bzZmZUJoMzEyZHZaTVhkZmhZZmZTK3N1RWtKZG5NcGtmV21mUDZsNXV6K1Z5Sy9UdGR0dGxKNGdzeTBmRzQvRlBNaEN1VGdBdVZCUDlSUzZYZzJPdGJSTWZkU1l0MFpkT3AzL082clozOHFqbnBoZ0wxRDg1QUt0UG85SDRjckZZUkRwQUd6N0hFeXhDNEcweW1meTFIU0lQVTlSM2NzcXNYT1lvVkJUbDVIZzhmcTYxeEJYdWF0VnE5Y1pLcGZKZVQzQmtPWkZUMDlQVDJ6MUk5OGlSVENtOVUxWFZEM293aWdLK3J4c0pJVWpQV1BZZ2NGRlYxWU0xVGZzZk80WjNDb2dTREFiUGo4VmlwOWgwa21XNFY1L3oyUEhLamIzbXc1TXpHR3FLeGVKbEhrU3djY1R3eGNlL1VDaWM1R1NBNkJTUVJEUWF2UmdJSGphRk9QOEdFR0JLS1pMOHZmU1FUQ2J6SjBMSVhsNGllb1JwTlpteWpqMkNVdHhlZWNKK3YvKzlpVVRpSWl2QkFMaEc4RzI5WHYvM2p0L2ExL01sTXk5KzJ6dVZTbDJzS0FwQUdLekgwSDNaYlBZdEhNYzk2QldPTURyM21wNmVCdm81bnJIT01kamlXYXMzM1ZNb0ZFNkZUdXFoMndRSzdodytPVG41RlNzTFlNbHF0Vm8vY3ZMdkxaMGd3RGVGZ2k1SkVnSVJyUUx5MjJ3Mit4cXZPWW9VUlRrMWxVcTFBZTAyTlFERFlIdS8vN2NBTTFzcWxTN3htRDhNa2IwdnlXUXl0OW9JaUdZWUJnNkEvV3hPa0graWRvaWkrT3BVS2dXQWhxZGFPakUxVFlNRjYrWDlzM05qMzVpY25QeGxSeDI3VG1MR3A4bUFTNE9JaWxxdGRsT3BWSUpQeERNSmM0RFBUU2FUZDlsRWlPaVVVcGg2RWZxK1lqNUxYMVZSRkk5SUpwTTRRUkNic3ZRZ3hGM1R0UC91Y0tZczNjOUdQRGFIVEUxTmxlMkt6bmRNYnl3b0F3Z0tyaVN6czdNSVBmRUtDZ3IyN0Y2VGs1TS9rV1VaKzd1OTc5c0lQZVZzTmd0aytCVzUrRXNDb2lqS0IrUHgrUGxXUENpWXdhclY2blh6OC9NZkdvQ1hHL25LN3RQVDB3OXZKQUdiZFd3NGpRdUZ3bWtlaTZyWUtaUEpBTndhWUEzTHJ0dVVVZ2dJRUJmL1psMnpwWWFCUU9Cc0ZFVzAwVCs4WXRwYjVyZ0VwdGZrNU9TWE51c20zY2g1c2F6Uzg5emtkRzhrblpheHB4S0p4S2N0WVZTTFRSRFdYeWdVRG9hZngwbEFoRUFnY0U0OEhqL0Qya0RUdENlS3hlTEhOVTI3Ym9RbTI1T1VRQ0J3UVR3ZTd6VGQ5WHhuM01BZEIrQTdBRVJRdFZvOTNkMGJJOUVxRlkvSEx3a0VBdSswVW9Qc1FwU01aaUg5eTM1dW55QndFbjdDQWgzZnZwODlrcy9uVDlWMTNWT1JzS2xVNmx1S29pQTBmMnk5V29QOUNiaFNWVldScWRjVGZHME5oaCtreTJnNEhEN0xEcW1IWWZZZTMycTFibkk2UVNLaFVPZ2NPL0EwQktubDgvbVRLS1VJOXV0a1JydXkwa2d5YUdwcTZ2ZW81ekVJSjhmdjlPWkF2VjcvdXFxcXNHUjVwV2hvMk9memZTQ1pUSjVyYzRMVWlzWGlSNXJONXFlZEJDVEJjTEQrelVhQitYT2hVSGczcFJUMTdqenpURTFOemFNbXVXY0lIbTFDVjFqN0VDYWV5K1d3WDlxZzE2TTlBNDVEK3UwNzArbjBaKzBFcEZRcW5kZG9OQzUwRXBCTUpCSTVOeHdPSDJkdFFDbTlYMVhWWTFqVzFhZ3pvVTJmTUQwOXJYdUZXSS9RQ1NIQnMzaGwxVFR0WjdsY0RzR3JmL1VJL1FGRlVZNUpwVkxBSDE3MklOeWtYQzVmVXF2VnpuWVVrR2cwZWg2THcxcldobEw2UjFWVmo5WTA3ZmNlWVFUSWxLZW5wNzBLVlRQcWJGNDhUVFJOKzJVdWx6dXAzNUptR3pnNXZ5UkpSNmZUYVFUY2RqNm1ydXVOY3JsOGVhMVdBempGTXBXaHJjQm1vdEhvK1hibzVycXUvMkZtWmdicGluM1ZkbHRuUmxoelU1VHA2ZW5HT3RPd3BZWmpvZThmOE5ETlFwRWs2YTNwZEJwcHc4dXVqSVpoTkNxVnl1Y1hGaFpPWnZGbFdNdEZRV2tMeUhRc0ZqdmZEZzJiWlJJZXdYSGNReDdhQVpIcDZXa3ZSWnQ2aUxYL1J5cWw5SDhMaGNMSmRyNkRFWjBNQk9USWREcU5PaWpMSG91QTRMY1ZzRDg3eG1LeEN4d0VCRVhZa2JQcmxiQUNUSEI4Z3F6eExrVUpBVlZWZ2Q5cm0yaTB4c01QMG4zbkNXSW5JTmN1TEN5c0tJR3hkTVZ5VXRMWkZldk5IbExHTUhreVBUMnREY0xGOFR2dU9FQXB2VjFWVlZ5eDJxaUw3bDdjdUZhT0p3aDBrRXFsOHBuL256WjdtcFc4dG9CTVJpS1I4eDJzV0Y1VTBybnA2V25jSWNkT3d1RnV5Q1ZMRnJOaW5lQ1JxemV1VEJDUVl4ek12TEJpWFdvSFE5cmVRRzAveUx1dC9QU29tWmVibXBxcTJSVlBHZTUrMmJxOU1UOEk5a3ZQSWpRandDVUlpRTlSbEdOVHFkUUtaeURNdktWUzZlSkdvM0VPbzNXRkRoS2ZtSmc0ZjJKaUFpSE15eDVLNlFPcXFyN1RROWFLUmZvem1jeGZDQ0Y3anNEaWJFb1M2dlg2TjFWVlJlcHQyU01URFBqOS9wTWMwbTVyd0Z5d3k3VnZueUFXa1c5akFBQWJXRWxFUVZTQmNEaDhubDJjQ3VwcEZ3b0ZBTWJkNWhGR0xKTEpZdjlmNlNXYVI1aldaV1pSMHpTTlJxUHhGWHc0UFZTRktzb09nUlhJUEF5NDRiMmFwdDNvcElNNFJ2TlNTaC9ONS9NZjBuWDlPellMT0xMWVdNRmc4TkpZTEhicUNHODZ6NUxHb25rL1Y2MVd2Y1RmeVhnOGZxVWRzaityRmZJbU8xQ1NudmtnTFBiL0xLL2hza3FTOUo1ME9uMk5aM2ZoQ0JQTzlzVDVtcVpadmRJalREVTNsVXFscnJVREpXRUM4aHE3ZU1NbEFmSDVmR2NrRW9tenJlV3FQSnFrejBtU3RGODZuUVpxOS9nWk1nY29wZmNWQ29YVFBRWUR0WE1tay9tMkhUNHpxM3E3UDBQdFdWYlV0aFBWNUpoRUluR3h0ZXd6YXFKWEtwWFAxV3Exanc2WnoydmUzUTQ3N05DMEp1bXYrYUJiWUlCV3EvV1QyZGxabUhnZjhjQjAyeHQrajNRNi9RdExPYmJPblBTZDdRd09FSkRGRGtSUlBCU1ZiUWtoVCttY05Oend6V1lURm91M2QvejNVZFE5VnRDVXlXUitaUWMzNllGRkhTVVNyUXE2WHEvWHYxUXNGaEg1N1ptSWFhQ2FKQktKMzlqaDg3S0NuaGtXZndYLzJjb0tVNmkrQkZRVFFrZ25QdERpUXNGcm1zMW1YemFpREhFVVZvYUxkZWtvN1RhUDBySWtKQjZGSHhVWkxwYTFkSWNKaEhkRWkzVGdZaTNiVDUyZVppQXJYbUtwamQ0K2d1N01ack9vV2VnMVZPOW5wOVBwMzNsMFU0NGsyWEFjZDVSa0cwa2FiWWlTZ2Z0bVYwQUpxUFZBWjVtZG5iVXRDZDRwSUx2RTQvRUxBNEVBSUVhWFBjZ0Z5ZVZ5aU9nZDVlUVkyNU1razhuTVd2VXFyNnpxQ05KcE5ocU43eFVLQldRU3pvNGdmVTRrSWQzMmczYWx2eEdITlQ4LzN3NTFYL0YrcDRDRVFxSFFlWFo1NlpSU3BOM0NXUWc4MXZZemlucklpZ21HUXFFcm90RW80dnp0bmpGd25QdGRqcnRJclFQTnhCUHJ6NllIWVBaTEhQS2RVSWJ0OUdhejJVN0ZkYnhpZFlQK2VSeTEzRFJOKzAvMy9CeU5scElramE5WlExb0tqd0xHWWZZdzhkNkVpcmRXVmpCTXJFT2RNQmVXUmJ0S2tuUjhJcEc0a0JDUzZPd0lWWGhRTDl0am50T2xLV1F5bVJ3aFpISkkrMlRMZHROc05yK1Z6K2U5VnZvQTY3VVhzMmgyN29GT0UrOHVUdVVjbGdrSUllU1FaRElKVSsvVE8zY0JVMlNBeDRvYWhaNTdXSmp6aWt3eXowMWtBd25XTkczNzNOemNCUjFYa1Eya3ByK2hVWUl0blU1MzVxMHNYYTFaQ2JhWVU0L1dFK1Rac1Zqc1lsbVdWd1Q1SWNVeW04Mmlka2krUC9KR28zVW1rNWtqaEVSR2d4clBVWUhDT2JmazgzbEVlM3NGNXFmTjVHNlpoRjB0V09qQW1sQUU4QVluZEJNbzZ1K2hsUDdTYzh1TGJCbEZPU21WU24zS2k3UnZOTTJVMHVMYzNOeGxkcmhSRzAyYmkvR1J5bkVlUytWWXR0OXQ4a0JXZExjaTQ0NWg5SjVwRVI2VFVqcFRLcFU4ZWNTMlo4MnlETzArREM3NHZHV2JtSzFXNjliWjJkbjNlU1I3MExwUVVOQy9UZ2g1cnZVSGhzbDdoSzdyUDNCMXhVSWpvTSt4bUt4bFNpMU1mSTFHNHh1bFVnbDRySjU4SkVsNlZ6cWQvb0luaWQ4Z29obDQrUVdhcGwyOVFTU3NhdGdPL1dPRlNaK1ZQWUNDWG5IQ0dGNXhnaEJDWHNnVWRUdVRHRHpxQjNNY043OHFxdGYvNVNYYk5pdnErVFJHZ3BNZlpPd2YrVDhHd1RINHRVS2hjQXpIY2ZYMVg3WlZqeWl6Mm9RclFLbFppTWxEMld6V1dsRnQyYUIyb0FiVE1QWDYvZjdPNE1URmx4Qm13S3JkZGpvTVZ6MkxkZTdncWRQVDAvZVBBUjJXdU43K0dOaDlZYTFoN1Y1d0RuYlMyTlkvRUhtODdFRVE3c0xDd245V0twVVZ2M1UydEJPUWJ0bUZ1VXFsY3IwWFE5ODdKeDBLaGE1a0VRUGprOEtoK2kvTEdyeW1Bd3JIQzhMUnVjeWdkOWRNSnZOVFFzaXVOdnBIZFhaMjlzM2Q5QSs4WXd1THcvU1Fpd2doNmM2T1VUTFhNQXdBeWIxZ25iLzZxeG5PS1VicllVSUk2dEtObitVY1dJVDJZVEZYeDN2VnJBOXNORUxJL3BsTTVuYWJFdUFvVEZ2TzVYTFkzNjF1RzhCSlFQWkZOUjVKa2xaVXR0VTA3YkZjTGdjL3lTZ0hMcnJaOUx0TVQwKzNFMzZjOExPMjRna0RpeVZnUlQvb0lWaFJ1L1hlTVJBSUhHOVhWaENGYVhWZC8wMHVsM3RwcjQzaXRERzY0V1NwcXFwK3pHUDE2V3o1QUEvNzVPVGtGM2llYnhjRDZzV3ZUZjk3SC9ubUkzM2xRckZPbERxd0s2SUVpMnl4V1B4WXM5bThzdGVDT2lJUEtvcHlTandlUDljS3ZvYXdFMTNYNzNRamZiMEdINEhmQmIvZmYzNGlrVUN0UGZDaTg4VFljcWNIMHF2bjV1WXVielFhNTFuV1pxU0ZvVE1Ea05GTldIalJ0WFo3ak9XZ3d5L1M4eGJrS0NEZHpMMmI2SnExeUw5NFBINkRYWEhIRVJEZ2RTUEJSaWxmdDdHSE1KQlZnS2Nqa2NoWjRYQVlPdFN5eHpSTnF1djZ3NzNNdSsyWHVtSFhPb2FkSU1DclhDNWYwV2cwUG1FenVaR3VYZWkwR09sMCtqWkprcEJXM0g2MnpBbUNPM205WHIrcFZDb2gxc3FML281bEFrSUllVVVpa2JoQmtxU2RyUEtCQktsU3FYU1J3OTVkc1Qxc3pieHRyNkxUTlF1OVVFb2hoWHNNUWZwSHBvdFVLdlZOUlZGZXYwVjhKSXNmQUFnSFVCS0x4U0w4QVY0VUR1ditRYW0xOXdLQXhPRjZWYzVtczRoV2Q0VXAzQlg5bkJCeVVES1pCQlRRYzZ5RFVVcXpoVUxoTFRiQmk2TitYKzBta0ZQSlpQSnFuOCtIc1A1Tmp3eVBhMVd6MmZ4YXNWZ0VhUFBqSGlycDdMaUdRQytKeFdJWFNwS0VISE5ySlNuTk5NMEhabVptQUV4QzNYeVpsMkIvSEJxbkppWW16cG1ZbUZqaGJVUWtaTFBaL0dxeFdFUXA0TTMwWkNZbUpzNE1Cb1B2RkVVeDBHTmlucjJHQVJDd1VxbGNVNnZWZ0haZTJnekNnYldTWmZtdHlXVHlla0VRZk5hMXd3ZWhWQ3FkMzA5VXN0TlhzbjBLaUFqd1N5UVM1OWtCSHdEWU9wdk52c2pEemlTbi9SK1hKT25OaUVuYlJLV2tsMEpLa0RxcnF1cm5OVTI3MlVQbzdHNCt3dE9oVU9oVU8xd0ZwaGIwZGIzQ085WVRaTVgxQ0RuZDhYajhQSFprTFNNU2VRS3FxbjVZMDdUcjNGRHZzVFloUXNnems4bmtsWUlnN05PQjBPalpVd05Yam1heitlMjV1Ym1MTkUxRFBCb0tuUzZyNnVxeE5WcEdMaUhrWDVMSjVEV0VrTjNZRDB0cmhTZ1FUZE4rbXMvbmNYMTJQV2MzOTJ3NUVBaDhQQjZQMjBLUHNpS2Z6K3RBcGZNeWo2MjA0NE94U3pnY1BqRVVDcjI3NDhybE5TRkJhTVhqbFVybDZucTkvbldPNHg3cnVJTjdXV2ZzWEsrSXorZDdieUtSK0FUUDg4UkdaNTdQNS9OSDZiciszWDQycUJzQlFWQUxsUFh6Q1NFUUJPc3BvaGFMeFpOYXJkYUtrT0orQ05uZ3RyMDJTUUtneDRsRTRneFJGQS93RXQ0dnpKbzROU0FjbE5JL2RjdDkyT0ExV05Yd1FBWk5KQkpYSWYvRDJoSHpmZndsbTgzQ09kaVhwYzZWZ0hBY0Z3bUZRbWM3NFV0UlN1L3BnRzVjMVVSSDhPVzI4T0NyTkNWSjBpdGpzZGc1a2lSTldaSHdIV2pmaUp5VHhZQkRTdW5kK1h6K1VsM1hmODMwUkZlV214RmNnMTRraFJSRmVVOGlrVGpmN3VNRjVkeUNmZFdydjZYZjNRcUlJTXZ5bStQeE9FNlI5djBPbmJTaFV3cjVmUDc0amlJN3ZiN0lyZ2tjb1lidE9jR3l0Uk1nV21PeDJJbWlLTzVrZDZUM29Ic3RybWlkU3ZqZHFxcGVvMm5hSGN6ZTd5bkkySDdYSEhGWDBCV1pPMkxGbm1iSUpVOGFKTkhQcllDQTVoMmowZWc1b1ZBSXVFZ3JIbmFLdEhXUmZ1Zm94ZlpoZHFLOEtKRklIQ2NJd3I2Q0lFZ0QrRTlXTFN3b2lZYXZwR21hdHhjS2hSdDBYUWNlY1hhVEtPR2RIMXU3RDIrdjA2TTJOemYzcVhxOS91K0RiTEorQkFRbTN5TlJaTWR5aWl5T0M3dDZvVkI0aDhlS3FyamxXYmNUMFkrU2lJU1FhVm1XWHoweE1mRkdRUkIyRlFRQlY3SisrT3VXbG5hNzlqWHE5NlZTNlN1R1lmeGEwelI0aHdITDFHU05OdU5Kdm94UFFFdE1KcE5YRUVLZWI4ZEFkbnJzTlNpV2NMOEx1Rk13R0R3eEZvdDkyT0VVdVR1YnpTS1hmYlBlZGJ0dFltekdLUDRJSVZOUTVzUGg4SXNJSVM4UVJUSFdvYS8weS9QT2xGZ08xaWhLNmE4WEZoYnUxSFg5UGtwcFd5aHdqZkpNdlk1K3Z3WU83UmN0VjhqNUVBUkJzYlpCV0RzN1BjNWd2T243ZzlIdllxSE93b3NUaWNRWEpVbkNuVzdady93aXAzZ1J3M2RJQzlidUJnc1I1RGd1eEFSbWt1ZjVKOHV5dklmZjc5K1ZaVEx1Q2JPeFV5NEs2bkFZaHZGblRkUCtVYS9YLzJ3WXhtT0dZZnlkVXBwamQra0ZacEd4Q2tXM1RkRDNCaGt5WDRiYUhmd2VMT2ZETGlhd25UV0lyTkhpb0FQM0t5QVlCL1dtejJRNUZQai9WakN1UDh6TXpDQWxkMU1yaG4weUhCc1RWeTU4NVdTTzQzQXR3NTlQbHVVVmEyQ2FwcUJwR3E1SkVBTDhpeitraHVMUDdTblJGb1plZC9nK3A3SWh6ZTBFZThkd09Iekt4TVRFU1E1K2ozeTVYTDV1VU4yalBjdEJCQVRZV2M5UEpCTFhFVUxhOERsTFhBTVlWN2xjL21TdFZqdDdRMWc1Mm9OdXFpLzRSckphbG1Yb3c5ZmFsVlJqZm8vN3N0a3NVc01IUGoxV2ZQMzdtRER4K1h5bkpwUEpDeTN2dEJYSHY2bXEraVlVM3JFb2krTU4wZ2VUeDAzdE9RQm5JQ0J5TGRYUTBManRkc2lxcW5yR01FS2cramxCckp0Nzcwd204d1c3bWdzd082TGVRaTZYNjB4QXdnVEdBakxlOWF2bFFOVG44NTBRajhmUGNvalliZWk2L2d0QStnemk5N0FTMTQrQXJKaVlKRW52bnB5Yy9JekRIUkRnRGgvU05PM0cxWEprL1A2WUEyME9vQnB6SXBHNFJwYmxhVHV1d01xbnF1cHhsTktmRElOcnF4SVEyUC9qOGZpVmdVRGdyWGJFQUltUmxVejR1d094NHhObEdLdTRkZnA0YWpLWlBGdFJsRGZZaGZuQTUxR3RWcis0c0xBQUVJNjJMMmhWM0JsRVFPenlmNjluWmw5ckJsZXIyV3grRC9ySXFxZ2N2enptQU1jdFhxMWlzZGlaVnFTZE5uTjBYWDlvWm1ibVFCWkZNQlNlRFNJZzdZSGJncElJQkFLQUNGcmh5bWNoRUcyRjZZYWhVRHp1WkN0eVFFQVo1MVFxZFFNaEpPbHdXMUZMcGRJNXpXWVRHWkpEZTFZaklFdUNJa25TUHZGNC9BcEprbFlnMVFFVWdPVUJIOFZ4M0IrSFJ2bTRvNjNFZ1dlazAybnNyMWZZVFJvaC9aUlNKRU1kN1ZScmNGQm1EVU5BTUxZaXkvTHI0L0g0NVFpenNCS0RiQzRHOVlnU2JtTUg0cUNydFRYZjIybGlZdUtqd1dEd0hVNVhLNFlHZWJpbWFYY05tMFhERUpDbHE1YmY3ejgxa1VoOHhPRUluSzlXcS84eFB6OS95ckFuTWU1djAzR2d2YWVpaXFJY0c0dkZFQ0NMNk9rVkQ2VVVWNnRQc09LaWJxTU1YRE5zR0FMU3FaTThiWEp5OG5KWmxnK3lVb0NDSlpxbW9Zd2I2cTJQOVJIWFM3UmxHNkw0elJ2aThmaW5yV1hKMnh4QmlIK2owZmhtcVZUNndMQ3ZWdTB4aGlVZ2JZbVhSVkZFQU5sbGhCQ0VHQzk3MnFtUGhVTGgvWlRTMnh5V2ZtejYzYkl5OGMrSk0vRHA2MFZSYkFjaXJzQzQwblg5L2x3dWQwUUh4dTdROTg2d0JRUXpSQUxMTWJGWURObUhLNDVGZ0YrekdpTlFxUDdXRDhMRWVOOXNlZzRzYm5BRy9uYUZLSW92Wmtsb2RsZXJiRDZmZjFldkFqaXI1ZGl3Qk1SS3h4VEExeXlBYzhzZ1dKalMvamFPNDJaV080bngrNXVLQTNzQ2gwMlc1ZGVLb3JnQy9BM3hWa2lyS0pWSzV6V2JUUlFXN1ZvQVo3V2NXU3NCUVE3NzB5T1J5QVUyQVdXTE5NTTBaNXJtbjdMWkxJcjBlSzBvNkdyNVBuN2ZoZ000T1lMQjRLaytuKzl3dXloZENBZjBqbHF0OXRWeXVYemFXdWtkbmFTdGxZQmdESmtsMDZPVVcyZU42cVVNT2NDWFVrcC9scy9uRDJOWExic2NodkZtMmhvYzJETWVqNStqS01xaFRtaVd6RjJBMmpUQVJXaFhCK3MwRXJrR2hIUEwwclVVRU5EZ2wyWDVzRmdzZG9Fa1NhaEhiVlhhQVRhd29Ha2F3bEZRZjMzb0UzVExpSEc3RGVYQTd0Rm85S04rdi8rdFRyNE9PSndOdzNoUVZkVmpOVTI3Wjcyb1hXc0J3VHpDaXFLOEl4YUxmZHd1VEFEbVgwcnBQS1gwdi9zUWtxRmJLOWFMNGVOeFZuQUFlTHFuaDhQaFk3dUJoVk5LdHhjS2hhTzZXRC9YaExYcklTQWdQT1h6K1k2UFJxTWZzYk5zc2FMdUZVM1RickVSa3JFd3JNblNqMFNudTB4TVRKekd2T1RJNGJkOWdKaWpxdXBwbXFaOTJaSnl2T1o3WTcwRUJCUFBoTVBoRDBjaWtaUHQ0SEFHUEVsR1lwWEhSTGptUU9lRzNpTVNpWndXQ0FTT2RGRElGenRsbnZLem04M205UnNScHJTZUFnTG1QQWtRTFlGQUFQcUdIVmpCNG5YTE1JemI4L244a1F5MHdEWDN4dzA5dzRFOUVMYnU4L25lME9OYWhUQ1NDNXJOSnFvSGxEZGlkdXNwSUpnZmhHVFhlRHgrUmhjaE1RekRxSm1tK1dBMm13VlUvZGhQc2hFN1k0M0dSRG1OYURSNkxpSGs1VTRLT1RzNVNwVks1Vk8xV2cybG11ZldpSnllM2E2bmdIU2FjRHVGQkVSYTZZQzlHMzZTUjFSVlBVclR0SHQ3em1UY1lPUTVRQWg1U1RLWnZFZ1FoR2ZiQWIyMUo0QnkxSlZLNWRPMVd1MnpneUlpRG9zWjZ5a2duVFF2bmlTQlFPQW9ITFZPNEdtd2U1dW0rZGpzN095cHVxNS9iMWlUSHZlejdoeEFqQjRTbmk0VUJHRzNidVVqT21xMW84YjU3THBUYWhsd293U2tmZDE2a3MvbmV3ZUs4emd4RGJGYnVxNGpDdmpxVnF0MXlVWXpiRHgrM3h4b1d6QlBFVVZ4Z2dGODJBSjJ3NVJiS3BXdWFEYWJYeHlWc240YktTQnRUdThXQ29VK0VBNkhqM05TMkppVDZQSDUrZmx2VmF0VlZHUUY0dUQ0R1gwTzdCNE1CazhJQm9OSE9LR1F0S2VBcEtkS3BmTFpScVB4WDI1TE5LL0g5RWRCUUhEZG1nb0VBaWNndUpFUUVyZWJPUE9WbEEzRHVLZFVLcUV1WWh1VWJqMzROQjZqUHc0Z3pPakFhRFQ2UG9RYldSekUxdE1ER0xyL21KdWJ1N3paYk1MUHNTb2t4UDdJN04xNkZBU2tUV1ZLVVpTam85SG9pWklrN2V4VU9vQ0Z5OStucXVyVjQ4U3IzZ3U4RGkyc3pqcXNJeUluanVWNS9rbmRmQndzdHVyQllySDRHVTNUVU1Ldm5ZNjk1ZzVBdDN3WkpRRUJ6V0ZKa3Q2WVNDUk9aTldDYk9lQks1ZXU2MDlvbXZiTFlyRjRKc2R4ajQ5Ukc5MHUrZHExZ3drWDVURVVSVGxFa3FRZHVvMkVxRnlrUEtpcWVwV3U2ejhlMVpJWm95WWc0R2xBRk1XWHhlUHhFeFJGZWJYVFNRSklJZVl2K1gwK24vK01ydXVvM29wbkhQQzRkakpnMXpPKzlnbEZVWTZLeCtOSG02YUo4ZzVJbEhQY1cvQ090MXF0NzFVcWxlc29wWGVPOHBxTm9vQXNsZ29BbEZBd0dIeVAzKzkvUzQ5akdsR2VxSjF4UDVKbzFnTFpZbjMzbTZkRzh4TkNYamd4TVhHa0pFa0g5em8xa00vUmFyV2VXRmhZdUs1V3E5M01jZHlEb3o3YlVSVVFuQUlRbEoxOFBoOThKVWQzNUNhdjRDbE9FK1M3RzRieFVMbGMvbjY5WHI5aUZHem9vNzc0cTZSdjcxQW9kSHdvRkhvVmpDeUVrQW1IL2hhVmN1VCttS2I1QjFWVi8xUFR0Rzl3SEtkMnRCOFpuY002aDFFVUVDdU5ZVm1XWHhPTlJvOWxhQ2xkYVlhamllTzRoMWlWVndCbmo2OWNxNU1FNitaRmhkOGpZckhZNFJ6SDdVMElpZlRxbmwycHZsK3BWTDVNS2YzRnFPb2JkdlB3Z29DQWJwZ045L1g1ZkVlR1FxRTMySUhUV1NjSGxHL1ROQjlWVmZWeVhkZS92d3I5WkdTL2JyMDJwb3ZmKzVsYlFwS2sxOFZpc1NNRVFYaW1JQWh4SjBDRjlyak00dmpJM056Y2pZRG42VUFmY1VIYWFEVHhpb0NBVzR2S29DUkpRSEI4cXlSSkwyRXM3RFlISlBnL2Foakd3OFZpOFhMQVUzYWNLSjJibzUrTk1ob3J0MzVVcEdSWmZ1WEV4TVNiQkVIWWp4Q1M2aFpIMVNZTHdBcXRWdXNuNVhMNUc4eEs1VW5ucnBjRXBNMTdCVG51UHAvdnpjRmc4SFYyeFVTdGU0ZnBKNC9xdXY0UFZWVS9wK3Y2ZDEwZTgwNkNzeFZ5NTZlZ2VFY2lrY05FVVh5V0lBaHBCNVNSWmV4bThYTi9ucHVidTZsZXJ5TitidVFWOFc3ZkdpOEtTT2RwOHFwb05IcVlKRW12c2xRYnNvMzFZZDc0eHppT2UwSlYxZXMwVGZ2QldKbGZ0ajBnK0xzb2l2SzZTQ1J5Q00velR4VUVJZVZHTUJnY1Q3NWVyMzluWVdIaCs3cXVBeGpROHpqTVhoV1E5cXFpY3V4VGZEN2Y2eWNtSmc2U1pmbkYzZXp2blZzQk9nclA4elBsY3ZrMlN1azNOVTM3M1NaUjZBZTVMb1lJSWM5Q2RsOGdFTmdmVmltbVk2QWliOCtIVW9vUW9OK1V5K1ZiVUErR09XNjd2VGNJalQzcFdJc0dYaEFRTjh6MHcyOUNDRGxzWW1MaUVFTElQazRoOURiSy9CelA4MDhZaHFHV3krV3ZOWnZOVzJFRjJ5VENZcmRuMnZ4VUpFbmFtK2Y1VjBZaWtSZUpvdmhranVPbW5VQ2liVHFDZnJkZ0dNYTlsVXJsVmwzWGY4amk0eWhyNjJiZDFtSlBEN1ZQTHdoSVB4TW1TTXJ4K1h5SGhVS2hWeEpDOW5SNW9yU3JvMjduT0M1bkdNYmo1WEw1bDZacDN0cHF0UjZ3NkN0ZVduZ3JyZmlRUEVVVXhZUEQ0ZkR6UkZIY0hWZ0JnaUJFTElxMzdSVzF2UkM2cmk5bWZNN056ZUVxOVNOTjArN3ZFbUhkUzQvclozM1h2ZTFtRTVBMkF5T2lLTDdFNy9lL1BCUUs0VVJ4RWhUYmpjRE1rMGp6bkRWTnN6dy9QLytMVnF0MU82WDBUNnk4MTlCaDl0ZGc1YkV4OGJlaktJclA4UGw4THc0R2cxQzJkK1E0TGkwSVFwZ0pSVmRoNktTckxSaVZTdVZIclZiclZrb3A4S25jb21KNjZjT3lOTzNOSkNCMkN4QkdYRmN3R0R3NEdBeStVQlRGZlZ5ZUtKMzdBbGNKQ0FzOHYyVk4wLzVlclZidjFqVHRBVjNYNzJQMzdWRVJHT2hrT3dKWm53VU83azhJMlluanVCaE01QWpac2F0STNFTTRNWDhBYWZ4K1lXSGg1NjFXNjFkTU1EWUVSR0VOUGlSZHU5eE1BdEp0b2hGQ3lINnlMTDhzSEE2L1FCQ0UvVzBBQTF4OVNXSEdOQXlqd3I2YzhOclg2L1g2Zy9WNi9XRmQxLzhzQ01Kam1xYmwyTzkxVnR4K21ONThmQWdranVNbVlPSTJER01uUXNndXNpdy94ZS8zSTUwMXp2UDhoR21hVVhaMWNxVm9PK2dZQmNNdzdweWJtN3ZETk0xZmFacUdFOVNUL294QkJXdXpDVWl2WTF5UUpPazVnaUM4SkJnTTdpZEowZ0VzOThUS1B5ZGhzZjN2Q04wMlRSTW1UVnczOEcrRDR6Z0VVUzdvdXA1ck5CcmJLYVV3QkVDd0VJV01Fc1VMUE04M2VKNkhrVUJiZG1TWnBteWFac2cwVFZ3Vi9hWnArckR4RVVIZzgvbDJJSVJrZUo0SDBGb0k4SzZJZ09aNUhsY21Iek5PT0sxcno0OEF1MFk5MG1nMGZsdXRWbitqYVJxaWJZR0RPNVN5eW9OdTFJMTZiN01KQ1BqWVMwamF2SDY2b2lnSFRVeE1IQWdMRHMvemU3aTA5N3RlSythZ0JEb0xoQVpmWG13eWcrZDVhcG9tWVB2eEwzNWZ1cUx4UEk4MXdSeGtudWNWbnVjbDB6UnhkWUlnaENBWTBCMjY1WGE3SnBBMVpDbk5PQTMvV3EvWEg2alZhbmRvbXZaekYrYmFmb2Z5WFB2TktDRDlDQW5hNHN2OFBKL1BkNGpmNzMreUtJcTc4RHkvYThmWGVDMFh0ZWNYZlJXRDIvWGQrZDhXZFF1TzR4NXV0VnAvclZhcmR4bUc4VXROMCtENTlyeURieFY4Vy9icVpoV1E5aVRkbmlidDlsT2lLQ0tNNVVDLzM3ODdVM0JoQlVyeFBDOE93UFJoQ01BdytnRHB3QnFEL3BUbGVmNXhUZE5tNi9YNi9VenBCdTdZU09XQ0Q4RHJOWGxsc3d2SWFwZzJTUWlCeitDWmZyLy9XVURsRUFRQkphNHpvaWhDRVI1RVlGWkRUNy92SXVVUzViZFZPRUlwcFRPTlJ1T3haclA1QjQ3amZxZHAycU45SUJiMis2SHBsOWFSYlQ4V0VQYzZ5Mjd3cHdpQ3NFOG9GTnBiRk1Xa0tJcVR1S0xCakNxS1l0U3Q5NzdQM2VEbUJJRXdvUFlqVEsrcVlSaDV3ekNLalVZREo4VmZkRjMvUGFVVTBRRXdWWStLU2JwUE5teE04N0dBOU1mMzlwY1Vwd2V5NkhZV0JPRkpnaURzRWdnRTlvQjVGZGhlK0ZjUUJGaWhrR1dIUHlqY0VzRHhMRUxrWnZNdlhvK1lBRURKaCtrWUZyQUYwelFydXE3akQvVlZpczFtODFGSzZjT0NJUHdkc1dZTThMa2QrdEhmVE1ldEZ6a3dGcERoYmdSazF3R1pKV1dhNWlUUDg1T2lLTzRJWVlIbldwWmwvSzRJZ3NERE1zVUVCaFlxckFPRUR2L3FzSERoZXNUei9PTFhudFdZTHlOYkVsY20welJuY0VMd1BEK3JhVnFlb1JCdVNUUHNjSmR2Wlc5akFWbHJEaS92SDBJQWdWZzA0ekxUTFp4K2VQRC84ZC9oRTRFZkJXWmhDQWpXQ0NaaE9CdmJ1ZnJEZER5dUx3YzhOdHBZUUR5MllHTnkxNWNEWXdIcHpXK3ZXWEJBTDU3eEtkTjdiWHUyR0F0SVR4YTVhakJxUWpScTlMaGk0aWcyR2d2SXhxektzRGZ3K05SWW8zVWNDOGdhTWRhbTIyRUx4ZnBSdm9WSCtuODhFdzl6MUFLV0F3QUFBQUJKUlU1RXJrSmdnZz09IiBoZWlnaHQ9IjIwMCIgd2lkdGg9IjIwMCIgaWQ9ImltYWdlMF8yMjAxXzEyMDkiLz4mI3hhOzwvZGVmcz4mI3hhOzwvc3ZnPg==;" vertex="1" parent="6SOhbdRmg-bUomSC-oUc-87">
          <mxGeometry x="82.14422360248447" y="100" width="155.71428571428572" height="45.714285714285715" as="geometry" />
        </mxCell>
        <mxCell id="6SOhbdRmg-bUomSC-oUc-90" value="&lt;font color=&quot;#e63838&quot;&gt;&lt;span style=&quot;font-size: 28px;&quot;&gt;STAKING&lt;/span&gt;&lt;/font&gt;" style="text;html=1;align=center;verticalAlign=middle;resizable=0;points=[];autosize=1;strokeColor=none;fillColor=none;" vertex="1" parent="6SOhbdRmg-bUomSC-oUc-87">
          <mxGeometry x="90.00304347826088" y="20" width="140" height="50" as="geometry" />
        </mxCell>
        <mxCell id="6SOhbdRmg-bUomSC-oUc-94" value="" style="edgeStyle=orthogonalEdgeStyle;rounded=0;orthogonalLoop=1;jettySize=auto;html=1;" edge="1" parent="1" source="6SOhbdRmg-bUomSC-oUc-88" target="6SOhbdRmg-bUomSC-oUc-81">
          <mxGeometry relative="1" as="geometry" />
        </mxCell>
        <mxCell id="6SOhbdRmg-bUomSC-oUc-95" value="" style="group;fillColor=none;" vertex="1" connectable="0" parent="1">
          <mxGeometry x="2645" y="1228.5" width="230" height="76" as="geometry" />
        </mxCell>
        <mxCell id="6SOhbdRmg-bUomSC-oUc-96" value="&lt;span style=&quot;color: rgb(230, 56, 56);&quot;&gt;&lt;b&gt;&lt;font style=&quot;font-size: 14px;&quot;&gt;LIGHT CLIENT RUNNER&lt;/font&gt;&lt;/b&gt;&lt;/span&gt;" style="rounded=1;whiteSpace=wrap;html=1;fillColor=#FFFFFF;strokeColor=light-dark(#e74040, #ededed);labelBorderColor=none;fontColor=#FFFFFF;shadow=1;" vertex="1" parent="6SOhbdRmg-bUomSC-oUc-95">
          <mxGeometry width="229.99999999999997" height="76" as="geometry" />
        </mxCell>
        <mxCell id="6SOhbdRmg-bUomSC-oUc-104" value="" style="edgeStyle=orthogonalEdgeStyle;rounded=0;orthogonalLoop=1;jettySize=auto;html=1;" edge="1" parent="1" source="6SOhbdRmg-bUomSC-oUc-97" target="6SOhbdRmg-bUomSC-oUc-102">
          <mxGeometry relative="1" as="geometry" />
        </mxCell>
        <mxCell id="6SOhbdRmg-bUomSC-oUc-97" value="&lt;span style=&quot;font-size: 14px;&quot;&gt;&lt;b&gt;Task Execution&lt;/b&gt;&lt;/span&gt;" style="rounded=1;whiteSpace=wrap;html=1;gradientColor=none;fillColor=light-dark(#e63838, #ededed);fontColor=#FFFFFF;shadow=1;strokeColor=none;" vertex="1" parent="1">
          <mxGeometry x="3055" y="1610" width="200" height="53" as="geometry" />
        </mxCell>
        <mxCell id="6SOhbdRmg-bUomSC-oUc-101" style="edgeStyle=orthogonalEdgeStyle;rounded=0;orthogonalLoop=1;jettySize=auto;html=1;entryX=0.5;entryY=0;entryDx=0;entryDy=0;" edge="1" parent="1" source="6SOhbdRmg-bUomSC-oUc-96" target="6SOhbdRmg-bUomSC-oUc-88">
          <mxGeometry relative="1" as="geometry" />
        </mxCell>
        <mxCell id="6SOhbdRmg-bUomSC-oUc-107" style="edgeStyle=orthogonalEdgeStyle;rounded=0;orthogonalLoop=1;jettySize=auto;html=1;entryX=1;entryY=0.5;entryDx=0;entryDy=0;" edge="1" parent="1" source="6SOhbdRmg-bUomSC-oUc-102" target="6SOhbdRmg-bUomSC-oUc-105">
          <mxGeometry relative="1" as="geometry" />
        </mxCell>
        <mxCell id="6SOhbdRmg-bUomSC-oUc-102" value="&lt;span style=&quot;font-size: 14px;&quot;&gt;&lt;b&gt;Proof Submission&lt;/b&gt;&lt;/span&gt;" style="rounded=1;whiteSpace=wrap;html=1;gradientColor=none;fillColor=light-dark(#e63838, #ededed);fontColor=#FFFFFF;shadow=1;strokeColor=none;" vertex="1" parent="1">
          <mxGeometry x="3055" y="1740" width="200" height="53" as="geometry" />
        </mxCell>
        <mxCell id="6SOhbdRmg-bUomSC-oUc-103" value="" style="edgeStyle=orthogonalEdgeStyle;rounded=0;orthogonalLoop=1;jettySize=auto;html=1;" edge="1" parent="1" source="6SOhbdRmg-bUomSC-oUc-81" target="6SOhbdRmg-bUomSC-oUc-97">
          <mxGeometry relative="1" as="geometry" />
        </mxCell>
        <mxCell id="6SOhbdRmg-bUomSC-oUc-108" style="edgeStyle=orthogonalEdgeStyle;rounded=0;orthogonalLoop=1;jettySize=auto;html=1;entryX=0.5;entryY=1;entryDx=0;entryDy=0;" edge="1" parent="1" source="6SOhbdRmg-bUomSC-oUc-105" target="6SOhbdRmg-bUomSC-oUc-88">
          <mxGeometry relative="1" as="geometry" />
        </mxCell>
        <mxCell id="6SOhbdRmg-bUomSC-oUc-105" value="&lt;span style=&quot;font-size: 14px;&quot;&gt;&lt;b&gt;Rewards&lt;/b&gt;&lt;/span&gt;" style="rounded=1;whiteSpace=wrap;html=1;gradientColor=none;fillColor=light-dark(#e63838, #ededed);fontColor=#FFFFFF;shadow=1;strokeColor=none;" vertex="1" parent="1">
          <mxGeometry x="2660" y="1740" width="200" height="53" as="geometry" />
        </mxCell>
      </root>
    </mxGraphModel>
  </diagram>
</mxfile>
